G04 #@! TF.GenerationSoftware,KiCad,Pcbnew,(5.1.2-1)-1*
G04 #@! TF.CreationDate,2019-07-25T11:00:41+03:00*
G04 #@! TF.ProjectId,220_to_5v_charger,3232305f-746f-45f3-9576-5f6368617267,rev?*
G04 #@! TF.SameCoordinates,Original*
G04 #@! TF.FileFunction,Soldermask,Bot*
G04 #@! TF.FilePolarity,Negative*
%FSLAX46Y46*%
G04 Gerber Fmt 4.6, Leading zero omitted, Abs format (unit mm)*
G04 Created by KiCad (PCBNEW (5.1.2-1)-1) date 2019-07-25 11:00:41*
%MOMM*%
%LPD*%
G04 APERTURE LIST*
%ADD10C,0.100000*%
G04 APERTURE END LIST*
D10*
G36*
X119556564Y-114239389D02*
G01*
X119734277Y-114313000D01*
X119747835Y-114318616D01*
X119919973Y-114433635D01*
X120066365Y-114580027D01*
X120181385Y-114752167D01*
X120260611Y-114943436D01*
X120301000Y-115146484D01*
X120301000Y-115353516D01*
X120260611Y-115556564D01*
X120226593Y-115638690D01*
X120181384Y-115747835D01*
X120066365Y-115919973D01*
X119919973Y-116066365D01*
X119747835Y-116181384D01*
X119747834Y-116181385D01*
X119747833Y-116181385D01*
X119556564Y-116260611D01*
X119353516Y-116301000D01*
X119146484Y-116301000D01*
X118943436Y-116260611D01*
X118752167Y-116181385D01*
X118752166Y-116181385D01*
X118752165Y-116181384D01*
X118580027Y-116066365D01*
X118433635Y-115919973D01*
X118318616Y-115747835D01*
X118273407Y-115638690D01*
X118239389Y-115556564D01*
X118199000Y-115353516D01*
X118199000Y-115146484D01*
X118239389Y-114943436D01*
X118318615Y-114752167D01*
X118433635Y-114580027D01*
X118580027Y-114433635D01*
X118752165Y-114318616D01*
X118765723Y-114313000D01*
X118943436Y-114239389D01*
X119146484Y-114199000D01*
X119353516Y-114199000D01*
X119556564Y-114239389D01*
X119556564Y-114239389D01*
G37*
G36*
X99477395Y-113985546D02*
G01*
X99650466Y-114057234D01*
X99650467Y-114057235D01*
X99806227Y-114161310D01*
X99938690Y-114293773D01*
X99938691Y-114293775D01*
X100042766Y-114449534D01*
X100114454Y-114622605D01*
X100151000Y-114806333D01*
X100151000Y-114993667D01*
X100114454Y-115177395D01*
X100042766Y-115350466D01*
X100042765Y-115350467D01*
X99938690Y-115506227D01*
X99806227Y-115638690D01*
X99727818Y-115691081D01*
X99650466Y-115742766D01*
X99477395Y-115814454D01*
X99293667Y-115851000D01*
X99106333Y-115851000D01*
X98922605Y-115814454D01*
X98749534Y-115742766D01*
X98672182Y-115691081D01*
X98593773Y-115638690D01*
X98461310Y-115506227D01*
X98357235Y-115350467D01*
X98357234Y-115350466D01*
X98285546Y-115177395D01*
X98249000Y-114993667D01*
X98249000Y-114806333D01*
X98285546Y-114622605D01*
X98357234Y-114449534D01*
X98461309Y-114293775D01*
X98461310Y-114293773D01*
X98593773Y-114161310D01*
X98749533Y-114057235D01*
X98749534Y-114057234D01*
X98922605Y-113985546D01*
X99106333Y-113949000D01*
X99293667Y-113949000D01*
X99477395Y-113985546D01*
X99477395Y-113985546D01*
G37*
G36*
X81507142Y-112718242D02*
G01*
X81655101Y-112779529D01*
X81788255Y-112868499D01*
X81901501Y-112981745D01*
X81990471Y-113114899D01*
X82051758Y-113262858D01*
X82083000Y-113419925D01*
X82083000Y-113580075D01*
X82051758Y-113737142D01*
X81990471Y-113885101D01*
X81901501Y-114018255D01*
X81788255Y-114131501D01*
X81655101Y-114220471D01*
X81507142Y-114281758D01*
X81350075Y-114313000D01*
X81189925Y-114313000D01*
X81032858Y-114281758D01*
X80884899Y-114220471D01*
X80751745Y-114131501D01*
X80638499Y-114018255D01*
X80549529Y-113885101D01*
X80488242Y-113737142D01*
X80457000Y-113580075D01*
X80457000Y-113419925D01*
X80488242Y-113262858D01*
X80549529Y-113114899D01*
X80638499Y-112981745D01*
X80751745Y-112868499D01*
X80884899Y-112779529D01*
X81032858Y-112718242D01*
X81189925Y-112687000D01*
X81350075Y-112687000D01*
X81507142Y-112718242D01*
X81507142Y-112718242D01*
G37*
G36*
X79543000Y-114313000D02*
G01*
X77917000Y-114313000D01*
X77917000Y-112687000D01*
X79543000Y-112687000D01*
X79543000Y-114313000D01*
X79543000Y-114313000D01*
G37*
G36*
X91977395Y-111085546D02*
G01*
X92150466Y-111157234D01*
X92150467Y-111157235D01*
X92306227Y-111261310D01*
X92438690Y-111393773D01*
X92438691Y-111393775D01*
X92542766Y-111549534D01*
X92614454Y-111722605D01*
X92651000Y-111906333D01*
X92651000Y-112093667D01*
X92614454Y-112277395D01*
X92542766Y-112450466D01*
X92542765Y-112450467D01*
X92438690Y-112606227D01*
X92306227Y-112738690D01*
X92245107Y-112779529D01*
X92150466Y-112842766D01*
X91977395Y-112914454D01*
X91793667Y-112951000D01*
X91606333Y-112951000D01*
X91422605Y-112914454D01*
X91249534Y-112842766D01*
X91154893Y-112779529D01*
X91093773Y-112738690D01*
X90961310Y-112606227D01*
X90857235Y-112450467D01*
X90857234Y-112450466D01*
X90785546Y-112277395D01*
X90749000Y-112093667D01*
X90749000Y-111906333D01*
X90785546Y-111722605D01*
X90857234Y-111549534D01*
X90961309Y-111393775D01*
X90961310Y-111393773D01*
X91093773Y-111261310D01*
X91249533Y-111157235D01*
X91249534Y-111157234D01*
X91422605Y-111085546D01*
X91606333Y-111049000D01*
X91793667Y-111049000D01*
X91977395Y-111085546D01*
X91977395Y-111085546D01*
G37*
G36*
X81902585Y-105878802D02*
G01*
X82052410Y-105908604D01*
X82334674Y-106025521D01*
X82588705Y-106195259D01*
X82804741Y-106411295D01*
X82974479Y-106665326D01*
X83091396Y-106947590D01*
X83151000Y-107247240D01*
X83151000Y-107552760D01*
X83091396Y-107852410D01*
X82974479Y-108134674D01*
X82804741Y-108388705D01*
X82588705Y-108604741D01*
X82334674Y-108774479D01*
X82052410Y-108891396D01*
X81902585Y-108921198D01*
X81752761Y-108951000D01*
X81447239Y-108951000D01*
X81297415Y-108921198D01*
X81147590Y-108891396D01*
X80865326Y-108774479D01*
X80611295Y-108604741D01*
X80395259Y-108388705D01*
X80225521Y-108134674D01*
X80108604Y-107852410D01*
X80049000Y-107552760D01*
X80049000Y-107247240D01*
X80108604Y-106947590D01*
X80225521Y-106665326D01*
X80395259Y-106411295D01*
X80611295Y-106195259D01*
X80865326Y-106025521D01*
X81147590Y-105908604D01*
X81297415Y-105878802D01*
X81447239Y-105849000D01*
X81752761Y-105849000D01*
X81902585Y-105878802D01*
X81902585Y-105878802D01*
G37*
G36*
X115863651Y-103272888D02*
G01*
X116174870Y-103367296D01*
X116461680Y-103520599D01*
X116461683Y-103520601D01*
X116461684Y-103520602D01*
X116713082Y-103726918D01*
X116919398Y-103978316D01*
X116919401Y-103978320D01*
X117072704Y-104265130D01*
X117167112Y-104576349D01*
X117198988Y-104900000D01*
X117167112Y-105223651D01*
X117072704Y-105534870D01*
X116919401Y-105821680D01*
X116919399Y-105821683D01*
X116919398Y-105821684D01*
X116713082Y-106073082D01*
X116461684Y-106279398D01*
X116461680Y-106279401D01*
X116174870Y-106432704D01*
X115863651Y-106527112D01*
X115621107Y-106551000D01*
X115458893Y-106551000D01*
X115216349Y-106527112D01*
X114905130Y-106432704D01*
X114618320Y-106279401D01*
X114618316Y-106279398D01*
X114366918Y-106073082D01*
X114160602Y-105821684D01*
X114160601Y-105821683D01*
X114160599Y-105821680D01*
X114007296Y-105534870D01*
X113912888Y-105223651D01*
X113881012Y-104900000D01*
X113912888Y-104576349D01*
X114007296Y-104265130D01*
X114160599Y-103978320D01*
X114160602Y-103978316D01*
X114366918Y-103726918D01*
X114618316Y-103520602D01*
X114618317Y-103520601D01*
X114618320Y-103520599D01*
X114905130Y-103367296D01*
X115216349Y-103272888D01*
X115458893Y-103249000D01*
X115621107Y-103249000D01*
X115863651Y-103272888D01*
X115863651Y-103272888D01*
G37*
G36*
X101951000Y-106551000D02*
G01*
X98649000Y-106551000D01*
X98649000Y-103249000D01*
X101951000Y-103249000D01*
X101951000Y-106551000D01*
X101951000Y-106551000D01*
G37*
G36*
X99687142Y-96318242D02*
G01*
X99835101Y-96379529D01*
X99968255Y-96468499D01*
X100081501Y-96581745D01*
X100170471Y-96714899D01*
X100231758Y-96862858D01*
X100263000Y-97019925D01*
X100263000Y-97180075D01*
X100231758Y-97337142D01*
X100170471Y-97485101D01*
X100081501Y-97618255D01*
X99968255Y-97731501D01*
X99835101Y-97820471D01*
X99687142Y-97881758D01*
X99530075Y-97913000D01*
X99369925Y-97913000D01*
X99212858Y-97881758D01*
X99064899Y-97820471D01*
X98931745Y-97731501D01*
X98818499Y-97618255D01*
X98729529Y-97485101D01*
X98668242Y-97337142D01*
X98637000Y-97180075D01*
X98637000Y-97019925D01*
X98668242Y-96862858D01*
X98729529Y-96714899D01*
X98818499Y-96581745D01*
X98931745Y-96468499D01*
X99064899Y-96379529D01*
X99212858Y-96318242D01*
X99369925Y-96287000D01*
X99530075Y-96287000D01*
X99687142Y-96318242D01*
X99687142Y-96318242D01*
G37*
G36*
X89687142Y-96218242D02*
G01*
X89835101Y-96279529D01*
X89968255Y-96368499D01*
X90081501Y-96481745D01*
X90170471Y-96614899D01*
X90231758Y-96762858D01*
X90263000Y-96919925D01*
X90263000Y-97080075D01*
X90231758Y-97237142D01*
X90170471Y-97385101D01*
X90081501Y-97518255D01*
X89968255Y-97631501D01*
X89835101Y-97720471D01*
X89687142Y-97781758D01*
X89530075Y-97813000D01*
X89369925Y-97813000D01*
X89212858Y-97781758D01*
X89064899Y-97720471D01*
X88931745Y-97631501D01*
X88818499Y-97518255D01*
X88729529Y-97385101D01*
X88668242Y-97237142D01*
X88637000Y-97080075D01*
X88637000Y-96919925D01*
X88668242Y-96762858D01*
X88729529Y-96614899D01*
X88818499Y-96481745D01*
X88931745Y-96368499D01*
X89064899Y-96279529D01*
X89212858Y-96218242D01*
X89369925Y-96187000D01*
X89530075Y-96187000D01*
X89687142Y-96218242D01*
X89687142Y-96218242D01*
G37*
G36*
X81918433Y-94784893D02*
G01*
X82008657Y-94802839D01*
X82114267Y-94846585D01*
X82263621Y-94908449D01*
X82263622Y-94908450D01*
X82493086Y-95061772D01*
X82688228Y-95256914D01*
X82790675Y-95410237D01*
X82841551Y-95486379D01*
X82903415Y-95635733D01*
X82947161Y-95741343D01*
X83001000Y-96012014D01*
X83001000Y-96287986D01*
X82947161Y-96558657D01*
X82923864Y-96614900D01*
X82841551Y-96813621D01*
X82808652Y-96862858D01*
X82688228Y-97043086D01*
X82493086Y-97238228D01*
X82345050Y-97337142D01*
X82263621Y-97391551D01*
X82114267Y-97453415D01*
X82008657Y-97497161D01*
X81918433Y-97515107D01*
X81737988Y-97551000D01*
X81462012Y-97551000D01*
X81281567Y-97515107D01*
X81191343Y-97497161D01*
X81085733Y-97453415D01*
X80936379Y-97391551D01*
X80854950Y-97337142D01*
X80706914Y-97238228D01*
X80511772Y-97043086D01*
X80391348Y-96862858D01*
X80358449Y-96813621D01*
X80276136Y-96614900D01*
X80252839Y-96558657D01*
X80199000Y-96287986D01*
X80199000Y-96012014D01*
X80252839Y-95741343D01*
X80296585Y-95635733D01*
X80358449Y-95486379D01*
X80409325Y-95410237D01*
X80511772Y-95256914D01*
X80706914Y-95061772D01*
X80936378Y-94908450D01*
X80936379Y-94908449D01*
X81085733Y-94846585D01*
X81191343Y-94802839D01*
X81281567Y-94784893D01*
X81462012Y-94749000D01*
X81737988Y-94749000D01*
X81918433Y-94784893D01*
X81918433Y-94784893D01*
G37*
G36*
X99687142Y-92318242D02*
G01*
X99835101Y-92379529D01*
X99968255Y-92468499D01*
X100081501Y-92581745D01*
X100170471Y-92714899D01*
X100231758Y-92862858D01*
X100263000Y-93019925D01*
X100263000Y-93180075D01*
X100231758Y-93337142D01*
X100170471Y-93485101D01*
X100081501Y-93618255D01*
X99968255Y-93731501D01*
X99835101Y-93820471D01*
X99687142Y-93881758D01*
X99530075Y-93913000D01*
X99369925Y-93913000D01*
X99212858Y-93881758D01*
X99064899Y-93820471D01*
X98931745Y-93731501D01*
X98818499Y-93618255D01*
X98729529Y-93485101D01*
X98668242Y-93337142D01*
X98637000Y-93180075D01*
X98637000Y-93019925D01*
X98668242Y-92862858D01*
X98729529Y-92714899D01*
X98818499Y-92581745D01*
X98931745Y-92468499D01*
X99064899Y-92379529D01*
X99212858Y-92318242D01*
X99369925Y-92287000D01*
X99530075Y-92287000D01*
X99687142Y-92318242D01*
X99687142Y-92318242D01*
G37*
G36*
X89687142Y-92218242D02*
G01*
X89835101Y-92279529D01*
X89968255Y-92368499D01*
X90081501Y-92481745D01*
X90170471Y-92614899D01*
X90231758Y-92762858D01*
X90263000Y-92919925D01*
X90263000Y-93080075D01*
X90231758Y-93237142D01*
X90170471Y-93385101D01*
X90081501Y-93518255D01*
X89968255Y-93631501D01*
X89835101Y-93720471D01*
X89687142Y-93781758D01*
X89530075Y-93813000D01*
X89369925Y-93813000D01*
X89212858Y-93781758D01*
X89064899Y-93720471D01*
X88931745Y-93631501D01*
X88818499Y-93518255D01*
X88729529Y-93385101D01*
X88668242Y-93237142D01*
X88637000Y-93080075D01*
X88637000Y-92919925D01*
X88668242Y-92762858D01*
X88729529Y-92614899D01*
X88818499Y-92481745D01*
X88931745Y-92368499D01*
X89064899Y-92279529D01*
X89212858Y-92218242D01*
X89369925Y-92187000D01*
X89530075Y-92187000D01*
X89687142Y-92218242D01*
X89687142Y-92218242D01*
G37*
G36*
X99687142Y-88318242D02*
G01*
X99835101Y-88379529D01*
X99968255Y-88468499D01*
X100081501Y-88581745D01*
X100170471Y-88714899D01*
X100231758Y-88862858D01*
X100263000Y-89019925D01*
X100263000Y-89180075D01*
X100231758Y-89337142D01*
X100170471Y-89485101D01*
X100081501Y-89618255D01*
X99968255Y-89731501D01*
X99835101Y-89820471D01*
X99687142Y-89881758D01*
X99530075Y-89913000D01*
X99369925Y-89913000D01*
X99212858Y-89881758D01*
X99064899Y-89820471D01*
X98931745Y-89731501D01*
X98818499Y-89618255D01*
X98729529Y-89485101D01*
X98668242Y-89337142D01*
X98637000Y-89180075D01*
X98637000Y-89019925D01*
X98668242Y-88862858D01*
X98729529Y-88714899D01*
X98818499Y-88581745D01*
X98931745Y-88468499D01*
X99064899Y-88379529D01*
X99212858Y-88318242D01*
X99369925Y-88287000D01*
X99530075Y-88287000D01*
X99687142Y-88318242D01*
X99687142Y-88318242D01*
G37*
G36*
X89687142Y-88218242D02*
G01*
X89835101Y-88279529D01*
X89968255Y-88368499D01*
X90081501Y-88481745D01*
X90170471Y-88614899D01*
X90231758Y-88762858D01*
X90263000Y-88919925D01*
X90263000Y-89080075D01*
X90231758Y-89237142D01*
X90170471Y-89385101D01*
X90081501Y-89518255D01*
X89968255Y-89631501D01*
X89835101Y-89720471D01*
X89687142Y-89781758D01*
X89530075Y-89813000D01*
X89369925Y-89813000D01*
X89212858Y-89781758D01*
X89064899Y-89720471D01*
X88931745Y-89631501D01*
X88818499Y-89518255D01*
X88729529Y-89385101D01*
X88668242Y-89237142D01*
X88637000Y-89080075D01*
X88637000Y-88919925D01*
X88668242Y-88762858D01*
X88729529Y-88614899D01*
X88818499Y-88481745D01*
X88931745Y-88368499D01*
X89064899Y-88279529D01*
X89212858Y-88218242D01*
X89369925Y-88187000D01*
X89530075Y-88187000D01*
X89687142Y-88218242D01*
X89687142Y-88218242D01*
G37*
G36*
X121102585Y-84128802D02*
G01*
X121252410Y-84158604D01*
X121534674Y-84275521D01*
X121788705Y-84445259D01*
X122004741Y-84661295D01*
X122174479Y-84915326D01*
X122291396Y-85197590D01*
X122319155Y-85337142D01*
X122348586Y-85485101D01*
X122351000Y-85497240D01*
X122351000Y-85802760D01*
X122291396Y-86102410D01*
X122174479Y-86384674D01*
X122004741Y-86638705D01*
X121788705Y-86854741D01*
X121534674Y-87024479D01*
X121252410Y-87141396D01*
X121102585Y-87171198D01*
X120952761Y-87201000D01*
X120647239Y-87201000D01*
X120497415Y-87171198D01*
X120347590Y-87141396D01*
X120065326Y-87024479D01*
X119811295Y-86854741D01*
X119595259Y-86638705D01*
X119425521Y-86384674D01*
X119308604Y-86102410D01*
X119249000Y-85802760D01*
X119249000Y-85497240D01*
X119251415Y-85485101D01*
X119280845Y-85337142D01*
X119308604Y-85197590D01*
X119425521Y-84915326D01*
X119595259Y-84661295D01*
X119811295Y-84445259D01*
X120065326Y-84275521D01*
X120347590Y-84158604D01*
X120497415Y-84128802D01*
X120647239Y-84099000D01*
X120952761Y-84099000D01*
X121102585Y-84128802D01*
X121102585Y-84128802D01*
G37*
G36*
X81902585Y-83378802D02*
G01*
X82052410Y-83408604D01*
X82334674Y-83525521D01*
X82588705Y-83695259D01*
X82804741Y-83911295D01*
X82974479Y-84165326D01*
X83091396Y-84447590D01*
X83151000Y-84747240D01*
X83151000Y-85052760D01*
X83091396Y-85352410D01*
X82974479Y-85634674D01*
X82804741Y-85888705D01*
X82588705Y-86104741D01*
X82334674Y-86274479D01*
X82052410Y-86391396D01*
X81902585Y-86421198D01*
X81752761Y-86451000D01*
X81447239Y-86451000D01*
X81297415Y-86421198D01*
X81147590Y-86391396D01*
X80865326Y-86274479D01*
X80611295Y-86104741D01*
X80395259Y-85888705D01*
X80225521Y-85634674D01*
X80108604Y-85352410D01*
X80049000Y-85052760D01*
X80049000Y-84747240D01*
X80108604Y-84447590D01*
X80225521Y-84165326D01*
X80395259Y-83911295D01*
X80611295Y-83695259D01*
X80865326Y-83525521D01*
X81147590Y-83408604D01*
X81297415Y-83378802D01*
X81447239Y-83349000D01*
X81752761Y-83349000D01*
X81902585Y-83378802D01*
X81902585Y-83378802D01*
G37*
G36*
X99687142Y-84318242D02*
G01*
X99835101Y-84379529D01*
X99968255Y-84468499D01*
X100081501Y-84581745D01*
X100170471Y-84714899D01*
X100231758Y-84862858D01*
X100263000Y-85019925D01*
X100263000Y-85180075D01*
X100231758Y-85337142D01*
X100170471Y-85485101D01*
X100081501Y-85618255D01*
X99968255Y-85731501D01*
X99835101Y-85820471D01*
X99687142Y-85881758D01*
X99530075Y-85913000D01*
X99369925Y-85913000D01*
X99212858Y-85881758D01*
X99064899Y-85820471D01*
X98931745Y-85731501D01*
X98818499Y-85618255D01*
X98729529Y-85485101D01*
X98668242Y-85337142D01*
X98637000Y-85180075D01*
X98637000Y-85019925D01*
X98668242Y-84862858D01*
X98729529Y-84714899D01*
X98818499Y-84581745D01*
X98931745Y-84468499D01*
X99064899Y-84379529D01*
X99212858Y-84318242D01*
X99369925Y-84287000D01*
X99530075Y-84287000D01*
X99687142Y-84318242D01*
X99687142Y-84318242D01*
G37*
G36*
X89687142Y-84218242D02*
G01*
X89835101Y-84279529D01*
X89968255Y-84368499D01*
X90081501Y-84481745D01*
X90170471Y-84614899D01*
X90231758Y-84762858D01*
X90263000Y-84919925D01*
X90263000Y-85080075D01*
X90231758Y-85237142D01*
X90170471Y-85385101D01*
X90081501Y-85518255D01*
X89968255Y-85631501D01*
X89835101Y-85720471D01*
X89687142Y-85781758D01*
X89530075Y-85813000D01*
X89369925Y-85813000D01*
X89212858Y-85781758D01*
X89064899Y-85720471D01*
X88931745Y-85631501D01*
X88818499Y-85518255D01*
X88729529Y-85385101D01*
X88668242Y-85237142D01*
X88637000Y-85080075D01*
X88637000Y-84919925D01*
X88668242Y-84762858D01*
X88729529Y-84614899D01*
X88818499Y-84481745D01*
X88931745Y-84368499D01*
X89064899Y-84279529D01*
X89212858Y-84218242D01*
X89369925Y-84187000D01*
X89530075Y-84187000D01*
X89687142Y-84218242D01*
X89687142Y-84218242D01*
G37*
G36*
X99687142Y-80318242D02*
G01*
X99835101Y-80379529D01*
X99968255Y-80468499D01*
X100081501Y-80581745D01*
X100170471Y-80714899D01*
X100231758Y-80862858D01*
X100263000Y-81019925D01*
X100263000Y-81180075D01*
X100231758Y-81337142D01*
X100170471Y-81485101D01*
X100081501Y-81618255D01*
X99968255Y-81731501D01*
X99835101Y-81820471D01*
X99687142Y-81881758D01*
X99530075Y-81913000D01*
X99369925Y-81913000D01*
X99212858Y-81881758D01*
X99064899Y-81820471D01*
X98931745Y-81731501D01*
X98818499Y-81618255D01*
X98729529Y-81485101D01*
X98668242Y-81337142D01*
X98637000Y-81180075D01*
X98637000Y-81019925D01*
X98668242Y-80862858D01*
X98729529Y-80714899D01*
X98818499Y-80581745D01*
X98931745Y-80468499D01*
X99064899Y-80379529D01*
X99212858Y-80318242D01*
X99369925Y-80287000D01*
X99530075Y-80287000D01*
X99687142Y-80318242D01*
X99687142Y-80318242D01*
G37*
G36*
X89687142Y-80218242D02*
G01*
X89835101Y-80279529D01*
X89968255Y-80368499D01*
X90081501Y-80481745D01*
X90170471Y-80614899D01*
X90231758Y-80762858D01*
X90263000Y-80919925D01*
X90263000Y-81080075D01*
X90231758Y-81237142D01*
X90170471Y-81385101D01*
X90081501Y-81518255D01*
X89968255Y-81631501D01*
X89835101Y-81720471D01*
X89687142Y-81781758D01*
X89530075Y-81813000D01*
X89369925Y-81813000D01*
X89212858Y-81781758D01*
X89064899Y-81720471D01*
X88931745Y-81631501D01*
X88818499Y-81518255D01*
X88729529Y-81385101D01*
X88668242Y-81237142D01*
X88637000Y-81080075D01*
X88637000Y-80919925D01*
X88668242Y-80762858D01*
X88729529Y-80614899D01*
X88818499Y-80481745D01*
X88931745Y-80368499D01*
X89064899Y-80279529D01*
X89212858Y-80218242D01*
X89369925Y-80187000D01*
X89530075Y-80187000D01*
X89687142Y-80218242D01*
X89687142Y-80218242D01*
G37*
G36*
X121102585Y-71128802D02*
G01*
X121252410Y-71158604D01*
X121534674Y-71275521D01*
X121788705Y-71445259D01*
X122004741Y-71661295D01*
X122174479Y-71915326D01*
X122291396Y-72197590D01*
X122351000Y-72497240D01*
X122351000Y-72802760D01*
X122291396Y-73102410D01*
X122174479Y-73384674D01*
X122004741Y-73638705D01*
X121788705Y-73854741D01*
X121534674Y-74024479D01*
X121252410Y-74141396D01*
X121102585Y-74171198D01*
X120952761Y-74201000D01*
X120647239Y-74201000D01*
X120497415Y-74171198D01*
X120347590Y-74141396D01*
X120065326Y-74024479D01*
X119811295Y-73854741D01*
X119595259Y-73638705D01*
X119425521Y-73384674D01*
X119308604Y-73102410D01*
X119249000Y-72802760D01*
X119249000Y-72497240D01*
X119308604Y-72197590D01*
X119425521Y-71915326D01*
X119595259Y-71661295D01*
X119811295Y-71445259D01*
X120065326Y-71275521D01*
X120347590Y-71158604D01*
X120497415Y-71128802D01*
X120647239Y-71099000D01*
X120952761Y-71099000D01*
X121102585Y-71128802D01*
X121102585Y-71128802D01*
G37*
G36*
X80006565Y-71664390D02*
G01*
X80197834Y-71743616D01*
X80197836Y-71743617D01*
X80369974Y-71858636D01*
X80516366Y-72005028D01*
X80631386Y-72177168D01*
X80710612Y-72368437D01*
X80751001Y-72571485D01*
X80751001Y-72778517D01*
X80710612Y-72981565D01*
X80660557Y-73102409D01*
X80631385Y-73172836D01*
X80516366Y-73344974D01*
X80369974Y-73491366D01*
X80197836Y-73606385D01*
X80197835Y-73606386D01*
X80197834Y-73606386D01*
X80006565Y-73685612D01*
X79803517Y-73726001D01*
X79596485Y-73726001D01*
X79393437Y-73685612D01*
X79202168Y-73606386D01*
X79202167Y-73606386D01*
X79202166Y-73606385D01*
X79030028Y-73491366D01*
X78883636Y-73344974D01*
X78768617Y-73172836D01*
X78739445Y-73102409D01*
X78689390Y-72981565D01*
X78649001Y-72778517D01*
X78649001Y-72571485D01*
X78689390Y-72368437D01*
X78768616Y-72177168D01*
X78883636Y-72005028D01*
X79030028Y-71858636D01*
X79202166Y-71743617D01*
X79202168Y-71743616D01*
X79393437Y-71664390D01*
X79596485Y-71624001D01*
X79803517Y-71624001D01*
X80006565Y-71664390D01*
X80006565Y-71664390D01*
G37*
M02*
