G04 #@! TF.GenerationSoftware,KiCad,Pcbnew,(5.1.2-1)-1*
G04 #@! TF.CreationDate,2019-07-25T11:00:41+03:00*
G04 #@! TF.ProjectId,220_to_5v_charger,3232305f-746f-45f3-9576-5f6368617267,rev?*
G04 #@! TF.SameCoordinates,Original*
G04 #@! TF.FileFunction,Legend,Top*
G04 #@! TF.FilePolarity,Positive*
%FSLAX46Y46*%
G04 Gerber Fmt 4.6, Leading zero omitted, Abs format (unit mm)*
G04 Created by KiCad (PCBNEW (5.1.2-1)-1) date 2019-07-25 11:00:41*
%MOMM*%
%LPD*%
G04 APERTURE LIST*
%ADD10C,0.100000*%
%ADD11C,0.080000*%
%ADD12C,0.010000*%
%ADD13C,0.120000*%
%ADD14C,0.150000*%
G04 APERTURE END LIST*
D10*
X117192857Y-110492857D02*
X117135714Y-110521428D01*
X117021428Y-110521428D01*
X116964285Y-110492857D01*
X116935714Y-110464285D01*
X116907142Y-110407142D01*
X116907142Y-110235714D01*
X116935714Y-110178571D01*
X116964285Y-110150000D01*
X117021428Y-110121428D01*
X117135714Y-110121428D01*
X117192857Y-110150000D01*
X117535714Y-110521428D02*
X117478571Y-110492857D01*
X117450000Y-110464285D01*
X117421428Y-110407142D01*
X117421428Y-110235714D01*
X117450000Y-110178571D01*
X117478571Y-110150000D01*
X117535714Y-110121428D01*
X117621428Y-110121428D01*
X117678571Y-110150000D01*
X117707142Y-110178571D01*
X117735714Y-110235714D01*
X117735714Y-110407142D01*
X117707142Y-110464285D01*
X117678571Y-110492857D01*
X117621428Y-110521428D01*
X117535714Y-110521428D01*
X117992857Y-110121428D02*
X117992857Y-110721428D01*
X117992857Y-110150000D02*
X118050000Y-110121428D01*
X118164285Y-110121428D01*
X118221428Y-110150000D01*
X118250000Y-110178571D01*
X118278571Y-110235714D01*
X118278571Y-110407142D01*
X118250000Y-110464285D01*
X118221428Y-110492857D01*
X118164285Y-110521428D01*
X118050000Y-110521428D01*
X117992857Y-110492857D01*
X118478571Y-110121428D02*
X118621428Y-110521428D01*
X118764285Y-110121428D02*
X118621428Y-110521428D01*
X118564285Y-110664285D01*
X118535714Y-110692857D01*
X118478571Y-110721428D01*
X118992857Y-110521428D02*
X118992857Y-110121428D01*
X118992857Y-110235714D02*
X119021428Y-110178571D01*
X119050000Y-110150000D01*
X119107142Y-110121428D01*
X119164285Y-110121428D01*
X119364285Y-110521428D02*
X119364285Y-110121428D01*
X119364285Y-109921428D02*
X119335714Y-109950000D01*
X119364285Y-109978571D01*
X119392857Y-109950000D01*
X119364285Y-109921428D01*
X119364285Y-109978571D01*
X119907142Y-110121428D02*
X119907142Y-110607142D01*
X119878571Y-110664285D01*
X119850000Y-110692857D01*
X119792857Y-110721428D01*
X119707142Y-110721428D01*
X119650000Y-110692857D01*
X119907142Y-110492857D02*
X119850000Y-110521428D01*
X119735714Y-110521428D01*
X119678571Y-110492857D01*
X119650000Y-110464285D01*
X119621428Y-110407142D01*
X119621428Y-110235714D01*
X119650000Y-110178571D01*
X119678571Y-110150000D01*
X119735714Y-110121428D01*
X119850000Y-110121428D01*
X119907142Y-110150000D01*
X120192857Y-110521428D02*
X120192857Y-109921428D01*
X120450000Y-110521428D02*
X120450000Y-110207142D01*
X120421428Y-110150000D01*
X120364285Y-110121428D01*
X120278571Y-110121428D01*
X120221428Y-110150000D01*
X120192857Y-110178571D01*
X120650000Y-110121428D02*
X120878571Y-110121428D01*
X120735714Y-109921428D02*
X120735714Y-110435714D01*
X120764285Y-110492857D01*
X120821428Y-110521428D01*
X120878571Y-110521428D01*
X121564285Y-110064285D02*
X121507142Y-110035714D01*
X121392857Y-110035714D01*
X121335714Y-110064285D01*
X121278571Y-110121428D01*
X121250000Y-110178571D01*
X121250000Y-110292857D01*
X121278571Y-110350000D01*
X121335714Y-110407142D01*
X121392857Y-110435714D01*
X121507142Y-110435714D01*
X121564285Y-110407142D01*
X121450000Y-109835714D02*
X121307142Y-109864285D01*
X121164285Y-109950000D01*
X121078571Y-110092857D01*
X121050000Y-110235714D01*
X121078571Y-110378571D01*
X121164285Y-110521428D01*
X121307142Y-110607142D01*
X121450000Y-110635714D01*
X121592857Y-110607142D01*
X121735714Y-110521428D01*
X121821428Y-110378571D01*
X121850000Y-110235714D01*
X121821428Y-110092857D01*
X121735714Y-109950000D01*
X121592857Y-109864285D01*
X121450000Y-109835714D01*
X122535714Y-109978571D02*
X122564285Y-109950000D01*
X122621428Y-109921428D01*
X122764285Y-109921428D01*
X122821428Y-109950000D01*
X122850000Y-109978571D01*
X122878571Y-110035714D01*
X122878571Y-110092857D01*
X122850000Y-110178571D01*
X122507142Y-110521428D01*
X122878571Y-110521428D01*
X123250000Y-109921428D02*
X123307142Y-109921428D01*
X123364285Y-109950000D01*
X123392857Y-109978571D01*
X123421428Y-110035714D01*
X123450000Y-110150000D01*
X123450000Y-110292857D01*
X123421428Y-110407142D01*
X123392857Y-110464285D01*
X123364285Y-110492857D01*
X123307142Y-110521428D01*
X123250000Y-110521428D01*
X123192857Y-110492857D01*
X123164285Y-110464285D01*
X123135714Y-110407142D01*
X123107142Y-110292857D01*
X123107142Y-110150000D01*
X123135714Y-110035714D01*
X123164285Y-109978571D01*
X123192857Y-109950000D01*
X123250000Y-109921428D01*
X124021428Y-110521428D02*
X123678571Y-110521428D01*
X123850000Y-110521428D02*
X123850000Y-109921428D01*
X123792857Y-110007142D01*
X123735714Y-110064285D01*
X123678571Y-110092857D01*
X124307142Y-110521428D02*
X124421428Y-110521428D01*
X124478571Y-110492857D01*
X124507142Y-110464285D01*
X124564285Y-110378571D01*
X124592857Y-110264285D01*
X124592857Y-110035714D01*
X124564285Y-109978571D01*
X124535714Y-109950000D01*
X124478571Y-109921428D01*
X124364285Y-109921428D01*
X124307142Y-109950000D01*
X124278571Y-109978571D01*
X124250000Y-110035714D01*
X124250000Y-110178571D01*
X124278571Y-110235714D01*
X124307142Y-110264285D01*
X124364285Y-110292857D01*
X124478571Y-110292857D01*
X124535714Y-110264285D01*
X124564285Y-110235714D01*
X124592857Y-110178571D01*
X118950000Y-111464285D02*
X118921428Y-111492857D01*
X118835714Y-111521428D01*
X118778571Y-111521428D01*
X118692857Y-111492857D01*
X118635714Y-111435714D01*
X118607142Y-111378571D01*
X118578571Y-111264285D01*
X118578571Y-111178571D01*
X118607142Y-111064285D01*
X118635714Y-111007142D01*
X118692857Y-110950000D01*
X118778571Y-110921428D01*
X118835714Y-110921428D01*
X118921428Y-110950000D01*
X118950000Y-110978571D01*
X119207142Y-111207142D02*
X119407142Y-111207142D01*
X119492857Y-111521428D02*
X119207142Y-111521428D01*
X119207142Y-110921428D01*
X119492857Y-110921428D01*
X120092857Y-111521428D02*
X119892857Y-111235714D01*
X119750000Y-111521428D02*
X119750000Y-110921428D01*
X119978571Y-110921428D01*
X120035714Y-110950000D01*
X120064285Y-110978571D01*
X120092857Y-111035714D01*
X120092857Y-111121428D01*
X120064285Y-111178571D01*
X120035714Y-111207142D01*
X119978571Y-111235714D01*
X119750000Y-111235714D01*
X120350000Y-111521428D02*
X120350000Y-110921428D01*
X120692857Y-111521428D01*
X120692857Y-110921428D01*
X121550000Y-110921428D02*
X121664285Y-110921428D01*
X121721428Y-110950000D01*
X121778571Y-111007142D01*
X121807142Y-111121428D01*
X121807142Y-111321428D01*
X121778571Y-111435714D01*
X121721428Y-111492857D01*
X121664285Y-111521428D01*
X121550000Y-111521428D01*
X121492857Y-111492857D01*
X121435714Y-111435714D01*
X121407142Y-111321428D01*
X121407142Y-111121428D01*
X121435714Y-111007142D01*
X121492857Y-110950000D01*
X121550000Y-110921428D01*
X122064285Y-111521428D02*
X122064285Y-110921428D01*
X122064285Y-111207142D02*
X122407142Y-111207142D01*
X122407142Y-111521428D02*
X122407142Y-110921428D01*
X122978571Y-111521428D02*
X122692857Y-111521428D01*
X122692857Y-110921428D01*
D11*
X84607142Y-73976190D02*
X84607142Y-73476190D01*
X84821428Y-73976190D02*
X84821428Y-73714285D01*
X84797619Y-73666666D01*
X84750000Y-73642857D01*
X84678571Y-73642857D01*
X84630952Y-73666666D01*
X84607142Y-73690476D01*
X84988095Y-73642857D02*
X85178571Y-73642857D01*
X85059523Y-73476190D02*
X85059523Y-73904761D01*
X85083333Y-73952380D01*
X85130952Y-73976190D01*
X85178571Y-73976190D01*
X85273809Y-73642857D02*
X85464285Y-73642857D01*
X85345238Y-73476190D02*
X85345238Y-73904761D01*
X85369047Y-73952380D01*
X85416666Y-73976190D01*
X85464285Y-73976190D01*
X85630952Y-73642857D02*
X85630952Y-74142857D01*
X85630952Y-73666666D02*
X85678571Y-73642857D01*
X85773809Y-73642857D01*
X85821428Y-73666666D01*
X85845238Y-73690476D01*
X85869047Y-73738095D01*
X85869047Y-73880952D01*
X85845238Y-73928571D01*
X85821428Y-73952380D01*
X85773809Y-73976190D01*
X85678571Y-73976190D01*
X85630952Y-73952380D01*
X86059523Y-73952380D02*
X86107142Y-73976190D01*
X86202380Y-73976190D01*
X86250000Y-73952380D01*
X86273809Y-73904761D01*
X86273809Y-73880952D01*
X86250000Y-73833333D01*
X86202380Y-73809523D01*
X86130952Y-73809523D01*
X86083333Y-73785714D01*
X86059523Y-73738095D01*
X86059523Y-73714285D01*
X86083333Y-73666666D01*
X86130952Y-73642857D01*
X86202380Y-73642857D01*
X86250000Y-73666666D01*
X86488095Y-73928571D02*
X86511904Y-73952380D01*
X86488095Y-73976190D01*
X86464285Y-73952380D01*
X86488095Y-73928571D01*
X86488095Y-73976190D01*
X86488095Y-73666666D02*
X86511904Y-73690476D01*
X86488095Y-73714285D01*
X86464285Y-73690476D01*
X86488095Y-73666666D01*
X86488095Y-73714285D01*
X87083333Y-73452380D02*
X86654761Y-74095238D01*
X87607142Y-73452380D02*
X87178571Y-74095238D01*
X87988095Y-73642857D02*
X87988095Y-74047619D01*
X87964285Y-74095238D01*
X87940476Y-74119047D01*
X87892857Y-74142857D01*
X87821428Y-74142857D01*
X87773809Y-74119047D01*
X87988095Y-73952380D02*
X87940476Y-73976190D01*
X87845238Y-73976190D01*
X87797619Y-73952380D01*
X87773809Y-73928571D01*
X87750000Y-73880952D01*
X87750000Y-73738095D01*
X87773809Y-73690476D01*
X87797619Y-73666666D01*
X87845238Y-73642857D01*
X87940476Y-73642857D01*
X87988095Y-73666666D01*
X88226190Y-73976190D02*
X88226190Y-73642857D01*
X88226190Y-73476190D02*
X88202380Y-73500000D01*
X88226190Y-73523809D01*
X88250000Y-73500000D01*
X88226190Y-73476190D01*
X88226190Y-73523809D01*
X88392857Y-73642857D02*
X88583333Y-73642857D01*
X88464285Y-73476190D02*
X88464285Y-73904761D01*
X88488095Y-73952380D01*
X88535714Y-73976190D01*
X88583333Y-73976190D01*
X88750000Y-73976190D02*
X88750000Y-73476190D01*
X88964285Y-73976190D02*
X88964285Y-73714285D01*
X88940476Y-73666666D01*
X88892857Y-73642857D01*
X88821428Y-73642857D01*
X88773809Y-73666666D01*
X88750000Y-73690476D01*
X89416666Y-73642857D02*
X89416666Y-73976190D01*
X89202380Y-73642857D02*
X89202380Y-73904761D01*
X89226190Y-73952380D01*
X89273809Y-73976190D01*
X89345238Y-73976190D01*
X89392857Y-73952380D01*
X89416666Y-73928571D01*
X89654761Y-73976190D02*
X89654761Y-73476190D01*
X89654761Y-73666666D02*
X89702380Y-73642857D01*
X89797619Y-73642857D01*
X89845238Y-73666666D01*
X89869047Y-73690476D01*
X89892857Y-73738095D01*
X89892857Y-73880952D01*
X89869047Y-73928571D01*
X89845238Y-73952380D01*
X89797619Y-73976190D01*
X89702380Y-73976190D01*
X89654761Y-73952380D01*
X90107142Y-73928571D02*
X90130952Y-73952380D01*
X90107142Y-73976190D01*
X90083333Y-73952380D01*
X90107142Y-73928571D01*
X90107142Y-73976190D01*
X90559523Y-73952380D02*
X90511904Y-73976190D01*
X90416666Y-73976190D01*
X90369047Y-73952380D01*
X90345238Y-73928571D01*
X90321428Y-73880952D01*
X90321428Y-73738095D01*
X90345238Y-73690476D01*
X90369047Y-73666666D01*
X90416666Y-73642857D01*
X90511904Y-73642857D01*
X90559523Y-73666666D01*
X90845238Y-73976190D02*
X90797619Y-73952380D01*
X90773809Y-73928571D01*
X90750000Y-73880952D01*
X90750000Y-73738095D01*
X90773809Y-73690476D01*
X90797619Y-73666666D01*
X90845238Y-73642857D01*
X90916666Y-73642857D01*
X90964285Y-73666666D01*
X90988095Y-73690476D01*
X91011904Y-73738095D01*
X91011904Y-73880952D01*
X90988095Y-73928571D01*
X90964285Y-73952380D01*
X90916666Y-73976190D01*
X90845238Y-73976190D01*
X91226190Y-73976190D02*
X91226190Y-73642857D01*
X91226190Y-73690476D02*
X91250000Y-73666666D01*
X91297619Y-73642857D01*
X91369047Y-73642857D01*
X91416666Y-73666666D01*
X91440476Y-73714285D01*
X91440476Y-73976190D01*
X91440476Y-73714285D02*
X91464285Y-73666666D01*
X91511904Y-73642857D01*
X91583333Y-73642857D01*
X91630952Y-73666666D01*
X91654761Y-73714285D01*
X91654761Y-73976190D01*
X92250000Y-73452380D02*
X91821428Y-74095238D01*
X92392857Y-73952380D02*
X92440476Y-73976190D01*
X92535714Y-73976190D01*
X92583333Y-73952380D01*
X92607142Y-73904761D01*
X92607142Y-73880952D01*
X92583333Y-73833333D01*
X92535714Y-73809523D01*
X92464285Y-73809523D01*
X92416666Y-73785714D01*
X92392857Y-73738095D01*
X92392857Y-73714285D01*
X92416666Y-73666666D01*
X92464285Y-73642857D01*
X92535714Y-73642857D01*
X92583333Y-73666666D01*
X92821428Y-73976190D02*
X92821428Y-73476190D01*
X92869047Y-73785714D02*
X93011904Y-73976190D01*
X93011904Y-73642857D02*
X92821428Y-73833333D01*
X93226190Y-73642857D02*
X93226190Y-73976190D01*
X93226190Y-73690476D02*
X93250000Y-73666666D01*
X93297619Y-73642857D01*
X93369047Y-73642857D01*
X93416666Y-73666666D01*
X93440476Y-73714285D01*
X93440476Y-73976190D01*
X93892857Y-73976190D02*
X93892857Y-73476190D01*
X93892857Y-73952380D02*
X93845238Y-73976190D01*
X93750000Y-73976190D01*
X93702380Y-73952380D01*
X93678571Y-73928571D01*
X93654761Y-73880952D01*
X93654761Y-73738095D01*
X93678571Y-73690476D01*
X93702380Y-73666666D01*
X93750000Y-73642857D01*
X93845238Y-73642857D01*
X93892857Y-73666666D01*
X94345238Y-73642857D02*
X94345238Y-73976190D01*
X94130952Y-73642857D02*
X94130952Y-73904761D01*
X94154761Y-73952380D01*
X94202380Y-73976190D01*
X94273809Y-73976190D01*
X94321428Y-73952380D01*
X94345238Y-73928571D01*
X94583333Y-73642857D02*
X94583333Y-73976190D01*
X94583333Y-73690476D02*
X94607142Y-73666666D01*
X94654761Y-73642857D01*
X94726190Y-73642857D01*
X94773809Y-73666666D01*
X94797619Y-73714285D01*
X94797619Y-73976190D01*
X95250000Y-73642857D02*
X95250000Y-74047619D01*
X95226190Y-74095238D01*
X95202380Y-74119047D01*
X95154761Y-74142857D01*
X95083333Y-74142857D01*
X95035714Y-74119047D01*
X95250000Y-73952380D02*
X95202380Y-73976190D01*
X95107142Y-73976190D01*
X95059523Y-73952380D01*
X95035714Y-73928571D01*
X95011904Y-73880952D01*
X95011904Y-73738095D01*
X95035714Y-73690476D01*
X95059523Y-73666666D01*
X95107142Y-73642857D01*
X95202380Y-73642857D01*
X95250000Y-73666666D01*
X95702380Y-73642857D02*
X95702380Y-73976190D01*
X95488095Y-73642857D02*
X95488095Y-73904761D01*
X95511904Y-73952380D01*
X95559523Y-73976190D01*
X95630952Y-73976190D01*
X95678571Y-73952380D01*
X95702380Y-73928571D01*
X96297619Y-73452380D02*
X95869047Y-74095238D01*
X96440476Y-73523809D02*
X96464285Y-73500000D01*
X96511904Y-73476190D01*
X96630952Y-73476190D01*
X96678571Y-73500000D01*
X96702380Y-73523809D01*
X96726190Y-73571428D01*
X96726190Y-73619047D01*
X96702380Y-73690476D01*
X96416666Y-73976190D01*
X96726190Y-73976190D01*
X96916666Y-73523809D02*
X96940476Y-73500000D01*
X96988095Y-73476190D01*
X97107142Y-73476190D01*
X97154761Y-73500000D01*
X97178571Y-73523809D01*
X97202380Y-73571428D01*
X97202380Y-73619047D01*
X97178571Y-73690476D01*
X96892857Y-73976190D01*
X97202380Y-73976190D01*
X97511904Y-73476190D02*
X97559523Y-73476190D01*
X97607142Y-73500000D01*
X97630952Y-73523809D01*
X97654761Y-73571428D01*
X97678571Y-73666666D01*
X97678571Y-73785714D01*
X97654761Y-73880952D01*
X97630952Y-73928571D01*
X97607142Y-73952380D01*
X97559523Y-73976190D01*
X97511904Y-73976190D01*
X97464285Y-73952380D01*
X97440476Y-73928571D01*
X97416666Y-73880952D01*
X97392857Y-73785714D01*
X97392857Y-73666666D01*
X97416666Y-73571428D01*
X97440476Y-73523809D01*
X97464285Y-73500000D01*
X97511904Y-73476190D01*
X97892857Y-73785714D02*
X98273809Y-73785714D01*
X98773809Y-73976190D02*
X98488095Y-73976190D01*
X98630952Y-73976190D02*
X98630952Y-73476190D01*
X98583333Y-73547619D01*
X98535714Y-73595238D01*
X98488095Y-73619047D01*
X99250000Y-73976190D02*
X98964285Y-73976190D01*
X99107142Y-73976190D02*
X99107142Y-73476190D01*
X99059523Y-73547619D01*
X99011904Y-73595238D01*
X98964285Y-73619047D01*
X99559523Y-73476190D02*
X99607142Y-73476190D01*
X99654761Y-73500000D01*
X99678571Y-73523809D01*
X99702380Y-73571428D01*
X99726190Y-73666666D01*
X99726190Y-73785714D01*
X99702380Y-73880952D01*
X99678571Y-73928571D01*
X99654761Y-73952380D01*
X99607142Y-73976190D01*
X99559523Y-73976190D01*
X99511904Y-73952380D01*
X99488095Y-73928571D01*
X99464285Y-73880952D01*
X99440476Y-73785714D01*
X99440476Y-73666666D01*
X99464285Y-73571428D01*
X99488095Y-73523809D01*
X99511904Y-73500000D01*
X99559523Y-73476190D01*
X99869047Y-73476190D02*
X100035714Y-73976190D01*
X100202380Y-73476190D01*
X100345238Y-73833333D02*
X100583333Y-73833333D01*
X100297619Y-73976190D02*
X100464285Y-73476190D01*
X100630952Y-73976190D01*
X101083333Y-73928571D02*
X101059523Y-73952380D01*
X100988095Y-73976190D01*
X100940476Y-73976190D01*
X100869047Y-73952380D01*
X100821428Y-73904761D01*
X100797619Y-73857142D01*
X100773809Y-73761904D01*
X100773809Y-73690476D01*
X100797619Y-73595238D01*
X100821428Y-73547619D01*
X100869047Y-73500000D01*
X100940476Y-73476190D01*
X100988095Y-73476190D01*
X101059523Y-73500000D01*
X101083333Y-73523809D01*
X101297619Y-73785714D02*
X101678571Y-73785714D01*
X101845238Y-73642857D02*
X102035714Y-73642857D01*
X101916666Y-73476190D02*
X101916666Y-73904761D01*
X101940476Y-73952380D01*
X101988095Y-73976190D01*
X102035714Y-73976190D01*
X102273809Y-73976190D02*
X102226190Y-73952380D01*
X102202380Y-73928571D01*
X102178571Y-73880952D01*
X102178571Y-73738095D01*
X102202380Y-73690476D01*
X102226190Y-73666666D01*
X102273809Y-73642857D01*
X102345238Y-73642857D01*
X102392857Y-73666666D01*
X102416666Y-73690476D01*
X102440476Y-73738095D01*
X102440476Y-73880952D01*
X102416666Y-73928571D01*
X102392857Y-73952380D01*
X102345238Y-73976190D01*
X102273809Y-73976190D01*
X102654761Y-73785714D02*
X103035714Y-73785714D01*
X103511904Y-73476190D02*
X103273809Y-73476190D01*
X103250000Y-73714285D01*
X103273809Y-73690476D01*
X103321428Y-73666666D01*
X103440476Y-73666666D01*
X103488095Y-73690476D01*
X103511904Y-73714285D01*
X103535714Y-73761904D01*
X103535714Y-73880952D01*
X103511904Y-73928571D01*
X103488095Y-73952380D01*
X103440476Y-73976190D01*
X103321428Y-73976190D01*
X103273809Y-73952380D01*
X103250000Y-73928571D01*
X103678571Y-73476190D02*
X103845238Y-73976190D01*
X104011904Y-73476190D01*
X104178571Y-73785714D02*
X104559523Y-73785714D01*
X104750000Y-73476190D02*
X105059523Y-73476190D01*
X104892857Y-73666666D01*
X104964285Y-73666666D01*
X105011904Y-73690476D01*
X105035714Y-73714285D01*
X105059523Y-73761904D01*
X105059523Y-73880952D01*
X105035714Y-73928571D01*
X105011904Y-73952380D01*
X104964285Y-73976190D01*
X104821428Y-73976190D01*
X104773809Y-73952380D01*
X104750000Y-73928571D01*
X105250000Y-73833333D02*
X105488095Y-73833333D01*
X105202380Y-73976190D02*
X105369047Y-73476190D01*
X105535714Y-73976190D01*
X105702380Y-73785714D02*
X106083333Y-73785714D01*
X106297619Y-73833333D02*
X106535714Y-73833333D01*
X106250000Y-73976190D02*
X106416666Y-73476190D01*
X106583333Y-73976190D01*
X106964285Y-73976190D02*
X106964285Y-73476190D01*
X106964285Y-73952380D02*
X106916666Y-73976190D01*
X106821428Y-73976190D01*
X106773809Y-73952380D01*
X106750000Y-73928571D01*
X106726190Y-73880952D01*
X106726190Y-73738095D01*
X106750000Y-73690476D01*
X106773809Y-73666666D01*
X106821428Y-73642857D01*
X106916666Y-73642857D01*
X106964285Y-73666666D01*
X107416666Y-73976190D02*
X107416666Y-73714285D01*
X107392857Y-73666666D01*
X107345238Y-73642857D01*
X107250000Y-73642857D01*
X107202380Y-73666666D01*
X107416666Y-73952380D02*
X107369047Y-73976190D01*
X107250000Y-73976190D01*
X107202380Y-73952380D01*
X107178571Y-73904761D01*
X107178571Y-73857142D01*
X107202380Y-73809523D01*
X107250000Y-73785714D01*
X107369047Y-73785714D01*
X107416666Y-73761904D01*
X107654761Y-73642857D02*
X107654761Y-74142857D01*
X107654761Y-73666666D02*
X107702380Y-73642857D01*
X107797619Y-73642857D01*
X107845238Y-73666666D01*
X107869047Y-73690476D01*
X107892857Y-73738095D01*
X107892857Y-73880952D01*
X107869047Y-73928571D01*
X107845238Y-73952380D01*
X107797619Y-73976190D01*
X107702380Y-73976190D01*
X107654761Y-73952380D01*
X108035714Y-73642857D02*
X108226190Y-73642857D01*
X108107142Y-73476190D02*
X108107142Y-73904761D01*
X108130952Y-73952380D01*
X108178571Y-73976190D01*
X108226190Y-73976190D01*
X108583333Y-73952380D02*
X108535714Y-73976190D01*
X108440476Y-73976190D01*
X108392857Y-73952380D01*
X108369047Y-73904761D01*
X108369047Y-73714285D01*
X108392857Y-73666666D01*
X108440476Y-73642857D01*
X108535714Y-73642857D01*
X108583333Y-73666666D01*
X108607142Y-73714285D01*
X108607142Y-73761904D01*
X108369047Y-73809523D01*
X108821428Y-73976190D02*
X108821428Y-73642857D01*
X108821428Y-73738095D02*
X108845238Y-73690476D01*
X108869047Y-73666666D01*
X108916666Y-73642857D01*
X108964285Y-73642857D01*
D10*
X96557142Y-108228571D02*
X96585714Y-108200000D01*
X96642857Y-108171428D01*
X96785714Y-108171428D01*
X96842857Y-108200000D01*
X96871428Y-108228571D01*
X96900000Y-108285714D01*
X96900000Y-108342857D01*
X96871428Y-108428571D01*
X96528571Y-108771428D01*
X96900000Y-108771428D01*
X97128571Y-108228571D02*
X97157142Y-108200000D01*
X97214285Y-108171428D01*
X97357142Y-108171428D01*
X97414285Y-108200000D01*
X97442857Y-108228571D01*
X97471428Y-108285714D01*
X97471428Y-108342857D01*
X97442857Y-108428571D01*
X97100000Y-108771428D01*
X97471428Y-108771428D01*
X97842857Y-108171428D02*
X97900000Y-108171428D01*
X97957142Y-108200000D01*
X97985714Y-108228571D01*
X98014285Y-108285714D01*
X98042857Y-108400000D01*
X98042857Y-108542857D01*
X98014285Y-108657142D01*
X97985714Y-108714285D01*
X97957142Y-108742857D01*
X97900000Y-108771428D01*
X97842857Y-108771428D01*
X97785714Y-108742857D01*
X97757142Y-108714285D01*
X97728571Y-108657142D01*
X97700000Y-108542857D01*
X97700000Y-108400000D01*
X97728571Y-108285714D01*
X97757142Y-108228571D01*
X97785714Y-108200000D01*
X97842857Y-108171428D01*
X98728571Y-108142857D02*
X98214285Y-108914285D01*
X99242857Y-108771428D02*
X98900000Y-108771428D01*
X99071428Y-108771428D02*
X99071428Y-108171428D01*
X99014285Y-108257142D01*
X98957142Y-108314285D01*
X98900000Y-108342857D01*
X99814285Y-108771428D02*
X99471428Y-108771428D01*
X99642857Y-108771428D02*
X99642857Y-108171428D01*
X99585714Y-108257142D01*
X99528571Y-108314285D01*
X99471428Y-108342857D01*
X100185714Y-108171428D02*
X100242857Y-108171428D01*
X100300000Y-108200000D01*
X100328571Y-108228571D01*
X100357142Y-108285714D01*
X100385714Y-108400000D01*
X100385714Y-108542857D01*
X100357142Y-108657142D01*
X100328571Y-108714285D01*
X100300000Y-108742857D01*
X100242857Y-108771428D01*
X100185714Y-108771428D01*
X100128571Y-108742857D01*
X100100000Y-108714285D01*
X100071428Y-108657142D01*
X100042857Y-108542857D01*
X100042857Y-108400000D01*
X100071428Y-108285714D01*
X100100000Y-108228571D01*
X100128571Y-108200000D01*
X100185714Y-108171428D01*
X100557142Y-108171428D02*
X100757142Y-108771428D01*
X100957142Y-108171428D01*
X101128571Y-108600000D02*
X101414285Y-108600000D01*
X101071428Y-108771428D02*
X101271428Y-108171428D01*
X101471428Y-108771428D01*
X102014285Y-108714285D02*
X101985714Y-108742857D01*
X101900000Y-108771428D01*
X101842857Y-108771428D01*
X101757142Y-108742857D01*
X101700000Y-108685714D01*
X101671428Y-108628571D01*
X101642857Y-108514285D01*
X101642857Y-108428571D01*
X101671428Y-108314285D01*
X101700000Y-108257142D01*
X101757142Y-108200000D01*
X101842857Y-108171428D01*
X101900000Y-108171428D01*
X101985714Y-108200000D01*
X102014285Y-108228571D01*
X102642857Y-108371428D02*
X102871428Y-108371428D01*
X102728571Y-108171428D02*
X102728571Y-108685714D01*
X102757142Y-108742857D01*
X102814285Y-108771428D01*
X102871428Y-108771428D01*
X103157142Y-108771428D02*
X103100000Y-108742857D01*
X103071428Y-108714285D01*
X103042857Y-108657142D01*
X103042857Y-108485714D01*
X103071428Y-108428571D01*
X103100000Y-108400000D01*
X103157142Y-108371428D01*
X103242857Y-108371428D01*
X103300000Y-108400000D01*
X103328571Y-108428571D01*
X103357142Y-108485714D01*
X103357142Y-108657142D01*
X103328571Y-108714285D01*
X103300000Y-108742857D01*
X103242857Y-108771428D01*
X103157142Y-108771428D01*
X104357142Y-108171428D02*
X104071428Y-108171428D01*
X104042857Y-108457142D01*
X104071428Y-108428571D01*
X104128571Y-108400000D01*
X104271428Y-108400000D01*
X104328571Y-108428571D01*
X104357142Y-108457142D01*
X104385714Y-108514285D01*
X104385714Y-108657142D01*
X104357142Y-108714285D01*
X104328571Y-108742857D01*
X104271428Y-108771428D01*
X104128571Y-108771428D01*
X104071428Y-108742857D01*
X104042857Y-108714285D01*
X104557142Y-108171428D02*
X104757142Y-108771428D01*
X104957142Y-108171428D01*
X105557142Y-108171428D02*
X105928571Y-108171428D01*
X105728571Y-108400000D01*
X105814285Y-108400000D01*
X105871428Y-108428571D01*
X105900000Y-108457142D01*
X105928571Y-108514285D01*
X105928571Y-108657142D01*
X105900000Y-108714285D01*
X105871428Y-108742857D01*
X105814285Y-108771428D01*
X105642857Y-108771428D01*
X105585714Y-108742857D01*
X105557142Y-108714285D01*
X106157142Y-108600000D02*
X106442857Y-108600000D01*
X106100000Y-108771428D02*
X106300000Y-108171428D01*
X106500000Y-108771428D01*
X99928571Y-109600000D02*
X100214285Y-109600000D01*
X99871428Y-109771428D02*
X100071428Y-109171428D01*
X100271428Y-109771428D01*
X100728571Y-109771428D02*
X100728571Y-109171428D01*
X100728571Y-109742857D02*
X100671428Y-109771428D01*
X100557142Y-109771428D01*
X100500000Y-109742857D01*
X100471428Y-109714285D01*
X100442857Y-109657142D01*
X100442857Y-109485714D01*
X100471428Y-109428571D01*
X100500000Y-109400000D01*
X100557142Y-109371428D01*
X100671428Y-109371428D01*
X100728571Y-109400000D01*
X101271428Y-109771428D02*
X101271428Y-109457142D01*
X101242857Y-109400000D01*
X101185714Y-109371428D01*
X101071428Y-109371428D01*
X101014285Y-109400000D01*
X101271428Y-109742857D02*
X101214285Y-109771428D01*
X101071428Y-109771428D01*
X101014285Y-109742857D01*
X100985714Y-109685714D01*
X100985714Y-109628571D01*
X101014285Y-109571428D01*
X101071428Y-109542857D01*
X101214285Y-109542857D01*
X101271428Y-109514285D01*
X101557142Y-109371428D02*
X101557142Y-109971428D01*
X101557142Y-109400000D02*
X101614285Y-109371428D01*
X101728571Y-109371428D01*
X101785714Y-109400000D01*
X101814285Y-109428571D01*
X101842857Y-109485714D01*
X101842857Y-109657142D01*
X101814285Y-109714285D01*
X101785714Y-109742857D01*
X101728571Y-109771428D01*
X101614285Y-109771428D01*
X101557142Y-109742857D01*
X102014285Y-109371428D02*
X102242857Y-109371428D01*
X102100000Y-109171428D02*
X102100000Y-109685714D01*
X102128571Y-109742857D01*
X102185714Y-109771428D01*
X102242857Y-109771428D01*
X102671428Y-109742857D02*
X102614285Y-109771428D01*
X102500000Y-109771428D01*
X102442857Y-109742857D01*
X102414285Y-109685714D01*
X102414285Y-109457142D01*
X102442857Y-109400000D01*
X102500000Y-109371428D01*
X102614285Y-109371428D01*
X102671428Y-109400000D01*
X102700000Y-109457142D01*
X102700000Y-109514285D01*
X102414285Y-109571428D01*
X102957142Y-109771428D02*
X102957142Y-109371428D01*
X102957142Y-109485714D02*
X102985714Y-109428571D01*
X103014285Y-109400000D01*
X103071428Y-109371428D01*
X103128571Y-109371428D01*
X101307142Y-70978571D02*
X101335714Y-70950000D01*
X101392857Y-70921428D01*
X101535714Y-70921428D01*
X101592857Y-70950000D01*
X101621428Y-70978571D01*
X101650000Y-71035714D01*
X101650000Y-71092857D01*
X101621428Y-71178571D01*
X101278571Y-71521428D01*
X101650000Y-71521428D01*
X101878571Y-70978571D02*
X101907142Y-70950000D01*
X101964285Y-70921428D01*
X102107142Y-70921428D01*
X102164285Y-70950000D01*
X102192857Y-70978571D01*
X102221428Y-71035714D01*
X102221428Y-71092857D01*
X102192857Y-71178571D01*
X101850000Y-71521428D01*
X102221428Y-71521428D01*
X102592857Y-70921428D02*
X102650000Y-70921428D01*
X102707142Y-70950000D01*
X102735714Y-70978571D01*
X102764285Y-71035714D01*
X102792857Y-71150000D01*
X102792857Y-71292857D01*
X102764285Y-71407142D01*
X102735714Y-71464285D01*
X102707142Y-71492857D01*
X102650000Y-71521428D01*
X102592857Y-71521428D01*
X102535714Y-71492857D01*
X102507142Y-71464285D01*
X102478571Y-71407142D01*
X102450000Y-71292857D01*
X102450000Y-71150000D01*
X102478571Y-71035714D01*
X102507142Y-70978571D01*
X102535714Y-70950000D01*
X102592857Y-70921428D01*
X103478571Y-70892857D02*
X102964285Y-71664285D01*
X103992857Y-71521428D02*
X103650000Y-71521428D01*
X103821428Y-71521428D02*
X103821428Y-70921428D01*
X103764285Y-71007142D01*
X103707142Y-71064285D01*
X103650000Y-71092857D01*
X104564285Y-71521428D02*
X104221428Y-71521428D01*
X104392857Y-71521428D02*
X104392857Y-70921428D01*
X104335714Y-71007142D01*
X104278571Y-71064285D01*
X104221428Y-71092857D01*
X104935714Y-70921428D02*
X104992857Y-70921428D01*
X105050000Y-70950000D01*
X105078571Y-70978571D01*
X105107142Y-71035714D01*
X105135714Y-71150000D01*
X105135714Y-71292857D01*
X105107142Y-71407142D01*
X105078571Y-71464285D01*
X105050000Y-71492857D01*
X104992857Y-71521428D01*
X104935714Y-71521428D01*
X104878571Y-71492857D01*
X104850000Y-71464285D01*
X104821428Y-71407142D01*
X104792857Y-71292857D01*
X104792857Y-71150000D01*
X104821428Y-71035714D01*
X104850000Y-70978571D01*
X104878571Y-70950000D01*
X104935714Y-70921428D01*
X105307142Y-70921428D02*
X105507142Y-71521428D01*
X105707142Y-70921428D01*
X105878571Y-71350000D02*
X106164285Y-71350000D01*
X105821428Y-71521428D02*
X106021428Y-70921428D01*
X106221428Y-71521428D01*
X106764285Y-71464285D02*
X106735714Y-71492857D01*
X106650000Y-71521428D01*
X106592857Y-71521428D01*
X106507142Y-71492857D01*
X106450000Y-71435714D01*
X106421428Y-71378571D01*
X106392857Y-71264285D01*
X106392857Y-71178571D01*
X106421428Y-71064285D01*
X106450000Y-71007142D01*
X106507142Y-70950000D01*
X106592857Y-70921428D01*
X106650000Y-70921428D01*
X106735714Y-70950000D01*
X106764285Y-70978571D01*
X107392857Y-71121428D02*
X107621428Y-71121428D01*
X107478571Y-70921428D02*
X107478571Y-71435714D01*
X107507142Y-71492857D01*
X107564285Y-71521428D01*
X107621428Y-71521428D01*
X107907142Y-71521428D02*
X107850000Y-71492857D01*
X107821428Y-71464285D01*
X107792857Y-71407142D01*
X107792857Y-71235714D01*
X107821428Y-71178571D01*
X107850000Y-71150000D01*
X107907142Y-71121428D01*
X107992857Y-71121428D01*
X108050000Y-71150000D01*
X108078571Y-71178571D01*
X108107142Y-71235714D01*
X108107142Y-71407142D01*
X108078571Y-71464285D01*
X108050000Y-71492857D01*
X107992857Y-71521428D01*
X107907142Y-71521428D01*
X109107142Y-70921428D02*
X108821428Y-70921428D01*
X108792857Y-71207142D01*
X108821428Y-71178571D01*
X108878571Y-71150000D01*
X109021428Y-71150000D01*
X109078571Y-71178571D01*
X109107142Y-71207142D01*
X109135714Y-71264285D01*
X109135714Y-71407142D01*
X109107142Y-71464285D01*
X109078571Y-71492857D01*
X109021428Y-71521428D01*
X108878571Y-71521428D01*
X108821428Y-71492857D01*
X108792857Y-71464285D01*
X109307142Y-70921428D02*
X109507142Y-71521428D01*
X109707142Y-70921428D01*
X110307142Y-70921428D02*
X110678571Y-70921428D01*
X110478571Y-71150000D01*
X110564285Y-71150000D01*
X110621428Y-71178571D01*
X110650000Y-71207142D01*
X110678571Y-71264285D01*
X110678571Y-71407142D01*
X110650000Y-71464285D01*
X110621428Y-71492857D01*
X110564285Y-71521428D01*
X110392857Y-71521428D01*
X110335714Y-71492857D01*
X110307142Y-71464285D01*
X110907142Y-71350000D02*
X111192857Y-71350000D01*
X110850000Y-71521428D02*
X111050000Y-70921428D01*
X111250000Y-71521428D01*
X104678571Y-72350000D02*
X104964285Y-72350000D01*
X104621428Y-72521428D02*
X104821428Y-71921428D01*
X105021428Y-72521428D01*
X105478571Y-72521428D02*
X105478571Y-71921428D01*
X105478571Y-72492857D02*
X105421428Y-72521428D01*
X105307142Y-72521428D01*
X105250000Y-72492857D01*
X105221428Y-72464285D01*
X105192857Y-72407142D01*
X105192857Y-72235714D01*
X105221428Y-72178571D01*
X105250000Y-72150000D01*
X105307142Y-72121428D01*
X105421428Y-72121428D01*
X105478571Y-72150000D01*
X106021428Y-72521428D02*
X106021428Y-72207142D01*
X105992857Y-72150000D01*
X105935714Y-72121428D01*
X105821428Y-72121428D01*
X105764285Y-72150000D01*
X106021428Y-72492857D02*
X105964285Y-72521428D01*
X105821428Y-72521428D01*
X105764285Y-72492857D01*
X105735714Y-72435714D01*
X105735714Y-72378571D01*
X105764285Y-72321428D01*
X105821428Y-72292857D01*
X105964285Y-72292857D01*
X106021428Y-72264285D01*
X106307142Y-72121428D02*
X106307142Y-72721428D01*
X106307142Y-72150000D02*
X106364285Y-72121428D01*
X106478571Y-72121428D01*
X106535714Y-72150000D01*
X106564285Y-72178571D01*
X106592857Y-72235714D01*
X106592857Y-72407142D01*
X106564285Y-72464285D01*
X106535714Y-72492857D01*
X106478571Y-72521428D01*
X106364285Y-72521428D01*
X106307142Y-72492857D01*
X106764285Y-72121428D02*
X106992857Y-72121428D01*
X106850000Y-71921428D02*
X106850000Y-72435714D01*
X106878571Y-72492857D01*
X106935714Y-72521428D01*
X106992857Y-72521428D01*
X107421428Y-72492857D02*
X107364285Y-72521428D01*
X107250000Y-72521428D01*
X107192857Y-72492857D01*
X107164285Y-72435714D01*
X107164285Y-72207142D01*
X107192857Y-72150000D01*
X107250000Y-72121428D01*
X107364285Y-72121428D01*
X107421428Y-72150000D01*
X107450000Y-72207142D01*
X107450000Y-72264285D01*
X107164285Y-72321428D01*
X107707142Y-72521428D02*
X107707142Y-72121428D01*
X107707142Y-72235714D02*
X107735714Y-72178571D01*
X107764285Y-72150000D01*
X107821428Y-72121428D01*
X107878571Y-72121428D01*
X85942857Y-71492857D02*
X85885714Y-71521428D01*
X85771428Y-71521428D01*
X85714285Y-71492857D01*
X85685714Y-71464285D01*
X85657142Y-71407142D01*
X85657142Y-71235714D01*
X85685714Y-71178571D01*
X85714285Y-71150000D01*
X85771428Y-71121428D01*
X85885714Y-71121428D01*
X85942857Y-71150000D01*
X86285714Y-71521428D02*
X86228571Y-71492857D01*
X86200000Y-71464285D01*
X86171428Y-71407142D01*
X86171428Y-71235714D01*
X86200000Y-71178571D01*
X86228571Y-71150000D01*
X86285714Y-71121428D01*
X86371428Y-71121428D01*
X86428571Y-71150000D01*
X86457142Y-71178571D01*
X86485714Y-71235714D01*
X86485714Y-71407142D01*
X86457142Y-71464285D01*
X86428571Y-71492857D01*
X86371428Y-71521428D01*
X86285714Y-71521428D01*
X86742857Y-71121428D02*
X86742857Y-71721428D01*
X86742857Y-71150000D02*
X86800000Y-71121428D01*
X86914285Y-71121428D01*
X86971428Y-71150000D01*
X87000000Y-71178571D01*
X87028571Y-71235714D01*
X87028571Y-71407142D01*
X87000000Y-71464285D01*
X86971428Y-71492857D01*
X86914285Y-71521428D01*
X86800000Y-71521428D01*
X86742857Y-71492857D01*
X87228571Y-71121428D02*
X87371428Y-71521428D01*
X87514285Y-71121428D02*
X87371428Y-71521428D01*
X87314285Y-71664285D01*
X87285714Y-71692857D01*
X87228571Y-71721428D01*
X87742857Y-71521428D02*
X87742857Y-71121428D01*
X87742857Y-71235714D02*
X87771428Y-71178571D01*
X87800000Y-71150000D01*
X87857142Y-71121428D01*
X87914285Y-71121428D01*
X88114285Y-71521428D02*
X88114285Y-71121428D01*
X88114285Y-70921428D02*
X88085714Y-70950000D01*
X88114285Y-70978571D01*
X88142857Y-70950000D01*
X88114285Y-70921428D01*
X88114285Y-70978571D01*
X88657142Y-71121428D02*
X88657142Y-71607142D01*
X88628571Y-71664285D01*
X88600000Y-71692857D01*
X88542857Y-71721428D01*
X88457142Y-71721428D01*
X88400000Y-71692857D01*
X88657142Y-71492857D02*
X88600000Y-71521428D01*
X88485714Y-71521428D01*
X88428571Y-71492857D01*
X88400000Y-71464285D01*
X88371428Y-71407142D01*
X88371428Y-71235714D01*
X88400000Y-71178571D01*
X88428571Y-71150000D01*
X88485714Y-71121428D01*
X88600000Y-71121428D01*
X88657142Y-71150000D01*
X88942857Y-71521428D02*
X88942857Y-70921428D01*
X89200000Y-71521428D02*
X89200000Y-71207142D01*
X89171428Y-71150000D01*
X89114285Y-71121428D01*
X89028571Y-71121428D01*
X88971428Y-71150000D01*
X88942857Y-71178571D01*
X89400000Y-71121428D02*
X89628571Y-71121428D01*
X89485714Y-70921428D02*
X89485714Y-71435714D01*
X89514285Y-71492857D01*
X89571428Y-71521428D01*
X89628571Y-71521428D01*
X90314285Y-71064285D02*
X90257142Y-71035714D01*
X90142857Y-71035714D01*
X90085714Y-71064285D01*
X90028571Y-71121428D01*
X90000000Y-71178571D01*
X90000000Y-71292857D01*
X90028571Y-71350000D01*
X90085714Y-71407142D01*
X90142857Y-71435714D01*
X90257142Y-71435714D01*
X90314285Y-71407142D01*
X90200000Y-70835714D02*
X90057142Y-70864285D01*
X89914285Y-70950000D01*
X89828571Y-71092857D01*
X89800000Y-71235714D01*
X89828571Y-71378571D01*
X89914285Y-71521428D01*
X90057142Y-71607142D01*
X90200000Y-71635714D01*
X90342857Y-71607142D01*
X90485714Y-71521428D01*
X90571428Y-71378571D01*
X90600000Y-71235714D01*
X90571428Y-71092857D01*
X90485714Y-70950000D01*
X90342857Y-70864285D01*
X90200000Y-70835714D01*
X91285714Y-70978571D02*
X91314285Y-70950000D01*
X91371428Y-70921428D01*
X91514285Y-70921428D01*
X91571428Y-70950000D01*
X91600000Y-70978571D01*
X91628571Y-71035714D01*
X91628571Y-71092857D01*
X91600000Y-71178571D01*
X91257142Y-71521428D01*
X91628571Y-71521428D01*
X92000000Y-70921428D02*
X92057142Y-70921428D01*
X92114285Y-70950000D01*
X92142857Y-70978571D01*
X92171428Y-71035714D01*
X92200000Y-71150000D01*
X92200000Y-71292857D01*
X92171428Y-71407142D01*
X92142857Y-71464285D01*
X92114285Y-71492857D01*
X92057142Y-71521428D01*
X92000000Y-71521428D01*
X91942857Y-71492857D01*
X91914285Y-71464285D01*
X91885714Y-71407142D01*
X91857142Y-71292857D01*
X91857142Y-71150000D01*
X91885714Y-71035714D01*
X91914285Y-70978571D01*
X91942857Y-70950000D01*
X92000000Y-70921428D01*
X92771428Y-71521428D02*
X92428571Y-71521428D01*
X92600000Y-71521428D02*
X92600000Y-70921428D01*
X92542857Y-71007142D01*
X92485714Y-71064285D01*
X92428571Y-71092857D01*
X93057142Y-71521428D02*
X93171428Y-71521428D01*
X93228571Y-71492857D01*
X93257142Y-71464285D01*
X93314285Y-71378571D01*
X93342857Y-71264285D01*
X93342857Y-71035714D01*
X93314285Y-70978571D01*
X93285714Y-70950000D01*
X93228571Y-70921428D01*
X93114285Y-70921428D01*
X93057142Y-70950000D01*
X93028571Y-70978571D01*
X93000000Y-71035714D01*
X93000000Y-71178571D01*
X93028571Y-71235714D01*
X93057142Y-71264285D01*
X93114285Y-71292857D01*
X93228571Y-71292857D01*
X93285714Y-71264285D01*
X93314285Y-71235714D01*
X93342857Y-71178571D01*
X85357142Y-72521428D02*
X85357142Y-71921428D01*
X85614285Y-72521428D02*
X85614285Y-72207142D01*
X85585714Y-72150000D01*
X85528571Y-72121428D01*
X85442857Y-72121428D01*
X85385714Y-72150000D01*
X85357142Y-72178571D01*
X85814285Y-72121428D02*
X86042857Y-72121428D01*
X85900000Y-71921428D02*
X85900000Y-72435714D01*
X85928571Y-72492857D01*
X85985714Y-72521428D01*
X86042857Y-72521428D01*
X86157142Y-72121428D02*
X86385714Y-72121428D01*
X86242857Y-71921428D02*
X86242857Y-72435714D01*
X86271428Y-72492857D01*
X86328571Y-72521428D01*
X86385714Y-72521428D01*
X86585714Y-72121428D02*
X86585714Y-72721428D01*
X86585714Y-72150000D02*
X86642857Y-72121428D01*
X86757142Y-72121428D01*
X86814285Y-72150000D01*
X86842857Y-72178571D01*
X86871428Y-72235714D01*
X86871428Y-72407142D01*
X86842857Y-72464285D01*
X86814285Y-72492857D01*
X86757142Y-72521428D01*
X86642857Y-72521428D01*
X86585714Y-72492857D01*
X87100000Y-72492857D02*
X87157142Y-72521428D01*
X87271428Y-72521428D01*
X87328571Y-72492857D01*
X87357142Y-72435714D01*
X87357142Y-72407142D01*
X87328571Y-72350000D01*
X87271428Y-72321428D01*
X87185714Y-72321428D01*
X87128571Y-72292857D01*
X87100000Y-72235714D01*
X87100000Y-72207142D01*
X87128571Y-72150000D01*
X87185714Y-72121428D01*
X87271428Y-72121428D01*
X87328571Y-72150000D01*
X87614285Y-72464285D02*
X87642857Y-72492857D01*
X87614285Y-72521428D01*
X87585714Y-72492857D01*
X87614285Y-72464285D01*
X87614285Y-72521428D01*
X87614285Y-72150000D02*
X87642857Y-72178571D01*
X87614285Y-72207142D01*
X87585714Y-72178571D01*
X87614285Y-72150000D01*
X87614285Y-72207142D01*
X88328571Y-71892857D02*
X87814285Y-72664285D01*
X88957142Y-71892857D02*
X88442857Y-72664285D01*
X89100000Y-72121428D02*
X89214285Y-72521428D01*
X89328571Y-72235714D01*
X89442857Y-72521428D01*
X89557142Y-72121428D01*
X89728571Y-72121428D02*
X89842857Y-72521428D01*
X89957142Y-72235714D01*
X90071428Y-72521428D01*
X90185714Y-72121428D01*
X90357142Y-72121428D02*
X90471428Y-72521428D01*
X90585714Y-72235714D01*
X90700000Y-72521428D01*
X90814285Y-72121428D01*
X91042857Y-72464285D02*
X91071428Y-72492857D01*
X91042857Y-72521428D01*
X91014285Y-72492857D01*
X91042857Y-72464285D01*
X91042857Y-72521428D01*
X91300000Y-72492857D02*
X91357142Y-72521428D01*
X91471428Y-72521428D01*
X91528571Y-72492857D01*
X91557142Y-72435714D01*
X91557142Y-72407142D01*
X91528571Y-72350000D01*
X91471428Y-72321428D01*
X91385714Y-72321428D01*
X91328571Y-72292857D01*
X91300000Y-72235714D01*
X91300000Y-72207142D01*
X91328571Y-72150000D01*
X91385714Y-72121428D01*
X91471428Y-72121428D01*
X91528571Y-72150000D01*
X91814285Y-72521428D02*
X91814285Y-71921428D01*
X91871428Y-72292857D02*
X92042857Y-72521428D01*
X92042857Y-72121428D02*
X91814285Y-72350000D01*
X92300000Y-72121428D02*
X92300000Y-72521428D01*
X92300000Y-72178571D02*
X92328571Y-72150000D01*
X92385714Y-72121428D01*
X92471428Y-72121428D01*
X92528571Y-72150000D01*
X92557142Y-72207142D01*
X92557142Y-72521428D01*
X93100000Y-72521428D02*
X93100000Y-71921428D01*
X93100000Y-72492857D02*
X93042857Y-72521428D01*
X92928571Y-72521428D01*
X92871428Y-72492857D01*
X92842857Y-72464285D01*
X92814285Y-72407142D01*
X92814285Y-72235714D01*
X92842857Y-72178571D01*
X92871428Y-72150000D01*
X92928571Y-72121428D01*
X93042857Y-72121428D01*
X93100000Y-72150000D01*
X93642857Y-72121428D02*
X93642857Y-72521428D01*
X93385714Y-72121428D02*
X93385714Y-72435714D01*
X93414285Y-72492857D01*
X93471428Y-72521428D01*
X93557142Y-72521428D01*
X93614285Y-72492857D01*
X93642857Y-72464285D01*
X93928571Y-72121428D02*
X93928571Y-72521428D01*
X93928571Y-72178571D02*
X93957142Y-72150000D01*
X94014285Y-72121428D01*
X94100000Y-72121428D01*
X94157142Y-72150000D01*
X94185714Y-72207142D01*
X94185714Y-72521428D01*
X94728571Y-72121428D02*
X94728571Y-72607142D01*
X94700000Y-72664285D01*
X94671428Y-72692857D01*
X94614285Y-72721428D01*
X94528571Y-72721428D01*
X94471428Y-72692857D01*
X94728571Y-72492857D02*
X94671428Y-72521428D01*
X94557142Y-72521428D01*
X94500000Y-72492857D01*
X94471428Y-72464285D01*
X94442857Y-72407142D01*
X94442857Y-72235714D01*
X94471428Y-72178571D01*
X94500000Y-72150000D01*
X94557142Y-72121428D01*
X94671428Y-72121428D01*
X94728571Y-72150000D01*
X95271428Y-72121428D02*
X95271428Y-72521428D01*
X95014285Y-72121428D02*
X95014285Y-72435714D01*
X95042857Y-72492857D01*
X95100000Y-72521428D01*
X95185714Y-72521428D01*
X95242857Y-72492857D01*
X95271428Y-72464285D01*
X95814285Y-72521428D02*
X95814285Y-71921428D01*
X95814285Y-72492857D02*
X95757142Y-72521428D01*
X95642857Y-72521428D01*
X95585714Y-72492857D01*
X95557142Y-72464285D01*
X95528571Y-72407142D01*
X95528571Y-72235714D01*
X95557142Y-72178571D01*
X95585714Y-72150000D01*
X95642857Y-72121428D01*
X95757142Y-72121428D01*
X95814285Y-72150000D01*
X96328571Y-72492857D02*
X96271428Y-72521428D01*
X96157142Y-72521428D01*
X96100000Y-72492857D01*
X96071428Y-72435714D01*
X96071428Y-72207142D01*
X96100000Y-72150000D01*
X96157142Y-72121428D01*
X96271428Y-72121428D01*
X96328571Y-72150000D01*
X96357142Y-72207142D01*
X96357142Y-72264285D01*
X96071428Y-72321428D01*
X96557142Y-72121428D02*
X96700000Y-72521428D01*
X96842857Y-72121428D01*
X97042857Y-72492857D02*
X97100000Y-72521428D01*
X97214285Y-72521428D01*
X97271428Y-72492857D01*
X97300000Y-72435714D01*
X97300000Y-72407142D01*
X97271428Y-72350000D01*
X97214285Y-72321428D01*
X97128571Y-72321428D01*
X97071428Y-72292857D01*
X97042857Y-72235714D01*
X97042857Y-72207142D01*
X97071428Y-72150000D01*
X97128571Y-72121428D01*
X97214285Y-72121428D01*
X97271428Y-72150000D01*
X97557142Y-72464285D02*
X97585714Y-72492857D01*
X97557142Y-72521428D01*
X97528571Y-72492857D01*
X97557142Y-72464285D01*
X97557142Y-72521428D01*
X98100000Y-72492857D02*
X98042857Y-72521428D01*
X97928571Y-72521428D01*
X97871428Y-72492857D01*
X97842857Y-72464285D01*
X97814285Y-72407142D01*
X97814285Y-72235714D01*
X97842857Y-72178571D01*
X97871428Y-72150000D01*
X97928571Y-72121428D01*
X98042857Y-72121428D01*
X98100000Y-72150000D01*
X98442857Y-72521428D02*
X98385714Y-72492857D01*
X98357142Y-72464285D01*
X98328571Y-72407142D01*
X98328571Y-72235714D01*
X98357142Y-72178571D01*
X98385714Y-72150000D01*
X98442857Y-72121428D01*
X98528571Y-72121428D01*
X98585714Y-72150000D01*
X98614285Y-72178571D01*
X98642857Y-72235714D01*
X98642857Y-72407142D01*
X98614285Y-72464285D01*
X98585714Y-72492857D01*
X98528571Y-72521428D01*
X98442857Y-72521428D01*
X98900000Y-72521428D02*
X98900000Y-72121428D01*
X98900000Y-72178571D02*
X98928571Y-72150000D01*
X98985714Y-72121428D01*
X99071428Y-72121428D01*
X99128571Y-72150000D01*
X99157142Y-72207142D01*
X99157142Y-72521428D01*
X99157142Y-72207142D02*
X99185714Y-72150000D01*
X99242857Y-72121428D01*
X99328571Y-72121428D01*
X99385714Y-72150000D01*
X99414285Y-72207142D01*
X99414285Y-72521428D01*
X100128571Y-71892857D02*
X99614285Y-72664285D01*
D12*
G36*
X121853910Y-103242348D02*
G01*
X121932454Y-103242778D01*
X121989298Y-103243942D01*
X122028105Y-103246207D01*
X122052538Y-103249940D01*
X122066262Y-103255506D01*
X122072940Y-103263273D01*
X122076236Y-103273605D01*
X122076556Y-103274943D01*
X122081562Y-103299079D01*
X122090829Y-103346701D01*
X122103392Y-103412741D01*
X122118287Y-103492128D01*
X122134551Y-103579796D01*
X122135119Y-103582875D01*
X122151410Y-103668789D01*
X122166652Y-103744696D01*
X122179861Y-103806045D01*
X122190054Y-103848282D01*
X122196248Y-103866855D01*
X122196543Y-103867184D01*
X122214788Y-103876253D01*
X122252405Y-103891367D01*
X122301271Y-103909262D01*
X122301543Y-103909358D01*
X122363093Y-103932493D01*
X122435657Y-103961965D01*
X122504057Y-103991597D01*
X122507294Y-103993062D01*
X122618702Y-104043626D01*
X122865399Y-103875160D01*
X122941077Y-103823803D01*
X123009631Y-103777889D01*
X123067088Y-103740030D01*
X123109476Y-103712837D01*
X123132825Y-103698921D01*
X123135042Y-103697889D01*
X123152010Y-103702484D01*
X123183701Y-103724655D01*
X123231352Y-103765447D01*
X123296198Y-103825905D01*
X123362397Y-103890227D01*
X123426214Y-103953612D01*
X123483329Y-104011451D01*
X123530305Y-104060175D01*
X123563703Y-104096210D01*
X123580085Y-104115984D01*
X123580694Y-104117002D01*
X123582505Y-104130572D01*
X123575683Y-104152733D01*
X123558540Y-104186478D01*
X123529393Y-104234800D01*
X123486555Y-104300692D01*
X123429448Y-104385517D01*
X123378766Y-104460177D01*
X123333461Y-104527140D01*
X123296150Y-104582516D01*
X123269452Y-104622420D01*
X123255985Y-104642962D01*
X123255137Y-104644356D01*
X123256781Y-104664038D01*
X123269245Y-104702293D01*
X123290048Y-104751889D01*
X123297462Y-104767728D01*
X123329814Y-104838290D01*
X123364328Y-104918353D01*
X123392365Y-104987629D01*
X123412568Y-105039045D01*
X123428615Y-105078119D01*
X123437888Y-105098541D01*
X123439041Y-105100114D01*
X123456096Y-105102721D01*
X123496298Y-105109863D01*
X123554302Y-105120523D01*
X123624763Y-105133685D01*
X123702335Y-105148333D01*
X123781672Y-105163449D01*
X123857431Y-105178018D01*
X123924264Y-105191022D01*
X123976828Y-105201445D01*
X124009776Y-105208270D01*
X124017857Y-105210199D01*
X124026205Y-105214962D01*
X124032506Y-105225718D01*
X124037045Y-105246098D01*
X124040104Y-105279734D01*
X124041967Y-105330255D01*
X124042918Y-105401292D01*
X124043240Y-105496476D01*
X124043257Y-105535492D01*
X124043257Y-105852799D01*
X123967057Y-105867839D01*
X123924663Y-105875995D01*
X123861400Y-105887899D01*
X123784962Y-105902116D01*
X123703043Y-105917210D01*
X123680400Y-105921355D01*
X123604806Y-105936053D01*
X123538953Y-105950505D01*
X123488366Y-105963375D01*
X123458574Y-105973322D01*
X123453612Y-105976287D01*
X123441426Y-105997283D01*
X123423953Y-106037967D01*
X123404577Y-106090322D01*
X123400734Y-106101600D01*
X123375339Y-106171523D01*
X123343817Y-106250418D01*
X123312969Y-106321266D01*
X123312817Y-106321595D01*
X123261447Y-106432733D01*
X123430399Y-106681253D01*
X123599352Y-106929772D01*
X123382429Y-107147058D01*
X123316819Y-107211726D01*
X123256979Y-107268733D01*
X123206267Y-107315033D01*
X123168046Y-107347584D01*
X123145675Y-107363343D01*
X123142466Y-107364343D01*
X123123626Y-107356469D01*
X123085180Y-107334578D01*
X123031330Y-107301267D01*
X122966276Y-107259131D01*
X122895940Y-107211943D01*
X122824555Y-107163810D01*
X122760908Y-107121928D01*
X122709041Y-107088871D01*
X122672995Y-107067218D01*
X122656867Y-107059543D01*
X122637189Y-107066037D01*
X122599875Y-107083150D01*
X122552621Y-107107326D01*
X122547612Y-107110013D01*
X122483977Y-107141927D01*
X122440341Y-107157579D01*
X122413202Y-107157745D01*
X122399057Y-107143204D01*
X122398975Y-107143000D01*
X122391905Y-107125779D01*
X122375042Y-107084899D01*
X122349695Y-107023525D01*
X122317171Y-106944819D01*
X122278778Y-106851947D01*
X122235822Y-106748072D01*
X122194222Y-106647502D01*
X122148504Y-106536516D01*
X122106526Y-106433703D01*
X122069548Y-106342215D01*
X122038827Y-106265201D01*
X122015622Y-106205815D01*
X122001190Y-106167209D01*
X121996743Y-106152800D01*
X122007896Y-106136272D01*
X122037069Y-106109930D01*
X122075971Y-106080887D01*
X122186757Y-105989039D01*
X122273351Y-105883759D01*
X122334716Y-105767266D01*
X122369815Y-105641776D01*
X122377608Y-105509507D01*
X122371943Y-105448457D01*
X122341078Y-105321795D01*
X122287920Y-105209941D01*
X122215767Y-105114001D01*
X122127917Y-105035076D01*
X122027665Y-104974270D01*
X121918310Y-104932687D01*
X121803147Y-104911428D01*
X121685475Y-104911599D01*
X121568590Y-104934301D01*
X121455789Y-104980638D01*
X121350369Y-105051713D01*
X121306368Y-105091911D01*
X121221979Y-105195129D01*
X121163222Y-105307925D01*
X121129704Y-105427010D01*
X121121035Y-105549095D01*
X121136823Y-105670893D01*
X121176678Y-105789116D01*
X121240207Y-105900475D01*
X121327021Y-106001684D01*
X121424029Y-106080887D01*
X121464437Y-106111162D01*
X121492982Y-106137219D01*
X121503257Y-106152825D01*
X121497877Y-106169843D01*
X121482575Y-106210500D01*
X121458612Y-106271642D01*
X121427244Y-106350119D01*
X121389732Y-106442780D01*
X121347333Y-106546472D01*
X121305663Y-106647526D01*
X121259690Y-106758607D01*
X121217107Y-106861541D01*
X121179221Y-106953165D01*
X121147340Y-107030316D01*
X121122771Y-107089831D01*
X121106820Y-107128544D01*
X121100910Y-107143000D01*
X121086948Y-107157685D01*
X121059940Y-107157642D01*
X121016413Y-107142099D01*
X120952890Y-107110284D01*
X120952388Y-107110013D01*
X120904560Y-107085323D01*
X120865897Y-107067338D01*
X120844095Y-107059614D01*
X120843133Y-107059543D01*
X120826721Y-107067378D01*
X120790487Y-107089165D01*
X120738474Y-107122328D01*
X120674725Y-107164291D01*
X120604060Y-107211943D01*
X120532116Y-107260191D01*
X120467274Y-107302151D01*
X120413735Y-107335227D01*
X120375697Y-107356821D01*
X120357533Y-107364343D01*
X120340808Y-107354457D01*
X120307180Y-107326826D01*
X120260010Y-107284495D01*
X120202658Y-107230505D01*
X120138484Y-107167899D01*
X120117497Y-107146983D01*
X119900499Y-106929623D01*
X120065668Y-106687220D01*
X120115864Y-106612781D01*
X120159919Y-106545972D01*
X120195362Y-106490665D01*
X120219719Y-106450729D01*
X120230522Y-106430036D01*
X120230838Y-106428563D01*
X120225143Y-106409058D01*
X120209826Y-106369822D01*
X120187537Y-106317430D01*
X120171893Y-106282355D01*
X120142641Y-106215201D01*
X120115094Y-106147358D01*
X120093737Y-106090034D01*
X120087935Y-106072572D01*
X120071452Y-106025938D01*
X120055340Y-105989905D01*
X120046490Y-105976287D01*
X120026960Y-105967952D01*
X119984334Y-105956137D01*
X119924145Y-105942181D01*
X119851922Y-105927422D01*
X119819600Y-105921355D01*
X119737522Y-105906273D01*
X119658795Y-105891669D01*
X119591109Y-105878980D01*
X119542160Y-105869642D01*
X119532943Y-105867839D01*
X119456743Y-105852799D01*
X119456743Y-105535492D01*
X119456914Y-105431154D01*
X119457616Y-105352213D01*
X119459134Y-105295038D01*
X119461749Y-105255999D01*
X119465746Y-105231465D01*
X119471409Y-105217805D01*
X119479020Y-105211389D01*
X119482143Y-105210199D01*
X119500978Y-105205980D01*
X119542588Y-105197562D01*
X119601630Y-105185961D01*
X119672757Y-105172195D01*
X119750625Y-105157280D01*
X119829887Y-105142232D01*
X119905198Y-105128069D01*
X119971213Y-105115806D01*
X120022587Y-105106461D01*
X120053975Y-105101050D01*
X120060959Y-105100114D01*
X120067285Y-105087596D01*
X120081290Y-105054246D01*
X120100355Y-105006377D01*
X120107634Y-104987629D01*
X120136996Y-104915195D01*
X120171571Y-104835170D01*
X120202537Y-104767728D01*
X120225323Y-104716159D01*
X120240482Y-104673785D01*
X120245542Y-104647834D01*
X120244736Y-104644356D01*
X120234041Y-104627936D01*
X120209620Y-104591417D01*
X120174095Y-104538687D01*
X120130087Y-104473635D01*
X120080217Y-104400151D01*
X120070356Y-104385645D01*
X120012492Y-104299704D01*
X119969956Y-104234261D01*
X119941054Y-104186304D01*
X119924090Y-104152820D01*
X119917367Y-104130795D01*
X119919190Y-104117217D01*
X119919236Y-104117131D01*
X119933586Y-104099297D01*
X119965323Y-104064817D01*
X120011010Y-104017268D01*
X120067204Y-103960222D01*
X120130468Y-103897255D01*
X120137602Y-103890227D01*
X120217330Y-103813020D01*
X120278857Y-103756330D01*
X120323421Y-103719110D01*
X120352257Y-103700315D01*
X120364958Y-103697889D01*
X120383494Y-103708471D01*
X120421961Y-103732916D01*
X120476386Y-103768612D01*
X120542798Y-103812947D01*
X120617225Y-103863311D01*
X120634601Y-103875160D01*
X120881297Y-104043626D01*
X120992706Y-103993062D01*
X121060457Y-103963595D01*
X121133183Y-103933959D01*
X121195703Y-103910330D01*
X121198457Y-103909358D01*
X121247360Y-103891457D01*
X121285057Y-103876320D01*
X121303425Y-103867210D01*
X121303456Y-103867184D01*
X121309285Y-103850717D01*
X121319192Y-103810219D01*
X121332195Y-103750242D01*
X121347309Y-103675340D01*
X121363552Y-103590064D01*
X121364881Y-103582875D01*
X121381175Y-103495014D01*
X121396133Y-103415260D01*
X121408791Y-103348681D01*
X121418186Y-103300347D01*
X121423354Y-103275325D01*
X121423444Y-103274943D01*
X121426589Y-103264299D01*
X121432704Y-103256262D01*
X121445453Y-103250467D01*
X121468500Y-103246547D01*
X121505509Y-103244135D01*
X121560144Y-103242865D01*
X121636067Y-103242371D01*
X121736944Y-103242286D01*
X121750000Y-103242286D01*
X121853910Y-103242348D01*
X121853910Y-103242348D01*
G37*
X121853910Y-103242348D02*
X121932454Y-103242778D01*
X121989298Y-103243942D01*
X122028105Y-103246207D01*
X122052538Y-103249940D01*
X122066262Y-103255506D01*
X122072940Y-103263273D01*
X122076236Y-103273605D01*
X122076556Y-103274943D01*
X122081562Y-103299079D01*
X122090829Y-103346701D01*
X122103392Y-103412741D01*
X122118287Y-103492128D01*
X122134551Y-103579796D01*
X122135119Y-103582875D01*
X122151410Y-103668789D01*
X122166652Y-103744696D01*
X122179861Y-103806045D01*
X122190054Y-103848282D01*
X122196248Y-103866855D01*
X122196543Y-103867184D01*
X122214788Y-103876253D01*
X122252405Y-103891367D01*
X122301271Y-103909262D01*
X122301543Y-103909358D01*
X122363093Y-103932493D01*
X122435657Y-103961965D01*
X122504057Y-103991597D01*
X122507294Y-103993062D01*
X122618702Y-104043626D01*
X122865399Y-103875160D01*
X122941077Y-103823803D01*
X123009631Y-103777889D01*
X123067088Y-103740030D01*
X123109476Y-103712837D01*
X123132825Y-103698921D01*
X123135042Y-103697889D01*
X123152010Y-103702484D01*
X123183701Y-103724655D01*
X123231352Y-103765447D01*
X123296198Y-103825905D01*
X123362397Y-103890227D01*
X123426214Y-103953612D01*
X123483329Y-104011451D01*
X123530305Y-104060175D01*
X123563703Y-104096210D01*
X123580085Y-104115984D01*
X123580694Y-104117002D01*
X123582505Y-104130572D01*
X123575683Y-104152733D01*
X123558540Y-104186478D01*
X123529393Y-104234800D01*
X123486555Y-104300692D01*
X123429448Y-104385517D01*
X123378766Y-104460177D01*
X123333461Y-104527140D01*
X123296150Y-104582516D01*
X123269452Y-104622420D01*
X123255985Y-104642962D01*
X123255137Y-104644356D01*
X123256781Y-104664038D01*
X123269245Y-104702293D01*
X123290048Y-104751889D01*
X123297462Y-104767728D01*
X123329814Y-104838290D01*
X123364328Y-104918353D01*
X123392365Y-104987629D01*
X123412568Y-105039045D01*
X123428615Y-105078119D01*
X123437888Y-105098541D01*
X123439041Y-105100114D01*
X123456096Y-105102721D01*
X123496298Y-105109863D01*
X123554302Y-105120523D01*
X123624763Y-105133685D01*
X123702335Y-105148333D01*
X123781672Y-105163449D01*
X123857431Y-105178018D01*
X123924264Y-105191022D01*
X123976828Y-105201445D01*
X124009776Y-105208270D01*
X124017857Y-105210199D01*
X124026205Y-105214962D01*
X124032506Y-105225718D01*
X124037045Y-105246098D01*
X124040104Y-105279734D01*
X124041967Y-105330255D01*
X124042918Y-105401292D01*
X124043240Y-105496476D01*
X124043257Y-105535492D01*
X124043257Y-105852799D01*
X123967057Y-105867839D01*
X123924663Y-105875995D01*
X123861400Y-105887899D01*
X123784962Y-105902116D01*
X123703043Y-105917210D01*
X123680400Y-105921355D01*
X123604806Y-105936053D01*
X123538953Y-105950505D01*
X123488366Y-105963375D01*
X123458574Y-105973322D01*
X123453612Y-105976287D01*
X123441426Y-105997283D01*
X123423953Y-106037967D01*
X123404577Y-106090322D01*
X123400734Y-106101600D01*
X123375339Y-106171523D01*
X123343817Y-106250418D01*
X123312969Y-106321266D01*
X123312817Y-106321595D01*
X123261447Y-106432733D01*
X123430399Y-106681253D01*
X123599352Y-106929772D01*
X123382429Y-107147058D01*
X123316819Y-107211726D01*
X123256979Y-107268733D01*
X123206267Y-107315033D01*
X123168046Y-107347584D01*
X123145675Y-107363343D01*
X123142466Y-107364343D01*
X123123626Y-107356469D01*
X123085180Y-107334578D01*
X123031330Y-107301267D01*
X122966276Y-107259131D01*
X122895940Y-107211943D01*
X122824555Y-107163810D01*
X122760908Y-107121928D01*
X122709041Y-107088871D01*
X122672995Y-107067218D01*
X122656867Y-107059543D01*
X122637189Y-107066037D01*
X122599875Y-107083150D01*
X122552621Y-107107326D01*
X122547612Y-107110013D01*
X122483977Y-107141927D01*
X122440341Y-107157579D01*
X122413202Y-107157745D01*
X122399057Y-107143204D01*
X122398975Y-107143000D01*
X122391905Y-107125779D01*
X122375042Y-107084899D01*
X122349695Y-107023525D01*
X122317171Y-106944819D01*
X122278778Y-106851947D01*
X122235822Y-106748072D01*
X122194222Y-106647502D01*
X122148504Y-106536516D01*
X122106526Y-106433703D01*
X122069548Y-106342215D01*
X122038827Y-106265201D01*
X122015622Y-106205815D01*
X122001190Y-106167209D01*
X121996743Y-106152800D01*
X122007896Y-106136272D01*
X122037069Y-106109930D01*
X122075971Y-106080887D01*
X122186757Y-105989039D01*
X122273351Y-105883759D01*
X122334716Y-105767266D01*
X122369815Y-105641776D01*
X122377608Y-105509507D01*
X122371943Y-105448457D01*
X122341078Y-105321795D01*
X122287920Y-105209941D01*
X122215767Y-105114001D01*
X122127917Y-105035076D01*
X122027665Y-104974270D01*
X121918310Y-104932687D01*
X121803147Y-104911428D01*
X121685475Y-104911599D01*
X121568590Y-104934301D01*
X121455789Y-104980638D01*
X121350369Y-105051713D01*
X121306368Y-105091911D01*
X121221979Y-105195129D01*
X121163222Y-105307925D01*
X121129704Y-105427010D01*
X121121035Y-105549095D01*
X121136823Y-105670893D01*
X121176678Y-105789116D01*
X121240207Y-105900475D01*
X121327021Y-106001684D01*
X121424029Y-106080887D01*
X121464437Y-106111162D01*
X121492982Y-106137219D01*
X121503257Y-106152825D01*
X121497877Y-106169843D01*
X121482575Y-106210500D01*
X121458612Y-106271642D01*
X121427244Y-106350119D01*
X121389732Y-106442780D01*
X121347333Y-106546472D01*
X121305663Y-106647526D01*
X121259690Y-106758607D01*
X121217107Y-106861541D01*
X121179221Y-106953165D01*
X121147340Y-107030316D01*
X121122771Y-107089831D01*
X121106820Y-107128544D01*
X121100910Y-107143000D01*
X121086948Y-107157685D01*
X121059940Y-107157642D01*
X121016413Y-107142099D01*
X120952890Y-107110284D01*
X120952388Y-107110013D01*
X120904560Y-107085323D01*
X120865897Y-107067338D01*
X120844095Y-107059614D01*
X120843133Y-107059543D01*
X120826721Y-107067378D01*
X120790487Y-107089165D01*
X120738474Y-107122328D01*
X120674725Y-107164291D01*
X120604060Y-107211943D01*
X120532116Y-107260191D01*
X120467274Y-107302151D01*
X120413735Y-107335227D01*
X120375697Y-107356821D01*
X120357533Y-107364343D01*
X120340808Y-107354457D01*
X120307180Y-107326826D01*
X120260010Y-107284495D01*
X120202658Y-107230505D01*
X120138484Y-107167899D01*
X120117497Y-107146983D01*
X119900499Y-106929623D01*
X120065668Y-106687220D01*
X120115864Y-106612781D01*
X120159919Y-106545972D01*
X120195362Y-106490665D01*
X120219719Y-106450729D01*
X120230522Y-106430036D01*
X120230838Y-106428563D01*
X120225143Y-106409058D01*
X120209826Y-106369822D01*
X120187537Y-106317430D01*
X120171893Y-106282355D01*
X120142641Y-106215201D01*
X120115094Y-106147358D01*
X120093737Y-106090034D01*
X120087935Y-106072572D01*
X120071452Y-106025938D01*
X120055340Y-105989905D01*
X120046490Y-105976287D01*
X120026960Y-105967952D01*
X119984334Y-105956137D01*
X119924145Y-105942181D01*
X119851922Y-105927422D01*
X119819600Y-105921355D01*
X119737522Y-105906273D01*
X119658795Y-105891669D01*
X119591109Y-105878980D01*
X119542160Y-105869642D01*
X119532943Y-105867839D01*
X119456743Y-105852799D01*
X119456743Y-105535492D01*
X119456914Y-105431154D01*
X119457616Y-105352213D01*
X119459134Y-105295038D01*
X119461749Y-105255999D01*
X119465746Y-105231465D01*
X119471409Y-105217805D01*
X119479020Y-105211389D01*
X119482143Y-105210199D01*
X119500978Y-105205980D01*
X119542588Y-105197562D01*
X119601630Y-105185961D01*
X119672757Y-105172195D01*
X119750625Y-105157280D01*
X119829887Y-105142232D01*
X119905198Y-105128069D01*
X119971213Y-105115806D01*
X120022587Y-105106461D01*
X120053975Y-105101050D01*
X120060959Y-105100114D01*
X120067285Y-105087596D01*
X120081290Y-105054246D01*
X120100355Y-105006377D01*
X120107634Y-104987629D01*
X120136996Y-104915195D01*
X120171571Y-104835170D01*
X120202537Y-104767728D01*
X120225323Y-104716159D01*
X120240482Y-104673785D01*
X120245542Y-104647834D01*
X120244736Y-104644356D01*
X120234041Y-104627936D01*
X120209620Y-104591417D01*
X120174095Y-104538687D01*
X120130087Y-104473635D01*
X120080217Y-104400151D01*
X120070356Y-104385645D01*
X120012492Y-104299704D01*
X119969956Y-104234261D01*
X119941054Y-104186304D01*
X119924090Y-104152820D01*
X119917367Y-104130795D01*
X119919190Y-104117217D01*
X119919236Y-104117131D01*
X119933586Y-104099297D01*
X119965323Y-104064817D01*
X120011010Y-104017268D01*
X120067204Y-103960222D01*
X120130468Y-103897255D01*
X120137602Y-103890227D01*
X120217330Y-103813020D01*
X120278857Y-103756330D01*
X120323421Y-103719110D01*
X120352257Y-103700315D01*
X120364958Y-103697889D01*
X120383494Y-103708471D01*
X120421961Y-103732916D01*
X120476386Y-103768612D01*
X120542798Y-103812947D01*
X120617225Y-103863311D01*
X120634601Y-103875160D01*
X120881297Y-104043626D01*
X120992706Y-103993062D01*
X121060457Y-103963595D01*
X121133183Y-103933959D01*
X121195703Y-103910330D01*
X121198457Y-103909358D01*
X121247360Y-103891457D01*
X121285057Y-103876320D01*
X121303425Y-103867210D01*
X121303456Y-103867184D01*
X121309285Y-103850717D01*
X121319192Y-103810219D01*
X121332195Y-103750242D01*
X121347309Y-103675340D01*
X121363552Y-103590064D01*
X121364881Y-103582875D01*
X121381175Y-103495014D01*
X121396133Y-103415260D01*
X121408791Y-103348681D01*
X121418186Y-103300347D01*
X121423354Y-103275325D01*
X121423444Y-103274943D01*
X121426589Y-103264299D01*
X121432704Y-103256262D01*
X121445453Y-103250467D01*
X121468500Y-103246547D01*
X121505509Y-103244135D01*
X121560144Y-103242865D01*
X121636067Y-103242371D01*
X121736944Y-103242286D01*
X121750000Y-103242286D01*
X121853910Y-103242348D01*
G36*
X124903595Y-107966966D02*
G01*
X124961021Y-108004497D01*
X124988719Y-108038096D01*
X125010662Y-108099064D01*
X125012405Y-108147308D01*
X125008457Y-108211816D01*
X124859686Y-108276934D01*
X124787349Y-108310202D01*
X124740084Y-108336964D01*
X124715507Y-108360144D01*
X124711237Y-108382667D01*
X124724889Y-108407455D01*
X124739943Y-108423886D01*
X124783746Y-108450235D01*
X124831389Y-108452081D01*
X124875145Y-108431546D01*
X124907289Y-108390752D01*
X124913038Y-108376347D01*
X124940576Y-108331356D01*
X124972258Y-108312182D01*
X125015714Y-108295779D01*
X125015714Y-108357966D01*
X125011872Y-108400283D01*
X124996823Y-108435969D01*
X124965280Y-108476943D01*
X124960592Y-108482267D01*
X124925506Y-108518720D01*
X124895347Y-108538283D01*
X124857615Y-108547283D01*
X124826335Y-108550230D01*
X124770385Y-108550965D01*
X124730555Y-108541660D01*
X124705708Y-108527846D01*
X124666656Y-108497467D01*
X124639625Y-108464613D01*
X124622517Y-108423294D01*
X124613238Y-108367521D01*
X124609693Y-108291305D01*
X124609410Y-108252622D01*
X124610372Y-108206247D01*
X124698007Y-108206247D01*
X124699023Y-108231126D01*
X124701556Y-108235200D01*
X124718274Y-108229665D01*
X124754249Y-108215017D01*
X124802331Y-108194190D01*
X124812386Y-108189714D01*
X124873152Y-108158814D01*
X124906632Y-108131657D01*
X124913990Y-108106220D01*
X124896391Y-108080481D01*
X124881856Y-108069109D01*
X124829410Y-108046364D01*
X124780322Y-108050122D01*
X124739227Y-108077884D01*
X124710758Y-108127152D01*
X124701631Y-108166257D01*
X124698007Y-108206247D01*
X124610372Y-108206247D01*
X124611285Y-108162249D01*
X124618196Y-108095384D01*
X124631884Y-108046695D01*
X124654096Y-108010849D01*
X124686574Y-107982513D01*
X124700733Y-107973355D01*
X124765053Y-107949507D01*
X124835473Y-107948006D01*
X124903595Y-107966966D01*
X124903595Y-107966966D01*
G37*
X124903595Y-107966966D02*
X124961021Y-108004497D01*
X124988719Y-108038096D01*
X125010662Y-108099064D01*
X125012405Y-108147308D01*
X125008457Y-108211816D01*
X124859686Y-108276934D01*
X124787349Y-108310202D01*
X124740084Y-108336964D01*
X124715507Y-108360144D01*
X124711237Y-108382667D01*
X124724889Y-108407455D01*
X124739943Y-108423886D01*
X124783746Y-108450235D01*
X124831389Y-108452081D01*
X124875145Y-108431546D01*
X124907289Y-108390752D01*
X124913038Y-108376347D01*
X124940576Y-108331356D01*
X124972258Y-108312182D01*
X125015714Y-108295779D01*
X125015714Y-108357966D01*
X125011872Y-108400283D01*
X124996823Y-108435969D01*
X124965280Y-108476943D01*
X124960592Y-108482267D01*
X124925506Y-108518720D01*
X124895347Y-108538283D01*
X124857615Y-108547283D01*
X124826335Y-108550230D01*
X124770385Y-108550965D01*
X124730555Y-108541660D01*
X124705708Y-108527846D01*
X124666656Y-108497467D01*
X124639625Y-108464613D01*
X124622517Y-108423294D01*
X124613238Y-108367521D01*
X124609693Y-108291305D01*
X124609410Y-108252622D01*
X124610372Y-108206247D01*
X124698007Y-108206247D01*
X124699023Y-108231126D01*
X124701556Y-108235200D01*
X124718274Y-108229665D01*
X124754249Y-108215017D01*
X124802331Y-108194190D01*
X124812386Y-108189714D01*
X124873152Y-108158814D01*
X124906632Y-108131657D01*
X124913990Y-108106220D01*
X124896391Y-108080481D01*
X124881856Y-108069109D01*
X124829410Y-108046364D01*
X124780322Y-108050122D01*
X124739227Y-108077884D01*
X124710758Y-108127152D01*
X124701631Y-108166257D01*
X124698007Y-108206247D01*
X124610372Y-108206247D01*
X124611285Y-108162249D01*
X124618196Y-108095384D01*
X124631884Y-108046695D01*
X124654096Y-108010849D01*
X124686574Y-107982513D01*
X124700733Y-107973355D01*
X124765053Y-107949507D01*
X124835473Y-107948006D01*
X124903595Y-107966966D01*
G36*
X124402600Y-107958752D02*
G01*
X124419948Y-107966334D01*
X124461356Y-107999128D01*
X124496765Y-108046547D01*
X124518664Y-108097151D01*
X124522229Y-108122098D01*
X124510279Y-108156927D01*
X124484067Y-108175357D01*
X124455964Y-108186516D01*
X124443095Y-108188572D01*
X124436829Y-108173649D01*
X124424456Y-108141175D01*
X124419028Y-108126502D01*
X124388590Y-108075744D01*
X124344520Y-108050427D01*
X124288010Y-108051206D01*
X124283825Y-108052203D01*
X124253655Y-108066507D01*
X124231476Y-108094393D01*
X124216327Y-108139287D01*
X124207250Y-108204615D01*
X124203286Y-108293804D01*
X124202914Y-108341261D01*
X124202730Y-108416071D01*
X124201522Y-108467069D01*
X124198309Y-108499471D01*
X124192109Y-108518495D01*
X124181940Y-108529356D01*
X124166819Y-108537272D01*
X124165946Y-108537670D01*
X124136828Y-108549981D01*
X124122403Y-108554514D01*
X124120186Y-108540809D01*
X124118289Y-108502925D01*
X124116847Y-108445715D01*
X124115998Y-108374027D01*
X124115829Y-108321565D01*
X124116692Y-108220047D01*
X124120070Y-108143032D01*
X124127142Y-108086023D01*
X124139088Y-108044526D01*
X124157090Y-108014043D01*
X124182327Y-107990080D01*
X124207247Y-107973355D01*
X124267171Y-107951097D01*
X124336911Y-107946076D01*
X124402600Y-107958752D01*
X124402600Y-107958752D01*
G37*
X124402600Y-107958752D02*
X124419948Y-107966334D01*
X124461356Y-107999128D01*
X124496765Y-108046547D01*
X124518664Y-108097151D01*
X124522229Y-108122098D01*
X124510279Y-108156927D01*
X124484067Y-108175357D01*
X124455964Y-108186516D01*
X124443095Y-108188572D01*
X124436829Y-108173649D01*
X124424456Y-108141175D01*
X124419028Y-108126502D01*
X124388590Y-108075744D01*
X124344520Y-108050427D01*
X124288010Y-108051206D01*
X124283825Y-108052203D01*
X124253655Y-108066507D01*
X124231476Y-108094393D01*
X124216327Y-108139287D01*
X124207250Y-108204615D01*
X124203286Y-108293804D01*
X124202914Y-108341261D01*
X124202730Y-108416071D01*
X124201522Y-108467069D01*
X124198309Y-108499471D01*
X124192109Y-108518495D01*
X124181940Y-108529356D01*
X124166819Y-108537272D01*
X124165946Y-108537670D01*
X124136828Y-108549981D01*
X124122403Y-108554514D01*
X124120186Y-108540809D01*
X124118289Y-108502925D01*
X124116847Y-108445715D01*
X124115998Y-108374027D01*
X124115829Y-108321565D01*
X124116692Y-108220047D01*
X124120070Y-108143032D01*
X124127142Y-108086023D01*
X124139088Y-108044526D01*
X124157090Y-108014043D01*
X124182327Y-107990080D01*
X124207247Y-107973355D01*
X124267171Y-107951097D01*
X124336911Y-107946076D01*
X124402600Y-107958752D01*
G36*
X123894876Y-107956335D02*
G01*
X123936667Y-107975344D01*
X123969469Y-107998378D01*
X123993503Y-108024133D01*
X124010097Y-108057358D01*
X124020577Y-108102800D01*
X124026271Y-108165207D01*
X124028507Y-108249327D01*
X124028743Y-108304721D01*
X124028743Y-108520826D01*
X123991774Y-108537670D01*
X123962656Y-108549981D01*
X123948231Y-108554514D01*
X123945472Y-108541025D01*
X123943282Y-108504653D01*
X123941942Y-108451542D01*
X123941657Y-108409372D01*
X123940434Y-108348447D01*
X123937136Y-108300115D01*
X123932321Y-108270518D01*
X123928496Y-108264229D01*
X123902783Y-108270652D01*
X123862418Y-108287125D01*
X123815679Y-108309458D01*
X123770845Y-108333457D01*
X123736193Y-108354930D01*
X123720002Y-108369685D01*
X123719938Y-108369845D01*
X123721330Y-108397152D01*
X123733818Y-108423219D01*
X123755743Y-108444392D01*
X123787743Y-108451474D01*
X123815092Y-108450649D01*
X123853826Y-108450042D01*
X123874158Y-108459116D01*
X123886369Y-108483092D01*
X123887909Y-108487613D01*
X123893203Y-108521806D01*
X123879047Y-108542568D01*
X123842148Y-108552462D01*
X123802289Y-108554292D01*
X123730562Y-108540727D01*
X123693432Y-108521355D01*
X123647576Y-108475845D01*
X123623256Y-108419983D01*
X123621073Y-108360957D01*
X123641629Y-108305953D01*
X123672549Y-108271486D01*
X123703420Y-108252189D01*
X123751942Y-108227759D01*
X123808485Y-108202985D01*
X123817910Y-108199199D01*
X123880019Y-108171791D01*
X123915822Y-108147634D01*
X123927337Y-108123619D01*
X123916580Y-108096635D01*
X123898114Y-108075543D01*
X123854469Y-108049572D01*
X123806446Y-108047624D01*
X123762406Y-108067637D01*
X123730709Y-108107551D01*
X123726549Y-108117848D01*
X123702327Y-108155724D01*
X123666965Y-108183842D01*
X123622343Y-108206917D01*
X123622343Y-108141485D01*
X123624969Y-108101506D01*
X123636230Y-108069997D01*
X123661199Y-108036378D01*
X123685169Y-108010484D01*
X123722441Y-107973817D01*
X123751401Y-107954121D01*
X123782505Y-107946220D01*
X123817713Y-107944914D01*
X123894876Y-107956335D01*
X123894876Y-107956335D01*
G37*
X123894876Y-107956335D02*
X123936667Y-107975344D01*
X123969469Y-107998378D01*
X123993503Y-108024133D01*
X124010097Y-108057358D01*
X124020577Y-108102800D01*
X124026271Y-108165207D01*
X124028507Y-108249327D01*
X124028743Y-108304721D01*
X124028743Y-108520826D01*
X123991774Y-108537670D01*
X123962656Y-108549981D01*
X123948231Y-108554514D01*
X123945472Y-108541025D01*
X123943282Y-108504653D01*
X123941942Y-108451542D01*
X123941657Y-108409372D01*
X123940434Y-108348447D01*
X123937136Y-108300115D01*
X123932321Y-108270518D01*
X123928496Y-108264229D01*
X123902783Y-108270652D01*
X123862418Y-108287125D01*
X123815679Y-108309458D01*
X123770845Y-108333457D01*
X123736193Y-108354930D01*
X123720002Y-108369685D01*
X123719938Y-108369845D01*
X123721330Y-108397152D01*
X123733818Y-108423219D01*
X123755743Y-108444392D01*
X123787743Y-108451474D01*
X123815092Y-108450649D01*
X123853826Y-108450042D01*
X123874158Y-108459116D01*
X123886369Y-108483092D01*
X123887909Y-108487613D01*
X123893203Y-108521806D01*
X123879047Y-108542568D01*
X123842148Y-108552462D01*
X123802289Y-108554292D01*
X123730562Y-108540727D01*
X123693432Y-108521355D01*
X123647576Y-108475845D01*
X123623256Y-108419983D01*
X123621073Y-108360957D01*
X123641629Y-108305953D01*
X123672549Y-108271486D01*
X123703420Y-108252189D01*
X123751942Y-108227759D01*
X123808485Y-108202985D01*
X123817910Y-108199199D01*
X123880019Y-108171791D01*
X123915822Y-108147634D01*
X123927337Y-108123619D01*
X123916580Y-108096635D01*
X123898114Y-108075543D01*
X123854469Y-108049572D01*
X123806446Y-108047624D01*
X123762406Y-108067637D01*
X123730709Y-108107551D01*
X123726549Y-108117848D01*
X123702327Y-108155724D01*
X123666965Y-108183842D01*
X123622343Y-108206917D01*
X123622343Y-108141485D01*
X123624969Y-108101506D01*
X123636230Y-108069997D01*
X123661199Y-108036378D01*
X123685169Y-108010484D01*
X123722441Y-107973817D01*
X123751401Y-107954121D01*
X123782505Y-107946220D01*
X123817713Y-107944914D01*
X123894876Y-107956335D01*
G36*
X123529833Y-107958663D02*
G01*
X123532048Y-107996850D01*
X123533784Y-108054886D01*
X123534899Y-108128180D01*
X123535257Y-108205055D01*
X123535257Y-108465196D01*
X123489326Y-108511127D01*
X123457675Y-108539429D01*
X123429890Y-108550893D01*
X123391915Y-108550168D01*
X123376840Y-108548321D01*
X123329726Y-108542948D01*
X123290756Y-108539869D01*
X123281257Y-108539585D01*
X123249233Y-108541445D01*
X123203432Y-108546114D01*
X123185674Y-108548321D01*
X123142057Y-108551735D01*
X123112745Y-108544320D01*
X123083680Y-108521427D01*
X123073188Y-108511127D01*
X123027257Y-108465196D01*
X123027257Y-107978602D01*
X123064226Y-107961758D01*
X123096059Y-107949282D01*
X123114683Y-107944914D01*
X123119458Y-107958718D01*
X123123921Y-107997286D01*
X123127775Y-108056356D01*
X123130722Y-108131663D01*
X123132143Y-108195286D01*
X123136114Y-108445657D01*
X123170759Y-108450556D01*
X123202268Y-108447131D01*
X123217708Y-108436041D01*
X123222023Y-108415308D01*
X123225708Y-108371145D01*
X123228469Y-108309146D01*
X123230012Y-108234909D01*
X123230235Y-108196706D01*
X123230457Y-107976783D01*
X123276166Y-107960849D01*
X123308518Y-107950015D01*
X123326115Y-107944962D01*
X123326623Y-107944914D01*
X123328388Y-107958648D01*
X123330329Y-107996730D01*
X123332282Y-108054482D01*
X123334084Y-108127227D01*
X123335343Y-108195286D01*
X123339314Y-108445657D01*
X123426400Y-108445657D01*
X123430396Y-108217240D01*
X123434392Y-107988822D01*
X123476847Y-107966868D01*
X123508192Y-107951793D01*
X123526744Y-107944951D01*
X123527279Y-107944914D01*
X123529833Y-107958663D01*
X123529833Y-107958663D01*
G37*
X123529833Y-107958663D02*
X123532048Y-107996850D01*
X123533784Y-108054886D01*
X123534899Y-108128180D01*
X123535257Y-108205055D01*
X123535257Y-108465196D01*
X123489326Y-108511127D01*
X123457675Y-108539429D01*
X123429890Y-108550893D01*
X123391915Y-108550168D01*
X123376840Y-108548321D01*
X123329726Y-108542948D01*
X123290756Y-108539869D01*
X123281257Y-108539585D01*
X123249233Y-108541445D01*
X123203432Y-108546114D01*
X123185674Y-108548321D01*
X123142057Y-108551735D01*
X123112745Y-108544320D01*
X123083680Y-108521427D01*
X123073188Y-108511127D01*
X123027257Y-108465196D01*
X123027257Y-107978602D01*
X123064226Y-107961758D01*
X123096059Y-107949282D01*
X123114683Y-107944914D01*
X123119458Y-107958718D01*
X123123921Y-107997286D01*
X123127775Y-108056356D01*
X123130722Y-108131663D01*
X123132143Y-108195286D01*
X123136114Y-108445657D01*
X123170759Y-108450556D01*
X123202268Y-108447131D01*
X123217708Y-108436041D01*
X123222023Y-108415308D01*
X123225708Y-108371145D01*
X123228469Y-108309146D01*
X123230012Y-108234909D01*
X123230235Y-108196706D01*
X123230457Y-107976783D01*
X123276166Y-107960849D01*
X123308518Y-107950015D01*
X123326115Y-107944962D01*
X123326623Y-107944914D01*
X123328388Y-107958648D01*
X123330329Y-107996730D01*
X123332282Y-108054482D01*
X123334084Y-108127227D01*
X123335343Y-108195286D01*
X123339314Y-108445657D01*
X123426400Y-108445657D01*
X123430396Y-108217240D01*
X123434392Y-107988822D01*
X123476847Y-107966868D01*
X123508192Y-107951793D01*
X123526744Y-107944951D01*
X123527279Y-107944914D01*
X123529833Y-107958663D01*
G36*
X122940117Y-108065358D02*
G01*
X122939933Y-108173837D01*
X122939219Y-108257287D01*
X122937675Y-108319704D01*
X122935001Y-108365085D01*
X122930894Y-108397429D01*
X122925055Y-108420733D01*
X122917182Y-108438995D01*
X122911221Y-108449418D01*
X122861855Y-108505945D01*
X122799264Y-108541377D01*
X122730013Y-108554090D01*
X122660668Y-108542463D01*
X122619375Y-108521568D01*
X122576025Y-108485422D01*
X122546481Y-108441276D01*
X122528655Y-108383462D01*
X122520463Y-108306313D01*
X122519302Y-108249714D01*
X122519458Y-108245647D01*
X122620857Y-108245647D01*
X122621476Y-108310550D01*
X122624314Y-108353514D01*
X122630840Y-108381622D01*
X122642523Y-108401953D01*
X122656483Y-108417288D01*
X122703365Y-108446890D01*
X122753701Y-108449419D01*
X122801276Y-108424705D01*
X122804979Y-108421356D01*
X122820783Y-108403935D01*
X122830693Y-108383209D01*
X122836058Y-108352362D01*
X122838228Y-108304577D01*
X122838571Y-108251748D01*
X122837827Y-108185381D01*
X122834748Y-108141106D01*
X122828061Y-108112009D01*
X122816496Y-108091173D01*
X122807013Y-108080107D01*
X122762960Y-108052198D01*
X122712224Y-108048843D01*
X122663796Y-108070159D01*
X122654450Y-108078073D01*
X122638540Y-108095647D01*
X122628610Y-108116587D01*
X122623278Y-108147782D01*
X122621163Y-108196122D01*
X122620857Y-108245647D01*
X122519458Y-108245647D01*
X122522810Y-108158568D01*
X122534726Y-108090086D01*
X122557135Y-108038600D01*
X122592124Y-107998443D01*
X122619375Y-107977861D01*
X122668907Y-107955625D01*
X122726316Y-107945304D01*
X122779682Y-107948067D01*
X122809543Y-107959212D01*
X122821261Y-107962383D01*
X122829037Y-107950557D01*
X122834465Y-107918866D01*
X122838571Y-107870593D01*
X122843067Y-107816829D01*
X122849313Y-107784482D01*
X122860676Y-107765985D01*
X122880528Y-107753770D01*
X122893000Y-107748362D01*
X122940171Y-107728601D01*
X122940117Y-108065358D01*
X122940117Y-108065358D01*
G37*
X122940117Y-108065358D02*
X122939933Y-108173837D01*
X122939219Y-108257287D01*
X122937675Y-108319704D01*
X122935001Y-108365085D01*
X122930894Y-108397429D01*
X122925055Y-108420733D01*
X122917182Y-108438995D01*
X122911221Y-108449418D01*
X122861855Y-108505945D01*
X122799264Y-108541377D01*
X122730013Y-108554090D01*
X122660668Y-108542463D01*
X122619375Y-108521568D01*
X122576025Y-108485422D01*
X122546481Y-108441276D01*
X122528655Y-108383462D01*
X122520463Y-108306313D01*
X122519302Y-108249714D01*
X122519458Y-108245647D01*
X122620857Y-108245647D01*
X122621476Y-108310550D01*
X122624314Y-108353514D01*
X122630840Y-108381622D01*
X122642523Y-108401953D01*
X122656483Y-108417288D01*
X122703365Y-108446890D01*
X122753701Y-108449419D01*
X122801276Y-108424705D01*
X122804979Y-108421356D01*
X122820783Y-108403935D01*
X122830693Y-108383209D01*
X122836058Y-108352362D01*
X122838228Y-108304577D01*
X122838571Y-108251748D01*
X122837827Y-108185381D01*
X122834748Y-108141106D01*
X122828061Y-108112009D01*
X122816496Y-108091173D01*
X122807013Y-108080107D01*
X122762960Y-108052198D01*
X122712224Y-108048843D01*
X122663796Y-108070159D01*
X122654450Y-108078073D01*
X122638540Y-108095647D01*
X122628610Y-108116587D01*
X122623278Y-108147782D01*
X122621163Y-108196122D01*
X122620857Y-108245647D01*
X122519458Y-108245647D01*
X122522810Y-108158568D01*
X122534726Y-108090086D01*
X122557135Y-108038600D01*
X122592124Y-107998443D01*
X122619375Y-107977861D01*
X122668907Y-107955625D01*
X122726316Y-107945304D01*
X122779682Y-107948067D01*
X122809543Y-107959212D01*
X122821261Y-107962383D01*
X122829037Y-107950557D01*
X122834465Y-107918866D01*
X122838571Y-107870593D01*
X122843067Y-107816829D01*
X122849313Y-107784482D01*
X122860676Y-107765985D01*
X122880528Y-107753770D01*
X122893000Y-107748362D01*
X122940171Y-107728601D01*
X122940117Y-108065358D01*
G36*
X122279926Y-107949755D02*
G01*
X122345858Y-107974084D01*
X122399273Y-108017117D01*
X122420164Y-108047409D01*
X122442939Y-108102994D01*
X122442466Y-108143186D01*
X122418562Y-108170217D01*
X122409717Y-108174813D01*
X122371530Y-108189144D01*
X122352028Y-108185472D01*
X122345422Y-108161407D01*
X122345086Y-108148114D01*
X122332992Y-108099210D01*
X122301471Y-108064999D01*
X122257659Y-108048476D01*
X122208695Y-108052634D01*
X122168894Y-108074227D01*
X122155450Y-108086544D01*
X122145921Y-108101487D01*
X122139485Y-108124075D01*
X122135317Y-108159328D01*
X122132597Y-108212266D01*
X122130502Y-108287907D01*
X122129960Y-108311857D01*
X122127981Y-108393790D01*
X122125731Y-108451455D01*
X122122357Y-108489608D01*
X122117006Y-108513004D01*
X122108824Y-108526398D01*
X122096959Y-108534545D01*
X122089362Y-108538144D01*
X122057102Y-108550452D01*
X122038111Y-108554514D01*
X122031836Y-108540948D01*
X122028006Y-108499934D01*
X122026600Y-108430999D01*
X122027598Y-108333669D01*
X122027908Y-108318657D01*
X122030101Y-108229859D01*
X122032693Y-108165019D01*
X122036382Y-108119067D01*
X122041864Y-108086935D01*
X122049835Y-108063553D01*
X122060993Y-108043852D01*
X122066830Y-108035410D01*
X122100296Y-107998057D01*
X122137727Y-107969003D01*
X122142309Y-107966467D01*
X122209426Y-107946443D01*
X122279926Y-107949755D01*
X122279926Y-107949755D01*
G37*
X122279926Y-107949755D02*
X122345858Y-107974084D01*
X122399273Y-108017117D01*
X122420164Y-108047409D01*
X122442939Y-108102994D01*
X122442466Y-108143186D01*
X122418562Y-108170217D01*
X122409717Y-108174813D01*
X122371530Y-108189144D01*
X122352028Y-108185472D01*
X122345422Y-108161407D01*
X122345086Y-108148114D01*
X122332992Y-108099210D01*
X122301471Y-108064999D01*
X122257659Y-108048476D01*
X122208695Y-108052634D01*
X122168894Y-108074227D01*
X122155450Y-108086544D01*
X122145921Y-108101487D01*
X122139485Y-108124075D01*
X122135317Y-108159328D01*
X122132597Y-108212266D01*
X122130502Y-108287907D01*
X122129960Y-108311857D01*
X122127981Y-108393790D01*
X122125731Y-108451455D01*
X122122357Y-108489608D01*
X122117006Y-108513004D01*
X122108824Y-108526398D01*
X122096959Y-108534545D01*
X122089362Y-108538144D01*
X122057102Y-108550452D01*
X122038111Y-108554514D01*
X122031836Y-108540948D01*
X122028006Y-108499934D01*
X122026600Y-108430999D01*
X122027598Y-108333669D01*
X122027908Y-108318657D01*
X122030101Y-108229859D01*
X122032693Y-108165019D01*
X122036382Y-108119067D01*
X122041864Y-108086935D01*
X122049835Y-108063553D01*
X122060993Y-108043852D01*
X122066830Y-108035410D01*
X122100296Y-107998057D01*
X122137727Y-107969003D01*
X122142309Y-107966467D01*
X122209426Y-107946443D01*
X122279926Y-107949755D01*
G36*
X121789744Y-107950968D02*
G01*
X121846616Y-107972087D01*
X121847267Y-107972493D01*
X121882440Y-107998380D01*
X121908407Y-108028633D01*
X121926670Y-108068058D01*
X121938732Y-108121462D01*
X121946096Y-108193651D01*
X121950264Y-108289432D01*
X121950629Y-108303078D01*
X121955876Y-108508842D01*
X121911716Y-108531678D01*
X121879763Y-108547110D01*
X121860470Y-108554423D01*
X121859578Y-108554514D01*
X121856239Y-108541022D01*
X121853587Y-108504626D01*
X121851956Y-108451452D01*
X121851600Y-108408393D01*
X121851592Y-108338641D01*
X121848403Y-108294837D01*
X121837288Y-108273944D01*
X121813501Y-108272925D01*
X121772296Y-108288741D01*
X121710086Y-108317815D01*
X121664341Y-108341963D01*
X121640813Y-108362913D01*
X121633896Y-108385747D01*
X121633886Y-108386877D01*
X121645299Y-108426212D01*
X121679092Y-108447462D01*
X121730809Y-108450539D01*
X121768061Y-108450006D01*
X121787703Y-108460735D01*
X121799952Y-108486505D01*
X121807002Y-108519337D01*
X121796842Y-108537966D01*
X121793017Y-108540632D01*
X121757001Y-108551340D01*
X121706566Y-108552856D01*
X121654626Y-108545759D01*
X121617822Y-108532788D01*
X121566938Y-108489585D01*
X121538014Y-108429446D01*
X121532286Y-108382462D01*
X121536657Y-108340082D01*
X121552475Y-108305488D01*
X121583797Y-108274763D01*
X121634678Y-108243990D01*
X121709176Y-108209252D01*
X121713714Y-108207288D01*
X121780821Y-108176287D01*
X121822232Y-108150862D01*
X121839981Y-108128014D01*
X121836107Y-108104745D01*
X121812643Y-108078056D01*
X121805627Y-108071914D01*
X121758630Y-108048100D01*
X121709933Y-108049103D01*
X121667522Y-108072451D01*
X121639384Y-108115675D01*
X121636769Y-108124160D01*
X121611308Y-108165308D01*
X121579001Y-108185128D01*
X121532286Y-108204770D01*
X121532286Y-108153950D01*
X121546496Y-108080082D01*
X121588675Y-108012327D01*
X121610624Y-107989661D01*
X121660517Y-107960569D01*
X121723967Y-107947400D01*
X121789744Y-107950968D01*
X121789744Y-107950968D01*
G37*
X121789744Y-107950968D02*
X121846616Y-107972087D01*
X121847267Y-107972493D01*
X121882440Y-107998380D01*
X121908407Y-108028633D01*
X121926670Y-108068058D01*
X121938732Y-108121462D01*
X121946096Y-108193651D01*
X121950264Y-108289432D01*
X121950629Y-108303078D01*
X121955876Y-108508842D01*
X121911716Y-108531678D01*
X121879763Y-108547110D01*
X121860470Y-108554423D01*
X121859578Y-108554514D01*
X121856239Y-108541022D01*
X121853587Y-108504626D01*
X121851956Y-108451452D01*
X121851600Y-108408393D01*
X121851592Y-108338641D01*
X121848403Y-108294837D01*
X121837288Y-108273944D01*
X121813501Y-108272925D01*
X121772296Y-108288741D01*
X121710086Y-108317815D01*
X121664341Y-108341963D01*
X121640813Y-108362913D01*
X121633896Y-108385747D01*
X121633886Y-108386877D01*
X121645299Y-108426212D01*
X121679092Y-108447462D01*
X121730809Y-108450539D01*
X121768061Y-108450006D01*
X121787703Y-108460735D01*
X121799952Y-108486505D01*
X121807002Y-108519337D01*
X121796842Y-108537966D01*
X121793017Y-108540632D01*
X121757001Y-108551340D01*
X121706566Y-108552856D01*
X121654626Y-108545759D01*
X121617822Y-108532788D01*
X121566938Y-108489585D01*
X121538014Y-108429446D01*
X121532286Y-108382462D01*
X121536657Y-108340082D01*
X121552475Y-108305488D01*
X121583797Y-108274763D01*
X121634678Y-108243990D01*
X121709176Y-108209252D01*
X121713714Y-108207288D01*
X121780821Y-108176287D01*
X121822232Y-108150862D01*
X121839981Y-108128014D01*
X121836107Y-108104745D01*
X121812643Y-108078056D01*
X121805627Y-108071914D01*
X121758630Y-108048100D01*
X121709933Y-108049103D01*
X121667522Y-108072451D01*
X121639384Y-108115675D01*
X121636769Y-108124160D01*
X121611308Y-108165308D01*
X121579001Y-108185128D01*
X121532286Y-108204770D01*
X121532286Y-108153950D01*
X121546496Y-108080082D01*
X121588675Y-108012327D01*
X121610624Y-107989661D01*
X121660517Y-107960569D01*
X121723967Y-107947400D01*
X121789744Y-107950968D01*
G36*
X121125886Y-107851289D02*
G01*
X121130139Y-107910613D01*
X121135025Y-107945572D01*
X121141795Y-107960820D01*
X121151702Y-107961015D01*
X121154914Y-107959195D01*
X121197644Y-107946015D01*
X121253227Y-107946785D01*
X121309737Y-107960333D01*
X121345082Y-107977861D01*
X121381321Y-108005861D01*
X121407813Y-108037549D01*
X121425999Y-108077813D01*
X121437322Y-108131543D01*
X121443222Y-108203626D01*
X121445143Y-108298951D01*
X121445177Y-108317237D01*
X121445200Y-108522646D01*
X121399491Y-108538580D01*
X121367027Y-108549420D01*
X121349215Y-108554468D01*
X121348691Y-108554514D01*
X121346937Y-108540828D01*
X121345444Y-108503076D01*
X121344326Y-108446224D01*
X121343697Y-108375234D01*
X121343600Y-108332073D01*
X121343398Y-108246973D01*
X121342358Y-108185981D01*
X121339831Y-108144177D01*
X121335164Y-108116642D01*
X121327707Y-108098456D01*
X121316811Y-108084698D01*
X121310007Y-108078073D01*
X121263272Y-108051375D01*
X121212272Y-108049375D01*
X121166001Y-108071955D01*
X121157444Y-108080107D01*
X121144893Y-108095436D01*
X121136188Y-108113618D01*
X121130631Y-108139909D01*
X121127526Y-108179562D01*
X121126176Y-108237832D01*
X121125886Y-108318173D01*
X121125886Y-108522646D01*
X121080177Y-108538580D01*
X121047713Y-108549420D01*
X121029901Y-108554468D01*
X121029377Y-108554514D01*
X121028037Y-108540623D01*
X121026828Y-108501439D01*
X121025801Y-108440700D01*
X121025002Y-108362141D01*
X121024481Y-108269498D01*
X121024286Y-108166509D01*
X121024286Y-107769342D01*
X121071457Y-107749444D01*
X121118629Y-107729547D01*
X121125886Y-107851289D01*
X121125886Y-107851289D01*
G37*
X121125886Y-107851289D02*
X121130139Y-107910613D01*
X121135025Y-107945572D01*
X121141795Y-107960820D01*
X121151702Y-107961015D01*
X121154914Y-107959195D01*
X121197644Y-107946015D01*
X121253227Y-107946785D01*
X121309737Y-107960333D01*
X121345082Y-107977861D01*
X121381321Y-108005861D01*
X121407813Y-108037549D01*
X121425999Y-108077813D01*
X121437322Y-108131543D01*
X121443222Y-108203626D01*
X121445143Y-108298951D01*
X121445177Y-108317237D01*
X121445200Y-108522646D01*
X121399491Y-108538580D01*
X121367027Y-108549420D01*
X121349215Y-108554468D01*
X121348691Y-108554514D01*
X121346937Y-108540828D01*
X121345444Y-108503076D01*
X121344326Y-108446224D01*
X121343697Y-108375234D01*
X121343600Y-108332073D01*
X121343398Y-108246973D01*
X121342358Y-108185981D01*
X121339831Y-108144177D01*
X121335164Y-108116642D01*
X121327707Y-108098456D01*
X121316811Y-108084698D01*
X121310007Y-108078073D01*
X121263272Y-108051375D01*
X121212272Y-108049375D01*
X121166001Y-108071955D01*
X121157444Y-108080107D01*
X121144893Y-108095436D01*
X121136188Y-108113618D01*
X121130631Y-108139909D01*
X121127526Y-108179562D01*
X121126176Y-108237832D01*
X121125886Y-108318173D01*
X121125886Y-108522646D01*
X121080177Y-108538580D01*
X121047713Y-108549420D01*
X121029901Y-108554468D01*
X121029377Y-108554514D01*
X121028037Y-108540623D01*
X121026828Y-108501439D01*
X121025801Y-108440700D01*
X121025002Y-108362141D01*
X121024481Y-108269498D01*
X121024286Y-108166509D01*
X121024286Y-107769342D01*
X121071457Y-107749444D01*
X121118629Y-107729547D01*
X121125886Y-107851289D01*
G36*
X119918303Y-107931239D02*
G01*
X119975527Y-107969735D01*
X120019749Y-108025335D01*
X120046167Y-108096086D01*
X120051510Y-108148162D01*
X120050903Y-108169893D01*
X120045822Y-108186531D01*
X120031855Y-108201437D01*
X120004589Y-108217973D01*
X119959612Y-108239498D01*
X119892511Y-108269374D01*
X119892171Y-108269524D01*
X119830407Y-108297813D01*
X119779759Y-108322933D01*
X119745404Y-108342179D01*
X119732518Y-108352848D01*
X119732514Y-108352934D01*
X119743872Y-108376166D01*
X119770431Y-108401774D01*
X119800923Y-108420221D01*
X119816370Y-108423886D01*
X119858515Y-108411212D01*
X119894808Y-108379471D01*
X119912517Y-108344572D01*
X119929552Y-108318845D01*
X119962922Y-108289546D01*
X120002149Y-108264235D01*
X120036756Y-108250471D01*
X120043993Y-108249714D01*
X120052139Y-108262160D01*
X120052630Y-108293972D01*
X120046643Y-108336866D01*
X120035357Y-108382558D01*
X120019950Y-108422761D01*
X120019171Y-108424322D01*
X119972804Y-108489062D01*
X119912711Y-108533097D01*
X119844465Y-108554711D01*
X119773638Y-108552185D01*
X119705804Y-108523804D01*
X119702788Y-108521808D01*
X119649427Y-108473448D01*
X119614340Y-108410352D01*
X119594922Y-108327387D01*
X119592316Y-108304078D01*
X119587701Y-108194055D01*
X119593233Y-108142748D01*
X119732514Y-108142748D01*
X119734324Y-108174753D01*
X119744222Y-108184093D01*
X119768898Y-108177105D01*
X119807795Y-108160587D01*
X119851275Y-108139881D01*
X119852356Y-108139333D01*
X119889209Y-108119949D01*
X119904000Y-108107013D01*
X119900353Y-108093451D01*
X119884995Y-108075632D01*
X119845923Y-108049845D01*
X119803846Y-108047950D01*
X119766103Y-108066717D01*
X119740034Y-108102915D01*
X119732514Y-108142748D01*
X119593233Y-108142748D01*
X119597194Y-108106027D01*
X119621550Y-108036212D01*
X119655456Y-107987302D01*
X119716653Y-107937878D01*
X119784063Y-107913359D01*
X119852880Y-107911797D01*
X119918303Y-107931239D01*
X119918303Y-107931239D01*
G37*
X119918303Y-107931239D02*
X119975527Y-107969735D01*
X120019749Y-108025335D01*
X120046167Y-108096086D01*
X120051510Y-108148162D01*
X120050903Y-108169893D01*
X120045822Y-108186531D01*
X120031855Y-108201437D01*
X120004589Y-108217973D01*
X119959612Y-108239498D01*
X119892511Y-108269374D01*
X119892171Y-108269524D01*
X119830407Y-108297813D01*
X119779759Y-108322933D01*
X119745404Y-108342179D01*
X119732518Y-108352848D01*
X119732514Y-108352934D01*
X119743872Y-108376166D01*
X119770431Y-108401774D01*
X119800923Y-108420221D01*
X119816370Y-108423886D01*
X119858515Y-108411212D01*
X119894808Y-108379471D01*
X119912517Y-108344572D01*
X119929552Y-108318845D01*
X119962922Y-108289546D01*
X120002149Y-108264235D01*
X120036756Y-108250471D01*
X120043993Y-108249714D01*
X120052139Y-108262160D01*
X120052630Y-108293972D01*
X120046643Y-108336866D01*
X120035357Y-108382558D01*
X120019950Y-108422761D01*
X120019171Y-108424322D01*
X119972804Y-108489062D01*
X119912711Y-108533097D01*
X119844465Y-108554711D01*
X119773638Y-108552185D01*
X119705804Y-108523804D01*
X119702788Y-108521808D01*
X119649427Y-108473448D01*
X119614340Y-108410352D01*
X119594922Y-108327387D01*
X119592316Y-108304078D01*
X119587701Y-108194055D01*
X119593233Y-108142748D01*
X119732514Y-108142748D01*
X119734324Y-108174753D01*
X119744222Y-108184093D01*
X119768898Y-108177105D01*
X119807795Y-108160587D01*
X119851275Y-108139881D01*
X119852356Y-108139333D01*
X119889209Y-108119949D01*
X119904000Y-108107013D01*
X119900353Y-108093451D01*
X119884995Y-108075632D01*
X119845923Y-108049845D01*
X119803846Y-108047950D01*
X119766103Y-108066717D01*
X119740034Y-108102915D01*
X119732514Y-108142748D01*
X119593233Y-108142748D01*
X119597194Y-108106027D01*
X119621550Y-108036212D01*
X119655456Y-107987302D01*
X119716653Y-107937878D01*
X119784063Y-107913359D01*
X119852880Y-107911797D01*
X119918303Y-107931239D01*
G36*
X118791115Y-107921962D02*
G01*
X118859145Y-107957733D01*
X118909351Y-108015301D01*
X118927185Y-108052312D01*
X118941063Y-108107882D01*
X118948167Y-108178096D01*
X118948840Y-108254727D01*
X118943427Y-108329552D01*
X118932270Y-108394342D01*
X118915714Y-108440873D01*
X118910626Y-108448887D01*
X118850355Y-108508707D01*
X118778769Y-108544535D01*
X118701092Y-108555020D01*
X118622548Y-108538810D01*
X118600689Y-108529092D01*
X118558122Y-108499143D01*
X118520763Y-108459433D01*
X118517232Y-108454397D01*
X118502881Y-108430124D01*
X118493394Y-108404178D01*
X118487790Y-108370022D01*
X118485086Y-108321119D01*
X118484299Y-108250935D01*
X118484286Y-108235200D01*
X118484322Y-108230192D01*
X118629429Y-108230192D01*
X118630273Y-108296430D01*
X118633596Y-108340386D01*
X118640583Y-108368779D01*
X118652416Y-108388325D01*
X118658457Y-108394857D01*
X118693186Y-108419680D01*
X118726903Y-108418548D01*
X118760995Y-108397016D01*
X118781329Y-108374029D01*
X118793371Y-108340478D01*
X118800134Y-108287569D01*
X118800598Y-108281399D01*
X118801752Y-108185513D01*
X118789688Y-108114299D01*
X118764570Y-108068194D01*
X118726560Y-108047635D01*
X118712992Y-108046514D01*
X118677364Y-108052152D01*
X118652994Y-108071686D01*
X118638093Y-108109042D01*
X118630875Y-108168150D01*
X118629429Y-108230192D01*
X118484322Y-108230192D01*
X118484826Y-108160413D01*
X118487096Y-108108159D01*
X118492068Y-108071949D01*
X118500713Y-108045299D01*
X118514005Y-108021722D01*
X118516943Y-108017338D01*
X118566313Y-107958249D01*
X118620109Y-107923947D01*
X118685602Y-107910331D01*
X118707842Y-107909665D01*
X118791115Y-107921962D01*
X118791115Y-107921962D01*
G37*
X118791115Y-107921962D02*
X118859145Y-107957733D01*
X118909351Y-108015301D01*
X118927185Y-108052312D01*
X118941063Y-108107882D01*
X118948167Y-108178096D01*
X118948840Y-108254727D01*
X118943427Y-108329552D01*
X118932270Y-108394342D01*
X118915714Y-108440873D01*
X118910626Y-108448887D01*
X118850355Y-108508707D01*
X118778769Y-108544535D01*
X118701092Y-108555020D01*
X118622548Y-108538810D01*
X118600689Y-108529092D01*
X118558122Y-108499143D01*
X118520763Y-108459433D01*
X118517232Y-108454397D01*
X118502881Y-108430124D01*
X118493394Y-108404178D01*
X118487790Y-108370022D01*
X118485086Y-108321119D01*
X118484299Y-108250935D01*
X118484286Y-108235200D01*
X118484322Y-108230192D01*
X118629429Y-108230192D01*
X118630273Y-108296430D01*
X118633596Y-108340386D01*
X118640583Y-108368779D01*
X118652416Y-108388325D01*
X118658457Y-108394857D01*
X118693186Y-108419680D01*
X118726903Y-108418548D01*
X118760995Y-108397016D01*
X118781329Y-108374029D01*
X118793371Y-108340478D01*
X118800134Y-108287569D01*
X118800598Y-108281399D01*
X118801752Y-108185513D01*
X118789688Y-108114299D01*
X118764570Y-108068194D01*
X118726560Y-108047635D01*
X118712992Y-108046514D01*
X118677364Y-108052152D01*
X118652994Y-108071686D01*
X118638093Y-108109042D01*
X118630875Y-108168150D01*
X118629429Y-108230192D01*
X118484322Y-108230192D01*
X118484826Y-108160413D01*
X118487096Y-108108159D01*
X118492068Y-108071949D01*
X118500713Y-108045299D01*
X118514005Y-108021722D01*
X118516943Y-108017338D01*
X118566313Y-107958249D01*
X118620109Y-107923947D01*
X118685602Y-107910331D01*
X118707842Y-107909665D01*
X118791115Y-107921962D01*
G36*
X120466093Y-107927780D02*
G01*
X120512672Y-107954723D01*
X120545057Y-107981466D01*
X120568742Y-108009484D01*
X120585059Y-108043748D01*
X120595339Y-108089227D01*
X120600914Y-108150892D01*
X120603116Y-108233711D01*
X120603371Y-108293246D01*
X120603371Y-108512391D01*
X120541686Y-108540044D01*
X120480000Y-108567697D01*
X120472743Y-108327670D01*
X120469744Y-108238028D01*
X120466598Y-108172962D01*
X120462701Y-108128026D01*
X120457447Y-108098770D01*
X120450231Y-108080748D01*
X120440450Y-108069511D01*
X120437312Y-108067079D01*
X120389761Y-108048083D01*
X120341697Y-108055600D01*
X120313086Y-108075543D01*
X120301447Y-108089675D01*
X120293391Y-108108220D01*
X120288271Y-108136334D01*
X120285441Y-108179173D01*
X120284256Y-108241895D01*
X120284057Y-108307261D01*
X120284018Y-108389268D01*
X120282614Y-108447316D01*
X120277914Y-108486465D01*
X120267987Y-108511780D01*
X120250903Y-108528323D01*
X120224732Y-108541156D01*
X120189775Y-108554491D01*
X120151596Y-108569007D01*
X120156141Y-108311389D01*
X120157971Y-108218519D01*
X120160112Y-108149889D01*
X120163181Y-108100711D01*
X120167794Y-108066198D01*
X120174568Y-108041562D01*
X120184119Y-108022016D01*
X120195634Y-108004770D01*
X120251190Y-107949680D01*
X120318980Y-107917822D01*
X120392713Y-107910191D01*
X120466093Y-107927780D01*
X120466093Y-107927780D01*
G37*
X120466093Y-107927780D02*
X120512672Y-107954723D01*
X120545057Y-107981466D01*
X120568742Y-108009484D01*
X120585059Y-108043748D01*
X120595339Y-108089227D01*
X120600914Y-108150892D01*
X120603116Y-108233711D01*
X120603371Y-108293246D01*
X120603371Y-108512391D01*
X120541686Y-108540044D01*
X120480000Y-108567697D01*
X120472743Y-108327670D01*
X120469744Y-108238028D01*
X120466598Y-108172962D01*
X120462701Y-108128026D01*
X120457447Y-108098770D01*
X120450231Y-108080748D01*
X120440450Y-108069511D01*
X120437312Y-108067079D01*
X120389761Y-108048083D01*
X120341697Y-108055600D01*
X120313086Y-108075543D01*
X120301447Y-108089675D01*
X120293391Y-108108220D01*
X120288271Y-108136334D01*
X120285441Y-108179173D01*
X120284256Y-108241895D01*
X120284057Y-108307261D01*
X120284018Y-108389268D01*
X120282614Y-108447316D01*
X120277914Y-108486465D01*
X120267987Y-108511780D01*
X120250903Y-108528323D01*
X120224732Y-108541156D01*
X120189775Y-108554491D01*
X120151596Y-108569007D01*
X120156141Y-108311389D01*
X120157971Y-108218519D01*
X120160112Y-108149889D01*
X120163181Y-108100711D01*
X120167794Y-108066198D01*
X120174568Y-108041562D01*
X120184119Y-108022016D01*
X120195634Y-108004770D01*
X120251190Y-107949680D01*
X120318980Y-107917822D01*
X120392713Y-107910191D01*
X120466093Y-107927780D01*
G36*
X119349744Y-107919918D02*
G01*
X119405201Y-107947568D01*
X119454148Y-107998480D01*
X119467629Y-108017338D01*
X119482314Y-108042015D01*
X119491842Y-108068816D01*
X119497293Y-108104587D01*
X119499747Y-108156169D01*
X119500286Y-108224267D01*
X119497852Y-108317588D01*
X119489394Y-108387657D01*
X119473174Y-108439931D01*
X119447454Y-108479869D01*
X119410497Y-108512929D01*
X119407782Y-108514886D01*
X119371360Y-108534908D01*
X119327502Y-108544815D01*
X119271724Y-108547257D01*
X119181048Y-108547257D01*
X119181010Y-108635283D01*
X119180166Y-108684308D01*
X119175024Y-108713065D01*
X119161587Y-108730311D01*
X119135858Y-108744808D01*
X119129679Y-108747769D01*
X119100764Y-108761648D01*
X119078376Y-108770414D01*
X119061729Y-108771171D01*
X119050036Y-108761023D01*
X119042510Y-108737073D01*
X119038366Y-108696426D01*
X119036815Y-108636186D01*
X119037071Y-108553455D01*
X119038349Y-108445339D01*
X119038748Y-108413000D01*
X119040185Y-108301524D01*
X119041472Y-108228603D01*
X119180971Y-108228603D01*
X119181755Y-108290499D01*
X119185240Y-108330997D01*
X119193124Y-108357708D01*
X119207105Y-108378244D01*
X119216597Y-108388260D01*
X119255404Y-108417567D01*
X119289763Y-108419952D01*
X119325216Y-108395750D01*
X119326114Y-108394857D01*
X119340539Y-108376153D01*
X119349313Y-108350732D01*
X119353739Y-108311584D01*
X119355118Y-108251697D01*
X119355143Y-108238430D01*
X119351812Y-108155901D01*
X119340969Y-108098691D01*
X119321340Y-108063766D01*
X119291650Y-108048094D01*
X119274491Y-108046514D01*
X119233766Y-108053926D01*
X119205832Y-108078330D01*
X119189017Y-108122980D01*
X119181650Y-108191130D01*
X119180971Y-108228603D01*
X119041472Y-108228603D01*
X119041708Y-108215245D01*
X119043677Y-108150333D01*
X119046450Y-108102958D01*
X119050388Y-108069290D01*
X119055849Y-108045498D01*
X119063192Y-108027753D01*
X119072777Y-108012224D01*
X119076887Y-108006381D01*
X119131405Y-107951185D01*
X119200336Y-107919890D01*
X119280072Y-107911165D01*
X119349744Y-107919918D01*
X119349744Y-107919918D01*
G37*
X119349744Y-107919918D02*
X119405201Y-107947568D01*
X119454148Y-107998480D01*
X119467629Y-108017338D01*
X119482314Y-108042015D01*
X119491842Y-108068816D01*
X119497293Y-108104587D01*
X119499747Y-108156169D01*
X119500286Y-108224267D01*
X119497852Y-108317588D01*
X119489394Y-108387657D01*
X119473174Y-108439931D01*
X119447454Y-108479869D01*
X119410497Y-108512929D01*
X119407782Y-108514886D01*
X119371360Y-108534908D01*
X119327502Y-108544815D01*
X119271724Y-108547257D01*
X119181048Y-108547257D01*
X119181010Y-108635283D01*
X119180166Y-108684308D01*
X119175024Y-108713065D01*
X119161587Y-108730311D01*
X119135858Y-108744808D01*
X119129679Y-108747769D01*
X119100764Y-108761648D01*
X119078376Y-108770414D01*
X119061729Y-108771171D01*
X119050036Y-108761023D01*
X119042510Y-108737073D01*
X119038366Y-108696426D01*
X119036815Y-108636186D01*
X119037071Y-108553455D01*
X119038349Y-108445339D01*
X119038748Y-108413000D01*
X119040185Y-108301524D01*
X119041472Y-108228603D01*
X119180971Y-108228603D01*
X119181755Y-108290499D01*
X119185240Y-108330997D01*
X119193124Y-108357708D01*
X119207105Y-108378244D01*
X119216597Y-108388260D01*
X119255404Y-108417567D01*
X119289763Y-108419952D01*
X119325216Y-108395750D01*
X119326114Y-108394857D01*
X119340539Y-108376153D01*
X119349313Y-108350732D01*
X119353739Y-108311584D01*
X119355118Y-108251697D01*
X119355143Y-108238430D01*
X119351812Y-108155901D01*
X119340969Y-108098691D01*
X119321340Y-108063766D01*
X119291650Y-108048094D01*
X119274491Y-108046514D01*
X119233766Y-108053926D01*
X119205832Y-108078330D01*
X119189017Y-108122980D01*
X119181650Y-108191130D01*
X119180971Y-108228603D01*
X119041472Y-108228603D01*
X119041708Y-108215245D01*
X119043677Y-108150333D01*
X119046450Y-108102958D01*
X119050388Y-108069290D01*
X119055849Y-108045498D01*
X119063192Y-108027753D01*
X119072777Y-108012224D01*
X119076887Y-108006381D01*
X119131405Y-107951185D01*
X119200336Y-107919890D01*
X119280072Y-107911165D01*
X119349744Y-107919918D01*
D13*
X91450000Y-97100000D02*
X91450000Y-81000000D01*
X96850000Y-97100000D02*
X91450000Y-97100000D01*
X96850000Y-81000000D02*
X96850000Y-97100000D01*
X91450000Y-81000000D02*
X96850000Y-81000000D01*
X88350000Y-80000000D02*
X88350000Y-98000000D01*
X100450000Y-80000000D02*
X88350000Y-80000000D01*
X100450000Y-80100000D02*
X100450000Y-80000000D01*
X100450000Y-98000000D02*
X100450000Y-80100000D01*
X88350000Y-98000000D02*
X100450000Y-98000000D01*
X129500000Y-81350000D02*
X129500000Y-83350000D01*
X125600000Y-79450000D02*
X129500000Y-81350000D01*
X129500000Y-83350000D02*
X125600000Y-84950000D01*
X129500000Y-77250000D02*
X125600000Y-78850000D01*
X129500000Y-75250000D02*
X129500000Y-77250000D01*
X125600000Y-73350000D02*
X129500000Y-75250000D01*
X131100000Y-85650000D02*
X120800000Y-85650000D01*
X131100000Y-72650000D02*
X131100000Y-85650000D01*
X120800000Y-72650000D02*
X131100000Y-72650000D01*
X113800000Y-72650000D02*
X120800000Y-72650000D01*
X113800000Y-85650000D02*
X113800000Y-72650000D01*
X120800000Y-85650000D02*
X113800000Y-85650000D01*
X96290000Y-100863748D02*
X96290000Y-101386252D01*
X97710000Y-100863748D02*
X97710000Y-101386252D01*
X108652500Y-114395563D02*
X109716937Y-115460000D01*
X108652500Y-109704437D02*
X109716937Y-108640000D01*
X108652500Y-109704437D02*
X108652500Y-110990000D01*
X108652500Y-114395563D02*
X108652500Y-113110000D01*
X109716937Y-115460000D02*
X115472500Y-115460000D01*
X109716937Y-108640000D02*
X115472500Y-108640000D01*
X115472500Y-108640000D02*
X115472500Y-110990000D01*
X115472500Y-115460000D02*
X115472500Y-113110000D01*
X98763748Y-77710000D02*
X99286252Y-77710000D01*
X98763748Y-76290000D02*
X99286252Y-76290000D01*
X115210000Y-98736252D02*
X115210000Y-98213748D01*
X113790000Y-98736252D02*
X113790000Y-98213748D01*
X104177500Y-79095563D02*
X105241937Y-80160000D01*
X104177500Y-75704437D02*
X105241937Y-74640000D01*
X104177500Y-75704437D02*
X104177500Y-76340000D01*
X104177500Y-79095563D02*
X104177500Y-78460000D01*
X105241937Y-80160000D02*
X109697500Y-80160000D01*
X105241937Y-74640000D02*
X109697500Y-74640000D01*
X109697500Y-74640000D02*
X109697500Y-76340000D01*
X109697500Y-80160000D02*
X109697500Y-78460000D01*
X81052500Y-80295563D02*
X82116937Y-81360000D01*
X81052500Y-75604437D02*
X82116937Y-74540000D01*
X81052500Y-75604437D02*
X81052500Y-76890000D01*
X81052500Y-80295563D02*
X81052500Y-79010000D01*
X82116937Y-81360000D02*
X87872500Y-81360000D01*
X82116937Y-74540000D02*
X87872500Y-74540000D01*
X87872500Y-74540000D02*
X87872500Y-76890000D01*
X87872500Y-81360000D02*
X87872500Y-79010000D01*
X90400000Y-100950000D02*
X93400000Y-100950000D01*
X93400000Y-105550000D02*
X90400000Y-105550000D01*
X89300000Y-100950000D02*
X89500000Y-100950000D01*
X89300000Y-105550000D02*
X89300000Y-100950000D01*
X89500000Y-105550000D02*
X89300000Y-105550000D01*
X94500000Y-105550000D02*
X94500000Y-99750000D01*
X94300000Y-105550000D02*
X94500000Y-105550000D01*
X94300000Y-77850000D02*
X91150000Y-77850000D01*
X94300000Y-76150000D02*
X91150000Y-76150000D01*
X94300000Y-77850000D02*
X94300000Y-76150000D01*
X104475000Y-102180000D02*
X104475000Y-107620000D01*
X104715000Y-102180000D02*
X104715000Y-107620000D01*
X104595000Y-102180000D02*
X104595000Y-107620000D01*
X113700000Y-104900000D02*
X112790000Y-104900000D01*
X102140000Y-104900000D02*
X103050000Y-104900000D01*
X112790000Y-102180000D02*
X103050000Y-102180000D01*
X112790000Y-107620000D02*
X112790000Y-102180000D01*
X103050000Y-107620000D02*
X112790000Y-107620000D01*
X103050000Y-102180000D02*
X103050000Y-107620000D01*
X76800000Y-84900000D02*
X79600000Y-84900000D01*
X76800000Y-84900000D02*
X76800000Y-107400000D01*
X86400000Y-84900000D02*
X86400000Y-107400000D01*
X83600000Y-84900000D02*
X86400000Y-84900000D01*
X83600000Y-107400000D02*
X86400000Y-107400000D01*
X76800000Y-107400000D02*
X79600000Y-107400000D01*
X128500000Y-88350000D02*
G75*
G02X129150000Y-89000000I0J-650000D01*
G01*
X129150000Y-100500000D02*
G75*
G02X128500000Y-101150000I-650000J0D01*
G01*
X117000000Y-101150000D02*
G75*
G02X116350000Y-100500000I0J650000D01*
G01*
X116350000Y-89000000D02*
G75*
G02X117000000Y-88350000I650000J0D01*
G01*
X129150000Y-97750000D02*
X129150000Y-100500000D01*
X116350000Y-97750000D02*
X116350000Y-100500000D01*
X129150000Y-89000000D02*
X129150000Y-91750000D01*
X128500000Y-101150000D02*
X117000000Y-101150000D01*
X116350000Y-89000000D02*
X116350000Y-91750000D01*
X117000000Y-88350000D02*
X128500000Y-88350000D01*
X84588000Y-116635500D02*
X84588000Y-110285500D01*
X106305000Y-116635500D02*
X84588000Y-116635500D01*
X106305000Y-110285500D02*
X106305000Y-116635500D01*
X84588000Y-110285500D02*
X106305000Y-110285500D01*
X111600000Y-95125000D02*
X111600000Y-96225000D01*
X112550000Y-95125000D02*
X111600000Y-95125000D01*
X112550000Y-93625000D02*
X112550000Y-95125000D01*
X103100000Y-95125000D02*
X103100000Y-100250000D01*
X102150000Y-95125000D02*
X103100000Y-95125000D01*
X102150000Y-93625000D02*
X102150000Y-95125000D01*
X80000000Y-110250000D02*
X82750000Y-110250000D01*
X82750000Y-110250000D02*
X82750000Y-116500000D01*
X82750000Y-116500000D02*
X77250000Y-116500000D01*
X77250000Y-116500000D02*
X77250000Y-110250000D01*
X77250000Y-110250000D02*
X80000000Y-110250000D01*
X77250000Y-115750000D02*
X82750000Y-115750000D01*
X77250000Y-111250000D02*
X82750000Y-111250000D01*
D14*
X94214285Y-78702380D02*
X94785714Y-78702380D01*
X94500000Y-79702380D02*
X94500000Y-78702380D01*
X114900000Y-71311904D02*
X114519047Y-71311904D01*
X114480952Y-71692857D01*
X114519047Y-71654761D01*
X114595238Y-71616666D01*
X114785714Y-71616666D01*
X114861904Y-71654761D01*
X114900000Y-71692857D01*
X114938095Y-71769047D01*
X114938095Y-71959523D01*
X114900000Y-72035714D01*
X114861904Y-72073809D01*
X114785714Y-72111904D01*
X114595238Y-72111904D01*
X114519047Y-72073809D01*
X114480952Y-72035714D01*
X115166666Y-71311904D02*
X115433333Y-72111904D01*
X115700000Y-71311904D01*
X116728571Y-71311904D02*
X116880952Y-71311904D01*
X116957142Y-71350000D01*
X117033333Y-71426190D01*
X117071428Y-71578571D01*
X117071428Y-71845238D01*
X117033333Y-71997619D01*
X116957142Y-72073809D01*
X116880952Y-72111904D01*
X116728571Y-72111904D01*
X116652380Y-72073809D01*
X116576190Y-71997619D01*
X116538095Y-71845238D01*
X116538095Y-71578571D01*
X116576190Y-71426190D01*
X116652380Y-71350000D01*
X116728571Y-71311904D01*
X117414285Y-71311904D02*
X117414285Y-71959523D01*
X117452380Y-72035714D01*
X117490476Y-72073809D01*
X117566666Y-72111904D01*
X117719047Y-72111904D01*
X117795238Y-72073809D01*
X117833333Y-72035714D01*
X117871428Y-71959523D01*
X117871428Y-71311904D01*
X118138095Y-71311904D02*
X118595238Y-71311904D01*
X118366666Y-72111904D02*
X118366666Y-71311904D01*
X99007142Y-101291666D02*
X99054761Y-101339285D01*
X99102380Y-101482142D01*
X99102380Y-101577380D01*
X99054761Y-101720238D01*
X98959523Y-101815476D01*
X98864285Y-101863095D01*
X98673809Y-101910714D01*
X98530952Y-101910714D01*
X98340476Y-101863095D01*
X98245238Y-101815476D01*
X98150000Y-101720238D01*
X98102380Y-101577380D01*
X98102380Y-101482142D01*
X98150000Y-101339285D01*
X98197619Y-101291666D01*
X98197619Y-100910714D02*
X98150000Y-100863095D01*
X98102380Y-100767857D01*
X98102380Y-100529761D01*
X98150000Y-100434523D01*
X98197619Y-100386904D01*
X98292857Y-100339285D01*
X98388095Y-100339285D01*
X98530952Y-100386904D01*
X99102380Y-100958333D01*
X99102380Y-100339285D01*
X111833333Y-116857142D02*
X111785714Y-116904761D01*
X111642857Y-116952380D01*
X111547619Y-116952380D01*
X111404761Y-116904761D01*
X111309523Y-116809523D01*
X111261904Y-116714285D01*
X111214285Y-116523809D01*
X111214285Y-116380952D01*
X111261904Y-116190476D01*
X111309523Y-116095238D01*
X111404761Y-116000000D01*
X111547619Y-115952380D01*
X111642857Y-115952380D01*
X111785714Y-116000000D01*
X111833333Y-116047619D01*
X112166666Y-115952380D02*
X112785714Y-115952380D01*
X112452380Y-116333333D01*
X112595238Y-116333333D01*
X112690476Y-116380952D01*
X112738095Y-116428571D01*
X112785714Y-116523809D01*
X112785714Y-116761904D01*
X112738095Y-116857142D01*
X112690476Y-116904761D01*
X112595238Y-116952380D01*
X112309523Y-116952380D01*
X112214285Y-116904761D01*
X112166666Y-116857142D01*
X98858333Y-75707142D02*
X98810714Y-75754761D01*
X98667857Y-75802380D01*
X98572619Y-75802380D01*
X98429761Y-75754761D01*
X98334523Y-75659523D01*
X98286904Y-75564285D01*
X98239285Y-75373809D01*
X98239285Y-75230952D01*
X98286904Y-75040476D01*
X98334523Y-74945238D01*
X98429761Y-74850000D01*
X98572619Y-74802380D01*
X98667857Y-74802380D01*
X98810714Y-74850000D01*
X98858333Y-74897619D01*
X99715476Y-75135714D02*
X99715476Y-75802380D01*
X99477380Y-74754761D02*
X99239285Y-75469047D01*
X99858333Y-75469047D01*
X113207142Y-98641666D02*
X113254761Y-98689285D01*
X113302380Y-98832142D01*
X113302380Y-98927380D01*
X113254761Y-99070238D01*
X113159523Y-99165476D01*
X113064285Y-99213095D01*
X112873809Y-99260714D01*
X112730952Y-99260714D01*
X112540476Y-99213095D01*
X112445238Y-99165476D01*
X112350000Y-99070238D01*
X112302380Y-98927380D01*
X112302380Y-98832142D01*
X112350000Y-98689285D01*
X112397619Y-98641666D01*
X112302380Y-97736904D02*
X112302380Y-98213095D01*
X112778571Y-98260714D01*
X112730952Y-98213095D01*
X112683333Y-98117857D01*
X112683333Y-97879761D01*
X112730952Y-97784523D01*
X112778571Y-97736904D01*
X112873809Y-97689285D01*
X113111904Y-97689285D01*
X113207142Y-97736904D01*
X113254761Y-97784523D01*
X113302380Y-97879761D01*
X113302380Y-98117857D01*
X113254761Y-98213095D01*
X113207142Y-98260714D01*
X106333333Y-81357142D02*
X106285714Y-81404761D01*
X106142857Y-81452380D01*
X106047619Y-81452380D01*
X105904761Y-81404761D01*
X105809523Y-81309523D01*
X105761904Y-81214285D01*
X105714285Y-81023809D01*
X105714285Y-80880952D01*
X105761904Y-80690476D01*
X105809523Y-80595238D01*
X105904761Y-80500000D01*
X106047619Y-80452380D01*
X106142857Y-80452380D01*
X106285714Y-80500000D01*
X106333333Y-80547619D01*
X106761904Y-81452380D02*
X106761904Y-80452380D01*
X107142857Y-80452380D01*
X107238095Y-80500000D01*
X107285714Y-80547619D01*
X107333333Y-80642857D01*
X107333333Y-80785714D01*
X107285714Y-80880952D01*
X107238095Y-80928571D01*
X107142857Y-80976190D01*
X106761904Y-80976190D01*
X108285714Y-81452380D02*
X107714285Y-81452380D01*
X108000000Y-81452380D02*
X108000000Y-80452380D01*
X107904761Y-80595238D01*
X107809523Y-80690476D01*
X107714285Y-80738095D01*
X83583333Y-82607142D02*
X83535714Y-82654761D01*
X83392857Y-82702380D01*
X83297619Y-82702380D01*
X83154761Y-82654761D01*
X83059523Y-82559523D01*
X83011904Y-82464285D01*
X82964285Y-82273809D01*
X82964285Y-82130952D01*
X83011904Y-81940476D01*
X83059523Y-81845238D01*
X83154761Y-81750000D01*
X83297619Y-81702380D01*
X83392857Y-81702380D01*
X83535714Y-81750000D01*
X83583333Y-81797619D01*
X84011904Y-82702380D02*
X84011904Y-81702380D01*
X84392857Y-81702380D01*
X84488095Y-81750000D01*
X84535714Y-81797619D01*
X84583333Y-81892857D01*
X84583333Y-82035714D01*
X84535714Y-82130952D01*
X84488095Y-82178571D01*
X84392857Y-82226190D01*
X84011904Y-82226190D01*
X84964285Y-81797619D02*
X85011904Y-81750000D01*
X85107142Y-81702380D01*
X85345238Y-81702380D01*
X85440476Y-81750000D01*
X85488095Y-81797619D01*
X85535714Y-81892857D01*
X85535714Y-81988095D01*
X85488095Y-82130952D01*
X84916666Y-82702380D01*
X85535714Y-82702380D01*
X88702380Y-103738095D02*
X87702380Y-103738095D01*
X87702380Y-103500000D01*
X87750000Y-103357142D01*
X87845238Y-103261904D01*
X87940476Y-103214285D01*
X88130952Y-103166666D01*
X88273809Y-103166666D01*
X88464285Y-103214285D01*
X88559523Y-103261904D01*
X88654761Y-103357142D01*
X88702380Y-103500000D01*
X88702380Y-103738095D01*
X88702380Y-102214285D02*
X88702380Y-102785714D01*
X88702380Y-102500000D02*
X87702380Y-102500000D01*
X87845238Y-102595238D01*
X87940476Y-102690476D01*
X87988095Y-102785714D01*
X91661904Y-75702380D02*
X91661904Y-74702380D01*
X91900000Y-74702380D01*
X92042857Y-74750000D01*
X92138095Y-74845238D01*
X92185714Y-74940476D01*
X92233333Y-75130952D01*
X92233333Y-75273809D01*
X92185714Y-75464285D01*
X92138095Y-75559523D01*
X92042857Y-75654761D01*
X91900000Y-75702380D01*
X91661904Y-75702380D01*
X92614285Y-74797619D02*
X92661904Y-74750000D01*
X92757142Y-74702380D01*
X92995238Y-74702380D01*
X93090476Y-74750000D01*
X93138095Y-74797619D01*
X93185714Y-74892857D01*
X93185714Y-74988095D01*
X93138095Y-75130952D01*
X92566666Y-75702380D01*
X93185714Y-75702380D01*
X107181904Y-101632380D02*
X107181904Y-100632380D01*
X107420000Y-100632380D01*
X107562857Y-100680000D01*
X107658095Y-100775238D01*
X107705714Y-100870476D01*
X107753333Y-101060952D01*
X107753333Y-101203809D01*
X107705714Y-101394285D01*
X107658095Y-101489523D01*
X107562857Y-101584761D01*
X107420000Y-101632380D01*
X107181904Y-101632380D01*
X108086666Y-100632380D02*
X108705714Y-100632380D01*
X108372380Y-101013333D01*
X108515238Y-101013333D01*
X108610476Y-101060952D01*
X108658095Y-101108571D01*
X108705714Y-101203809D01*
X108705714Y-101441904D01*
X108658095Y-101537142D01*
X108610476Y-101584761D01*
X108515238Y-101632380D01*
X108229523Y-101632380D01*
X108134285Y-101584761D01*
X108086666Y-101537142D01*
X77666666Y-83678571D02*
X77333333Y-83678571D01*
X77333333Y-84202380D02*
X77333333Y-83202380D01*
X77809523Y-83202380D01*
X78714285Y-84202380D02*
X78142857Y-84202380D01*
X78428571Y-84202380D02*
X78428571Y-83202380D01*
X78333333Y-83345238D01*
X78238095Y-83440476D01*
X78142857Y-83488095D01*
X122583333Y-102702380D02*
X122107142Y-102702380D01*
X122107142Y-101702380D01*
X123440476Y-102702380D02*
X122869047Y-102702380D01*
X123154761Y-102702380D02*
X123154761Y-101702380D01*
X123059523Y-101845238D01*
X122964285Y-101940476D01*
X122869047Y-101988095D01*
X94404761Y-109952380D02*
X94071428Y-109476190D01*
X93833333Y-109952380D02*
X93833333Y-108952380D01*
X94214285Y-108952380D01*
X94309523Y-109000000D01*
X94357142Y-109047619D01*
X94404761Y-109142857D01*
X94404761Y-109285714D01*
X94357142Y-109380952D01*
X94309523Y-109428571D01*
X94214285Y-109476190D01*
X93833333Y-109476190D01*
X94690476Y-108952380D02*
X95023809Y-109952380D01*
X95357142Y-108952380D01*
X96214285Y-109952380D02*
X95642857Y-109952380D01*
X95928571Y-109952380D02*
X95928571Y-108952380D01*
X95833333Y-109095238D01*
X95738095Y-109190476D01*
X95642857Y-109238095D01*
X106488095Y-82452380D02*
X106488095Y-83261904D01*
X106535714Y-83357142D01*
X106583333Y-83404761D01*
X106678571Y-83452380D01*
X106869047Y-83452380D01*
X106964285Y-83404761D01*
X107011904Y-83357142D01*
X107059523Y-83261904D01*
X107059523Y-82452380D01*
X108059523Y-83452380D02*
X107488095Y-83452380D01*
X107773809Y-83452380D02*
X107773809Y-82452380D01*
X107678571Y-82595238D01*
X107583333Y-82690476D01*
X107488095Y-82738095D01*
X78495238Y-117383333D02*
X78876190Y-117383333D01*
X78419047Y-117611904D02*
X78685714Y-116811904D01*
X78952380Y-117611904D01*
X79676190Y-117535714D02*
X79638095Y-117573809D01*
X79523809Y-117611904D01*
X79447619Y-117611904D01*
X79333333Y-117573809D01*
X79257142Y-117497619D01*
X79219047Y-117421428D01*
X79180952Y-117269047D01*
X79180952Y-117154761D01*
X79219047Y-117002380D01*
X79257142Y-116926190D01*
X79333333Y-116850000D01*
X79447619Y-116811904D01*
X79523809Y-116811904D01*
X79638095Y-116850000D01*
X79676190Y-116888095D01*
X80628571Y-117611904D02*
X80628571Y-116811904D01*
X81009523Y-117611904D02*
X81009523Y-116811904D01*
X81466666Y-117611904D01*
X81466666Y-116811904D01*
M02*
