G04 #@! TF.GenerationSoftware,KiCad,Pcbnew,(5.1.2-1)-1*
G04 #@! TF.CreationDate,2019-07-25T11:00:41+03:00*
G04 #@! TF.ProjectId,220_to_5v_charger,3232305f-746f-45f3-9576-5f6368617267,rev?*
G04 #@! TF.SameCoordinates,Original*
G04 #@! TF.FileFunction,Copper,L1,Top*
G04 #@! TF.FilePolarity,Positive*
%FSLAX46Y46*%
G04 Gerber Fmt 4.6, Leading zero omitted, Abs format (unit mm)*
G04 Created by KiCad (PCBNEW (5.1.2-1)-1) date 2019-07-25 11:00:41*
%MOMM*%
%LPD*%
G04 APERTURE LIST*
%ADD10C,1.524000*%
%ADD11C,3.000000*%
%ADD12R,4.000000X0.900000*%
%ADD13C,0.100000*%
%ADD14C,1.150000*%
%ADD15C,1.600000*%
%ADD16R,0.700000X1.000000*%
%ADD17R,1.000000X1.000000*%
%ADD18O,3.200000X3.200000*%
%ADD19R,3.200000X3.200000*%
%ADD20R,2.900000X5.400000*%
%ADD21C,1.800000*%
%ADD22R,10.800000X9.400000*%
%ADD23R,1.100000X4.600000*%
%ADD24R,1.524000X1.524000*%
%ADD25C,0.800000*%
%ADD26C,1.000000*%
%ADD27C,0.254000*%
G04 APERTURE END LIST*
D10*
X99450000Y-97100000D03*
X99450000Y-93100000D03*
X99450000Y-89100000D03*
X99450000Y-85100000D03*
X99450000Y-81100000D03*
X89450000Y-81000000D03*
X89450000Y-85000000D03*
X89450000Y-89000000D03*
X89450000Y-93000000D03*
X89450000Y-97000000D03*
D11*
X120800000Y-85650000D03*
X120800000Y-72650000D03*
D12*
X116300000Y-75650000D03*
X116300000Y-78150000D03*
X116300000Y-80150000D03*
X116300000Y-82650000D03*
D13*
G36*
X97474505Y-101576204D02*
G01*
X97498773Y-101579804D01*
X97522572Y-101585765D01*
X97545671Y-101594030D01*
X97567850Y-101604520D01*
X97588893Y-101617132D01*
X97608599Y-101631747D01*
X97626777Y-101648223D01*
X97643253Y-101666401D01*
X97657868Y-101686107D01*
X97670480Y-101707150D01*
X97680970Y-101729329D01*
X97689235Y-101752428D01*
X97695196Y-101776227D01*
X97698796Y-101800495D01*
X97700000Y-101824999D01*
X97700000Y-102475001D01*
X97698796Y-102499505D01*
X97695196Y-102523773D01*
X97689235Y-102547572D01*
X97680970Y-102570671D01*
X97670480Y-102592850D01*
X97657868Y-102613893D01*
X97643253Y-102633599D01*
X97626777Y-102651777D01*
X97608599Y-102668253D01*
X97588893Y-102682868D01*
X97567850Y-102695480D01*
X97545671Y-102705970D01*
X97522572Y-102714235D01*
X97498773Y-102720196D01*
X97474505Y-102723796D01*
X97450001Y-102725000D01*
X96549999Y-102725000D01*
X96525495Y-102723796D01*
X96501227Y-102720196D01*
X96477428Y-102714235D01*
X96454329Y-102705970D01*
X96432150Y-102695480D01*
X96411107Y-102682868D01*
X96391401Y-102668253D01*
X96373223Y-102651777D01*
X96356747Y-102633599D01*
X96342132Y-102613893D01*
X96329520Y-102592850D01*
X96319030Y-102570671D01*
X96310765Y-102547572D01*
X96304804Y-102523773D01*
X96301204Y-102499505D01*
X96300000Y-102475001D01*
X96300000Y-101824999D01*
X96301204Y-101800495D01*
X96304804Y-101776227D01*
X96310765Y-101752428D01*
X96319030Y-101729329D01*
X96329520Y-101707150D01*
X96342132Y-101686107D01*
X96356747Y-101666401D01*
X96373223Y-101648223D01*
X96391401Y-101631747D01*
X96411107Y-101617132D01*
X96432150Y-101604520D01*
X96454329Y-101594030D01*
X96477428Y-101585765D01*
X96501227Y-101579804D01*
X96525495Y-101576204D01*
X96549999Y-101575000D01*
X97450001Y-101575000D01*
X97474505Y-101576204D01*
X97474505Y-101576204D01*
G37*
D14*
X97000000Y-102150000D03*
D13*
G36*
X97474505Y-99526204D02*
G01*
X97498773Y-99529804D01*
X97522572Y-99535765D01*
X97545671Y-99544030D01*
X97567850Y-99554520D01*
X97588893Y-99567132D01*
X97608599Y-99581747D01*
X97626777Y-99598223D01*
X97643253Y-99616401D01*
X97657868Y-99636107D01*
X97670480Y-99657150D01*
X97680970Y-99679329D01*
X97689235Y-99702428D01*
X97695196Y-99726227D01*
X97698796Y-99750495D01*
X97700000Y-99774999D01*
X97700000Y-100425001D01*
X97698796Y-100449505D01*
X97695196Y-100473773D01*
X97689235Y-100497572D01*
X97680970Y-100520671D01*
X97670480Y-100542850D01*
X97657868Y-100563893D01*
X97643253Y-100583599D01*
X97626777Y-100601777D01*
X97608599Y-100618253D01*
X97588893Y-100632868D01*
X97567850Y-100645480D01*
X97545671Y-100655970D01*
X97522572Y-100664235D01*
X97498773Y-100670196D01*
X97474505Y-100673796D01*
X97450001Y-100675000D01*
X96549999Y-100675000D01*
X96525495Y-100673796D01*
X96501227Y-100670196D01*
X96477428Y-100664235D01*
X96454329Y-100655970D01*
X96432150Y-100645480D01*
X96411107Y-100632868D01*
X96391401Y-100618253D01*
X96373223Y-100601777D01*
X96356747Y-100583599D01*
X96342132Y-100563893D01*
X96329520Y-100542850D01*
X96319030Y-100520671D01*
X96310765Y-100497572D01*
X96304804Y-100473773D01*
X96301204Y-100449505D01*
X96300000Y-100425001D01*
X96300000Y-99774999D01*
X96301204Y-99750495D01*
X96304804Y-99726227D01*
X96310765Y-99702428D01*
X96319030Y-99679329D01*
X96329520Y-99657150D01*
X96342132Y-99636107D01*
X96356747Y-99616401D01*
X96373223Y-99598223D01*
X96391401Y-99581747D01*
X96411107Y-99567132D01*
X96432150Y-99554520D01*
X96454329Y-99544030D01*
X96477428Y-99535765D01*
X96501227Y-99529804D01*
X96525495Y-99526204D01*
X96549999Y-99525000D01*
X97450001Y-99525000D01*
X97474505Y-99526204D01*
X97474505Y-99526204D01*
G37*
D14*
X97000000Y-100100000D03*
D13*
G36*
X116037004Y-111251204D02*
G01*
X116061273Y-111254804D01*
X116085071Y-111260765D01*
X116108171Y-111269030D01*
X116130349Y-111279520D01*
X116151393Y-111292133D01*
X116171098Y-111306747D01*
X116189277Y-111323223D01*
X116205753Y-111341402D01*
X116220367Y-111361107D01*
X116232980Y-111382151D01*
X116243470Y-111404329D01*
X116251735Y-111427429D01*
X116257696Y-111451227D01*
X116261296Y-111475496D01*
X116262500Y-111500000D01*
X116262500Y-112600000D01*
X116261296Y-112624504D01*
X116257696Y-112648773D01*
X116251735Y-112672571D01*
X116243470Y-112695671D01*
X116232980Y-112717849D01*
X116220367Y-112738893D01*
X116205753Y-112758598D01*
X116189277Y-112776777D01*
X116171098Y-112793253D01*
X116151393Y-112807867D01*
X116130349Y-112820480D01*
X116108171Y-112830970D01*
X116085071Y-112839235D01*
X116061273Y-112845196D01*
X116037004Y-112848796D01*
X116012500Y-112850000D01*
X113187500Y-112850000D01*
X113162996Y-112848796D01*
X113138727Y-112845196D01*
X113114929Y-112839235D01*
X113091829Y-112830970D01*
X113069651Y-112820480D01*
X113048607Y-112807867D01*
X113028902Y-112793253D01*
X113010723Y-112776777D01*
X112994247Y-112758598D01*
X112979633Y-112738893D01*
X112967020Y-112717849D01*
X112956530Y-112695671D01*
X112948265Y-112672571D01*
X112942304Y-112648773D01*
X112938704Y-112624504D01*
X112937500Y-112600000D01*
X112937500Y-111500000D01*
X112938704Y-111475496D01*
X112942304Y-111451227D01*
X112948265Y-111427429D01*
X112956530Y-111404329D01*
X112967020Y-111382151D01*
X112979633Y-111361107D01*
X112994247Y-111341402D01*
X113010723Y-111323223D01*
X113028902Y-111306747D01*
X113048607Y-111292133D01*
X113069651Y-111279520D01*
X113091829Y-111269030D01*
X113114929Y-111260765D01*
X113138727Y-111254804D01*
X113162996Y-111251204D01*
X113187500Y-111250000D01*
X116012500Y-111250000D01*
X116037004Y-111251204D01*
X116037004Y-111251204D01*
G37*
D15*
X114600000Y-112050000D03*
D13*
G36*
X110962004Y-111251204D02*
G01*
X110986273Y-111254804D01*
X111010071Y-111260765D01*
X111033171Y-111269030D01*
X111055349Y-111279520D01*
X111076393Y-111292133D01*
X111096098Y-111306747D01*
X111114277Y-111323223D01*
X111130753Y-111341402D01*
X111145367Y-111361107D01*
X111157980Y-111382151D01*
X111168470Y-111404329D01*
X111176735Y-111427429D01*
X111182696Y-111451227D01*
X111186296Y-111475496D01*
X111187500Y-111500000D01*
X111187500Y-112600000D01*
X111186296Y-112624504D01*
X111182696Y-112648773D01*
X111176735Y-112672571D01*
X111168470Y-112695671D01*
X111157980Y-112717849D01*
X111145367Y-112738893D01*
X111130753Y-112758598D01*
X111114277Y-112776777D01*
X111096098Y-112793253D01*
X111076393Y-112807867D01*
X111055349Y-112820480D01*
X111033171Y-112830970D01*
X111010071Y-112839235D01*
X110986273Y-112845196D01*
X110962004Y-112848796D01*
X110937500Y-112850000D01*
X108112500Y-112850000D01*
X108087996Y-112848796D01*
X108063727Y-112845196D01*
X108039929Y-112839235D01*
X108016829Y-112830970D01*
X107994651Y-112820480D01*
X107973607Y-112807867D01*
X107953902Y-112793253D01*
X107935723Y-112776777D01*
X107919247Y-112758598D01*
X107904633Y-112738893D01*
X107892020Y-112717849D01*
X107881530Y-112695671D01*
X107873265Y-112672571D01*
X107867304Y-112648773D01*
X107863704Y-112624504D01*
X107862500Y-112600000D01*
X107862500Y-111500000D01*
X107863704Y-111475496D01*
X107867304Y-111451227D01*
X107873265Y-111427429D01*
X107881530Y-111404329D01*
X107892020Y-111382151D01*
X107904633Y-111361107D01*
X107919247Y-111341402D01*
X107935723Y-111323223D01*
X107953902Y-111306747D01*
X107973607Y-111292133D01*
X107994651Y-111279520D01*
X108016829Y-111269030D01*
X108039929Y-111260765D01*
X108063727Y-111254804D01*
X108087996Y-111251204D01*
X108112500Y-111250000D01*
X110937500Y-111250000D01*
X110962004Y-111251204D01*
X110962004Y-111251204D01*
G37*
D15*
X109525000Y-112050000D03*
D13*
G36*
X100399505Y-76301204D02*
G01*
X100423773Y-76304804D01*
X100447572Y-76310765D01*
X100470671Y-76319030D01*
X100492850Y-76329520D01*
X100513893Y-76342132D01*
X100533599Y-76356747D01*
X100551777Y-76373223D01*
X100568253Y-76391401D01*
X100582868Y-76411107D01*
X100595480Y-76432150D01*
X100605970Y-76454329D01*
X100614235Y-76477428D01*
X100620196Y-76501227D01*
X100623796Y-76525495D01*
X100625000Y-76549999D01*
X100625000Y-77450001D01*
X100623796Y-77474505D01*
X100620196Y-77498773D01*
X100614235Y-77522572D01*
X100605970Y-77545671D01*
X100595480Y-77567850D01*
X100582868Y-77588893D01*
X100568253Y-77608599D01*
X100551777Y-77626777D01*
X100533599Y-77643253D01*
X100513893Y-77657868D01*
X100492850Y-77670480D01*
X100470671Y-77680970D01*
X100447572Y-77689235D01*
X100423773Y-77695196D01*
X100399505Y-77698796D01*
X100375001Y-77700000D01*
X99724999Y-77700000D01*
X99700495Y-77698796D01*
X99676227Y-77695196D01*
X99652428Y-77689235D01*
X99629329Y-77680970D01*
X99607150Y-77670480D01*
X99586107Y-77657868D01*
X99566401Y-77643253D01*
X99548223Y-77626777D01*
X99531747Y-77608599D01*
X99517132Y-77588893D01*
X99504520Y-77567850D01*
X99494030Y-77545671D01*
X99485765Y-77522572D01*
X99479804Y-77498773D01*
X99476204Y-77474505D01*
X99475000Y-77450001D01*
X99475000Y-76549999D01*
X99476204Y-76525495D01*
X99479804Y-76501227D01*
X99485765Y-76477428D01*
X99494030Y-76454329D01*
X99504520Y-76432150D01*
X99517132Y-76411107D01*
X99531747Y-76391401D01*
X99548223Y-76373223D01*
X99566401Y-76356747D01*
X99586107Y-76342132D01*
X99607150Y-76329520D01*
X99629329Y-76319030D01*
X99652428Y-76310765D01*
X99676227Y-76304804D01*
X99700495Y-76301204D01*
X99724999Y-76300000D01*
X100375001Y-76300000D01*
X100399505Y-76301204D01*
X100399505Y-76301204D01*
G37*
D14*
X100050000Y-77000000D03*
D13*
G36*
X98349505Y-76301204D02*
G01*
X98373773Y-76304804D01*
X98397572Y-76310765D01*
X98420671Y-76319030D01*
X98442850Y-76329520D01*
X98463893Y-76342132D01*
X98483599Y-76356747D01*
X98501777Y-76373223D01*
X98518253Y-76391401D01*
X98532868Y-76411107D01*
X98545480Y-76432150D01*
X98555970Y-76454329D01*
X98564235Y-76477428D01*
X98570196Y-76501227D01*
X98573796Y-76525495D01*
X98575000Y-76549999D01*
X98575000Y-77450001D01*
X98573796Y-77474505D01*
X98570196Y-77498773D01*
X98564235Y-77522572D01*
X98555970Y-77545671D01*
X98545480Y-77567850D01*
X98532868Y-77588893D01*
X98518253Y-77608599D01*
X98501777Y-77626777D01*
X98483599Y-77643253D01*
X98463893Y-77657868D01*
X98442850Y-77670480D01*
X98420671Y-77680970D01*
X98397572Y-77689235D01*
X98373773Y-77695196D01*
X98349505Y-77698796D01*
X98325001Y-77700000D01*
X97674999Y-77700000D01*
X97650495Y-77698796D01*
X97626227Y-77695196D01*
X97602428Y-77689235D01*
X97579329Y-77680970D01*
X97557150Y-77670480D01*
X97536107Y-77657868D01*
X97516401Y-77643253D01*
X97498223Y-77626777D01*
X97481747Y-77608599D01*
X97467132Y-77588893D01*
X97454520Y-77567850D01*
X97444030Y-77545671D01*
X97435765Y-77522572D01*
X97429804Y-77498773D01*
X97426204Y-77474505D01*
X97425000Y-77450001D01*
X97425000Y-76549999D01*
X97426204Y-76525495D01*
X97429804Y-76501227D01*
X97435765Y-76477428D01*
X97444030Y-76454329D01*
X97454520Y-76432150D01*
X97467132Y-76411107D01*
X97481747Y-76391401D01*
X97498223Y-76373223D01*
X97516401Y-76356747D01*
X97536107Y-76342132D01*
X97557150Y-76329520D01*
X97579329Y-76319030D01*
X97602428Y-76310765D01*
X97626227Y-76304804D01*
X97650495Y-76301204D01*
X97674999Y-76300000D01*
X98325001Y-76300000D01*
X98349505Y-76301204D01*
X98349505Y-76301204D01*
G37*
D14*
X98000000Y-77000000D03*
D13*
G36*
X114974505Y-96876204D02*
G01*
X114998773Y-96879804D01*
X115022572Y-96885765D01*
X115045671Y-96894030D01*
X115067850Y-96904520D01*
X115088893Y-96917132D01*
X115108599Y-96931747D01*
X115126777Y-96948223D01*
X115143253Y-96966401D01*
X115157868Y-96986107D01*
X115170480Y-97007150D01*
X115180970Y-97029329D01*
X115189235Y-97052428D01*
X115195196Y-97076227D01*
X115198796Y-97100495D01*
X115200000Y-97124999D01*
X115200000Y-97775001D01*
X115198796Y-97799505D01*
X115195196Y-97823773D01*
X115189235Y-97847572D01*
X115180970Y-97870671D01*
X115170480Y-97892850D01*
X115157868Y-97913893D01*
X115143253Y-97933599D01*
X115126777Y-97951777D01*
X115108599Y-97968253D01*
X115088893Y-97982868D01*
X115067850Y-97995480D01*
X115045671Y-98005970D01*
X115022572Y-98014235D01*
X114998773Y-98020196D01*
X114974505Y-98023796D01*
X114950001Y-98025000D01*
X114049999Y-98025000D01*
X114025495Y-98023796D01*
X114001227Y-98020196D01*
X113977428Y-98014235D01*
X113954329Y-98005970D01*
X113932150Y-97995480D01*
X113911107Y-97982868D01*
X113891401Y-97968253D01*
X113873223Y-97951777D01*
X113856747Y-97933599D01*
X113842132Y-97913893D01*
X113829520Y-97892850D01*
X113819030Y-97870671D01*
X113810765Y-97847572D01*
X113804804Y-97823773D01*
X113801204Y-97799505D01*
X113800000Y-97775001D01*
X113800000Y-97124999D01*
X113801204Y-97100495D01*
X113804804Y-97076227D01*
X113810765Y-97052428D01*
X113819030Y-97029329D01*
X113829520Y-97007150D01*
X113842132Y-96986107D01*
X113856747Y-96966401D01*
X113873223Y-96948223D01*
X113891401Y-96931747D01*
X113911107Y-96917132D01*
X113932150Y-96904520D01*
X113954329Y-96894030D01*
X113977428Y-96885765D01*
X114001227Y-96879804D01*
X114025495Y-96876204D01*
X114049999Y-96875000D01*
X114950001Y-96875000D01*
X114974505Y-96876204D01*
X114974505Y-96876204D01*
G37*
D14*
X114500000Y-97450000D03*
D13*
G36*
X114974505Y-98926204D02*
G01*
X114998773Y-98929804D01*
X115022572Y-98935765D01*
X115045671Y-98944030D01*
X115067850Y-98954520D01*
X115088893Y-98967132D01*
X115108599Y-98981747D01*
X115126777Y-98998223D01*
X115143253Y-99016401D01*
X115157868Y-99036107D01*
X115170480Y-99057150D01*
X115180970Y-99079329D01*
X115189235Y-99102428D01*
X115195196Y-99126227D01*
X115198796Y-99150495D01*
X115200000Y-99174999D01*
X115200000Y-99825001D01*
X115198796Y-99849505D01*
X115195196Y-99873773D01*
X115189235Y-99897572D01*
X115180970Y-99920671D01*
X115170480Y-99942850D01*
X115157868Y-99963893D01*
X115143253Y-99983599D01*
X115126777Y-100001777D01*
X115108599Y-100018253D01*
X115088893Y-100032868D01*
X115067850Y-100045480D01*
X115045671Y-100055970D01*
X115022572Y-100064235D01*
X114998773Y-100070196D01*
X114974505Y-100073796D01*
X114950001Y-100075000D01*
X114049999Y-100075000D01*
X114025495Y-100073796D01*
X114001227Y-100070196D01*
X113977428Y-100064235D01*
X113954329Y-100055970D01*
X113932150Y-100045480D01*
X113911107Y-100032868D01*
X113891401Y-100018253D01*
X113873223Y-100001777D01*
X113856747Y-99983599D01*
X113842132Y-99963893D01*
X113829520Y-99942850D01*
X113819030Y-99920671D01*
X113810765Y-99897572D01*
X113804804Y-99873773D01*
X113801204Y-99849505D01*
X113800000Y-99825001D01*
X113800000Y-99174999D01*
X113801204Y-99150495D01*
X113804804Y-99126227D01*
X113810765Y-99102428D01*
X113819030Y-99079329D01*
X113829520Y-99057150D01*
X113842132Y-99036107D01*
X113856747Y-99016401D01*
X113873223Y-98998223D01*
X113891401Y-98981747D01*
X113911107Y-98967132D01*
X113932150Y-98954520D01*
X113954329Y-98944030D01*
X113977428Y-98935765D01*
X114001227Y-98929804D01*
X114025495Y-98926204D01*
X114049999Y-98925000D01*
X114950001Y-98925000D01*
X114974505Y-98926204D01*
X114974505Y-98926204D01*
G37*
D14*
X114500000Y-99500000D03*
D13*
G36*
X110162004Y-76601204D02*
G01*
X110186273Y-76604804D01*
X110210071Y-76610765D01*
X110233171Y-76619030D01*
X110255349Y-76629520D01*
X110276393Y-76642133D01*
X110296098Y-76656747D01*
X110314277Y-76673223D01*
X110330753Y-76691402D01*
X110345367Y-76711107D01*
X110357980Y-76732151D01*
X110368470Y-76754329D01*
X110376735Y-76777429D01*
X110382696Y-76801227D01*
X110386296Y-76825496D01*
X110387500Y-76850000D01*
X110387500Y-77950000D01*
X110386296Y-77974504D01*
X110382696Y-77998773D01*
X110376735Y-78022571D01*
X110368470Y-78045671D01*
X110357980Y-78067849D01*
X110345367Y-78088893D01*
X110330753Y-78108598D01*
X110314277Y-78126777D01*
X110296098Y-78143253D01*
X110276393Y-78157867D01*
X110255349Y-78170480D01*
X110233171Y-78180970D01*
X110210071Y-78189235D01*
X110186273Y-78195196D01*
X110162004Y-78198796D01*
X110137500Y-78200000D01*
X107862500Y-78200000D01*
X107837996Y-78198796D01*
X107813727Y-78195196D01*
X107789929Y-78189235D01*
X107766829Y-78180970D01*
X107744651Y-78170480D01*
X107723607Y-78157867D01*
X107703902Y-78143253D01*
X107685723Y-78126777D01*
X107669247Y-78108598D01*
X107654633Y-78088893D01*
X107642020Y-78067849D01*
X107631530Y-78045671D01*
X107623265Y-78022571D01*
X107617304Y-77998773D01*
X107613704Y-77974504D01*
X107612500Y-77950000D01*
X107612500Y-76850000D01*
X107613704Y-76825496D01*
X107617304Y-76801227D01*
X107623265Y-76777429D01*
X107631530Y-76754329D01*
X107642020Y-76732151D01*
X107654633Y-76711107D01*
X107669247Y-76691402D01*
X107685723Y-76673223D01*
X107703902Y-76656747D01*
X107723607Y-76642133D01*
X107744651Y-76629520D01*
X107766829Y-76619030D01*
X107789929Y-76610765D01*
X107813727Y-76604804D01*
X107837996Y-76601204D01*
X107862500Y-76600000D01*
X110137500Y-76600000D01*
X110162004Y-76601204D01*
X110162004Y-76601204D01*
G37*
D15*
X109000000Y-77400000D03*
D13*
G36*
X106037004Y-76601204D02*
G01*
X106061273Y-76604804D01*
X106085071Y-76610765D01*
X106108171Y-76619030D01*
X106130349Y-76629520D01*
X106151393Y-76642133D01*
X106171098Y-76656747D01*
X106189277Y-76673223D01*
X106205753Y-76691402D01*
X106220367Y-76711107D01*
X106232980Y-76732151D01*
X106243470Y-76754329D01*
X106251735Y-76777429D01*
X106257696Y-76801227D01*
X106261296Y-76825496D01*
X106262500Y-76850000D01*
X106262500Y-77950000D01*
X106261296Y-77974504D01*
X106257696Y-77998773D01*
X106251735Y-78022571D01*
X106243470Y-78045671D01*
X106232980Y-78067849D01*
X106220367Y-78088893D01*
X106205753Y-78108598D01*
X106189277Y-78126777D01*
X106171098Y-78143253D01*
X106151393Y-78157867D01*
X106130349Y-78170480D01*
X106108171Y-78180970D01*
X106085071Y-78189235D01*
X106061273Y-78195196D01*
X106037004Y-78198796D01*
X106012500Y-78200000D01*
X103737500Y-78200000D01*
X103712996Y-78198796D01*
X103688727Y-78195196D01*
X103664929Y-78189235D01*
X103641829Y-78180970D01*
X103619651Y-78170480D01*
X103598607Y-78157867D01*
X103578902Y-78143253D01*
X103560723Y-78126777D01*
X103544247Y-78108598D01*
X103529633Y-78088893D01*
X103517020Y-78067849D01*
X103506530Y-78045671D01*
X103498265Y-78022571D01*
X103492304Y-77998773D01*
X103488704Y-77974504D01*
X103487500Y-77950000D01*
X103487500Y-76850000D01*
X103488704Y-76825496D01*
X103492304Y-76801227D01*
X103498265Y-76777429D01*
X103506530Y-76754329D01*
X103517020Y-76732151D01*
X103529633Y-76711107D01*
X103544247Y-76691402D01*
X103560723Y-76673223D01*
X103578902Y-76656747D01*
X103598607Y-76642133D01*
X103619651Y-76629520D01*
X103641829Y-76619030D01*
X103664929Y-76610765D01*
X103688727Y-76604804D01*
X103712996Y-76601204D01*
X103737500Y-76600000D01*
X106012500Y-76600000D01*
X106037004Y-76601204D01*
X106037004Y-76601204D01*
G37*
D15*
X104875000Y-77400000D03*
D13*
G36*
X88437004Y-77151204D02*
G01*
X88461273Y-77154804D01*
X88485071Y-77160765D01*
X88508171Y-77169030D01*
X88530349Y-77179520D01*
X88551393Y-77192133D01*
X88571098Y-77206747D01*
X88589277Y-77223223D01*
X88605753Y-77241402D01*
X88620367Y-77261107D01*
X88632980Y-77282151D01*
X88643470Y-77304329D01*
X88651735Y-77327429D01*
X88657696Y-77351227D01*
X88661296Y-77375496D01*
X88662500Y-77400000D01*
X88662500Y-78500000D01*
X88661296Y-78524504D01*
X88657696Y-78548773D01*
X88651735Y-78572571D01*
X88643470Y-78595671D01*
X88632980Y-78617849D01*
X88620367Y-78638893D01*
X88605753Y-78658598D01*
X88589277Y-78676777D01*
X88571098Y-78693253D01*
X88551393Y-78707867D01*
X88530349Y-78720480D01*
X88508171Y-78730970D01*
X88485071Y-78739235D01*
X88461273Y-78745196D01*
X88437004Y-78748796D01*
X88412500Y-78750000D01*
X85587500Y-78750000D01*
X85562996Y-78748796D01*
X85538727Y-78745196D01*
X85514929Y-78739235D01*
X85491829Y-78730970D01*
X85469651Y-78720480D01*
X85448607Y-78707867D01*
X85428902Y-78693253D01*
X85410723Y-78676777D01*
X85394247Y-78658598D01*
X85379633Y-78638893D01*
X85367020Y-78617849D01*
X85356530Y-78595671D01*
X85348265Y-78572571D01*
X85342304Y-78548773D01*
X85338704Y-78524504D01*
X85337500Y-78500000D01*
X85337500Y-77400000D01*
X85338704Y-77375496D01*
X85342304Y-77351227D01*
X85348265Y-77327429D01*
X85356530Y-77304329D01*
X85367020Y-77282151D01*
X85379633Y-77261107D01*
X85394247Y-77241402D01*
X85410723Y-77223223D01*
X85428902Y-77206747D01*
X85448607Y-77192133D01*
X85469651Y-77179520D01*
X85491829Y-77169030D01*
X85514929Y-77160765D01*
X85538727Y-77154804D01*
X85562996Y-77151204D01*
X85587500Y-77150000D01*
X88412500Y-77150000D01*
X88437004Y-77151204D01*
X88437004Y-77151204D01*
G37*
D15*
X87000000Y-77950000D03*
D13*
G36*
X83362004Y-77151204D02*
G01*
X83386273Y-77154804D01*
X83410071Y-77160765D01*
X83433171Y-77169030D01*
X83455349Y-77179520D01*
X83476393Y-77192133D01*
X83496098Y-77206747D01*
X83514277Y-77223223D01*
X83530753Y-77241402D01*
X83545367Y-77261107D01*
X83557980Y-77282151D01*
X83568470Y-77304329D01*
X83576735Y-77327429D01*
X83582696Y-77351227D01*
X83586296Y-77375496D01*
X83587500Y-77400000D01*
X83587500Y-78500000D01*
X83586296Y-78524504D01*
X83582696Y-78548773D01*
X83576735Y-78572571D01*
X83568470Y-78595671D01*
X83557980Y-78617849D01*
X83545367Y-78638893D01*
X83530753Y-78658598D01*
X83514277Y-78676777D01*
X83496098Y-78693253D01*
X83476393Y-78707867D01*
X83455349Y-78720480D01*
X83433171Y-78730970D01*
X83410071Y-78739235D01*
X83386273Y-78745196D01*
X83362004Y-78748796D01*
X83337500Y-78750000D01*
X80512500Y-78750000D01*
X80487996Y-78748796D01*
X80463727Y-78745196D01*
X80439929Y-78739235D01*
X80416829Y-78730970D01*
X80394651Y-78720480D01*
X80373607Y-78707867D01*
X80353902Y-78693253D01*
X80335723Y-78676777D01*
X80319247Y-78658598D01*
X80304633Y-78638893D01*
X80292020Y-78617849D01*
X80281530Y-78595671D01*
X80273265Y-78572571D01*
X80267304Y-78548773D01*
X80263704Y-78524504D01*
X80262500Y-78500000D01*
X80262500Y-77400000D01*
X80263704Y-77375496D01*
X80267304Y-77351227D01*
X80273265Y-77327429D01*
X80281530Y-77304329D01*
X80292020Y-77282151D01*
X80304633Y-77261107D01*
X80319247Y-77241402D01*
X80335723Y-77223223D01*
X80353902Y-77206747D01*
X80373607Y-77192133D01*
X80394651Y-77179520D01*
X80416829Y-77169030D01*
X80439929Y-77160765D01*
X80463727Y-77154804D01*
X80487996Y-77151204D01*
X80512500Y-77150000D01*
X83337500Y-77150000D01*
X83362004Y-77151204D01*
X83362004Y-77151204D01*
G37*
D15*
X81925000Y-77950000D03*
D16*
X93900000Y-106225000D03*
X89900000Y-106225000D03*
X89900000Y-100275000D03*
X93900000Y-100275000D03*
D17*
X91150000Y-77000000D03*
X93650000Y-77000000D03*
D18*
X115540000Y-104900000D03*
D19*
X100300000Y-104900000D03*
D11*
X81600000Y-107400000D03*
X81600000Y-84900000D03*
D20*
X117900000Y-94750000D03*
X127600000Y-94750000D03*
D21*
X99200000Y-114900000D03*
X91700000Y-112000000D03*
D22*
X107350000Y-88800000D03*
D23*
X110750000Y-97950000D03*
X109050000Y-97950000D03*
X107350000Y-97950000D03*
X105650000Y-97950000D03*
X103950000Y-97950000D03*
D24*
X78730000Y-113500000D03*
D10*
X81270000Y-113500000D03*
D25*
X100000000Y-78500000D03*
X101500000Y-77000000D03*
X111500000Y-77500000D03*
X109000000Y-79250000D03*
X116000000Y-110250000D03*
X116000000Y-113750000D03*
X117000000Y-112000000D03*
X107500000Y-94750000D03*
X107500000Y-101250000D03*
X114500000Y-96000000D03*
X103000000Y-83250000D03*
X111750000Y-83250000D03*
X102000000Y-116500000D03*
X104250000Y-116500000D03*
X106000000Y-116500000D03*
X108250000Y-116500000D03*
X110500000Y-116500000D03*
X113000000Y-116500000D03*
X115250000Y-116500000D03*
X117500000Y-116500000D03*
X124750000Y-71250000D03*
X127000000Y-71250000D03*
X129000000Y-71250000D03*
X128250000Y-73500000D03*
X127000000Y-76000000D03*
X126500000Y-78750000D03*
X126750000Y-81250000D03*
X127250000Y-83750000D03*
X127750000Y-85250000D03*
X128750000Y-87000000D03*
X129500000Y-88750000D03*
X114250000Y-94500000D03*
X124250000Y-94500000D03*
X117500000Y-98750000D03*
X77750000Y-94750000D03*
D26*
X109525000Y-112050000D02*
X103950000Y-106475000D01*
X103950000Y-102450000D02*
X103950000Y-97950000D01*
X103950000Y-106475000D02*
X103950000Y-102450000D01*
X93650000Y-77000000D02*
X98000000Y-77000000D01*
X98000000Y-76200000D02*
X98000000Y-77000000D01*
X98600010Y-75599990D02*
X98000000Y-76200000D01*
X103074990Y-75599990D02*
X98600010Y-75599990D01*
X104875000Y-77400000D02*
X103074990Y-75599990D01*
X123000001Y-81139999D02*
X123000001Y-95749999D01*
X116300000Y-102450000D02*
X103950000Y-102450000D01*
X118860001Y-76999999D02*
X123000001Y-81139999D01*
X113739999Y-76999999D02*
X118860001Y-76999999D01*
X112639990Y-75899990D02*
X113739999Y-76999999D01*
X123000001Y-95749999D02*
X116300000Y-102450000D01*
X106375010Y-75899990D02*
X112639990Y-75899990D01*
X104875000Y-77400000D02*
X106375010Y-75899990D01*
X112249999Y-100950001D02*
X109639999Y-100950001D01*
X113700000Y-99500000D02*
X112249999Y-100950001D01*
X109050000Y-100360002D02*
X109050000Y-97950000D01*
X109639999Y-100950001D02*
X109050000Y-100360002D01*
X114500000Y-99500000D02*
X113700000Y-99500000D01*
X109200000Y-94500000D02*
X114250000Y-94500000D01*
X109050000Y-94650000D02*
X109200000Y-94500000D01*
X109050000Y-97950000D02*
X109050000Y-94650000D01*
X127250000Y-94500000D02*
X127700000Y-94950000D01*
X124250000Y-94500000D02*
X127250000Y-94500000D01*
X116300000Y-75650000D02*
X120650000Y-75650000D01*
X124250000Y-79250000D02*
X124250000Y-94500000D01*
X120650000Y-75650000D02*
X124250000Y-79250000D01*
X91700000Y-112000000D02*
X89875000Y-110175000D01*
X89900000Y-110150000D02*
X89900000Y-106225000D01*
X89875000Y-110175000D02*
X89900000Y-110150000D01*
X81600000Y-87021320D02*
X83825000Y-89246320D01*
X81600000Y-84900000D02*
X81600000Y-87021320D01*
X83825000Y-89246320D02*
X83825000Y-103600000D01*
X86450000Y-106225000D02*
X89900000Y-106225000D01*
X83825000Y-103600000D02*
X86450000Y-106225000D01*
X93900000Y-107725000D02*
X93950000Y-107775000D01*
X93900000Y-106225000D02*
X93900000Y-107725000D01*
X96750000Y-114900000D02*
X99200000Y-114900000D01*
X93950000Y-112100000D02*
X96750000Y-114900000D01*
X93950000Y-107775000D02*
X93950000Y-112100000D01*
X81270000Y-114577630D02*
X82067370Y-115375000D01*
X81270000Y-113500000D02*
X81270000Y-114577630D01*
X96275000Y-115375000D02*
X96750000Y-114900000D01*
X82067370Y-115375000D02*
X96275000Y-115375000D01*
X105060001Y-94949999D02*
X102050001Y-94949999D01*
X105650000Y-95539998D02*
X105060001Y-94949999D01*
X105650000Y-97950000D02*
X105650000Y-95539998D01*
X100300000Y-102300000D02*
X100300000Y-104900000D01*
X101312001Y-101287999D02*
X100300000Y-102300000D01*
X101312001Y-95687999D02*
X101312001Y-101287999D01*
X102050001Y-94949999D02*
X101312001Y-95687999D01*
X117900000Y-98350000D02*
X117500000Y-98750000D01*
X117900000Y-94750000D02*
X117900000Y-98350000D01*
X81600000Y-107400000D02*
X78725000Y-110275000D01*
X78730000Y-110280000D02*
X78730000Y-113500000D01*
X78725000Y-110275000D02*
X78730000Y-110280000D01*
X96825000Y-100275000D02*
X97000000Y-100100000D01*
X93900000Y-100275000D02*
X96825000Y-100275000D01*
X93900000Y-100125000D02*
X93750000Y-99975000D01*
X93900000Y-100275000D02*
X93900000Y-100125000D01*
X93750000Y-99975000D02*
X93750000Y-97750000D01*
X93000000Y-97000000D02*
X89450000Y-97000000D01*
X93750000Y-97750000D02*
X93000000Y-97000000D01*
X81925000Y-77950000D02*
X79550000Y-77950000D01*
X77750000Y-79750000D02*
X77750000Y-94750000D01*
X79550000Y-77950000D02*
X77750000Y-79750000D01*
X86125000Y-78825000D02*
X87000000Y-77950000D01*
X86125000Y-98975000D02*
X86125000Y-78825000D01*
X87425000Y-100275000D02*
X86125000Y-98975000D01*
X89900000Y-100275000D02*
X87425000Y-100275000D01*
X91775000Y-102150000D02*
X97000000Y-102150000D01*
X89900000Y-100275000D02*
X91775000Y-102150000D01*
X89450000Y-79922370D02*
X89500000Y-79872370D01*
X89450000Y-81000000D02*
X89450000Y-79922370D01*
X89500000Y-79872370D02*
X89500000Y-78500000D01*
X88950000Y-77950000D02*
X87000000Y-77950000D01*
X89500000Y-78500000D02*
X88950000Y-77950000D01*
X91150000Y-77000000D02*
X91150000Y-79150000D01*
X93100000Y-81100000D02*
X99450000Y-81100000D01*
X91150000Y-79150000D02*
X93100000Y-81100000D01*
D27*
G36*
X130164238Y-71052673D02*
G01*
X130095759Y-71223871D01*
X129910037Y-71641746D01*
X129278009Y-72857185D01*
X129269096Y-72872470D01*
X129261922Y-72888123D01*
X129253986Y-72903384D01*
X129247407Y-72919792D01*
X128719098Y-74072467D01*
X128719096Y-74072470D01*
X128159356Y-75293722D01*
X128148930Y-75314652D01*
X128144829Y-75325416D01*
X128140033Y-75335881D01*
X128132426Y-75357975D01*
X127743585Y-76378682D01*
X127737464Y-76392392D01*
X127731175Y-76411258D01*
X127724098Y-76429836D01*
X127720155Y-76444319D01*
X127431752Y-77309529D01*
X127425237Y-77326369D01*
X127420730Y-77342593D01*
X127415406Y-77358566D01*
X127411402Y-77376174D01*
X127173142Y-78233913D01*
X127158556Y-78274232D01*
X127149229Y-78335629D01*
X127138549Y-78396829D01*
X127139560Y-78439697D01*
X127094526Y-79295351D01*
X127093925Y-79297786D01*
X127090851Y-79365173D01*
X127089149Y-79397513D01*
X127089262Y-79400000D01*
X127089149Y-79402487D01*
X127090851Y-79434827D01*
X127093925Y-79502214D01*
X127094526Y-79504649D01*
X127139753Y-80363957D01*
X127139134Y-80410485D01*
X127149775Y-80467962D01*
X127158556Y-80525768D01*
X127174387Y-80569530D01*
X127803747Y-82748084D01*
X127806351Y-82766852D01*
X127823112Y-82815119D01*
X127827573Y-82830560D01*
X127834557Y-82848077D01*
X127840734Y-82865864D01*
X127847458Y-82880432D01*
X127866391Y-82927918D01*
X127876714Y-82943821D01*
X128145392Y-83525955D01*
X128149360Y-83536326D01*
X128159993Y-83557593D01*
X128169965Y-83579198D01*
X128175588Y-83588782D01*
X128455631Y-84148871D01*
X128739441Y-84811093D01*
X128744437Y-84824869D01*
X128753172Y-84843134D01*
X128761146Y-84861739D01*
X128768209Y-84874574D01*
X129299436Y-85985321D01*
X129466312Y-86402510D01*
X129467096Y-86406473D01*
X129492266Y-86467395D01*
X129503735Y-86496069D01*
X129505583Y-86499631D01*
X129507117Y-86503343D01*
X129521663Y-86530617D01*
X129552012Y-86589100D01*
X129554535Y-86592252D01*
X129911537Y-87261629D01*
X130040476Y-87551742D01*
X130089637Y-103135875D01*
X130059103Y-103227475D01*
X129774180Y-103634508D01*
X129759390Y-103654403D01*
X129754154Y-103663117D01*
X129748345Y-103671415D01*
X129736232Y-103692940D01*
X123205372Y-114561093D01*
X123200852Y-114567460D01*
X123187410Y-114590983D01*
X123173463Y-114614193D01*
X123170118Y-114621244D01*
X122995682Y-114926508D01*
X122724615Y-115333109D01*
X122230901Y-115961474D01*
X121861344Y-116289970D01*
X121174040Y-116762492D01*
X120574621Y-116976571D01*
X119867047Y-117197688D01*
X119274687Y-117240000D01*
X89132987Y-117240000D01*
X89131119Y-117239826D01*
X89098233Y-117240000D01*
X89065123Y-117240000D01*
X89063243Y-117240185D01*
X79687446Y-117289792D01*
X79313873Y-117248284D01*
X78720924Y-117121224D01*
X78353080Y-116957737D01*
X77948989Y-116755692D01*
X77635331Y-116481240D01*
X77313850Y-116159759D01*
X77079629Y-115769392D01*
X76875814Y-115321001D01*
X76751979Y-114784382D01*
X76710000Y-114364590D01*
X76710000Y-112738000D01*
X77329928Y-112738000D01*
X77329928Y-114262000D01*
X77342188Y-114386482D01*
X77378498Y-114506180D01*
X77437463Y-114616494D01*
X77516815Y-114713185D01*
X77613506Y-114792537D01*
X77723820Y-114851502D01*
X77843518Y-114887812D01*
X77968000Y-114900072D01*
X79492000Y-114900072D01*
X79616482Y-114887812D01*
X79736180Y-114851502D01*
X79846494Y-114792537D01*
X79943185Y-114713185D01*
X80022537Y-114616494D01*
X80081502Y-114506180D01*
X80117812Y-114386482D01*
X80126080Y-114302535D01*
X80135000Y-114315884D01*
X80135000Y-114521879D01*
X80129509Y-114577630D01*
X80135000Y-114633381D01*
X80135000Y-114633382D01*
X80151423Y-114800129D01*
X80216324Y-115014077D01*
X80321717Y-115211253D01*
X80463552Y-115384079D01*
X80506860Y-115419621D01*
X81225378Y-116138140D01*
X81260921Y-116181449D01*
X81433747Y-116323284D01*
X81630923Y-116428676D01*
X81844871Y-116493577D01*
X82011618Y-116510000D01*
X82011627Y-116510000D01*
X82067369Y-116515490D01*
X82123111Y-116510000D01*
X96219249Y-116510000D01*
X96275000Y-116515491D01*
X96330751Y-116510000D01*
X96330752Y-116510000D01*
X96497499Y-116493577D01*
X96711447Y-116428676D01*
X96908623Y-116323284D01*
X97081449Y-116181449D01*
X97116996Y-116138135D01*
X97220131Y-116035000D01*
X98164183Y-116035000D01*
X98221495Y-116092312D01*
X98472905Y-116260299D01*
X98752257Y-116376011D01*
X99048816Y-116435000D01*
X99351184Y-116435000D01*
X99647743Y-116376011D01*
X99927095Y-116260299D01*
X100178505Y-116092312D01*
X100392312Y-115878505D01*
X100560299Y-115627095D01*
X100676011Y-115347743D01*
X100727484Y-115088967D01*
X117615000Y-115088967D01*
X117615000Y-115411033D01*
X117677832Y-115726912D01*
X117801082Y-116024463D01*
X117980013Y-116292252D01*
X118207748Y-116519987D01*
X118475537Y-116698918D01*
X118773088Y-116822168D01*
X119088967Y-116885000D01*
X119411033Y-116885000D01*
X119726912Y-116822168D01*
X120024463Y-116698918D01*
X120292252Y-116519987D01*
X120519987Y-116292252D01*
X120698918Y-116024463D01*
X120822168Y-115726912D01*
X120885000Y-115411033D01*
X120885000Y-115088967D01*
X120822168Y-114773088D01*
X120698918Y-114475537D01*
X120519987Y-114207748D01*
X120292252Y-113980013D01*
X120024463Y-113801082D01*
X119726912Y-113677832D01*
X119411033Y-113615000D01*
X119088967Y-113615000D01*
X118773088Y-113677832D01*
X118475537Y-113801082D01*
X118207748Y-113980013D01*
X117980013Y-114207748D01*
X117801082Y-114475537D01*
X117677832Y-114773088D01*
X117615000Y-115088967D01*
X100727484Y-115088967D01*
X100735000Y-115051184D01*
X100735000Y-114748816D01*
X100676011Y-114452257D01*
X100560299Y-114172905D01*
X100392312Y-113921495D01*
X100178505Y-113707688D01*
X99927095Y-113539701D01*
X99647743Y-113423989D01*
X99351184Y-113365000D01*
X99048816Y-113365000D01*
X98752257Y-113423989D01*
X98472905Y-113539701D01*
X98221495Y-113707688D01*
X98164183Y-113765000D01*
X97220132Y-113765000D01*
X95085000Y-111629869D01*
X95085000Y-107830752D01*
X95090491Y-107775000D01*
X95068577Y-107552502D01*
X95068577Y-107552501D01*
X95035000Y-107441813D01*
X95035000Y-106169248D01*
X95018577Y-106002501D01*
X94953676Y-105788553D01*
X94880926Y-105652447D01*
X94875812Y-105600518D01*
X94839502Y-105480820D01*
X94780537Y-105370506D01*
X94701185Y-105273815D01*
X94604494Y-105194463D01*
X94494180Y-105135498D01*
X94374482Y-105099188D01*
X94250000Y-105086928D01*
X93924561Y-105086928D01*
X93900000Y-105084509D01*
X93875439Y-105086928D01*
X93550000Y-105086928D01*
X93425518Y-105099188D01*
X93305820Y-105135498D01*
X93195506Y-105194463D01*
X93098815Y-105273815D01*
X93019463Y-105370506D01*
X92960498Y-105480820D01*
X92924188Y-105600518D01*
X92919074Y-105652447D01*
X92846324Y-105788554D01*
X92781423Y-106002502D01*
X92765000Y-106169249D01*
X92765000Y-107669249D01*
X92759509Y-107725000D01*
X92765000Y-107780751D01*
X92765000Y-107780752D01*
X92770486Y-107836447D01*
X92781423Y-107947498D01*
X92815000Y-108058186D01*
X92815001Y-110944184D01*
X92678505Y-110807688D01*
X92427095Y-110639701D01*
X92147743Y-110523989D01*
X91851184Y-110465000D01*
X91770132Y-110465000D01*
X91035000Y-109729869D01*
X91035000Y-106280752D01*
X91040491Y-106225000D01*
X91018577Y-106002501D01*
X90953676Y-105788553D01*
X90880926Y-105652447D01*
X90875812Y-105600518D01*
X90839502Y-105480820D01*
X90780537Y-105370506D01*
X90701185Y-105273815D01*
X90604494Y-105194463D01*
X90494180Y-105135498D01*
X90374482Y-105099188D01*
X90250000Y-105086928D01*
X89924561Y-105086928D01*
X89900000Y-105084509D01*
X89875439Y-105086928D01*
X89550000Y-105086928D01*
X89518808Y-105090000D01*
X86920133Y-105090000D01*
X84960000Y-103129869D01*
X84960000Y-89302063D01*
X84965490Y-89246319D01*
X84960000Y-89190575D01*
X84960000Y-89190568D01*
X84943577Y-89023821D01*
X84878676Y-88809873D01*
X84773284Y-88612697D01*
X84631449Y-88439871D01*
X84588141Y-88404329D01*
X82829817Y-86646005D01*
X82960983Y-86558363D01*
X83258363Y-86260983D01*
X83492012Y-85911302D01*
X83652953Y-85522756D01*
X83735000Y-85110279D01*
X83735000Y-84689721D01*
X83652953Y-84277244D01*
X83492012Y-83888698D01*
X83258363Y-83539017D01*
X82960983Y-83241637D01*
X82611302Y-83007988D01*
X82222756Y-82847047D01*
X81810279Y-82765000D01*
X81389721Y-82765000D01*
X80977244Y-82847047D01*
X80588698Y-83007988D01*
X80239017Y-83241637D01*
X79941637Y-83539017D01*
X79707988Y-83888698D01*
X79547047Y-84277244D01*
X79465000Y-84689721D01*
X79465000Y-85110279D01*
X79547047Y-85522756D01*
X79707988Y-85911302D01*
X79941637Y-86260983D01*
X80239017Y-86558363D01*
X80465001Y-86709360D01*
X80465001Y-86965559D01*
X80459509Y-87021320D01*
X80481423Y-87243818D01*
X80546324Y-87457766D01*
X80595384Y-87549550D01*
X80651717Y-87654943D01*
X80793552Y-87827769D01*
X80836860Y-87863311D01*
X82690000Y-89716452D01*
X82690000Y-94490975D01*
X82540250Y-94390915D01*
X82179003Y-94241282D01*
X81795505Y-94165000D01*
X81404495Y-94165000D01*
X81020997Y-94241282D01*
X80659750Y-94390915D01*
X80334636Y-94608149D01*
X80058149Y-94884636D01*
X79840915Y-95209750D01*
X79691282Y-95570997D01*
X79615000Y-95954495D01*
X79615000Y-96345505D01*
X79691282Y-96729003D01*
X79840915Y-97090250D01*
X80058149Y-97415364D01*
X80334636Y-97691851D01*
X80659750Y-97909085D01*
X81020997Y-98058718D01*
X81404495Y-98135000D01*
X81795505Y-98135000D01*
X82179003Y-98058718D01*
X82540250Y-97909085D01*
X82690001Y-97809025D01*
X82690001Y-103544239D01*
X82684509Y-103600000D01*
X82706423Y-103822498D01*
X82771324Y-104036446D01*
X82771325Y-104036447D01*
X82876717Y-104233623D01*
X83018552Y-104406449D01*
X83061860Y-104441991D01*
X85608013Y-106988146D01*
X85643551Y-107031449D01*
X85686854Y-107066987D01*
X85686856Y-107066989D01*
X85816377Y-107173284D01*
X86013553Y-107278676D01*
X86227501Y-107343577D01*
X86450000Y-107365491D01*
X86505752Y-107360000D01*
X88765001Y-107360000D01*
X88765000Y-109924227D01*
X88756423Y-109952502D01*
X88734509Y-110175000D01*
X88756423Y-110397498D01*
X88821324Y-110611446D01*
X88926717Y-110808622D01*
X89068552Y-110981448D01*
X89111854Y-111016986D01*
X90165000Y-112070132D01*
X90165000Y-112151184D01*
X90223989Y-112447743D01*
X90339701Y-112727095D01*
X90507688Y-112978505D01*
X90721495Y-113192312D01*
X90972905Y-113360299D01*
X91252257Y-113476011D01*
X91548816Y-113535000D01*
X91851184Y-113535000D01*
X92147743Y-113476011D01*
X92427095Y-113360299D01*
X92678505Y-113192312D01*
X92892312Y-112978505D01*
X93031604Y-112770040D01*
X93143552Y-112906449D01*
X93186860Y-112941991D01*
X94484869Y-114240000D01*
X82537502Y-114240000D01*
X82488468Y-114190966D01*
X82508005Y-114161727D01*
X82613314Y-113907490D01*
X82667000Y-113637592D01*
X82667000Y-113362408D01*
X82613314Y-113092510D01*
X82508005Y-112838273D01*
X82355120Y-112609465D01*
X82160535Y-112414880D01*
X81931727Y-112261995D01*
X81677490Y-112156686D01*
X81407592Y-112103000D01*
X81132408Y-112103000D01*
X80862510Y-112156686D01*
X80608273Y-112261995D01*
X80379465Y-112414880D01*
X80184880Y-112609465D01*
X80126080Y-112697465D01*
X80117812Y-112613518D01*
X80081502Y-112493820D01*
X80022537Y-112383506D01*
X79943185Y-112286815D01*
X79865000Y-112222650D01*
X79865000Y-110740131D01*
X81123155Y-109481977D01*
X81389721Y-109535000D01*
X81810279Y-109535000D01*
X82222756Y-109452953D01*
X82611302Y-109292012D01*
X82960983Y-109058363D01*
X83258363Y-108760983D01*
X83492012Y-108411302D01*
X83652953Y-108022756D01*
X83735000Y-107610279D01*
X83735000Y-107189721D01*
X83652953Y-106777244D01*
X83492012Y-106388698D01*
X83258363Y-106039017D01*
X82960983Y-105741637D01*
X82611302Y-105507988D01*
X82222756Y-105347047D01*
X81810279Y-105265000D01*
X81389721Y-105265000D01*
X80977244Y-105347047D01*
X80588698Y-105507988D01*
X80239017Y-105741637D01*
X79941637Y-106039017D01*
X79707988Y-106388698D01*
X79547047Y-106777244D01*
X79465000Y-107189721D01*
X79465000Y-107610279D01*
X79518023Y-107876845D01*
X77961855Y-109433014D01*
X77918552Y-109468552D01*
X77776717Y-109641378D01*
X77671324Y-109838554D01*
X77606423Y-110052502D01*
X77584509Y-110275000D01*
X77595000Y-110381518D01*
X77595001Y-112222650D01*
X77516815Y-112286815D01*
X77437463Y-112383506D01*
X77378498Y-112493820D01*
X77342188Y-112613518D01*
X77329928Y-112738000D01*
X76710000Y-112738000D01*
X76710000Y-95212031D01*
X76801717Y-95383623D01*
X76943552Y-95556449D01*
X77116378Y-95698284D01*
X77313554Y-95803676D01*
X77527502Y-95868577D01*
X77750000Y-95890491D01*
X77972499Y-95868577D01*
X78186447Y-95803676D01*
X78383623Y-95698284D01*
X78556449Y-95556449D01*
X78698284Y-95383623D01*
X78803676Y-95186447D01*
X78868577Y-94972499D01*
X78885000Y-94805752D01*
X78885000Y-80220131D01*
X79935416Y-79169716D01*
X80019114Y-79238405D01*
X80172650Y-79320472D01*
X80339246Y-79371008D01*
X80512500Y-79388072D01*
X83337500Y-79388072D01*
X83510754Y-79371008D01*
X83677350Y-79320472D01*
X83830886Y-79238405D01*
X83965462Y-79127962D01*
X84075905Y-78993386D01*
X84157972Y-78839850D01*
X84208508Y-78673254D01*
X84225572Y-78500000D01*
X84225572Y-77400000D01*
X84699428Y-77400000D01*
X84699428Y-78500000D01*
X84716492Y-78673254D01*
X84767028Y-78839850D01*
X84849095Y-78993386D01*
X84959538Y-79127962D01*
X84990001Y-79152962D01*
X84990000Y-98919249D01*
X84984509Y-98975000D01*
X85002380Y-99156449D01*
X85006423Y-99197498D01*
X85071324Y-99411446D01*
X85176716Y-99608623D01*
X85318551Y-99781449D01*
X85361864Y-99816995D01*
X86583013Y-101038146D01*
X86618551Y-101081449D01*
X86661854Y-101116987D01*
X86661856Y-101116989D01*
X86791377Y-101223284D01*
X86988553Y-101328676D01*
X87202501Y-101393577D01*
X87425000Y-101415491D01*
X87480752Y-101410000D01*
X89429869Y-101410000D01*
X90933009Y-102913141D01*
X90968551Y-102956449D01*
X91141377Y-103098284D01*
X91338553Y-103203676D01*
X91552501Y-103268577D01*
X91719248Y-103285000D01*
X91719257Y-103285000D01*
X91774999Y-103290490D01*
X91830741Y-103285000D01*
X96190557Y-103285000D01*
X96210149Y-103295472D01*
X96376745Y-103346008D01*
X96549999Y-103363072D01*
X97450001Y-103363072D01*
X97623255Y-103346008D01*
X97789851Y-103295472D01*
X97943387Y-103213405D01*
X98077962Y-103102962D01*
X98106890Y-103067713D01*
X98074188Y-103175518D01*
X98061928Y-103300000D01*
X98061928Y-106500000D01*
X98074188Y-106624482D01*
X98110498Y-106744180D01*
X98169463Y-106854494D01*
X98248815Y-106951185D01*
X98345506Y-107030537D01*
X98455820Y-107089502D01*
X98575518Y-107125812D01*
X98700000Y-107138072D01*
X101900000Y-107138072D01*
X102024482Y-107125812D01*
X102144180Y-107089502D01*
X102254494Y-107030537D01*
X102351185Y-106951185D01*
X102430537Y-106854494D01*
X102489502Y-106744180D01*
X102525812Y-106624482D01*
X102538072Y-106500000D01*
X102538072Y-103300000D01*
X102525812Y-103175518D01*
X102489502Y-103055820D01*
X102430537Y-102945506D01*
X102351185Y-102848815D01*
X102254494Y-102769463D01*
X102144180Y-102710498D01*
X102024482Y-102674188D01*
X101900000Y-102661928D01*
X101543204Y-102661928D01*
X102075146Y-102129986D01*
X102118450Y-102094448D01*
X102260285Y-101921622D01*
X102365677Y-101724446D01*
X102430578Y-101510498D01*
X102447001Y-101343751D01*
X102452492Y-101287999D01*
X102447001Y-101232247D01*
X102447001Y-96158130D01*
X102520133Y-96084999D01*
X102761928Y-96084999D01*
X102761928Y-100250000D01*
X102774188Y-100374482D01*
X102810498Y-100494180D01*
X102815000Y-100502603D01*
X102815000Y-102394248D01*
X102809509Y-102450000D01*
X102815001Y-102505762D01*
X102815000Y-106419248D01*
X102809509Y-106475000D01*
X102827872Y-106661447D01*
X102831423Y-106697498D01*
X102896324Y-106911446D01*
X103001716Y-107108623D01*
X103143551Y-107281449D01*
X103186865Y-107316996D01*
X107237468Y-111367601D01*
X107224428Y-111500000D01*
X107224428Y-112600000D01*
X107241492Y-112773254D01*
X107292028Y-112939850D01*
X107374095Y-113093386D01*
X107484538Y-113227962D01*
X107619114Y-113338405D01*
X107772650Y-113420472D01*
X107939246Y-113471008D01*
X108112500Y-113488072D01*
X110937500Y-113488072D01*
X111110754Y-113471008D01*
X111277350Y-113420472D01*
X111430886Y-113338405D01*
X111565462Y-113227962D01*
X111675905Y-113093386D01*
X111757972Y-112939850D01*
X111785227Y-112850000D01*
X112299428Y-112850000D01*
X112311688Y-112974482D01*
X112347998Y-113094180D01*
X112406963Y-113204494D01*
X112486315Y-113301185D01*
X112583006Y-113380537D01*
X112693320Y-113439502D01*
X112813018Y-113475812D01*
X112937500Y-113488072D01*
X114314250Y-113485000D01*
X114473000Y-113326250D01*
X114473000Y-112177000D01*
X114727000Y-112177000D01*
X114727000Y-113326250D01*
X114885750Y-113485000D01*
X116262500Y-113488072D01*
X116386982Y-113475812D01*
X116506680Y-113439502D01*
X116616994Y-113380537D01*
X116713685Y-113301185D01*
X116793037Y-113204494D01*
X116852002Y-113094180D01*
X116888312Y-112974482D01*
X116900572Y-112850000D01*
X116897500Y-112335750D01*
X116738750Y-112177000D01*
X114727000Y-112177000D01*
X114473000Y-112177000D01*
X112461250Y-112177000D01*
X112302500Y-112335750D01*
X112299428Y-112850000D01*
X111785227Y-112850000D01*
X111808508Y-112773254D01*
X111825572Y-112600000D01*
X111825572Y-111500000D01*
X111808508Y-111326746D01*
X111785228Y-111250000D01*
X112299428Y-111250000D01*
X112302500Y-111764250D01*
X112461250Y-111923000D01*
X114473000Y-111923000D01*
X114473000Y-110773750D01*
X114727000Y-110773750D01*
X114727000Y-111923000D01*
X116738750Y-111923000D01*
X116897500Y-111764250D01*
X116900572Y-111250000D01*
X116888312Y-111125518D01*
X116852002Y-111005820D01*
X116793037Y-110895506D01*
X116713685Y-110798815D01*
X116616994Y-110719463D01*
X116506680Y-110660498D01*
X116386982Y-110624188D01*
X116262500Y-110611928D01*
X114885750Y-110615000D01*
X114727000Y-110773750D01*
X114473000Y-110773750D01*
X114314250Y-110615000D01*
X112937500Y-110611928D01*
X112813018Y-110624188D01*
X112693320Y-110660498D01*
X112583006Y-110719463D01*
X112486315Y-110798815D01*
X112406963Y-110895506D01*
X112347998Y-111005820D01*
X112311688Y-111125518D01*
X112299428Y-111250000D01*
X111785228Y-111250000D01*
X111757972Y-111160150D01*
X111675905Y-111006614D01*
X111565462Y-110872038D01*
X111430886Y-110761595D01*
X111277350Y-110679528D01*
X111110754Y-110628992D01*
X110937500Y-110611928D01*
X109692061Y-110611928D01*
X105085000Y-106004869D01*
X105085000Y-105374503D01*
X113355950Y-105374503D01*
X113460407Y-105718861D01*
X113660118Y-106108835D01*
X113932071Y-106452354D01*
X114265816Y-106736217D01*
X114648527Y-106949516D01*
X115065497Y-107084053D01*
X115413000Y-106972642D01*
X115413000Y-105027000D01*
X115667000Y-105027000D01*
X115667000Y-106972642D01*
X116014503Y-107084053D01*
X116431473Y-106949516D01*
X116814184Y-106736217D01*
X117147929Y-106452354D01*
X117419882Y-106108835D01*
X117619593Y-105718861D01*
X117724050Y-105374503D01*
X117612362Y-105027000D01*
X115667000Y-105027000D01*
X115413000Y-105027000D01*
X113467638Y-105027000D01*
X113355950Y-105374503D01*
X105085000Y-105374503D01*
X105085000Y-103585000D01*
X113744165Y-103585000D01*
X113660118Y-103691165D01*
X113460407Y-104081139D01*
X113355950Y-104425497D01*
X113467638Y-104773000D01*
X115413000Y-104773000D01*
X115413000Y-104753000D01*
X115667000Y-104753000D01*
X115667000Y-104773000D01*
X117612362Y-104773000D01*
X117724050Y-104425497D01*
X117619593Y-104081139D01*
X117419882Y-103691165D01*
X117147929Y-103347646D01*
X117072990Y-103283908D01*
X117106449Y-103256449D01*
X117141996Y-103213135D01*
X123763142Y-96591990D01*
X123806450Y-96556448D01*
X123948285Y-96383622D01*
X124053677Y-96186446D01*
X124118578Y-95972498D01*
X124135001Y-95805751D01*
X124135001Y-95805742D01*
X124140491Y-95750000D01*
X124135001Y-95694258D01*
X124135001Y-95629165D01*
X124194248Y-95635000D01*
X124194249Y-95635000D01*
X124250000Y-95640491D01*
X124305752Y-95635000D01*
X125511928Y-95635000D01*
X125511928Y-97450000D01*
X125524188Y-97574482D01*
X125560498Y-97694180D01*
X125619463Y-97804494D01*
X125698815Y-97901185D01*
X125795506Y-97980537D01*
X125905820Y-98039502D01*
X126025518Y-98075812D01*
X126150000Y-98088072D01*
X129050000Y-98088072D01*
X129174482Y-98075812D01*
X129294180Y-98039502D01*
X129404494Y-97980537D01*
X129501185Y-97901185D01*
X129580537Y-97804494D01*
X129639502Y-97694180D01*
X129675812Y-97574482D01*
X129688072Y-97450000D01*
X129688072Y-92050000D01*
X129675812Y-91925518D01*
X129639502Y-91805820D01*
X129580537Y-91695506D01*
X129501185Y-91598815D01*
X129404494Y-91519463D01*
X129294180Y-91460498D01*
X129174482Y-91424188D01*
X129050000Y-91411928D01*
X126150000Y-91411928D01*
X126025518Y-91424188D01*
X125905820Y-91460498D01*
X125795506Y-91519463D01*
X125698815Y-91598815D01*
X125619463Y-91695506D01*
X125560498Y-91805820D01*
X125524188Y-91925518D01*
X125511928Y-92050000D01*
X125511928Y-93365000D01*
X125385000Y-93365000D01*
X125385000Y-79305752D01*
X125390491Y-79250000D01*
X125368577Y-79027501D01*
X125303676Y-78813553D01*
X125198284Y-78616377D01*
X125171403Y-78583623D01*
X125056449Y-78443551D01*
X125013141Y-78408009D01*
X121491996Y-74886865D01*
X121456449Y-74843551D01*
X121315108Y-74727555D01*
X121660383Y-74615243D01*
X121956038Y-74457214D01*
X122112048Y-74141653D01*
X120800000Y-72829605D01*
X119487952Y-74141653D01*
X119643962Y-74457214D01*
X119757466Y-74515000D01*
X116244248Y-74515000D01*
X116077501Y-74531423D01*
X115976940Y-74561928D01*
X114300000Y-74561928D01*
X114175518Y-74574188D01*
X114055820Y-74610498D01*
X113945506Y-74669463D01*
X113848815Y-74748815D01*
X113769463Y-74845506D01*
X113710498Y-74955820D01*
X113674188Y-75075518D01*
X113661928Y-75200000D01*
X113661928Y-75316797D01*
X113481985Y-75136854D01*
X113446439Y-75093541D01*
X113273613Y-74951706D01*
X113076437Y-74846314D01*
X112862489Y-74781413D01*
X112695742Y-74764990D01*
X112695741Y-74764990D01*
X112639990Y-74759499D01*
X112584239Y-74764990D01*
X106430751Y-74764990D01*
X106375009Y-74759500D01*
X106319267Y-74764990D01*
X106319258Y-74764990D01*
X106152511Y-74781413D01*
X105938563Y-74846314D01*
X105741387Y-74951706D01*
X105568561Y-75093541D01*
X105533018Y-75136850D01*
X104875000Y-75794868D01*
X103916985Y-74836854D01*
X103881439Y-74793541D01*
X103708613Y-74651706D01*
X103511437Y-74546314D01*
X103297489Y-74481413D01*
X103130742Y-74464990D01*
X103130741Y-74464990D01*
X103074990Y-74459499D01*
X103019239Y-74464990D01*
X98655751Y-74464990D01*
X98600009Y-74459500D01*
X98544267Y-74464990D01*
X98544258Y-74464990D01*
X98377511Y-74481413D01*
X98163563Y-74546314D01*
X97966387Y-74651706D01*
X97793561Y-74793541D01*
X97758014Y-74836855D01*
X97236865Y-75358004D01*
X97193551Y-75393551D01*
X97051716Y-75566377D01*
X96992325Y-75677492D01*
X96946324Y-75763554D01*
X96915550Y-75865000D01*
X94181192Y-75865000D01*
X94150000Y-75861928D01*
X93150000Y-75861928D01*
X93025518Y-75874188D01*
X92905820Y-75910498D01*
X92795506Y-75969463D01*
X92698815Y-76048815D01*
X92619463Y-76145506D01*
X92560498Y-76255820D01*
X92524188Y-76375518D01*
X92511928Y-76500000D01*
X92511928Y-76975439D01*
X92509509Y-77000000D01*
X92511928Y-77024561D01*
X92511928Y-77500000D01*
X92524188Y-77624482D01*
X92560498Y-77744180D01*
X92619463Y-77854494D01*
X92698815Y-77951185D01*
X92795506Y-78030537D01*
X92905820Y-78089502D01*
X93025518Y-78125812D01*
X93150000Y-78138072D01*
X94150000Y-78138072D01*
X94181192Y-78135000D01*
X97116539Y-78135000D01*
X97181613Y-78188405D01*
X97335149Y-78270472D01*
X97501745Y-78321008D01*
X97674999Y-78338072D01*
X98325001Y-78338072D01*
X98498255Y-78321008D01*
X98664851Y-78270472D01*
X98818387Y-78188405D01*
X98952962Y-78077962D01*
X98958342Y-78071406D01*
X99023815Y-78151185D01*
X99120506Y-78230537D01*
X99230820Y-78289502D01*
X99350518Y-78325812D01*
X99475000Y-78338072D01*
X99764250Y-78335000D01*
X99923000Y-78176250D01*
X99923000Y-77127000D01*
X100177000Y-77127000D01*
X100177000Y-78176250D01*
X100335750Y-78335000D01*
X100625000Y-78338072D01*
X100749482Y-78325812D01*
X100869180Y-78289502D01*
X100979494Y-78230537D01*
X101076185Y-78151185D01*
X101155537Y-78054494D01*
X101214502Y-77944180D01*
X101250812Y-77824482D01*
X101263072Y-77700000D01*
X101260000Y-77285750D01*
X101101250Y-77127000D01*
X100177000Y-77127000D01*
X99923000Y-77127000D01*
X99903000Y-77127000D01*
X99903000Y-76873000D01*
X99923000Y-76873000D01*
X99923000Y-76853000D01*
X100177000Y-76853000D01*
X100177000Y-76873000D01*
X101101250Y-76873000D01*
X101239260Y-76734990D01*
X102604859Y-76734990D01*
X102849428Y-76979560D01*
X102849428Y-77950000D01*
X102866492Y-78123254D01*
X102917028Y-78289850D01*
X102999095Y-78443386D01*
X103109538Y-78577962D01*
X103244114Y-78688405D01*
X103397650Y-78770472D01*
X103564246Y-78821008D01*
X103737500Y-78838072D01*
X106012500Y-78838072D01*
X106185754Y-78821008D01*
X106352350Y-78770472D01*
X106505886Y-78688405D01*
X106640462Y-78577962D01*
X106750905Y-78443386D01*
X106832972Y-78289850D01*
X106860227Y-78200000D01*
X106974428Y-78200000D01*
X106986688Y-78324482D01*
X107022998Y-78444180D01*
X107081963Y-78554494D01*
X107161315Y-78651185D01*
X107258006Y-78730537D01*
X107368320Y-78789502D01*
X107488018Y-78825812D01*
X107612500Y-78838072D01*
X108714250Y-78835000D01*
X108873000Y-78676250D01*
X108873000Y-77527000D01*
X109127000Y-77527000D01*
X109127000Y-78676250D01*
X109285750Y-78835000D01*
X110387500Y-78838072D01*
X110511982Y-78825812D01*
X110631680Y-78789502D01*
X110741994Y-78730537D01*
X110838685Y-78651185D01*
X110918037Y-78554494D01*
X110977002Y-78444180D01*
X111013312Y-78324482D01*
X111025572Y-78200000D01*
X111022500Y-77685750D01*
X110863750Y-77527000D01*
X109127000Y-77527000D01*
X108873000Y-77527000D01*
X107136250Y-77527000D01*
X106977500Y-77685750D01*
X106974428Y-78200000D01*
X106860227Y-78200000D01*
X106883508Y-78123254D01*
X106900572Y-77950000D01*
X106900572Y-77034990D01*
X106977027Y-77034990D01*
X106977500Y-77114250D01*
X107136250Y-77273000D01*
X108873000Y-77273000D01*
X108873000Y-77253000D01*
X109127000Y-77253000D01*
X109127000Y-77273000D01*
X110863750Y-77273000D01*
X111022500Y-77114250D01*
X111022973Y-77034990D01*
X112169858Y-77034990D01*
X112898012Y-77763145D01*
X112933550Y-77806448D01*
X112976853Y-77841986D01*
X112976855Y-77841988D01*
X113106376Y-77948283D01*
X113303552Y-78053675D01*
X113517500Y-78118576D01*
X113661928Y-78132801D01*
X113661928Y-78600000D01*
X113674188Y-78724482D01*
X113710498Y-78844180D01*
X113769463Y-78954494D01*
X113848815Y-79051185D01*
X113945506Y-79130537D01*
X113981918Y-79150000D01*
X113945506Y-79169463D01*
X113848815Y-79248815D01*
X113769463Y-79345506D01*
X113710498Y-79455820D01*
X113674188Y-79575518D01*
X113661928Y-79700000D01*
X113661928Y-80600000D01*
X113674188Y-80724482D01*
X113710498Y-80844180D01*
X113769463Y-80954494D01*
X113848815Y-81051185D01*
X113945506Y-81130537D01*
X114055820Y-81189502D01*
X114175518Y-81225812D01*
X114300000Y-81238072D01*
X118300000Y-81238072D01*
X118424482Y-81225812D01*
X118544180Y-81189502D01*
X118654494Y-81130537D01*
X118751185Y-81051185D01*
X118830537Y-80954494D01*
X118889502Y-80844180D01*
X118925812Y-80724482D01*
X118938072Y-80600000D01*
X118938072Y-79700000D01*
X118925812Y-79575518D01*
X118889502Y-79455820D01*
X118830537Y-79345506D01*
X118751185Y-79248815D01*
X118654494Y-79169463D01*
X118618082Y-79150000D01*
X118654494Y-79130537D01*
X118751185Y-79051185D01*
X118830537Y-78954494D01*
X118889502Y-78844180D01*
X118925812Y-78724482D01*
X118930612Y-78675742D01*
X121865001Y-81610131D01*
X121865001Y-83796438D01*
X121581255Y-83651980D01*
X121176449Y-83537956D01*
X120757176Y-83505098D01*
X120339549Y-83554666D01*
X119939617Y-83684757D01*
X119643962Y-83842786D01*
X119487952Y-84158347D01*
X120800000Y-85470395D01*
X120814143Y-85456253D01*
X120993748Y-85635858D01*
X120979605Y-85650000D01*
X120993748Y-85664143D01*
X120814143Y-85843748D01*
X120800000Y-85829605D01*
X119487952Y-87141653D01*
X119643962Y-87457214D01*
X120018745Y-87648020D01*
X120423551Y-87762044D01*
X120842824Y-87794902D01*
X121260451Y-87745334D01*
X121660383Y-87615243D01*
X121865001Y-87505873D01*
X121865002Y-95279866D01*
X119988072Y-97156796D01*
X119988072Y-92050000D01*
X119975812Y-91925518D01*
X119939502Y-91805820D01*
X119880537Y-91695506D01*
X119801185Y-91598815D01*
X119704494Y-91519463D01*
X119594180Y-91460498D01*
X119474482Y-91424188D01*
X119350000Y-91411928D01*
X116450000Y-91411928D01*
X116325518Y-91424188D01*
X116205820Y-91460498D01*
X116095506Y-91519463D01*
X115998815Y-91598815D01*
X115919463Y-91695506D01*
X115860498Y-91805820D01*
X115824188Y-91925518D01*
X115811928Y-92050000D01*
X115811928Y-96704749D01*
X115789502Y-96630820D01*
X115730537Y-96520506D01*
X115651185Y-96423815D01*
X115554494Y-96344463D01*
X115444180Y-96285498D01*
X115324482Y-96249188D01*
X115200000Y-96236928D01*
X114785750Y-96240000D01*
X114627000Y-96398750D01*
X114627000Y-97323000D01*
X114647000Y-97323000D01*
X114647000Y-97577000D01*
X114627000Y-97577000D01*
X114627000Y-97597000D01*
X114373000Y-97597000D01*
X114373000Y-97577000D01*
X113323750Y-97577000D01*
X113165000Y-97735750D01*
X113161928Y-98025000D01*
X113174188Y-98149482D01*
X113210498Y-98269180D01*
X113269463Y-98379494D01*
X113312198Y-98431567D01*
X113263553Y-98446324D01*
X113066377Y-98551716D01*
X112893551Y-98693551D01*
X112858008Y-98736860D01*
X111937169Y-99657700D01*
X111935000Y-98235750D01*
X111776250Y-98077000D01*
X110877000Y-98077000D01*
X110877000Y-98097000D01*
X110623000Y-98097000D01*
X110623000Y-98077000D01*
X110603000Y-98077000D01*
X110603000Y-97823000D01*
X110623000Y-97823000D01*
X110623000Y-97803000D01*
X110877000Y-97803000D01*
X110877000Y-97823000D01*
X111776250Y-97823000D01*
X111935000Y-97664250D01*
X111936203Y-96875000D01*
X113161928Y-96875000D01*
X113165000Y-97164250D01*
X113323750Y-97323000D01*
X114373000Y-97323000D01*
X114373000Y-96398750D01*
X114214250Y-96240000D01*
X113800000Y-96236928D01*
X113675518Y-96249188D01*
X113555820Y-96285498D01*
X113445506Y-96344463D01*
X113348815Y-96423815D01*
X113269463Y-96520506D01*
X113210498Y-96630820D01*
X113174188Y-96750518D01*
X113161928Y-96875000D01*
X111936203Y-96875000D01*
X111938072Y-95650000D01*
X111936595Y-95635000D01*
X114305752Y-95635000D01*
X114472499Y-95618577D01*
X114686447Y-95553676D01*
X114883623Y-95448284D01*
X115056449Y-95306449D01*
X115198284Y-95133623D01*
X115303676Y-94936447D01*
X115368577Y-94722499D01*
X115390491Y-94500000D01*
X115368577Y-94277501D01*
X115303676Y-94063553D01*
X115198284Y-93866377D01*
X115056449Y-93693551D01*
X114883623Y-93551716D01*
X114686447Y-93446324D01*
X114472499Y-93381423D01*
X114305752Y-93365000D01*
X113387978Y-93365000D01*
X113385000Y-89085750D01*
X113226250Y-88927000D01*
X107477000Y-88927000D01*
X107477000Y-93976250D01*
X107635750Y-94135000D01*
X108038183Y-94135242D01*
X107996324Y-94213554D01*
X107931423Y-94427502D01*
X107909509Y-94650000D01*
X107915001Y-94705761D01*
X107915001Y-95013405D01*
X107900000Y-95011928D01*
X107635750Y-95015000D01*
X107477000Y-95173750D01*
X107477000Y-97823000D01*
X107497000Y-97823000D01*
X107497000Y-98077000D01*
X107477000Y-98077000D01*
X107477000Y-100726250D01*
X107635750Y-100885000D01*
X107900000Y-100888072D01*
X108024482Y-100875812D01*
X108036755Y-100872089D01*
X108101716Y-100993625D01*
X108243551Y-101166451D01*
X108286864Y-101201997D01*
X108399867Y-101315000D01*
X105085000Y-101315000D01*
X105085000Y-100886595D01*
X105100000Y-100888072D01*
X106200000Y-100888072D01*
X106324482Y-100875812D01*
X106444180Y-100839502D01*
X106500000Y-100809665D01*
X106555820Y-100839502D01*
X106675518Y-100875812D01*
X106800000Y-100888072D01*
X107064250Y-100885000D01*
X107223000Y-100726250D01*
X107223000Y-98077000D01*
X107203000Y-98077000D01*
X107203000Y-97823000D01*
X107223000Y-97823000D01*
X107223000Y-95173750D01*
X107064250Y-95015000D01*
X106800000Y-95011928D01*
X106675518Y-95024188D01*
X106663246Y-95027911D01*
X106598284Y-94906375D01*
X106456449Y-94733549D01*
X106413140Y-94698006D01*
X105901996Y-94186863D01*
X105866450Y-94143550D01*
X105856915Y-94135725D01*
X107064250Y-94135000D01*
X107223000Y-93976250D01*
X107223000Y-88927000D01*
X101473750Y-88927000D01*
X101315000Y-89085750D01*
X101311928Y-93500000D01*
X101324188Y-93624482D01*
X101360498Y-93744180D01*
X101419463Y-93854494D01*
X101498815Y-93951185D01*
X101503587Y-93955101D01*
X101416378Y-94001715D01*
X101243552Y-94143550D01*
X101208011Y-94186857D01*
X100548865Y-94846004D01*
X100505552Y-94881550D01*
X100363717Y-95054376D01*
X100286514Y-95198815D01*
X100258325Y-95251553D01*
X100193424Y-95465501D01*
X100171510Y-95687999D01*
X100177001Y-95743751D01*
X100177001Y-95923096D01*
X100168980Y-95894344D01*
X99919952Y-95777244D01*
X99652865Y-95710977D01*
X99377983Y-95698090D01*
X99105867Y-95739078D01*
X98846977Y-95832364D01*
X98731020Y-95894344D01*
X98664040Y-96134435D01*
X99450000Y-96920395D01*
X99464143Y-96906253D01*
X99643748Y-97085858D01*
X99629605Y-97100000D01*
X99643748Y-97114143D01*
X99464143Y-97293748D01*
X99450000Y-97279605D01*
X98664040Y-98065565D01*
X98731020Y-98305656D01*
X98980048Y-98422756D01*
X99247135Y-98489023D01*
X99522017Y-98501910D01*
X99794133Y-98460922D01*
X100053023Y-98367636D01*
X100168980Y-98305656D01*
X100177001Y-98276903D01*
X100177002Y-100817866D01*
X99536864Y-101458005D01*
X99493551Y-101493551D01*
X99351716Y-101666377D01*
X99271540Y-101816378D01*
X99246324Y-101863554D01*
X99181423Y-102077502D01*
X99159509Y-102300000D01*
X99165000Y-102355752D01*
X99165000Y-102661928D01*
X98700000Y-102661928D01*
X98575518Y-102674188D01*
X98455820Y-102710498D01*
X98345506Y-102769463D01*
X98255055Y-102843694D01*
X98270472Y-102814851D01*
X98321008Y-102648255D01*
X98338072Y-102475001D01*
X98338072Y-101824999D01*
X98321008Y-101651745D01*
X98270472Y-101485149D01*
X98188405Y-101331613D01*
X98077962Y-101197038D01*
X97990184Y-101125000D01*
X98077962Y-101052962D01*
X98188405Y-100918387D01*
X98270472Y-100764851D01*
X98321008Y-100598255D01*
X98338072Y-100425001D01*
X98338072Y-99774999D01*
X98321008Y-99601745D01*
X98270472Y-99435149D01*
X98188405Y-99281613D01*
X98077962Y-99147038D01*
X97943387Y-99036595D01*
X97789851Y-98954528D01*
X97623255Y-98903992D01*
X97450001Y-98886928D01*
X96549999Y-98886928D01*
X96376745Y-98903992D01*
X96210149Y-98954528D01*
X96056613Y-99036595D01*
X95930614Y-99140000D01*
X94885000Y-99140000D01*
X94885000Y-97805743D01*
X94890490Y-97749999D01*
X94885000Y-97694255D01*
X94885000Y-97694248D01*
X94868577Y-97527501D01*
X94803676Y-97313553D01*
X94728024Y-97172017D01*
X98048090Y-97172017D01*
X98089078Y-97444133D01*
X98182364Y-97703023D01*
X98244344Y-97818980D01*
X98484435Y-97885960D01*
X99270395Y-97100000D01*
X98484435Y-96314040D01*
X98244344Y-96381020D01*
X98127244Y-96630048D01*
X98060977Y-96897135D01*
X98048090Y-97172017D01*
X94728024Y-97172017D01*
X94698284Y-97116377D01*
X94556449Y-96943551D01*
X94513135Y-96908004D01*
X93841996Y-96236865D01*
X93806449Y-96193551D01*
X93633623Y-96051716D01*
X93436447Y-95946324D01*
X93222499Y-95881423D01*
X93055752Y-95865000D01*
X93055751Y-95865000D01*
X93000000Y-95859509D01*
X92944249Y-95865000D01*
X90265884Y-95865000D01*
X90111727Y-95761995D01*
X89857490Y-95656686D01*
X89587592Y-95603000D01*
X89312408Y-95603000D01*
X89042510Y-95656686D01*
X88788273Y-95761995D01*
X88559465Y-95914880D01*
X88364880Y-96109465D01*
X88211995Y-96338273D01*
X88106686Y-96592510D01*
X88053000Y-96862408D01*
X88053000Y-97137592D01*
X88106686Y-97407490D01*
X88211995Y-97661727D01*
X88364880Y-97890535D01*
X88559465Y-98085120D01*
X88788273Y-98238005D01*
X89042510Y-98343314D01*
X89312408Y-98397000D01*
X89587592Y-98397000D01*
X89857490Y-98343314D01*
X90111727Y-98238005D01*
X90265884Y-98135000D01*
X92529869Y-98135000D01*
X92615001Y-98220132D01*
X92615000Y-99919248D01*
X92609509Y-99975000D01*
X92615000Y-100030751D01*
X92631423Y-100197498D01*
X92696324Y-100411446D01*
X92801716Y-100608623D01*
X92822999Y-100634557D01*
X92846324Y-100711447D01*
X92919074Y-100847553D01*
X92924188Y-100899482D01*
X92959230Y-101015000D01*
X92245132Y-101015000D01*
X90873706Y-99643575D01*
X90839502Y-99530820D01*
X90780537Y-99420506D01*
X90701185Y-99323815D01*
X90604494Y-99244463D01*
X90494180Y-99185498D01*
X90374482Y-99149188D01*
X90250000Y-99136928D01*
X89924561Y-99136928D01*
X89900000Y-99134509D01*
X89875439Y-99136928D01*
X89550000Y-99136928D01*
X89518808Y-99140000D01*
X87895132Y-99140000D01*
X87260000Y-98504868D01*
X87260000Y-92862408D01*
X88053000Y-92862408D01*
X88053000Y-93137592D01*
X88106686Y-93407490D01*
X88211995Y-93661727D01*
X88364880Y-93890535D01*
X88559465Y-94085120D01*
X88788273Y-94238005D01*
X89042510Y-94343314D01*
X89312408Y-94397000D01*
X89587592Y-94397000D01*
X89857490Y-94343314D01*
X90111727Y-94238005D01*
X90340535Y-94085120D01*
X90535120Y-93890535D01*
X90688005Y-93661727D01*
X90793314Y-93407490D01*
X90847000Y-93137592D01*
X90847000Y-92962408D01*
X98053000Y-92962408D01*
X98053000Y-93237592D01*
X98106686Y-93507490D01*
X98211995Y-93761727D01*
X98364880Y-93990535D01*
X98559465Y-94185120D01*
X98788273Y-94338005D01*
X99042510Y-94443314D01*
X99312408Y-94497000D01*
X99587592Y-94497000D01*
X99857490Y-94443314D01*
X100111727Y-94338005D01*
X100340535Y-94185120D01*
X100535120Y-93990535D01*
X100688005Y-93761727D01*
X100793314Y-93507490D01*
X100847000Y-93237592D01*
X100847000Y-92962408D01*
X100793314Y-92692510D01*
X100688005Y-92438273D01*
X100535120Y-92209465D01*
X100340535Y-92014880D01*
X100111727Y-91861995D01*
X99857490Y-91756686D01*
X99587592Y-91703000D01*
X99312408Y-91703000D01*
X99042510Y-91756686D01*
X98788273Y-91861995D01*
X98559465Y-92014880D01*
X98364880Y-92209465D01*
X98211995Y-92438273D01*
X98106686Y-92692510D01*
X98053000Y-92962408D01*
X90847000Y-92962408D01*
X90847000Y-92862408D01*
X90793314Y-92592510D01*
X90688005Y-92338273D01*
X90535120Y-92109465D01*
X90340535Y-91914880D01*
X90111727Y-91761995D01*
X89857490Y-91656686D01*
X89587592Y-91603000D01*
X89312408Y-91603000D01*
X89042510Y-91656686D01*
X88788273Y-91761995D01*
X88559465Y-91914880D01*
X88364880Y-92109465D01*
X88211995Y-92338273D01*
X88106686Y-92592510D01*
X88053000Y-92862408D01*
X87260000Y-92862408D01*
X87260000Y-88862408D01*
X88053000Y-88862408D01*
X88053000Y-89137592D01*
X88106686Y-89407490D01*
X88211995Y-89661727D01*
X88364880Y-89890535D01*
X88559465Y-90085120D01*
X88788273Y-90238005D01*
X89042510Y-90343314D01*
X89312408Y-90397000D01*
X89587592Y-90397000D01*
X89857490Y-90343314D01*
X90111727Y-90238005D01*
X90340535Y-90085120D01*
X90535120Y-89890535D01*
X90688005Y-89661727D01*
X90793314Y-89407490D01*
X90847000Y-89137592D01*
X90847000Y-88962408D01*
X98053000Y-88962408D01*
X98053000Y-89237592D01*
X98106686Y-89507490D01*
X98211995Y-89761727D01*
X98364880Y-89990535D01*
X98559465Y-90185120D01*
X98788273Y-90338005D01*
X99042510Y-90443314D01*
X99312408Y-90497000D01*
X99587592Y-90497000D01*
X99857490Y-90443314D01*
X100111727Y-90338005D01*
X100340535Y-90185120D01*
X100535120Y-89990535D01*
X100688005Y-89761727D01*
X100793314Y-89507490D01*
X100847000Y-89237592D01*
X100847000Y-88962408D01*
X100793314Y-88692510D01*
X100688005Y-88438273D01*
X100535120Y-88209465D01*
X100340535Y-88014880D01*
X100111727Y-87861995D01*
X99857490Y-87756686D01*
X99587592Y-87703000D01*
X99312408Y-87703000D01*
X99042510Y-87756686D01*
X98788273Y-87861995D01*
X98559465Y-88014880D01*
X98364880Y-88209465D01*
X98211995Y-88438273D01*
X98106686Y-88692510D01*
X98053000Y-88962408D01*
X90847000Y-88962408D01*
X90847000Y-88862408D01*
X90793314Y-88592510D01*
X90688005Y-88338273D01*
X90535120Y-88109465D01*
X90340535Y-87914880D01*
X90111727Y-87761995D01*
X89857490Y-87656686D01*
X89587592Y-87603000D01*
X89312408Y-87603000D01*
X89042510Y-87656686D01*
X88788273Y-87761995D01*
X88559465Y-87914880D01*
X88364880Y-88109465D01*
X88211995Y-88338273D01*
X88106686Y-88592510D01*
X88053000Y-88862408D01*
X87260000Y-88862408D01*
X87260000Y-84862408D01*
X88053000Y-84862408D01*
X88053000Y-85137592D01*
X88106686Y-85407490D01*
X88211995Y-85661727D01*
X88364880Y-85890535D01*
X88559465Y-86085120D01*
X88788273Y-86238005D01*
X89042510Y-86343314D01*
X89312408Y-86397000D01*
X89587592Y-86397000D01*
X89857490Y-86343314D01*
X90111727Y-86238005D01*
X90340535Y-86085120D01*
X90535120Y-85890535D01*
X90688005Y-85661727D01*
X90793314Y-85407490D01*
X90847000Y-85137592D01*
X90847000Y-84962408D01*
X98053000Y-84962408D01*
X98053000Y-85237592D01*
X98106686Y-85507490D01*
X98211995Y-85761727D01*
X98364880Y-85990535D01*
X98559465Y-86185120D01*
X98788273Y-86338005D01*
X99042510Y-86443314D01*
X99312408Y-86497000D01*
X99587592Y-86497000D01*
X99857490Y-86443314D01*
X100111727Y-86338005D01*
X100340535Y-86185120D01*
X100535120Y-85990535D01*
X100688005Y-85761727D01*
X100793314Y-85507490D01*
X100847000Y-85237592D01*
X100847000Y-84962408D01*
X100793314Y-84692510D01*
X100688005Y-84438273D01*
X100535120Y-84209465D01*
X100425655Y-84100000D01*
X101311928Y-84100000D01*
X101315000Y-88514250D01*
X101473750Y-88673000D01*
X107223000Y-88673000D01*
X107223000Y-83623750D01*
X107477000Y-83623750D01*
X107477000Y-88673000D01*
X113226250Y-88673000D01*
X113385000Y-88514250D01*
X113386963Y-85692824D01*
X118655098Y-85692824D01*
X118704666Y-86110451D01*
X118834757Y-86510383D01*
X118992786Y-86806038D01*
X119308347Y-86962048D01*
X120620395Y-85650000D01*
X119308347Y-84337952D01*
X118992786Y-84493962D01*
X118801980Y-84868745D01*
X118687956Y-85273551D01*
X118655098Y-85692824D01*
X113386963Y-85692824D01*
X113388072Y-84100000D01*
X113375812Y-83975518D01*
X113339502Y-83855820D01*
X113280537Y-83745506D01*
X113201185Y-83648815D01*
X113104494Y-83569463D01*
X112994180Y-83510498D01*
X112874482Y-83474188D01*
X112750000Y-83461928D01*
X107635750Y-83465000D01*
X107477000Y-83623750D01*
X107223000Y-83623750D01*
X107064250Y-83465000D01*
X101950000Y-83461928D01*
X101825518Y-83474188D01*
X101705820Y-83510498D01*
X101595506Y-83569463D01*
X101498815Y-83648815D01*
X101419463Y-83745506D01*
X101360498Y-83855820D01*
X101324188Y-83975518D01*
X101311928Y-84100000D01*
X100425655Y-84100000D01*
X100340535Y-84014880D01*
X100111727Y-83861995D01*
X99857490Y-83756686D01*
X99587592Y-83703000D01*
X99312408Y-83703000D01*
X99042510Y-83756686D01*
X98788273Y-83861995D01*
X98559465Y-84014880D01*
X98364880Y-84209465D01*
X98211995Y-84438273D01*
X98106686Y-84692510D01*
X98053000Y-84962408D01*
X90847000Y-84962408D01*
X90847000Y-84862408D01*
X90793314Y-84592510D01*
X90688005Y-84338273D01*
X90535120Y-84109465D01*
X90340535Y-83914880D01*
X90111727Y-83761995D01*
X89857490Y-83656686D01*
X89587592Y-83603000D01*
X89312408Y-83603000D01*
X89042510Y-83656686D01*
X88788273Y-83761995D01*
X88559465Y-83914880D01*
X88364880Y-84109465D01*
X88211995Y-84338273D01*
X88106686Y-84592510D01*
X88053000Y-84862408D01*
X87260000Y-84862408D01*
X87260000Y-83100000D01*
X113661928Y-83100000D01*
X113674188Y-83224482D01*
X113710498Y-83344180D01*
X113769463Y-83454494D01*
X113848815Y-83551185D01*
X113945506Y-83630537D01*
X114055820Y-83689502D01*
X114175518Y-83725812D01*
X114300000Y-83738072D01*
X116014250Y-83735000D01*
X116173000Y-83576250D01*
X116173000Y-82777000D01*
X116427000Y-82777000D01*
X116427000Y-83576250D01*
X116585750Y-83735000D01*
X118300000Y-83738072D01*
X118424482Y-83725812D01*
X118544180Y-83689502D01*
X118654494Y-83630537D01*
X118751185Y-83551185D01*
X118830537Y-83454494D01*
X118889502Y-83344180D01*
X118925812Y-83224482D01*
X118938072Y-83100000D01*
X118935000Y-82935750D01*
X118776250Y-82777000D01*
X116427000Y-82777000D01*
X116173000Y-82777000D01*
X113823750Y-82777000D01*
X113665000Y-82935750D01*
X113661928Y-83100000D01*
X87260000Y-83100000D01*
X87260000Y-79388072D01*
X88365000Y-79388072D01*
X88365000Y-79589183D01*
X88331423Y-79699871D01*
X88331423Y-79699872D01*
X88309509Y-79922370D01*
X88315000Y-79978121D01*
X88315000Y-80184116D01*
X88211995Y-80338273D01*
X88106686Y-80592510D01*
X88053000Y-80862408D01*
X88053000Y-81137592D01*
X88106686Y-81407490D01*
X88211995Y-81661727D01*
X88364880Y-81890535D01*
X88559465Y-82085120D01*
X88788273Y-82238005D01*
X89042510Y-82343314D01*
X89312408Y-82397000D01*
X89587592Y-82397000D01*
X89857490Y-82343314D01*
X90111727Y-82238005D01*
X90340535Y-82085120D01*
X90535120Y-81890535D01*
X90688005Y-81661727D01*
X90793314Y-81407490D01*
X90847000Y-81137592D01*
X90847000Y-80862408D01*
X90793314Y-80592510D01*
X90688005Y-80338273D01*
X90597114Y-80202245D01*
X92258009Y-81863141D01*
X92293551Y-81906449D01*
X92466377Y-82048284D01*
X92663553Y-82153676D01*
X92877501Y-82218577D01*
X93044248Y-82235000D01*
X93044257Y-82235000D01*
X93099999Y-82240490D01*
X93155741Y-82235000D01*
X98634116Y-82235000D01*
X98788273Y-82338005D01*
X99042510Y-82443314D01*
X99312408Y-82497000D01*
X99587592Y-82497000D01*
X99857490Y-82443314D01*
X100111727Y-82338005D01*
X100318265Y-82200000D01*
X113661928Y-82200000D01*
X113665000Y-82364250D01*
X113823750Y-82523000D01*
X116173000Y-82523000D01*
X116173000Y-81723750D01*
X116427000Y-81723750D01*
X116427000Y-82523000D01*
X118776250Y-82523000D01*
X118935000Y-82364250D01*
X118938072Y-82200000D01*
X118925812Y-82075518D01*
X118889502Y-81955820D01*
X118830537Y-81845506D01*
X118751185Y-81748815D01*
X118654494Y-81669463D01*
X118544180Y-81610498D01*
X118424482Y-81574188D01*
X118300000Y-81561928D01*
X116585750Y-81565000D01*
X116427000Y-81723750D01*
X116173000Y-81723750D01*
X116014250Y-81565000D01*
X114300000Y-81561928D01*
X114175518Y-81574188D01*
X114055820Y-81610498D01*
X113945506Y-81669463D01*
X113848815Y-81748815D01*
X113769463Y-81845506D01*
X113710498Y-81955820D01*
X113674188Y-82075518D01*
X113661928Y-82200000D01*
X100318265Y-82200000D01*
X100340535Y-82185120D01*
X100535120Y-81990535D01*
X100688005Y-81761727D01*
X100793314Y-81507490D01*
X100847000Y-81237592D01*
X100847000Y-80962408D01*
X100793314Y-80692510D01*
X100688005Y-80438273D01*
X100535120Y-80209465D01*
X100340535Y-80014880D01*
X100111727Y-79861995D01*
X99857490Y-79756686D01*
X99587592Y-79703000D01*
X99312408Y-79703000D01*
X99042510Y-79756686D01*
X98788273Y-79861995D01*
X98634116Y-79965000D01*
X93570132Y-79965000D01*
X92285000Y-78679869D01*
X92285000Y-77531192D01*
X92288072Y-77500000D01*
X92288072Y-76500000D01*
X92275812Y-76375518D01*
X92239502Y-76255820D01*
X92180537Y-76145506D01*
X92101185Y-76048815D01*
X92004494Y-75969463D01*
X91894180Y-75910498D01*
X91774482Y-75874188D01*
X91650000Y-75861928D01*
X91174561Y-75861928D01*
X91150000Y-75859509D01*
X91125439Y-75861928D01*
X90650000Y-75861928D01*
X90525518Y-75874188D01*
X90405820Y-75910498D01*
X90295506Y-75969463D01*
X90198815Y-76048815D01*
X90119463Y-76145506D01*
X90060498Y-76255820D01*
X90024188Y-76375518D01*
X90011928Y-76500000D01*
X90011928Y-77406797D01*
X89791996Y-77186865D01*
X89756449Y-77143551D01*
X89583623Y-77001716D01*
X89386447Y-76896324D01*
X89172499Y-76831423D01*
X89081873Y-76822497D01*
X89040462Y-76772038D01*
X88905886Y-76661595D01*
X88752350Y-76579528D01*
X88585754Y-76528992D01*
X88412500Y-76511928D01*
X85587500Y-76511928D01*
X85414246Y-76528992D01*
X85247650Y-76579528D01*
X85094114Y-76661595D01*
X84959538Y-76772038D01*
X84849095Y-76906614D01*
X84767028Y-77060150D01*
X84716492Y-77226746D01*
X84699428Y-77400000D01*
X84225572Y-77400000D01*
X84208508Y-77226746D01*
X84157972Y-77060150D01*
X84075905Y-76906614D01*
X83965462Y-76772038D01*
X83830886Y-76661595D01*
X83677350Y-76579528D01*
X83510754Y-76528992D01*
X83337500Y-76511928D01*
X80512500Y-76511928D01*
X80339246Y-76528992D01*
X80172650Y-76579528D01*
X80019114Y-76661595D01*
X79884538Y-76772038D01*
X79849280Y-76815000D01*
X79605741Y-76815000D01*
X79549999Y-76809510D01*
X79494257Y-76815000D01*
X79494248Y-76815000D01*
X79327501Y-76831423D01*
X79113553Y-76896324D01*
X78916377Y-77001716D01*
X78743551Y-77143551D01*
X78708009Y-77186860D01*
X76986865Y-78908004D01*
X76943551Y-78943551D01*
X76801716Y-79116377D01*
X76710000Y-79287968D01*
X76710000Y-73444200D01*
X76792083Y-72787538D01*
X76909327Y-72513968D01*
X78065001Y-72513968D01*
X78065001Y-72836034D01*
X78127833Y-73151913D01*
X78251083Y-73449464D01*
X78430014Y-73717253D01*
X78657749Y-73944988D01*
X78925538Y-74123919D01*
X79223089Y-74247169D01*
X79538968Y-74310001D01*
X79861034Y-74310001D01*
X80176913Y-74247169D01*
X80474464Y-74123919D01*
X80742253Y-73944988D01*
X80969988Y-73717253D01*
X81148919Y-73449464D01*
X81272169Y-73151913D01*
X81335001Y-72836034D01*
X81335001Y-72692824D01*
X118655098Y-72692824D01*
X118704666Y-73110451D01*
X118834757Y-73510383D01*
X118992786Y-73806038D01*
X119308347Y-73962048D01*
X120620395Y-72650000D01*
X120979605Y-72650000D01*
X122291653Y-73962048D01*
X122607214Y-73806038D01*
X122798020Y-73431255D01*
X122912044Y-73026449D01*
X122944902Y-72607176D01*
X122895334Y-72189549D01*
X122765243Y-71789617D01*
X122607214Y-71493962D01*
X122291653Y-71337952D01*
X120979605Y-72650000D01*
X120620395Y-72650000D01*
X119308347Y-71337952D01*
X118992786Y-71493962D01*
X118801980Y-71868745D01*
X118687956Y-72273551D01*
X118655098Y-72692824D01*
X81335001Y-72692824D01*
X81335001Y-72513968D01*
X81272169Y-72198089D01*
X81148919Y-71900538D01*
X80969988Y-71632749D01*
X80742253Y-71405014D01*
X80474464Y-71226083D01*
X80176913Y-71102833D01*
X79861034Y-71040001D01*
X79538968Y-71040001D01*
X79223089Y-71102833D01*
X78925538Y-71226083D01*
X78657749Y-71405014D01*
X78430014Y-71632749D01*
X78251083Y-71900538D01*
X78127833Y-72198089D01*
X78065001Y-72513968D01*
X76909327Y-72513968D01*
X77033613Y-72223969D01*
X77263850Y-71840241D01*
X77526708Y-71577383D01*
X77660494Y-71443596D01*
X78225803Y-71039804D01*
X78971674Y-70791181D01*
X79458755Y-70710000D01*
X82165871Y-70710000D01*
X82166597Y-70710070D01*
X82200337Y-70710000D01*
X82234877Y-70710000D01*
X82235620Y-70709927D01*
X120103764Y-70631363D01*
X119939617Y-70684757D01*
X119643962Y-70842786D01*
X119487952Y-71158347D01*
X120800000Y-72470395D01*
X122112048Y-71158347D01*
X121956038Y-70842786D01*
X121581255Y-70651980D01*
X121497792Y-70628471D01*
X130244665Y-70610324D01*
X130164238Y-71052673D01*
X130164238Y-71052673D01*
G37*
X130164238Y-71052673D02*
X130095759Y-71223871D01*
X129910037Y-71641746D01*
X129278009Y-72857185D01*
X129269096Y-72872470D01*
X129261922Y-72888123D01*
X129253986Y-72903384D01*
X129247407Y-72919792D01*
X128719098Y-74072467D01*
X128719096Y-74072470D01*
X128159356Y-75293722D01*
X128148930Y-75314652D01*
X128144829Y-75325416D01*
X128140033Y-75335881D01*
X128132426Y-75357975D01*
X127743585Y-76378682D01*
X127737464Y-76392392D01*
X127731175Y-76411258D01*
X127724098Y-76429836D01*
X127720155Y-76444319D01*
X127431752Y-77309529D01*
X127425237Y-77326369D01*
X127420730Y-77342593D01*
X127415406Y-77358566D01*
X127411402Y-77376174D01*
X127173142Y-78233913D01*
X127158556Y-78274232D01*
X127149229Y-78335629D01*
X127138549Y-78396829D01*
X127139560Y-78439697D01*
X127094526Y-79295351D01*
X127093925Y-79297786D01*
X127090851Y-79365173D01*
X127089149Y-79397513D01*
X127089262Y-79400000D01*
X127089149Y-79402487D01*
X127090851Y-79434827D01*
X127093925Y-79502214D01*
X127094526Y-79504649D01*
X127139753Y-80363957D01*
X127139134Y-80410485D01*
X127149775Y-80467962D01*
X127158556Y-80525768D01*
X127174387Y-80569530D01*
X127803747Y-82748084D01*
X127806351Y-82766852D01*
X127823112Y-82815119D01*
X127827573Y-82830560D01*
X127834557Y-82848077D01*
X127840734Y-82865864D01*
X127847458Y-82880432D01*
X127866391Y-82927918D01*
X127876714Y-82943821D01*
X128145392Y-83525955D01*
X128149360Y-83536326D01*
X128159993Y-83557593D01*
X128169965Y-83579198D01*
X128175588Y-83588782D01*
X128455631Y-84148871D01*
X128739441Y-84811093D01*
X128744437Y-84824869D01*
X128753172Y-84843134D01*
X128761146Y-84861739D01*
X128768209Y-84874574D01*
X129299436Y-85985321D01*
X129466312Y-86402510D01*
X129467096Y-86406473D01*
X129492266Y-86467395D01*
X129503735Y-86496069D01*
X129505583Y-86499631D01*
X129507117Y-86503343D01*
X129521663Y-86530617D01*
X129552012Y-86589100D01*
X129554535Y-86592252D01*
X129911537Y-87261629D01*
X130040476Y-87551742D01*
X130089637Y-103135875D01*
X130059103Y-103227475D01*
X129774180Y-103634508D01*
X129759390Y-103654403D01*
X129754154Y-103663117D01*
X129748345Y-103671415D01*
X129736232Y-103692940D01*
X123205372Y-114561093D01*
X123200852Y-114567460D01*
X123187410Y-114590983D01*
X123173463Y-114614193D01*
X123170118Y-114621244D01*
X122995682Y-114926508D01*
X122724615Y-115333109D01*
X122230901Y-115961474D01*
X121861344Y-116289970D01*
X121174040Y-116762492D01*
X120574621Y-116976571D01*
X119867047Y-117197688D01*
X119274687Y-117240000D01*
X89132987Y-117240000D01*
X89131119Y-117239826D01*
X89098233Y-117240000D01*
X89065123Y-117240000D01*
X89063243Y-117240185D01*
X79687446Y-117289792D01*
X79313873Y-117248284D01*
X78720924Y-117121224D01*
X78353080Y-116957737D01*
X77948989Y-116755692D01*
X77635331Y-116481240D01*
X77313850Y-116159759D01*
X77079629Y-115769392D01*
X76875814Y-115321001D01*
X76751979Y-114784382D01*
X76710000Y-114364590D01*
X76710000Y-112738000D01*
X77329928Y-112738000D01*
X77329928Y-114262000D01*
X77342188Y-114386482D01*
X77378498Y-114506180D01*
X77437463Y-114616494D01*
X77516815Y-114713185D01*
X77613506Y-114792537D01*
X77723820Y-114851502D01*
X77843518Y-114887812D01*
X77968000Y-114900072D01*
X79492000Y-114900072D01*
X79616482Y-114887812D01*
X79736180Y-114851502D01*
X79846494Y-114792537D01*
X79943185Y-114713185D01*
X80022537Y-114616494D01*
X80081502Y-114506180D01*
X80117812Y-114386482D01*
X80126080Y-114302535D01*
X80135000Y-114315884D01*
X80135000Y-114521879D01*
X80129509Y-114577630D01*
X80135000Y-114633381D01*
X80135000Y-114633382D01*
X80151423Y-114800129D01*
X80216324Y-115014077D01*
X80321717Y-115211253D01*
X80463552Y-115384079D01*
X80506860Y-115419621D01*
X81225378Y-116138140D01*
X81260921Y-116181449D01*
X81433747Y-116323284D01*
X81630923Y-116428676D01*
X81844871Y-116493577D01*
X82011618Y-116510000D01*
X82011627Y-116510000D01*
X82067369Y-116515490D01*
X82123111Y-116510000D01*
X96219249Y-116510000D01*
X96275000Y-116515491D01*
X96330751Y-116510000D01*
X96330752Y-116510000D01*
X96497499Y-116493577D01*
X96711447Y-116428676D01*
X96908623Y-116323284D01*
X97081449Y-116181449D01*
X97116996Y-116138135D01*
X97220131Y-116035000D01*
X98164183Y-116035000D01*
X98221495Y-116092312D01*
X98472905Y-116260299D01*
X98752257Y-116376011D01*
X99048816Y-116435000D01*
X99351184Y-116435000D01*
X99647743Y-116376011D01*
X99927095Y-116260299D01*
X100178505Y-116092312D01*
X100392312Y-115878505D01*
X100560299Y-115627095D01*
X100676011Y-115347743D01*
X100727484Y-115088967D01*
X117615000Y-115088967D01*
X117615000Y-115411033D01*
X117677832Y-115726912D01*
X117801082Y-116024463D01*
X117980013Y-116292252D01*
X118207748Y-116519987D01*
X118475537Y-116698918D01*
X118773088Y-116822168D01*
X119088967Y-116885000D01*
X119411033Y-116885000D01*
X119726912Y-116822168D01*
X120024463Y-116698918D01*
X120292252Y-116519987D01*
X120519987Y-116292252D01*
X120698918Y-116024463D01*
X120822168Y-115726912D01*
X120885000Y-115411033D01*
X120885000Y-115088967D01*
X120822168Y-114773088D01*
X120698918Y-114475537D01*
X120519987Y-114207748D01*
X120292252Y-113980013D01*
X120024463Y-113801082D01*
X119726912Y-113677832D01*
X119411033Y-113615000D01*
X119088967Y-113615000D01*
X118773088Y-113677832D01*
X118475537Y-113801082D01*
X118207748Y-113980013D01*
X117980013Y-114207748D01*
X117801082Y-114475537D01*
X117677832Y-114773088D01*
X117615000Y-115088967D01*
X100727484Y-115088967D01*
X100735000Y-115051184D01*
X100735000Y-114748816D01*
X100676011Y-114452257D01*
X100560299Y-114172905D01*
X100392312Y-113921495D01*
X100178505Y-113707688D01*
X99927095Y-113539701D01*
X99647743Y-113423989D01*
X99351184Y-113365000D01*
X99048816Y-113365000D01*
X98752257Y-113423989D01*
X98472905Y-113539701D01*
X98221495Y-113707688D01*
X98164183Y-113765000D01*
X97220132Y-113765000D01*
X95085000Y-111629869D01*
X95085000Y-107830752D01*
X95090491Y-107775000D01*
X95068577Y-107552502D01*
X95068577Y-107552501D01*
X95035000Y-107441813D01*
X95035000Y-106169248D01*
X95018577Y-106002501D01*
X94953676Y-105788553D01*
X94880926Y-105652447D01*
X94875812Y-105600518D01*
X94839502Y-105480820D01*
X94780537Y-105370506D01*
X94701185Y-105273815D01*
X94604494Y-105194463D01*
X94494180Y-105135498D01*
X94374482Y-105099188D01*
X94250000Y-105086928D01*
X93924561Y-105086928D01*
X93900000Y-105084509D01*
X93875439Y-105086928D01*
X93550000Y-105086928D01*
X93425518Y-105099188D01*
X93305820Y-105135498D01*
X93195506Y-105194463D01*
X93098815Y-105273815D01*
X93019463Y-105370506D01*
X92960498Y-105480820D01*
X92924188Y-105600518D01*
X92919074Y-105652447D01*
X92846324Y-105788554D01*
X92781423Y-106002502D01*
X92765000Y-106169249D01*
X92765000Y-107669249D01*
X92759509Y-107725000D01*
X92765000Y-107780751D01*
X92765000Y-107780752D01*
X92770486Y-107836447D01*
X92781423Y-107947498D01*
X92815000Y-108058186D01*
X92815001Y-110944184D01*
X92678505Y-110807688D01*
X92427095Y-110639701D01*
X92147743Y-110523989D01*
X91851184Y-110465000D01*
X91770132Y-110465000D01*
X91035000Y-109729869D01*
X91035000Y-106280752D01*
X91040491Y-106225000D01*
X91018577Y-106002501D01*
X90953676Y-105788553D01*
X90880926Y-105652447D01*
X90875812Y-105600518D01*
X90839502Y-105480820D01*
X90780537Y-105370506D01*
X90701185Y-105273815D01*
X90604494Y-105194463D01*
X90494180Y-105135498D01*
X90374482Y-105099188D01*
X90250000Y-105086928D01*
X89924561Y-105086928D01*
X89900000Y-105084509D01*
X89875439Y-105086928D01*
X89550000Y-105086928D01*
X89518808Y-105090000D01*
X86920133Y-105090000D01*
X84960000Y-103129869D01*
X84960000Y-89302063D01*
X84965490Y-89246319D01*
X84960000Y-89190575D01*
X84960000Y-89190568D01*
X84943577Y-89023821D01*
X84878676Y-88809873D01*
X84773284Y-88612697D01*
X84631449Y-88439871D01*
X84588141Y-88404329D01*
X82829817Y-86646005D01*
X82960983Y-86558363D01*
X83258363Y-86260983D01*
X83492012Y-85911302D01*
X83652953Y-85522756D01*
X83735000Y-85110279D01*
X83735000Y-84689721D01*
X83652953Y-84277244D01*
X83492012Y-83888698D01*
X83258363Y-83539017D01*
X82960983Y-83241637D01*
X82611302Y-83007988D01*
X82222756Y-82847047D01*
X81810279Y-82765000D01*
X81389721Y-82765000D01*
X80977244Y-82847047D01*
X80588698Y-83007988D01*
X80239017Y-83241637D01*
X79941637Y-83539017D01*
X79707988Y-83888698D01*
X79547047Y-84277244D01*
X79465000Y-84689721D01*
X79465000Y-85110279D01*
X79547047Y-85522756D01*
X79707988Y-85911302D01*
X79941637Y-86260983D01*
X80239017Y-86558363D01*
X80465001Y-86709360D01*
X80465001Y-86965559D01*
X80459509Y-87021320D01*
X80481423Y-87243818D01*
X80546324Y-87457766D01*
X80595384Y-87549550D01*
X80651717Y-87654943D01*
X80793552Y-87827769D01*
X80836860Y-87863311D01*
X82690000Y-89716452D01*
X82690000Y-94490975D01*
X82540250Y-94390915D01*
X82179003Y-94241282D01*
X81795505Y-94165000D01*
X81404495Y-94165000D01*
X81020997Y-94241282D01*
X80659750Y-94390915D01*
X80334636Y-94608149D01*
X80058149Y-94884636D01*
X79840915Y-95209750D01*
X79691282Y-95570997D01*
X79615000Y-95954495D01*
X79615000Y-96345505D01*
X79691282Y-96729003D01*
X79840915Y-97090250D01*
X80058149Y-97415364D01*
X80334636Y-97691851D01*
X80659750Y-97909085D01*
X81020997Y-98058718D01*
X81404495Y-98135000D01*
X81795505Y-98135000D01*
X82179003Y-98058718D01*
X82540250Y-97909085D01*
X82690001Y-97809025D01*
X82690001Y-103544239D01*
X82684509Y-103600000D01*
X82706423Y-103822498D01*
X82771324Y-104036446D01*
X82771325Y-104036447D01*
X82876717Y-104233623D01*
X83018552Y-104406449D01*
X83061860Y-104441991D01*
X85608013Y-106988146D01*
X85643551Y-107031449D01*
X85686854Y-107066987D01*
X85686856Y-107066989D01*
X85816377Y-107173284D01*
X86013553Y-107278676D01*
X86227501Y-107343577D01*
X86450000Y-107365491D01*
X86505752Y-107360000D01*
X88765001Y-107360000D01*
X88765000Y-109924227D01*
X88756423Y-109952502D01*
X88734509Y-110175000D01*
X88756423Y-110397498D01*
X88821324Y-110611446D01*
X88926717Y-110808622D01*
X89068552Y-110981448D01*
X89111854Y-111016986D01*
X90165000Y-112070132D01*
X90165000Y-112151184D01*
X90223989Y-112447743D01*
X90339701Y-112727095D01*
X90507688Y-112978505D01*
X90721495Y-113192312D01*
X90972905Y-113360299D01*
X91252257Y-113476011D01*
X91548816Y-113535000D01*
X91851184Y-113535000D01*
X92147743Y-113476011D01*
X92427095Y-113360299D01*
X92678505Y-113192312D01*
X92892312Y-112978505D01*
X93031604Y-112770040D01*
X93143552Y-112906449D01*
X93186860Y-112941991D01*
X94484869Y-114240000D01*
X82537502Y-114240000D01*
X82488468Y-114190966D01*
X82508005Y-114161727D01*
X82613314Y-113907490D01*
X82667000Y-113637592D01*
X82667000Y-113362408D01*
X82613314Y-113092510D01*
X82508005Y-112838273D01*
X82355120Y-112609465D01*
X82160535Y-112414880D01*
X81931727Y-112261995D01*
X81677490Y-112156686D01*
X81407592Y-112103000D01*
X81132408Y-112103000D01*
X80862510Y-112156686D01*
X80608273Y-112261995D01*
X80379465Y-112414880D01*
X80184880Y-112609465D01*
X80126080Y-112697465D01*
X80117812Y-112613518D01*
X80081502Y-112493820D01*
X80022537Y-112383506D01*
X79943185Y-112286815D01*
X79865000Y-112222650D01*
X79865000Y-110740131D01*
X81123155Y-109481977D01*
X81389721Y-109535000D01*
X81810279Y-109535000D01*
X82222756Y-109452953D01*
X82611302Y-109292012D01*
X82960983Y-109058363D01*
X83258363Y-108760983D01*
X83492012Y-108411302D01*
X83652953Y-108022756D01*
X83735000Y-107610279D01*
X83735000Y-107189721D01*
X83652953Y-106777244D01*
X83492012Y-106388698D01*
X83258363Y-106039017D01*
X82960983Y-105741637D01*
X82611302Y-105507988D01*
X82222756Y-105347047D01*
X81810279Y-105265000D01*
X81389721Y-105265000D01*
X80977244Y-105347047D01*
X80588698Y-105507988D01*
X80239017Y-105741637D01*
X79941637Y-106039017D01*
X79707988Y-106388698D01*
X79547047Y-106777244D01*
X79465000Y-107189721D01*
X79465000Y-107610279D01*
X79518023Y-107876845D01*
X77961855Y-109433014D01*
X77918552Y-109468552D01*
X77776717Y-109641378D01*
X77671324Y-109838554D01*
X77606423Y-110052502D01*
X77584509Y-110275000D01*
X77595000Y-110381518D01*
X77595001Y-112222650D01*
X77516815Y-112286815D01*
X77437463Y-112383506D01*
X77378498Y-112493820D01*
X77342188Y-112613518D01*
X77329928Y-112738000D01*
X76710000Y-112738000D01*
X76710000Y-95212031D01*
X76801717Y-95383623D01*
X76943552Y-95556449D01*
X77116378Y-95698284D01*
X77313554Y-95803676D01*
X77527502Y-95868577D01*
X77750000Y-95890491D01*
X77972499Y-95868577D01*
X78186447Y-95803676D01*
X78383623Y-95698284D01*
X78556449Y-95556449D01*
X78698284Y-95383623D01*
X78803676Y-95186447D01*
X78868577Y-94972499D01*
X78885000Y-94805752D01*
X78885000Y-80220131D01*
X79935416Y-79169716D01*
X80019114Y-79238405D01*
X80172650Y-79320472D01*
X80339246Y-79371008D01*
X80512500Y-79388072D01*
X83337500Y-79388072D01*
X83510754Y-79371008D01*
X83677350Y-79320472D01*
X83830886Y-79238405D01*
X83965462Y-79127962D01*
X84075905Y-78993386D01*
X84157972Y-78839850D01*
X84208508Y-78673254D01*
X84225572Y-78500000D01*
X84225572Y-77400000D01*
X84699428Y-77400000D01*
X84699428Y-78500000D01*
X84716492Y-78673254D01*
X84767028Y-78839850D01*
X84849095Y-78993386D01*
X84959538Y-79127962D01*
X84990001Y-79152962D01*
X84990000Y-98919249D01*
X84984509Y-98975000D01*
X85002380Y-99156449D01*
X85006423Y-99197498D01*
X85071324Y-99411446D01*
X85176716Y-99608623D01*
X85318551Y-99781449D01*
X85361864Y-99816995D01*
X86583013Y-101038146D01*
X86618551Y-101081449D01*
X86661854Y-101116987D01*
X86661856Y-101116989D01*
X86791377Y-101223284D01*
X86988553Y-101328676D01*
X87202501Y-101393577D01*
X87425000Y-101415491D01*
X87480752Y-101410000D01*
X89429869Y-101410000D01*
X90933009Y-102913141D01*
X90968551Y-102956449D01*
X91141377Y-103098284D01*
X91338553Y-103203676D01*
X91552501Y-103268577D01*
X91719248Y-103285000D01*
X91719257Y-103285000D01*
X91774999Y-103290490D01*
X91830741Y-103285000D01*
X96190557Y-103285000D01*
X96210149Y-103295472D01*
X96376745Y-103346008D01*
X96549999Y-103363072D01*
X97450001Y-103363072D01*
X97623255Y-103346008D01*
X97789851Y-103295472D01*
X97943387Y-103213405D01*
X98077962Y-103102962D01*
X98106890Y-103067713D01*
X98074188Y-103175518D01*
X98061928Y-103300000D01*
X98061928Y-106500000D01*
X98074188Y-106624482D01*
X98110498Y-106744180D01*
X98169463Y-106854494D01*
X98248815Y-106951185D01*
X98345506Y-107030537D01*
X98455820Y-107089502D01*
X98575518Y-107125812D01*
X98700000Y-107138072D01*
X101900000Y-107138072D01*
X102024482Y-107125812D01*
X102144180Y-107089502D01*
X102254494Y-107030537D01*
X102351185Y-106951185D01*
X102430537Y-106854494D01*
X102489502Y-106744180D01*
X102525812Y-106624482D01*
X102538072Y-106500000D01*
X102538072Y-103300000D01*
X102525812Y-103175518D01*
X102489502Y-103055820D01*
X102430537Y-102945506D01*
X102351185Y-102848815D01*
X102254494Y-102769463D01*
X102144180Y-102710498D01*
X102024482Y-102674188D01*
X101900000Y-102661928D01*
X101543204Y-102661928D01*
X102075146Y-102129986D01*
X102118450Y-102094448D01*
X102260285Y-101921622D01*
X102365677Y-101724446D01*
X102430578Y-101510498D01*
X102447001Y-101343751D01*
X102452492Y-101287999D01*
X102447001Y-101232247D01*
X102447001Y-96158130D01*
X102520133Y-96084999D01*
X102761928Y-96084999D01*
X102761928Y-100250000D01*
X102774188Y-100374482D01*
X102810498Y-100494180D01*
X102815000Y-100502603D01*
X102815000Y-102394248D01*
X102809509Y-102450000D01*
X102815001Y-102505762D01*
X102815000Y-106419248D01*
X102809509Y-106475000D01*
X102827872Y-106661447D01*
X102831423Y-106697498D01*
X102896324Y-106911446D01*
X103001716Y-107108623D01*
X103143551Y-107281449D01*
X103186865Y-107316996D01*
X107237468Y-111367601D01*
X107224428Y-111500000D01*
X107224428Y-112600000D01*
X107241492Y-112773254D01*
X107292028Y-112939850D01*
X107374095Y-113093386D01*
X107484538Y-113227962D01*
X107619114Y-113338405D01*
X107772650Y-113420472D01*
X107939246Y-113471008D01*
X108112500Y-113488072D01*
X110937500Y-113488072D01*
X111110754Y-113471008D01*
X111277350Y-113420472D01*
X111430886Y-113338405D01*
X111565462Y-113227962D01*
X111675905Y-113093386D01*
X111757972Y-112939850D01*
X111785227Y-112850000D01*
X112299428Y-112850000D01*
X112311688Y-112974482D01*
X112347998Y-113094180D01*
X112406963Y-113204494D01*
X112486315Y-113301185D01*
X112583006Y-113380537D01*
X112693320Y-113439502D01*
X112813018Y-113475812D01*
X112937500Y-113488072D01*
X114314250Y-113485000D01*
X114473000Y-113326250D01*
X114473000Y-112177000D01*
X114727000Y-112177000D01*
X114727000Y-113326250D01*
X114885750Y-113485000D01*
X116262500Y-113488072D01*
X116386982Y-113475812D01*
X116506680Y-113439502D01*
X116616994Y-113380537D01*
X116713685Y-113301185D01*
X116793037Y-113204494D01*
X116852002Y-113094180D01*
X116888312Y-112974482D01*
X116900572Y-112850000D01*
X116897500Y-112335750D01*
X116738750Y-112177000D01*
X114727000Y-112177000D01*
X114473000Y-112177000D01*
X112461250Y-112177000D01*
X112302500Y-112335750D01*
X112299428Y-112850000D01*
X111785227Y-112850000D01*
X111808508Y-112773254D01*
X111825572Y-112600000D01*
X111825572Y-111500000D01*
X111808508Y-111326746D01*
X111785228Y-111250000D01*
X112299428Y-111250000D01*
X112302500Y-111764250D01*
X112461250Y-111923000D01*
X114473000Y-111923000D01*
X114473000Y-110773750D01*
X114727000Y-110773750D01*
X114727000Y-111923000D01*
X116738750Y-111923000D01*
X116897500Y-111764250D01*
X116900572Y-111250000D01*
X116888312Y-111125518D01*
X116852002Y-111005820D01*
X116793037Y-110895506D01*
X116713685Y-110798815D01*
X116616994Y-110719463D01*
X116506680Y-110660498D01*
X116386982Y-110624188D01*
X116262500Y-110611928D01*
X114885750Y-110615000D01*
X114727000Y-110773750D01*
X114473000Y-110773750D01*
X114314250Y-110615000D01*
X112937500Y-110611928D01*
X112813018Y-110624188D01*
X112693320Y-110660498D01*
X112583006Y-110719463D01*
X112486315Y-110798815D01*
X112406963Y-110895506D01*
X112347998Y-111005820D01*
X112311688Y-111125518D01*
X112299428Y-111250000D01*
X111785228Y-111250000D01*
X111757972Y-111160150D01*
X111675905Y-111006614D01*
X111565462Y-110872038D01*
X111430886Y-110761595D01*
X111277350Y-110679528D01*
X111110754Y-110628992D01*
X110937500Y-110611928D01*
X109692061Y-110611928D01*
X105085000Y-106004869D01*
X105085000Y-105374503D01*
X113355950Y-105374503D01*
X113460407Y-105718861D01*
X113660118Y-106108835D01*
X113932071Y-106452354D01*
X114265816Y-106736217D01*
X114648527Y-106949516D01*
X115065497Y-107084053D01*
X115413000Y-106972642D01*
X115413000Y-105027000D01*
X115667000Y-105027000D01*
X115667000Y-106972642D01*
X116014503Y-107084053D01*
X116431473Y-106949516D01*
X116814184Y-106736217D01*
X117147929Y-106452354D01*
X117419882Y-106108835D01*
X117619593Y-105718861D01*
X117724050Y-105374503D01*
X117612362Y-105027000D01*
X115667000Y-105027000D01*
X115413000Y-105027000D01*
X113467638Y-105027000D01*
X113355950Y-105374503D01*
X105085000Y-105374503D01*
X105085000Y-103585000D01*
X113744165Y-103585000D01*
X113660118Y-103691165D01*
X113460407Y-104081139D01*
X113355950Y-104425497D01*
X113467638Y-104773000D01*
X115413000Y-104773000D01*
X115413000Y-104753000D01*
X115667000Y-104753000D01*
X115667000Y-104773000D01*
X117612362Y-104773000D01*
X117724050Y-104425497D01*
X117619593Y-104081139D01*
X117419882Y-103691165D01*
X117147929Y-103347646D01*
X117072990Y-103283908D01*
X117106449Y-103256449D01*
X117141996Y-103213135D01*
X123763142Y-96591990D01*
X123806450Y-96556448D01*
X123948285Y-96383622D01*
X124053677Y-96186446D01*
X124118578Y-95972498D01*
X124135001Y-95805751D01*
X124135001Y-95805742D01*
X124140491Y-95750000D01*
X124135001Y-95694258D01*
X124135001Y-95629165D01*
X124194248Y-95635000D01*
X124194249Y-95635000D01*
X124250000Y-95640491D01*
X124305752Y-95635000D01*
X125511928Y-95635000D01*
X125511928Y-97450000D01*
X125524188Y-97574482D01*
X125560498Y-97694180D01*
X125619463Y-97804494D01*
X125698815Y-97901185D01*
X125795506Y-97980537D01*
X125905820Y-98039502D01*
X126025518Y-98075812D01*
X126150000Y-98088072D01*
X129050000Y-98088072D01*
X129174482Y-98075812D01*
X129294180Y-98039502D01*
X129404494Y-97980537D01*
X129501185Y-97901185D01*
X129580537Y-97804494D01*
X129639502Y-97694180D01*
X129675812Y-97574482D01*
X129688072Y-97450000D01*
X129688072Y-92050000D01*
X129675812Y-91925518D01*
X129639502Y-91805820D01*
X129580537Y-91695506D01*
X129501185Y-91598815D01*
X129404494Y-91519463D01*
X129294180Y-91460498D01*
X129174482Y-91424188D01*
X129050000Y-91411928D01*
X126150000Y-91411928D01*
X126025518Y-91424188D01*
X125905820Y-91460498D01*
X125795506Y-91519463D01*
X125698815Y-91598815D01*
X125619463Y-91695506D01*
X125560498Y-91805820D01*
X125524188Y-91925518D01*
X125511928Y-92050000D01*
X125511928Y-93365000D01*
X125385000Y-93365000D01*
X125385000Y-79305752D01*
X125390491Y-79250000D01*
X125368577Y-79027501D01*
X125303676Y-78813553D01*
X125198284Y-78616377D01*
X125171403Y-78583623D01*
X125056449Y-78443551D01*
X125013141Y-78408009D01*
X121491996Y-74886865D01*
X121456449Y-74843551D01*
X121315108Y-74727555D01*
X121660383Y-74615243D01*
X121956038Y-74457214D01*
X122112048Y-74141653D01*
X120800000Y-72829605D01*
X119487952Y-74141653D01*
X119643962Y-74457214D01*
X119757466Y-74515000D01*
X116244248Y-74515000D01*
X116077501Y-74531423D01*
X115976940Y-74561928D01*
X114300000Y-74561928D01*
X114175518Y-74574188D01*
X114055820Y-74610498D01*
X113945506Y-74669463D01*
X113848815Y-74748815D01*
X113769463Y-74845506D01*
X113710498Y-74955820D01*
X113674188Y-75075518D01*
X113661928Y-75200000D01*
X113661928Y-75316797D01*
X113481985Y-75136854D01*
X113446439Y-75093541D01*
X113273613Y-74951706D01*
X113076437Y-74846314D01*
X112862489Y-74781413D01*
X112695742Y-74764990D01*
X112695741Y-74764990D01*
X112639990Y-74759499D01*
X112584239Y-74764990D01*
X106430751Y-74764990D01*
X106375009Y-74759500D01*
X106319267Y-74764990D01*
X106319258Y-74764990D01*
X106152511Y-74781413D01*
X105938563Y-74846314D01*
X105741387Y-74951706D01*
X105568561Y-75093541D01*
X105533018Y-75136850D01*
X104875000Y-75794868D01*
X103916985Y-74836854D01*
X103881439Y-74793541D01*
X103708613Y-74651706D01*
X103511437Y-74546314D01*
X103297489Y-74481413D01*
X103130742Y-74464990D01*
X103130741Y-74464990D01*
X103074990Y-74459499D01*
X103019239Y-74464990D01*
X98655751Y-74464990D01*
X98600009Y-74459500D01*
X98544267Y-74464990D01*
X98544258Y-74464990D01*
X98377511Y-74481413D01*
X98163563Y-74546314D01*
X97966387Y-74651706D01*
X97793561Y-74793541D01*
X97758014Y-74836855D01*
X97236865Y-75358004D01*
X97193551Y-75393551D01*
X97051716Y-75566377D01*
X96992325Y-75677492D01*
X96946324Y-75763554D01*
X96915550Y-75865000D01*
X94181192Y-75865000D01*
X94150000Y-75861928D01*
X93150000Y-75861928D01*
X93025518Y-75874188D01*
X92905820Y-75910498D01*
X92795506Y-75969463D01*
X92698815Y-76048815D01*
X92619463Y-76145506D01*
X92560498Y-76255820D01*
X92524188Y-76375518D01*
X92511928Y-76500000D01*
X92511928Y-76975439D01*
X92509509Y-77000000D01*
X92511928Y-77024561D01*
X92511928Y-77500000D01*
X92524188Y-77624482D01*
X92560498Y-77744180D01*
X92619463Y-77854494D01*
X92698815Y-77951185D01*
X92795506Y-78030537D01*
X92905820Y-78089502D01*
X93025518Y-78125812D01*
X93150000Y-78138072D01*
X94150000Y-78138072D01*
X94181192Y-78135000D01*
X97116539Y-78135000D01*
X97181613Y-78188405D01*
X97335149Y-78270472D01*
X97501745Y-78321008D01*
X97674999Y-78338072D01*
X98325001Y-78338072D01*
X98498255Y-78321008D01*
X98664851Y-78270472D01*
X98818387Y-78188405D01*
X98952962Y-78077962D01*
X98958342Y-78071406D01*
X99023815Y-78151185D01*
X99120506Y-78230537D01*
X99230820Y-78289502D01*
X99350518Y-78325812D01*
X99475000Y-78338072D01*
X99764250Y-78335000D01*
X99923000Y-78176250D01*
X99923000Y-77127000D01*
X100177000Y-77127000D01*
X100177000Y-78176250D01*
X100335750Y-78335000D01*
X100625000Y-78338072D01*
X100749482Y-78325812D01*
X100869180Y-78289502D01*
X100979494Y-78230537D01*
X101076185Y-78151185D01*
X101155537Y-78054494D01*
X101214502Y-77944180D01*
X101250812Y-77824482D01*
X101263072Y-77700000D01*
X101260000Y-77285750D01*
X101101250Y-77127000D01*
X100177000Y-77127000D01*
X99923000Y-77127000D01*
X99903000Y-77127000D01*
X99903000Y-76873000D01*
X99923000Y-76873000D01*
X99923000Y-76853000D01*
X100177000Y-76853000D01*
X100177000Y-76873000D01*
X101101250Y-76873000D01*
X101239260Y-76734990D01*
X102604859Y-76734990D01*
X102849428Y-76979560D01*
X102849428Y-77950000D01*
X102866492Y-78123254D01*
X102917028Y-78289850D01*
X102999095Y-78443386D01*
X103109538Y-78577962D01*
X103244114Y-78688405D01*
X103397650Y-78770472D01*
X103564246Y-78821008D01*
X103737500Y-78838072D01*
X106012500Y-78838072D01*
X106185754Y-78821008D01*
X106352350Y-78770472D01*
X106505886Y-78688405D01*
X106640462Y-78577962D01*
X106750905Y-78443386D01*
X106832972Y-78289850D01*
X106860227Y-78200000D01*
X106974428Y-78200000D01*
X106986688Y-78324482D01*
X107022998Y-78444180D01*
X107081963Y-78554494D01*
X107161315Y-78651185D01*
X107258006Y-78730537D01*
X107368320Y-78789502D01*
X107488018Y-78825812D01*
X107612500Y-78838072D01*
X108714250Y-78835000D01*
X108873000Y-78676250D01*
X108873000Y-77527000D01*
X109127000Y-77527000D01*
X109127000Y-78676250D01*
X109285750Y-78835000D01*
X110387500Y-78838072D01*
X110511982Y-78825812D01*
X110631680Y-78789502D01*
X110741994Y-78730537D01*
X110838685Y-78651185D01*
X110918037Y-78554494D01*
X110977002Y-78444180D01*
X111013312Y-78324482D01*
X111025572Y-78200000D01*
X111022500Y-77685750D01*
X110863750Y-77527000D01*
X109127000Y-77527000D01*
X108873000Y-77527000D01*
X107136250Y-77527000D01*
X106977500Y-77685750D01*
X106974428Y-78200000D01*
X106860227Y-78200000D01*
X106883508Y-78123254D01*
X106900572Y-77950000D01*
X106900572Y-77034990D01*
X106977027Y-77034990D01*
X106977500Y-77114250D01*
X107136250Y-77273000D01*
X108873000Y-77273000D01*
X108873000Y-77253000D01*
X109127000Y-77253000D01*
X109127000Y-77273000D01*
X110863750Y-77273000D01*
X111022500Y-77114250D01*
X111022973Y-77034990D01*
X112169858Y-77034990D01*
X112898012Y-77763145D01*
X112933550Y-77806448D01*
X112976853Y-77841986D01*
X112976855Y-77841988D01*
X113106376Y-77948283D01*
X113303552Y-78053675D01*
X113517500Y-78118576D01*
X113661928Y-78132801D01*
X113661928Y-78600000D01*
X113674188Y-78724482D01*
X113710498Y-78844180D01*
X113769463Y-78954494D01*
X113848815Y-79051185D01*
X113945506Y-79130537D01*
X113981918Y-79150000D01*
X113945506Y-79169463D01*
X113848815Y-79248815D01*
X113769463Y-79345506D01*
X113710498Y-79455820D01*
X113674188Y-79575518D01*
X113661928Y-79700000D01*
X113661928Y-80600000D01*
X113674188Y-80724482D01*
X113710498Y-80844180D01*
X113769463Y-80954494D01*
X113848815Y-81051185D01*
X113945506Y-81130537D01*
X114055820Y-81189502D01*
X114175518Y-81225812D01*
X114300000Y-81238072D01*
X118300000Y-81238072D01*
X118424482Y-81225812D01*
X118544180Y-81189502D01*
X118654494Y-81130537D01*
X118751185Y-81051185D01*
X118830537Y-80954494D01*
X118889502Y-80844180D01*
X118925812Y-80724482D01*
X118938072Y-80600000D01*
X118938072Y-79700000D01*
X118925812Y-79575518D01*
X118889502Y-79455820D01*
X118830537Y-79345506D01*
X118751185Y-79248815D01*
X118654494Y-79169463D01*
X118618082Y-79150000D01*
X118654494Y-79130537D01*
X118751185Y-79051185D01*
X118830537Y-78954494D01*
X118889502Y-78844180D01*
X118925812Y-78724482D01*
X118930612Y-78675742D01*
X121865001Y-81610131D01*
X121865001Y-83796438D01*
X121581255Y-83651980D01*
X121176449Y-83537956D01*
X120757176Y-83505098D01*
X120339549Y-83554666D01*
X119939617Y-83684757D01*
X119643962Y-83842786D01*
X119487952Y-84158347D01*
X120800000Y-85470395D01*
X120814143Y-85456253D01*
X120993748Y-85635858D01*
X120979605Y-85650000D01*
X120993748Y-85664143D01*
X120814143Y-85843748D01*
X120800000Y-85829605D01*
X119487952Y-87141653D01*
X119643962Y-87457214D01*
X120018745Y-87648020D01*
X120423551Y-87762044D01*
X120842824Y-87794902D01*
X121260451Y-87745334D01*
X121660383Y-87615243D01*
X121865001Y-87505873D01*
X121865002Y-95279866D01*
X119988072Y-97156796D01*
X119988072Y-92050000D01*
X119975812Y-91925518D01*
X119939502Y-91805820D01*
X119880537Y-91695506D01*
X119801185Y-91598815D01*
X119704494Y-91519463D01*
X119594180Y-91460498D01*
X119474482Y-91424188D01*
X119350000Y-91411928D01*
X116450000Y-91411928D01*
X116325518Y-91424188D01*
X116205820Y-91460498D01*
X116095506Y-91519463D01*
X115998815Y-91598815D01*
X115919463Y-91695506D01*
X115860498Y-91805820D01*
X115824188Y-91925518D01*
X115811928Y-92050000D01*
X115811928Y-96704749D01*
X115789502Y-96630820D01*
X115730537Y-96520506D01*
X115651185Y-96423815D01*
X115554494Y-96344463D01*
X115444180Y-96285498D01*
X115324482Y-96249188D01*
X115200000Y-96236928D01*
X114785750Y-96240000D01*
X114627000Y-96398750D01*
X114627000Y-97323000D01*
X114647000Y-97323000D01*
X114647000Y-97577000D01*
X114627000Y-97577000D01*
X114627000Y-97597000D01*
X114373000Y-97597000D01*
X114373000Y-97577000D01*
X113323750Y-97577000D01*
X113165000Y-97735750D01*
X113161928Y-98025000D01*
X113174188Y-98149482D01*
X113210498Y-98269180D01*
X113269463Y-98379494D01*
X113312198Y-98431567D01*
X113263553Y-98446324D01*
X113066377Y-98551716D01*
X112893551Y-98693551D01*
X112858008Y-98736860D01*
X111937169Y-99657700D01*
X111935000Y-98235750D01*
X111776250Y-98077000D01*
X110877000Y-98077000D01*
X110877000Y-98097000D01*
X110623000Y-98097000D01*
X110623000Y-98077000D01*
X110603000Y-98077000D01*
X110603000Y-97823000D01*
X110623000Y-97823000D01*
X110623000Y-97803000D01*
X110877000Y-97803000D01*
X110877000Y-97823000D01*
X111776250Y-97823000D01*
X111935000Y-97664250D01*
X111936203Y-96875000D01*
X113161928Y-96875000D01*
X113165000Y-97164250D01*
X113323750Y-97323000D01*
X114373000Y-97323000D01*
X114373000Y-96398750D01*
X114214250Y-96240000D01*
X113800000Y-96236928D01*
X113675518Y-96249188D01*
X113555820Y-96285498D01*
X113445506Y-96344463D01*
X113348815Y-96423815D01*
X113269463Y-96520506D01*
X113210498Y-96630820D01*
X113174188Y-96750518D01*
X113161928Y-96875000D01*
X111936203Y-96875000D01*
X111938072Y-95650000D01*
X111936595Y-95635000D01*
X114305752Y-95635000D01*
X114472499Y-95618577D01*
X114686447Y-95553676D01*
X114883623Y-95448284D01*
X115056449Y-95306449D01*
X115198284Y-95133623D01*
X115303676Y-94936447D01*
X115368577Y-94722499D01*
X115390491Y-94500000D01*
X115368577Y-94277501D01*
X115303676Y-94063553D01*
X115198284Y-93866377D01*
X115056449Y-93693551D01*
X114883623Y-93551716D01*
X114686447Y-93446324D01*
X114472499Y-93381423D01*
X114305752Y-93365000D01*
X113387978Y-93365000D01*
X113385000Y-89085750D01*
X113226250Y-88927000D01*
X107477000Y-88927000D01*
X107477000Y-93976250D01*
X107635750Y-94135000D01*
X108038183Y-94135242D01*
X107996324Y-94213554D01*
X107931423Y-94427502D01*
X107909509Y-94650000D01*
X107915001Y-94705761D01*
X107915001Y-95013405D01*
X107900000Y-95011928D01*
X107635750Y-95015000D01*
X107477000Y-95173750D01*
X107477000Y-97823000D01*
X107497000Y-97823000D01*
X107497000Y-98077000D01*
X107477000Y-98077000D01*
X107477000Y-100726250D01*
X107635750Y-100885000D01*
X107900000Y-100888072D01*
X108024482Y-100875812D01*
X108036755Y-100872089D01*
X108101716Y-100993625D01*
X108243551Y-101166451D01*
X108286864Y-101201997D01*
X108399867Y-101315000D01*
X105085000Y-101315000D01*
X105085000Y-100886595D01*
X105100000Y-100888072D01*
X106200000Y-100888072D01*
X106324482Y-100875812D01*
X106444180Y-100839502D01*
X106500000Y-100809665D01*
X106555820Y-100839502D01*
X106675518Y-100875812D01*
X106800000Y-100888072D01*
X107064250Y-100885000D01*
X107223000Y-100726250D01*
X107223000Y-98077000D01*
X107203000Y-98077000D01*
X107203000Y-97823000D01*
X107223000Y-97823000D01*
X107223000Y-95173750D01*
X107064250Y-95015000D01*
X106800000Y-95011928D01*
X106675518Y-95024188D01*
X106663246Y-95027911D01*
X106598284Y-94906375D01*
X106456449Y-94733549D01*
X106413140Y-94698006D01*
X105901996Y-94186863D01*
X105866450Y-94143550D01*
X105856915Y-94135725D01*
X107064250Y-94135000D01*
X107223000Y-93976250D01*
X107223000Y-88927000D01*
X101473750Y-88927000D01*
X101315000Y-89085750D01*
X101311928Y-93500000D01*
X101324188Y-93624482D01*
X101360498Y-93744180D01*
X101419463Y-93854494D01*
X101498815Y-93951185D01*
X101503587Y-93955101D01*
X101416378Y-94001715D01*
X101243552Y-94143550D01*
X101208011Y-94186857D01*
X100548865Y-94846004D01*
X100505552Y-94881550D01*
X100363717Y-95054376D01*
X100286514Y-95198815D01*
X100258325Y-95251553D01*
X100193424Y-95465501D01*
X100171510Y-95687999D01*
X100177001Y-95743751D01*
X100177001Y-95923096D01*
X100168980Y-95894344D01*
X99919952Y-95777244D01*
X99652865Y-95710977D01*
X99377983Y-95698090D01*
X99105867Y-95739078D01*
X98846977Y-95832364D01*
X98731020Y-95894344D01*
X98664040Y-96134435D01*
X99450000Y-96920395D01*
X99464143Y-96906253D01*
X99643748Y-97085858D01*
X99629605Y-97100000D01*
X99643748Y-97114143D01*
X99464143Y-97293748D01*
X99450000Y-97279605D01*
X98664040Y-98065565D01*
X98731020Y-98305656D01*
X98980048Y-98422756D01*
X99247135Y-98489023D01*
X99522017Y-98501910D01*
X99794133Y-98460922D01*
X100053023Y-98367636D01*
X100168980Y-98305656D01*
X100177001Y-98276903D01*
X100177002Y-100817866D01*
X99536864Y-101458005D01*
X99493551Y-101493551D01*
X99351716Y-101666377D01*
X99271540Y-101816378D01*
X99246324Y-101863554D01*
X99181423Y-102077502D01*
X99159509Y-102300000D01*
X99165000Y-102355752D01*
X99165000Y-102661928D01*
X98700000Y-102661928D01*
X98575518Y-102674188D01*
X98455820Y-102710498D01*
X98345506Y-102769463D01*
X98255055Y-102843694D01*
X98270472Y-102814851D01*
X98321008Y-102648255D01*
X98338072Y-102475001D01*
X98338072Y-101824999D01*
X98321008Y-101651745D01*
X98270472Y-101485149D01*
X98188405Y-101331613D01*
X98077962Y-101197038D01*
X97990184Y-101125000D01*
X98077962Y-101052962D01*
X98188405Y-100918387D01*
X98270472Y-100764851D01*
X98321008Y-100598255D01*
X98338072Y-100425001D01*
X98338072Y-99774999D01*
X98321008Y-99601745D01*
X98270472Y-99435149D01*
X98188405Y-99281613D01*
X98077962Y-99147038D01*
X97943387Y-99036595D01*
X97789851Y-98954528D01*
X97623255Y-98903992D01*
X97450001Y-98886928D01*
X96549999Y-98886928D01*
X96376745Y-98903992D01*
X96210149Y-98954528D01*
X96056613Y-99036595D01*
X95930614Y-99140000D01*
X94885000Y-99140000D01*
X94885000Y-97805743D01*
X94890490Y-97749999D01*
X94885000Y-97694255D01*
X94885000Y-97694248D01*
X94868577Y-97527501D01*
X94803676Y-97313553D01*
X94728024Y-97172017D01*
X98048090Y-97172017D01*
X98089078Y-97444133D01*
X98182364Y-97703023D01*
X98244344Y-97818980D01*
X98484435Y-97885960D01*
X99270395Y-97100000D01*
X98484435Y-96314040D01*
X98244344Y-96381020D01*
X98127244Y-96630048D01*
X98060977Y-96897135D01*
X98048090Y-97172017D01*
X94728024Y-97172017D01*
X94698284Y-97116377D01*
X94556449Y-96943551D01*
X94513135Y-96908004D01*
X93841996Y-96236865D01*
X93806449Y-96193551D01*
X93633623Y-96051716D01*
X93436447Y-95946324D01*
X93222499Y-95881423D01*
X93055752Y-95865000D01*
X93055751Y-95865000D01*
X93000000Y-95859509D01*
X92944249Y-95865000D01*
X90265884Y-95865000D01*
X90111727Y-95761995D01*
X89857490Y-95656686D01*
X89587592Y-95603000D01*
X89312408Y-95603000D01*
X89042510Y-95656686D01*
X88788273Y-95761995D01*
X88559465Y-95914880D01*
X88364880Y-96109465D01*
X88211995Y-96338273D01*
X88106686Y-96592510D01*
X88053000Y-96862408D01*
X88053000Y-97137592D01*
X88106686Y-97407490D01*
X88211995Y-97661727D01*
X88364880Y-97890535D01*
X88559465Y-98085120D01*
X88788273Y-98238005D01*
X89042510Y-98343314D01*
X89312408Y-98397000D01*
X89587592Y-98397000D01*
X89857490Y-98343314D01*
X90111727Y-98238005D01*
X90265884Y-98135000D01*
X92529869Y-98135000D01*
X92615001Y-98220132D01*
X92615000Y-99919248D01*
X92609509Y-99975000D01*
X92615000Y-100030751D01*
X92631423Y-100197498D01*
X92696324Y-100411446D01*
X92801716Y-100608623D01*
X92822999Y-100634557D01*
X92846324Y-100711447D01*
X92919074Y-100847553D01*
X92924188Y-100899482D01*
X92959230Y-101015000D01*
X92245132Y-101015000D01*
X90873706Y-99643575D01*
X90839502Y-99530820D01*
X90780537Y-99420506D01*
X90701185Y-99323815D01*
X90604494Y-99244463D01*
X90494180Y-99185498D01*
X90374482Y-99149188D01*
X90250000Y-99136928D01*
X89924561Y-99136928D01*
X89900000Y-99134509D01*
X89875439Y-99136928D01*
X89550000Y-99136928D01*
X89518808Y-99140000D01*
X87895132Y-99140000D01*
X87260000Y-98504868D01*
X87260000Y-92862408D01*
X88053000Y-92862408D01*
X88053000Y-93137592D01*
X88106686Y-93407490D01*
X88211995Y-93661727D01*
X88364880Y-93890535D01*
X88559465Y-94085120D01*
X88788273Y-94238005D01*
X89042510Y-94343314D01*
X89312408Y-94397000D01*
X89587592Y-94397000D01*
X89857490Y-94343314D01*
X90111727Y-94238005D01*
X90340535Y-94085120D01*
X90535120Y-93890535D01*
X90688005Y-93661727D01*
X90793314Y-93407490D01*
X90847000Y-93137592D01*
X90847000Y-92962408D01*
X98053000Y-92962408D01*
X98053000Y-93237592D01*
X98106686Y-93507490D01*
X98211995Y-93761727D01*
X98364880Y-93990535D01*
X98559465Y-94185120D01*
X98788273Y-94338005D01*
X99042510Y-94443314D01*
X99312408Y-94497000D01*
X99587592Y-94497000D01*
X99857490Y-94443314D01*
X100111727Y-94338005D01*
X100340535Y-94185120D01*
X100535120Y-93990535D01*
X100688005Y-93761727D01*
X100793314Y-93507490D01*
X100847000Y-93237592D01*
X100847000Y-92962408D01*
X100793314Y-92692510D01*
X100688005Y-92438273D01*
X100535120Y-92209465D01*
X100340535Y-92014880D01*
X100111727Y-91861995D01*
X99857490Y-91756686D01*
X99587592Y-91703000D01*
X99312408Y-91703000D01*
X99042510Y-91756686D01*
X98788273Y-91861995D01*
X98559465Y-92014880D01*
X98364880Y-92209465D01*
X98211995Y-92438273D01*
X98106686Y-92692510D01*
X98053000Y-92962408D01*
X90847000Y-92962408D01*
X90847000Y-92862408D01*
X90793314Y-92592510D01*
X90688005Y-92338273D01*
X90535120Y-92109465D01*
X90340535Y-91914880D01*
X90111727Y-91761995D01*
X89857490Y-91656686D01*
X89587592Y-91603000D01*
X89312408Y-91603000D01*
X89042510Y-91656686D01*
X88788273Y-91761995D01*
X88559465Y-91914880D01*
X88364880Y-92109465D01*
X88211995Y-92338273D01*
X88106686Y-92592510D01*
X88053000Y-92862408D01*
X87260000Y-92862408D01*
X87260000Y-88862408D01*
X88053000Y-88862408D01*
X88053000Y-89137592D01*
X88106686Y-89407490D01*
X88211995Y-89661727D01*
X88364880Y-89890535D01*
X88559465Y-90085120D01*
X88788273Y-90238005D01*
X89042510Y-90343314D01*
X89312408Y-90397000D01*
X89587592Y-90397000D01*
X89857490Y-90343314D01*
X90111727Y-90238005D01*
X90340535Y-90085120D01*
X90535120Y-89890535D01*
X90688005Y-89661727D01*
X90793314Y-89407490D01*
X90847000Y-89137592D01*
X90847000Y-88962408D01*
X98053000Y-88962408D01*
X98053000Y-89237592D01*
X98106686Y-89507490D01*
X98211995Y-89761727D01*
X98364880Y-89990535D01*
X98559465Y-90185120D01*
X98788273Y-90338005D01*
X99042510Y-90443314D01*
X99312408Y-90497000D01*
X99587592Y-90497000D01*
X99857490Y-90443314D01*
X100111727Y-90338005D01*
X100340535Y-90185120D01*
X100535120Y-89990535D01*
X100688005Y-89761727D01*
X100793314Y-89507490D01*
X100847000Y-89237592D01*
X100847000Y-88962408D01*
X100793314Y-88692510D01*
X100688005Y-88438273D01*
X100535120Y-88209465D01*
X100340535Y-88014880D01*
X100111727Y-87861995D01*
X99857490Y-87756686D01*
X99587592Y-87703000D01*
X99312408Y-87703000D01*
X99042510Y-87756686D01*
X98788273Y-87861995D01*
X98559465Y-88014880D01*
X98364880Y-88209465D01*
X98211995Y-88438273D01*
X98106686Y-88692510D01*
X98053000Y-88962408D01*
X90847000Y-88962408D01*
X90847000Y-88862408D01*
X90793314Y-88592510D01*
X90688005Y-88338273D01*
X90535120Y-88109465D01*
X90340535Y-87914880D01*
X90111727Y-87761995D01*
X89857490Y-87656686D01*
X89587592Y-87603000D01*
X89312408Y-87603000D01*
X89042510Y-87656686D01*
X88788273Y-87761995D01*
X88559465Y-87914880D01*
X88364880Y-88109465D01*
X88211995Y-88338273D01*
X88106686Y-88592510D01*
X88053000Y-88862408D01*
X87260000Y-88862408D01*
X87260000Y-84862408D01*
X88053000Y-84862408D01*
X88053000Y-85137592D01*
X88106686Y-85407490D01*
X88211995Y-85661727D01*
X88364880Y-85890535D01*
X88559465Y-86085120D01*
X88788273Y-86238005D01*
X89042510Y-86343314D01*
X89312408Y-86397000D01*
X89587592Y-86397000D01*
X89857490Y-86343314D01*
X90111727Y-86238005D01*
X90340535Y-86085120D01*
X90535120Y-85890535D01*
X90688005Y-85661727D01*
X90793314Y-85407490D01*
X90847000Y-85137592D01*
X90847000Y-84962408D01*
X98053000Y-84962408D01*
X98053000Y-85237592D01*
X98106686Y-85507490D01*
X98211995Y-85761727D01*
X98364880Y-85990535D01*
X98559465Y-86185120D01*
X98788273Y-86338005D01*
X99042510Y-86443314D01*
X99312408Y-86497000D01*
X99587592Y-86497000D01*
X99857490Y-86443314D01*
X100111727Y-86338005D01*
X100340535Y-86185120D01*
X100535120Y-85990535D01*
X100688005Y-85761727D01*
X100793314Y-85507490D01*
X100847000Y-85237592D01*
X100847000Y-84962408D01*
X100793314Y-84692510D01*
X100688005Y-84438273D01*
X100535120Y-84209465D01*
X100425655Y-84100000D01*
X101311928Y-84100000D01*
X101315000Y-88514250D01*
X101473750Y-88673000D01*
X107223000Y-88673000D01*
X107223000Y-83623750D01*
X107477000Y-83623750D01*
X107477000Y-88673000D01*
X113226250Y-88673000D01*
X113385000Y-88514250D01*
X113386963Y-85692824D01*
X118655098Y-85692824D01*
X118704666Y-86110451D01*
X118834757Y-86510383D01*
X118992786Y-86806038D01*
X119308347Y-86962048D01*
X120620395Y-85650000D01*
X119308347Y-84337952D01*
X118992786Y-84493962D01*
X118801980Y-84868745D01*
X118687956Y-85273551D01*
X118655098Y-85692824D01*
X113386963Y-85692824D01*
X113388072Y-84100000D01*
X113375812Y-83975518D01*
X113339502Y-83855820D01*
X113280537Y-83745506D01*
X113201185Y-83648815D01*
X113104494Y-83569463D01*
X112994180Y-83510498D01*
X112874482Y-83474188D01*
X112750000Y-83461928D01*
X107635750Y-83465000D01*
X107477000Y-83623750D01*
X107223000Y-83623750D01*
X107064250Y-83465000D01*
X101950000Y-83461928D01*
X101825518Y-83474188D01*
X101705820Y-83510498D01*
X101595506Y-83569463D01*
X101498815Y-83648815D01*
X101419463Y-83745506D01*
X101360498Y-83855820D01*
X101324188Y-83975518D01*
X101311928Y-84100000D01*
X100425655Y-84100000D01*
X100340535Y-84014880D01*
X100111727Y-83861995D01*
X99857490Y-83756686D01*
X99587592Y-83703000D01*
X99312408Y-83703000D01*
X99042510Y-83756686D01*
X98788273Y-83861995D01*
X98559465Y-84014880D01*
X98364880Y-84209465D01*
X98211995Y-84438273D01*
X98106686Y-84692510D01*
X98053000Y-84962408D01*
X90847000Y-84962408D01*
X90847000Y-84862408D01*
X90793314Y-84592510D01*
X90688005Y-84338273D01*
X90535120Y-84109465D01*
X90340535Y-83914880D01*
X90111727Y-83761995D01*
X89857490Y-83656686D01*
X89587592Y-83603000D01*
X89312408Y-83603000D01*
X89042510Y-83656686D01*
X88788273Y-83761995D01*
X88559465Y-83914880D01*
X88364880Y-84109465D01*
X88211995Y-84338273D01*
X88106686Y-84592510D01*
X88053000Y-84862408D01*
X87260000Y-84862408D01*
X87260000Y-83100000D01*
X113661928Y-83100000D01*
X113674188Y-83224482D01*
X113710498Y-83344180D01*
X113769463Y-83454494D01*
X113848815Y-83551185D01*
X113945506Y-83630537D01*
X114055820Y-83689502D01*
X114175518Y-83725812D01*
X114300000Y-83738072D01*
X116014250Y-83735000D01*
X116173000Y-83576250D01*
X116173000Y-82777000D01*
X116427000Y-82777000D01*
X116427000Y-83576250D01*
X116585750Y-83735000D01*
X118300000Y-83738072D01*
X118424482Y-83725812D01*
X118544180Y-83689502D01*
X118654494Y-83630537D01*
X118751185Y-83551185D01*
X118830537Y-83454494D01*
X118889502Y-83344180D01*
X118925812Y-83224482D01*
X118938072Y-83100000D01*
X118935000Y-82935750D01*
X118776250Y-82777000D01*
X116427000Y-82777000D01*
X116173000Y-82777000D01*
X113823750Y-82777000D01*
X113665000Y-82935750D01*
X113661928Y-83100000D01*
X87260000Y-83100000D01*
X87260000Y-79388072D01*
X88365000Y-79388072D01*
X88365000Y-79589183D01*
X88331423Y-79699871D01*
X88331423Y-79699872D01*
X88309509Y-79922370D01*
X88315000Y-79978121D01*
X88315000Y-80184116D01*
X88211995Y-80338273D01*
X88106686Y-80592510D01*
X88053000Y-80862408D01*
X88053000Y-81137592D01*
X88106686Y-81407490D01*
X88211995Y-81661727D01*
X88364880Y-81890535D01*
X88559465Y-82085120D01*
X88788273Y-82238005D01*
X89042510Y-82343314D01*
X89312408Y-82397000D01*
X89587592Y-82397000D01*
X89857490Y-82343314D01*
X90111727Y-82238005D01*
X90340535Y-82085120D01*
X90535120Y-81890535D01*
X90688005Y-81661727D01*
X90793314Y-81407490D01*
X90847000Y-81137592D01*
X90847000Y-80862408D01*
X90793314Y-80592510D01*
X90688005Y-80338273D01*
X90597114Y-80202245D01*
X92258009Y-81863141D01*
X92293551Y-81906449D01*
X92466377Y-82048284D01*
X92663553Y-82153676D01*
X92877501Y-82218577D01*
X93044248Y-82235000D01*
X93044257Y-82235000D01*
X93099999Y-82240490D01*
X93155741Y-82235000D01*
X98634116Y-82235000D01*
X98788273Y-82338005D01*
X99042510Y-82443314D01*
X99312408Y-82497000D01*
X99587592Y-82497000D01*
X99857490Y-82443314D01*
X100111727Y-82338005D01*
X100318265Y-82200000D01*
X113661928Y-82200000D01*
X113665000Y-82364250D01*
X113823750Y-82523000D01*
X116173000Y-82523000D01*
X116173000Y-81723750D01*
X116427000Y-81723750D01*
X116427000Y-82523000D01*
X118776250Y-82523000D01*
X118935000Y-82364250D01*
X118938072Y-82200000D01*
X118925812Y-82075518D01*
X118889502Y-81955820D01*
X118830537Y-81845506D01*
X118751185Y-81748815D01*
X118654494Y-81669463D01*
X118544180Y-81610498D01*
X118424482Y-81574188D01*
X118300000Y-81561928D01*
X116585750Y-81565000D01*
X116427000Y-81723750D01*
X116173000Y-81723750D01*
X116014250Y-81565000D01*
X114300000Y-81561928D01*
X114175518Y-81574188D01*
X114055820Y-81610498D01*
X113945506Y-81669463D01*
X113848815Y-81748815D01*
X113769463Y-81845506D01*
X113710498Y-81955820D01*
X113674188Y-82075518D01*
X113661928Y-82200000D01*
X100318265Y-82200000D01*
X100340535Y-82185120D01*
X100535120Y-81990535D01*
X100688005Y-81761727D01*
X100793314Y-81507490D01*
X100847000Y-81237592D01*
X100847000Y-80962408D01*
X100793314Y-80692510D01*
X100688005Y-80438273D01*
X100535120Y-80209465D01*
X100340535Y-80014880D01*
X100111727Y-79861995D01*
X99857490Y-79756686D01*
X99587592Y-79703000D01*
X99312408Y-79703000D01*
X99042510Y-79756686D01*
X98788273Y-79861995D01*
X98634116Y-79965000D01*
X93570132Y-79965000D01*
X92285000Y-78679869D01*
X92285000Y-77531192D01*
X92288072Y-77500000D01*
X92288072Y-76500000D01*
X92275812Y-76375518D01*
X92239502Y-76255820D01*
X92180537Y-76145506D01*
X92101185Y-76048815D01*
X92004494Y-75969463D01*
X91894180Y-75910498D01*
X91774482Y-75874188D01*
X91650000Y-75861928D01*
X91174561Y-75861928D01*
X91150000Y-75859509D01*
X91125439Y-75861928D01*
X90650000Y-75861928D01*
X90525518Y-75874188D01*
X90405820Y-75910498D01*
X90295506Y-75969463D01*
X90198815Y-76048815D01*
X90119463Y-76145506D01*
X90060498Y-76255820D01*
X90024188Y-76375518D01*
X90011928Y-76500000D01*
X90011928Y-77406797D01*
X89791996Y-77186865D01*
X89756449Y-77143551D01*
X89583623Y-77001716D01*
X89386447Y-76896324D01*
X89172499Y-76831423D01*
X89081873Y-76822497D01*
X89040462Y-76772038D01*
X88905886Y-76661595D01*
X88752350Y-76579528D01*
X88585754Y-76528992D01*
X88412500Y-76511928D01*
X85587500Y-76511928D01*
X85414246Y-76528992D01*
X85247650Y-76579528D01*
X85094114Y-76661595D01*
X84959538Y-76772038D01*
X84849095Y-76906614D01*
X84767028Y-77060150D01*
X84716492Y-77226746D01*
X84699428Y-77400000D01*
X84225572Y-77400000D01*
X84208508Y-77226746D01*
X84157972Y-77060150D01*
X84075905Y-76906614D01*
X83965462Y-76772038D01*
X83830886Y-76661595D01*
X83677350Y-76579528D01*
X83510754Y-76528992D01*
X83337500Y-76511928D01*
X80512500Y-76511928D01*
X80339246Y-76528992D01*
X80172650Y-76579528D01*
X80019114Y-76661595D01*
X79884538Y-76772038D01*
X79849280Y-76815000D01*
X79605741Y-76815000D01*
X79549999Y-76809510D01*
X79494257Y-76815000D01*
X79494248Y-76815000D01*
X79327501Y-76831423D01*
X79113553Y-76896324D01*
X78916377Y-77001716D01*
X78743551Y-77143551D01*
X78708009Y-77186860D01*
X76986865Y-78908004D01*
X76943551Y-78943551D01*
X76801716Y-79116377D01*
X76710000Y-79287968D01*
X76710000Y-73444200D01*
X76792083Y-72787538D01*
X76909327Y-72513968D01*
X78065001Y-72513968D01*
X78065001Y-72836034D01*
X78127833Y-73151913D01*
X78251083Y-73449464D01*
X78430014Y-73717253D01*
X78657749Y-73944988D01*
X78925538Y-74123919D01*
X79223089Y-74247169D01*
X79538968Y-74310001D01*
X79861034Y-74310001D01*
X80176913Y-74247169D01*
X80474464Y-74123919D01*
X80742253Y-73944988D01*
X80969988Y-73717253D01*
X81148919Y-73449464D01*
X81272169Y-73151913D01*
X81335001Y-72836034D01*
X81335001Y-72692824D01*
X118655098Y-72692824D01*
X118704666Y-73110451D01*
X118834757Y-73510383D01*
X118992786Y-73806038D01*
X119308347Y-73962048D01*
X120620395Y-72650000D01*
X120979605Y-72650000D01*
X122291653Y-73962048D01*
X122607214Y-73806038D01*
X122798020Y-73431255D01*
X122912044Y-73026449D01*
X122944902Y-72607176D01*
X122895334Y-72189549D01*
X122765243Y-71789617D01*
X122607214Y-71493962D01*
X122291653Y-71337952D01*
X120979605Y-72650000D01*
X120620395Y-72650000D01*
X119308347Y-71337952D01*
X118992786Y-71493962D01*
X118801980Y-71868745D01*
X118687956Y-72273551D01*
X118655098Y-72692824D01*
X81335001Y-72692824D01*
X81335001Y-72513968D01*
X81272169Y-72198089D01*
X81148919Y-71900538D01*
X80969988Y-71632749D01*
X80742253Y-71405014D01*
X80474464Y-71226083D01*
X80176913Y-71102833D01*
X79861034Y-71040001D01*
X79538968Y-71040001D01*
X79223089Y-71102833D01*
X78925538Y-71226083D01*
X78657749Y-71405014D01*
X78430014Y-71632749D01*
X78251083Y-71900538D01*
X78127833Y-72198089D01*
X78065001Y-72513968D01*
X76909327Y-72513968D01*
X77033613Y-72223969D01*
X77263850Y-71840241D01*
X77526708Y-71577383D01*
X77660494Y-71443596D01*
X78225803Y-71039804D01*
X78971674Y-70791181D01*
X79458755Y-70710000D01*
X82165871Y-70710000D01*
X82166597Y-70710070D01*
X82200337Y-70710000D01*
X82234877Y-70710000D01*
X82235620Y-70709927D01*
X120103764Y-70631363D01*
X119939617Y-70684757D01*
X119643962Y-70842786D01*
X119487952Y-71158347D01*
X120800000Y-72470395D01*
X122112048Y-71158347D01*
X121956038Y-70842786D01*
X121581255Y-70651980D01*
X121497792Y-70628471D01*
X130244665Y-70610324D01*
X130164238Y-71052673D01*
M02*
