G04 #@! TF.GenerationSoftware,KiCad,Pcbnew,(5.1.2-1)-1*
G04 #@! TF.CreationDate,2019-07-25T11:00:41+03:00*
G04 #@! TF.ProjectId,220_to_5v_charger,3232305f-746f-45f3-9576-5f6368617267,rev?*
G04 #@! TF.SameCoordinates,Original*
G04 #@! TF.FileFunction,Copper,L2,Bot*
G04 #@! TF.FilePolarity,Positive*
%FSLAX46Y46*%
G04 Gerber Fmt 4.6, Leading zero omitted, Abs format (unit mm)*
G04 Created by KiCad (PCBNEW (5.1.2-1)-1) date 2019-07-25 11:00:41*
%MOMM*%
%LPD*%
G04 APERTURE LIST*
%ADD10C,1.524000*%
%ADD11C,3.000000*%
%ADD12O,3.200000X3.200000*%
%ADD13R,3.200000X3.200000*%
%ADD14C,1.800000*%
%ADD15R,1.524000X1.524000*%
%ADD16C,0.800000*%
%ADD17C,1.000000*%
%ADD18C,0.254000*%
G04 APERTURE END LIST*
D10*
X99450000Y-97100000D03*
X99450000Y-93100000D03*
X99450000Y-89100000D03*
X99450000Y-85100000D03*
X99450000Y-81100000D03*
X89450000Y-81000000D03*
X89450000Y-85000000D03*
X89450000Y-89000000D03*
X89450000Y-93000000D03*
X89450000Y-97000000D03*
D11*
X120800000Y-85650000D03*
X120800000Y-72650000D03*
D12*
X115540000Y-104900000D03*
D13*
X100300000Y-104900000D03*
D11*
X81600000Y-107400000D03*
X81600000Y-84900000D03*
D14*
X99200000Y-114900000D03*
X91700000Y-112000000D03*
D15*
X78730000Y-113500000D03*
D10*
X81270000Y-113500000D03*
D16*
X100000000Y-78500000D03*
X101500000Y-77000000D03*
X111500000Y-77500000D03*
X109000000Y-79250000D03*
X116000000Y-110250000D03*
X116000000Y-113750000D03*
X117000000Y-112000000D03*
X107500000Y-94750000D03*
X107500000Y-101250000D03*
X114500000Y-96000000D03*
X103000000Y-83250000D03*
X111750000Y-83250000D03*
X102000000Y-116500000D03*
X104250000Y-116500000D03*
X106000000Y-116500000D03*
X108250000Y-116500000D03*
X110500000Y-116500000D03*
X113000000Y-116500000D03*
X115250000Y-116500000D03*
X117500000Y-116500000D03*
X124750000Y-71250000D03*
X127000000Y-71250000D03*
X129000000Y-71250000D03*
X128250000Y-73500000D03*
X127000000Y-76000000D03*
X126500000Y-78750000D03*
X126750000Y-81250000D03*
X127250000Y-83750000D03*
X127750000Y-85250000D03*
X128750000Y-87000000D03*
X129500000Y-88750000D03*
X114250000Y-94500000D03*
X124250000Y-94500000D03*
X117500000Y-98750000D03*
X77750000Y-94750000D03*
D17*
X114250000Y-94500000D02*
X124250000Y-94500000D01*
X103850000Y-98750000D02*
X100300000Y-102300000D01*
X100300000Y-102300000D02*
X100300000Y-104900000D01*
X117500000Y-98750000D02*
X103850000Y-98750000D01*
X77750000Y-95315685D02*
X81184315Y-98750000D01*
X77750000Y-94750000D02*
X77750000Y-95315685D01*
X87700000Y-98750000D02*
X89450000Y-97000000D01*
X81184315Y-98750000D02*
X87700000Y-98750000D01*
D18*
G36*
X130164238Y-71052673D02*
G01*
X130095759Y-71223871D01*
X129910037Y-71641746D01*
X129278009Y-72857185D01*
X129269096Y-72872470D01*
X129261922Y-72888123D01*
X129253986Y-72903384D01*
X129247407Y-72919792D01*
X128719098Y-74072467D01*
X128719096Y-74072470D01*
X128159356Y-75293722D01*
X128148930Y-75314652D01*
X128144829Y-75325416D01*
X128140033Y-75335881D01*
X128132426Y-75357975D01*
X127743585Y-76378682D01*
X127737464Y-76392392D01*
X127731175Y-76411258D01*
X127724098Y-76429836D01*
X127720155Y-76444319D01*
X127431752Y-77309529D01*
X127425237Y-77326369D01*
X127420730Y-77342593D01*
X127415406Y-77358566D01*
X127411402Y-77376174D01*
X127173142Y-78233913D01*
X127158556Y-78274232D01*
X127149229Y-78335629D01*
X127138549Y-78396829D01*
X127139560Y-78439697D01*
X127094526Y-79295351D01*
X127093925Y-79297786D01*
X127090851Y-79365173D01*
X127089149Y-79397513D01*
X127089262Y-79400000D01*
X127089149Y-79402487D01*
X127090851Y-79434827D01*
X127093925Y-79502214D01*
X127094526Y-79504649D01*
X127139753Y-80363957D01*
X127139134Y-80410485D01*
X127149775Y-80467962D01*
X127158556Y-80525768D01*
X127174387Y-80569530D01*
X127803747Y-82748084D01*
X127806351Y-82766852D01*
X127823112Y-82815119D01*
X127827573Y-82830560D01*
X127834557Y-82848077D01*
X127840734Y-82865864D01*
X127847458Y-82880432D01*
X127866391Y-82927918D01*
X127876714Y-82943821D01*
X128145392Y-83525955D01*
X128149360Y-83536326D01*
X128159993Y-83557593D01*
X128169965Y-83579198D01*
X128175588Y-83588782D01*
X128455631Y-84148871D01*
X128739441Y-84811093D01*
X128744437Y-84824869D01*
X128753172Y-84843134D01*
X128761146Y-84861739D01*
X128768209Y-84874574D01*
X129299436Y-85985321D01*
X129466312Y-86402510D01*
X129467096Y-86406473D01*
X129492266Y-86467395D01*
X129503735Y-86496069D01*
X129505583Y-86499631D01*
X129507117Y-86503343D01*
X129521663Y-86530617D01*
X129552012Y-86589100D01*
X129554535Y-86592252D01*
X129911537Y-87261629D01*
X130040476Y-87551742D01*
X130089637Y-103135875D01*
X130059103Y-103227475D01*
X129774180Y-103634508D01*
X129759390Y-103654403D01*
X129754154Y-103663117D01*
X129748345Y-103671415D01*
X129736232Y-103692940D01*
X123205372Y-114561093D01*
X123200852Y-114567460D01*
X123187410Y-114590983D01*
X123173463Y-114614193D01*
X123170118Y-114621244D01*
X122995682Y-114926508D01*
X122724615Y-115333109D01*
X122230901Y-115961474D01*
X121861344Y-116289970D01*
X121174040Y-116762492D01*
X120574621Y-116976571D01*
X119867047Y-117197688D01*
X119274687Y-117240000D01*
X89132987Y-117240000D01*
X89131119Y-117239826D01*
X89098233Y-117240000D01*
X89065123Y-117240000D01*
X89063243Y-117240185D01*
X79687446Y-117289792D01*
X79313873Y-117248284D01*
X78720924Y-117121224D01*
X78353080Y-116957737D01*
X77948989Y-116755692D01*
X77635331Y-116481240D01*
X77313850Y-116159759D01*
X77079629Y-115769392D01*
X76875814Y-115321001D01*
X76751979Y-114784382D01*
X76710000Y-114364590D01*
X76710000Y-112738000D01*
X77329928Y-112738000D01*
X77329928Y-114262000D01*
X77342188Y-114386482D01*
X77378498Y-114506180D01*
X77437463Y-114616494D01*
X77516815Y-114713185D01*
X77613506Y-114792537D01*
X77723820Y-114851502D01*
X77843518Y-114887812D01*
X77968000Y-114900072D01*
X79492000Y-114900072D01*
X79616482Y-114887812D01*
X79736180Y-114851502D01*
X79846494Y-114792537D01*
X79943185Y-114713185D01*
X80022537Y-114616494D01*
X80081502Y-114506180D01*
X80117812Y-114386482D01*
X80126080Y-114302535D01*
X80184880Y-114390535D01*
X80379465Y-114585120D01*
X80608273Y-114738005D01*
X80862510Y-114843314D01*
X81132408Y-114897000D01*
X81407592Y-114897000D01*
X81677490Y-114843314D01*
X81905627Y-114748816D01*
X97665000Y-114748816D01*
X97665000Y-115051184D01*
X97723989Y-115347743D01*
X97839701Y-115627095D01*
X98007688Y-115878505D01*
X98221495Y-116092312D01*
X98472905Y-116260299D01*
X98752257Y-116376011D01*
X99048816Y-116435000D01*
X99351184Y-116435000D01*
X99647743Y-116376011D01*
X99927095Y-116260299D01*
X100178505Y-116092312D01*
X100392312Y-115878505D01*
X100560299Y-115627095D01*
X100676011Y-115347743D01*
X100727484Y-115088967D01*
X117615000Y-115088967D01*
X117615000Y-115411033D01*
X117677832Y-115726912D01*
X117801082Y-116024463D01*
X117980013Y-116292252D01*
X118207748Y-116519987D01*
X118475537Y-116698918D01*
X118773088Y-116822168D01*
X119088967Y-116885000D01*
X119411033Y-116885000D01*
X119726912Y-116822168D01*
X120024463Y-116698918D01*
X120292252Y-116519987D01*
X120519987Y-116292252D01*
X120698918Y-116024463D01*
X120822168Y-115726912D01*
X120885000Y-115411033D01*
X120885000Y-115088967D01*
X120822168Y-114773088D01*
X120698918Y-114475537D01*
X120519987Y-114207748D01*
X120292252Y-113980013D01*
X120024463Y-113801082D01*
X119726912Y-113677832D01*
X119411033Y-113615000D01*
X119088967Y-113615000D01*
X118773088Y-113677832D01*
X118475537Y-113801082D01*
X118207748Y-113980013D01*
X117980013Y-114207748D01*
X117801082Y-114475537D01*
X117677832Y-114773088D01*
X117615000Y-115088967D01*
X100727484Y-115088967D01*
X100735000Y-115051184D01*
X100735000Y-114748816D01*
X100676011Y-114452257D01*
X100560299Y-114172905D01*
X100392312Y-113921495D01*
X100178505Y-113707688D01*
X99927095Y-113539701D01*
X99647743Y-113423989D01*
X99351184Y-113365000D01*
X99048816Y-113365000D01*
X98752257Y-113423989D01*
X98472905Y-113539701D01*
X98221495Y-113707688D01*
X98007688Y-113921495D01*
X97839701Y-114172905D01*
X97723989Y-114452257D01*
X97665000Y-114748816D01*
X81905627Y-114748816D01*
X81931727Y-114738005D01*
X82160535Y-114585120D01*
X82355120Y-114390535D01*
X82508005Y-114161727D01*
X82613314Y-113907490D01*
X82667000Y-113637592D01*
X82667000Y-113362408D01*
X82613314Y-113092510D01*
X82508005Y-112838273D01*
X82355120Y-112609465D01*
X82160535Y-112414880D01*
X81931727Y-112261995D01*
X81677490Y-112156686D01*
X81407592Y-112103000D01*
X81132408Y-112103000D01*
X80862510Y-112156686D01*
X80608273Y-112261995D01*
X80379465Y-112414880D01*
X80184880Y-112609465D01*
X80126080Y-112697465D01*
X80117812Y-112613518D01*
X80081502Y-112493820D01*
X80022537Y-112383506D01*
X79943185Y-112286815D01*
X79846494Y-112207463D01*
X79736180Y-112148498D01*
X79616482Y-112112188D01*
X79492000Y-112099928D01*
X77968000Y-112099928D01*
X77843518Y-112112188D01*
X77723820Y-112148498D01*
X77613506Y-112207463D01*
X77516815Y-112286815D01*
X77437463Y-112383506D01*
X77378498Y-112493820D01*
X77342188Y-112613518D01*
X77329928Y-112738000D01*
X76710000Y-112738000D01*
X76710000Y-111848816D01*
X90165000Y-111848816D01*
X90165000Y-112151184D01*
X90223989Y-112447743D01*
X90339701Y-112727095D01*
X90507688Y-112978505D01*
X90721495Y-113192312D01*
X90972905Y-113360299D01*
X91252257Y-113476011D01*
X91548816Y-113535000D01*
X91851184Y-113535000D01*
X92147743Y-113476011D01*
X92427095Y-113360299D01*
X92678505Y-113192312D01*
X92892312Y-112978505D01*
X93060299Y-112727095D01*
X93176011Y-112447743D01*
X93235000Y-112151184D01*
X93235000Y-111848816D01*
X93176011Y-111552257D01*
X93060299Y-111272905D01*
X92892312Y-111021495D01*
X92678505Y-110807688D01*
X92427095Y-110639701D01*
X92147743Y-110523989D01*
X91851184Y-110465000D01*
X91548816Y-110465000D01*
X91252257Y-110523989D01*
X90972905Y-110639701D01*
X90721495Y-110807688D01*
X90507688Y-111021495D01*
X90339701Y-111272905D01*
X90223989Y-111552257D01*
X90165000Y-111848816D01*
X76710000Y-111848816D01*
X76710000Y-107189721D01*
X79465000Y-107189721D01*
X79465000Y-107610279D01*
X79547047Y-108022756D01*
X79707988Y-108411302D01*
X79941637Y-108760983D01*
X80239017Y-109058363D01*
X80588698Y-109292012D01*
X80977244Y-109452953D01*
X81389721Y-109535000D01*
X81810279Y-109535000D01*
X82222756Y-109452953D01*
X82611302Y-109292012D01*
X82960983Y-109058363D01*
X83258363Y-108760983D01*
X83492012Y-108411302D01*
X83652953Y-108022756D01*
X83735000Y-107610279D01*
X83735000Y-107189721D01*
X83652953Y-106777244D01*
X83492012Y-106388698D01*
X83258363Y-106039017D01*
X82960983Y-105741637D01*
X82611302Y-105507988D01*
X82222756Y-105347047D01*
X81810279Y-105265000D01*
X81389721Y-105265000D01*
X80977244Y-105347047D01*
X80588698Y-105507988D01*
X80239017Y-105741637D01*
X79941637Y-106039017D01*
X79707988Y-106388698D01*
X79547047Y-106777244D01*
X79465000Y-107189721D01*
X76710000Y-107189721D01*
X76710000Y-103300000D01*
X98061928Y-103300000D01*
X98061928Y-106500000D01*
X98074188Y-106624482D01*
X98110498Y-106744180D01*
X98169463Y-106854494D01*
X98248815Y-106951185D01*
X98345506Y-107030537D01*
X98455820Y-107089502D01*
X98575518Y-107125812D01*
X98700000Y-107138072D01*
X101900000Y-107138072D01*
X102024482Y-107125812D01*
X102144180Y-107089502D01*
X102254494Y-107030537D01*
X102351185Y-106951185D01*
X102430537Y-106854494D01*
X102489502Y-106744180D01*
X102525812Y-106624482D01*
X102538072Y-106500000D01*
X102538072Y-105374503D01*
X113355950Y-105374503D01*
X113460407Y-105718861D01*
X113660118Y-106108835D01*
X113932071Y-106452354D01*
X114265816Y-106736217D01*
X114648527Y-106949516D01*
X115065497Y-107084053D01*
X115413000Y-106972642D01*
X115413000Y-105027000D01*
X115667000Y-105027000D01*
X115667000Y-106972642D01*
X116014503Y-107084053D01*
X116431473Y-106949516D01*
X116814184Y-106736217D01*
X117147929Y-106452354D01*
X117419882Y-106108835D01*
X117619593Y-105718861D01*
X117724050Y-105374503D01*
X117612362Y-105027000D01*
X115667000Y-105027000D01*
X115413000Y-105027000D01*
X113467638Y-105027000D01*
X113355950Y-105374503D01*
X102538072Y-105374503D01*
X102538072Y-104425497D01*
X113355950Y-104425497D01*
X113467638Y-104773000D01*
X115413000Y-104773000D01*
X115413000Y-102827358D01*
X115667000Y-102827358D01*
X115667000Y-104773000D01*
X117612362Y-104773000D01*
X117724050Y-104425497D01*
X117619593Y-104081139D01*
X117419882Y-103691165D01*
X117147929Y-103347646D01*
X116814184Y-103063783D01*
X116431473Y-102850484D01*
X116014503Y-102715947D01*
X115667000Y-102827358D01*
X115413000Y-102827358D01*
X115065497Y-102715947D01*
X114648527Y-102850484D01*
X114265816Y-103063783D01*
X113932071Y-103347646D01*
X113660118Y-103691165D01*
X113460407Y-104081139D01*
X113355950Y-104425497D01*
X102538072Y-104425497D01*
X102538072Y-103300000D01*
X102525812Y-103175518D01*
X102489502Y-103055820D01*
X102430537Y-102945506D01*
X102351185Y-102848815D01*
X102254494Y-102769463D01*
X102144180Y-102710498D01*
X102024482Y-102674188D01*
X101900000Y-102661928D01*
X101543203Y-102661928D01*
X104320132Y-99885000D01*
X117555752Y-99885000D01*
X117722499Y-99868577D01*
X117936447Y-99803676D01*
X118133623Y-99698284D01*
X118306449Y-99556449D01*
X118448284Y-99383623D01*
X118553676Y-99186447D01*
X118618577Y-98972499D01*
X118640491Y-98750000D01*
X118618577Y-98527501D01*
X118553676Y-98313553D01*
X118448284Y-98116377D01*
X118306449Y-97943551D01*
X118133623Y-97801716D01*
X117936447Y-97696324D01*
X117722499Y-97631423D01*
X117555752Y-97615000D01*
X103905751Y-97615000D01*
X103849999Y-97609509D01*
X103627500Y-97631423D01*
X103577705Y-97646529D01*
X103413553Y-97696324D01*
X103216377Y-97801716D01*
X103043551Y-97943551D01*
X103008011Y-97986857D01*
X99536865Y-101458004D01*
X99493551Y-101493551D01*
X99351716Y-101666377D01*
X99246325Y-101863553D01*
X99246324Y-101863554D01*
X99181423Y-102077502D01*
X99159509Y-102300000D01*
X99165000Y-102355752D01*
X99165000Y-102661928D01*
X98700000Y-102661928D01*
X98575518Y-102674188D01*
X98455820Y-102710498D01*
X98345506Y-102769463D01*
X98248815Y-102848815D01*
X98169463Y-102945506D01*
X98110498Y-103055820D01*
X98074188Y-103175518D01*
X98061928Y-103300000D01*
X76710000Y-103300000D01*
X76710000Y-95777718D01*
X76801717Y-95949308D01*
X76943552Y-96122134D01*
X76986860Y-96157676D01*
X80342324Y-99513141D01*
X80377866Y-99556449D01*
X80512822Y-99667205D01*
X80550692Y-99698284D01*
X80747868Y-99803676D01*
X80961816Y-99868577D01*
X81184315Y-99890491D01*
X81240067Y-99885000D01*
X87644249Y-99885000D01*
X87700000Y-99890491D01*
X87755751Y-99885000D01*
X87755752Y-99885000D01*
X87922499Y-99868577D01*
X88136447Y-99803676D01*
X88333623Y-99698284D01*
X88506449Y-99556449D01*
X88541995Y-99513136D01*
X89675648Y-98379485D01*
X89857490Y-98343314D01*
X90111727Y-98238005D01*
X90340535Y-98085120D01*
X90360090Y-98065565D01*
X98664040Y-98065565D01*
X98731020Y-98305656D01*
X98980048Y-98422756D01*
X99247135Y-98489023D01*
X99522017Y-98501910D01*
X99794133Y-98460922D01*
X100053023Y-98367636D01*
X100168980Y-98305656D01*
X100235960Y-98065565D01*
X99450000Y-97279605D01*
X98664040Y-98065565D01*
X90360090Y-98065565D01*
X90535120Y-97890535D01*
X90688005Y-97661727D01*
X90793314Y-97407490D01*
X90840152Y-97172017D01*
X98048090Y-97172017D01*
X98089078Y-97444133D01*
X98182364Y-97703023D01*
X98244344Y-97818980D01*
X98484435Y-97885960D01*
X99270395Y-97100000D01*
X99629605Y-97100000D01*
X100415565Y-97885960D01*
X100655656Y-97818980D01*
X100772756Y-97569952D01*
X100839023Y-97302865D01*
X100851910Y-97027983D01*
X100810922Y-96755867D01*
X100717636Y-96496977D01*
X100655656Y-96381020D01*
X100415565Y-96314040D01*
X99629605Y-97100000D01*
X99270395Y-97100000D01*
X98484435Y-96314040D01*
X98244344Y-96381020D01*
X98127244Y-96630048D01*
X98060977Y-96897135D01*
X98048090Y-97172017D01*
X90840152Y-97172017D01*
X90847000Y-97137592D01*
X90847000Y-96862408D01*
X90793314Y-96592510D01*
X90688005Y-96338273D01*
X90551805Y-96134435D01*
X98664040Y-96134435D01*
X99450000Y-96920395D01*
X100235960Y-96134435D01*
X100168980Y-95894344D01*
X99919952Y-95777244D01*
X99652865Y-95710977D01*
X99377983Y-95698090D01*
X99105867Y-95739078D01*
X98846977Y-95832364D01*
X98731020Y-95894344D01*
X98664040Y-96134435D01*
X90551805Y-96134435D01*
X90535120Y-96109465D01*
X90340535Y-95914880D01*
X90111727Y-95761995D01*
X89857490Y-95656686D01*
X89587592Y-95603000D01*
X89312408Y-95603000D01*
X89042510Y-95656686D01*
X88788273Y-95761995D01*
X88559465Y-95914880D01*
X88364880Y-96109465D01*
X88211995Y-96338273D01*
X88106686Y-96592510D01*
X88070515Y-96774352D01*
X87229869Y-97615000D01*
X82942215Y-97615000D01*
X83141851Y-97415364D01*
X83359085Y-97090250D01*
X83508718Y-96729003D01*
X83585000Y-96345505D01*
X83585000Y-95954495D01*
X83508718Y-95570997D01*
X83359085Y-95209750D01*
X83141851Y-94884636D01*
X82865364Y-94608149D01*
X82703508Y-94500000D01*
X113109509Y-94500000D01*
X113131423Y-94722499D01*
X113196324Y-94936447D01*
X113301716Y-95133623D01*
X113443551Y-95306449D01*
X113616377Y-95448284D01*
X113813553Y-95553676D01*
X114027501Y-95618577D01*
X114194248Y-95635000D01*
X124305752Y-95635000D01*
X124472499Y-95618577D01*
X124686447Y-95553676D01*
X124883623Y-95448284D01*
X125056449Y-95306449D01*
X125198284Y-95133623D01*
X125303676Y-94936447D01*
X125368577Y-94722499D01*
X125390491Y-94500000D01*
X125368577Y-94277501D01*
X125303676Y-94063553D01*
X125198284Y-93866377D01*
X125056449Y-93693551D01*
X124883623Y-93551716D01*
X124686447Y-93446324D01*
X124472499Y-93381423D01*
X124305752Y-93365000D01*
X114194248Y-93365000D01*
X114027501Y-93381423D01*
X113813553Y-93446324D01*
X113616377Y-93551716D01*
X113443551Y-93693551D01*
X113301716Y-93866377D01*
X113196324Y-94063553D01*
X113131423Y-94277501D01*
X113109509Y-94500000D01*
X82703508Y-94500000D01*
X82540250Y-94390915D01*
X82179003Y-94241282D01*
X81795505Y-94165000D01*
X81404495Y-94165000D01*
X81020997Y-94241282D01*
X80659750Y-94390915D01*
X80334636Y-94608149D01*
X80058149Y-94884636D01*
X79840915Y-95209750D01*
X79691282Y-95570997D01*
X79677870Y-95638424D01*
X78885000Y-94845554D01*
X78885000Y-94694248D01*
X78868577Y-94527501D01*
X78803676Y-94313553D01*
X78698284Y-94116377D01*
X78556449Y-93943551D01*
X78383623Y-93801716D01*
X78186446Y-93696324D01*
X77972498Y-93631423D01*
X77750000Y-93609509D01*
X77527501Y-93631423D01*
X77313553Y-93696324D01*
X77116377Y-93801716D01*
X76943551Y-93943551D01*
X76801716Y-94116377D01*
X76710000Y-94287968D01*
X76710000Y-92862408D01*
X88053000Y-92862408D01*
X88053000Y-93137592D01*
X88106686Y-93407490D01*
X88211995Y-93661727D01*
X88364880Y-93890535D01*
X88559465Y-94085120D01*
X88788273Y-94238005D01*
X89042510Y-94343314D01*
X89312408Y-94397000D01*
X89587592Y-94397000D01*
X89857490Y-94343314D01*
X90111727Y-94238005D01*
X90340535Y-94085120D01*
X90535120Y-93890535D01*
X90688005Y-93661727D01*
X90793314Y-93407490D01*
X90847000Y-93137592D01*
X90847000Y-92962408D01*
X98053000Y-92962408D01*
X98053000Y-93237592D01*
X98106686Y-93507490D01*
X98211995Y-93761727D01*
X98364880Y-93990535D01*
X98559465Y-94185120D01*
X98788273Y-94338005D01*
X99042510Y-94443314D01*
X99312408Y-94497000D01*
X99587592Y-94497000D01*
X99857490Y-94443314D01*
X100111727Y-94338005D01*
X100340535Y-94185120D01*
X100535120Y-93990535D01*
X100688005Y-93761727D01*
X100793314Y-93507490D01*
X100847000Y-93237592D01*
X100847000Y-92962408D01*
X100793314Y-92692510D01*
X100688005Y-92438273D01*
X100535120Y-92209465D01*
X100340535Y-92014880D01*
X100111727Y-91861995D01*
X99857490Y-91756686D01*
X99587592Y-91703000D01*
X99312408Y-91703000D01*
X99042510Y-91756686D01*
X98788273Y-91861995D01*
X98559465Y-92014880D01*
X98364880Y-92209465D01*
X98211995Y-92438273D01*
X98106686Y-92692510D01*
X98053000Y-92962408D01*
X90847000Y-92962408D01*
X90847000Y-92862408D01*
X90793314Y-92592510D01*
X90688005Y-92338273D01*
X90535120Y-92109465D01*
X90340535Y-91914880D01*
X90111727Y-91761995D01*
X89857490Y-91656686D01*
X89587592Y-91603000D01*
X89312408Y-91603000D01*
X89042510Y-91656686D01*
X88788273Y-91761995D01*
X88559465Y-91914880D01*
X88364880Y-92109465D01*
X88211995Y-92338273D01*
X88106686Y-92592510D01*
X88053000Y-92862408D01*
X76710000Y-92862408D01*
X76710000Y-88862408D01*
X88053000Y-88862408D01*
X88053000Y-89137592D01*
X88106686Y-89407490D01*
X88211995Y-89661727D01*
X88364880Y-89890535D01*
X88559465Y-90085120D01*
X88788273Y-90238005D01*
X89042510Y-90343314D01*
X89312408Y-90397000D01*
X89587592Y-90397000D01*
X89857490Y-90343314D01*
X90111727Y-90238005D01*
X90340535Y-90085120D01*
X90535120Y-89890535D01*
X90688005Y-89661727D01*
X90793314Y-89407490D01*
X90847000Y-89137592D01*
X90847000Y-88962408D01*
X98053000Y-88962408D01*
X98053000Y-89237592D01*
X98106686Y-89507490D01*
X98211995Y-89761727D01*
X98364880Y-89990535D01*
X98559465Y-90185120D01*
X98788273Y-90338005D01*
X99042510Y-90443314D01*
X99312408Y-90497000D01*
X99587592Y-90497000D01*
X99857490Y-90443314D01*
X100111727Y-90338005D01*
X100340535Y-90185120D01*
X100535120Y-89990535D01*
X100688005Y-89761727D01*
X100793314Y-89507490D01*
X100847000Y-89237592D01*
X100847000Y-88962408D01*
X100793314Y-88692510D01*
X100688005Y-88438273D01*
X100535120Y-88209465D01*
X100340535Y-88014880D01*
X100111727Y-87861995D01*
X99857490Y-87756686D01*
X99587592Y-87703000D01*
X99312408Y-87703000D01*
X99042510Y-87756686D01*
X98788273Y-87861995D01*
X98559465Y-88014880D01*
X98364880Y-88209465D01*
X98211995Y-88438273D01*
X98106686Y-88692510D01*
X98053000Y-88962408D01*
X90847000Y-88962408D01*
X90847000Y-88862408D01*
X90793314Y-88592510D01*
X90688005Y-88338273D01*
X90535120Y-88109465D01*
X90340535Y-87914880D01*
X90111727Y-87761995D01*
X89857490Y-87656686D01*
X89587592Y-87603000D01*
X89312408Y-87603000D01*
X89042510Y-87656686D01*
X88788273Y-87761995D01*
X88559465Y-87914880D01*
X88364880Y-88109465D01*
X88211995Y-88338273D01*
X88106686Y-88592510D01*
X88053000Y-88862408D01*
X76710000Y-88862408D01*
X76710000Y-87141653D01*
X119487952Y-87141653D01*
X119643962Y-87457214D01*
X120018745Y-87648020D01*
X120423551Y-87762044D01*
X120842824Y-87794902D01*
X121260451Y-87745334D01*
X121660383Y-87615243D01*
X121956038Y-87457214D01*
X122112048Y-87141653D01*
X120800000Y-85829605D01*
X119487952Y-87141653D01*
X76710000Y-87141653D01*
X76710000Y-84689721D01*
X79465000Y-84689721D01*
X79465000Y-85110279D01*
X79547047Y-85522756D01*
X79707988Y-85911302D01*
X79941637Y-86260983D01*
X80239017Y-86558363D01*
X80588698Y-86792012D01*
X80977244Y-86952953D01*
X81389721Y-87035000D01*
X81810279Y-87035000D01*
X82222756Y-86952953D01*
X82611302Y-86792012D01*
X82960983Y-86558363D01*
X83258363Y-86260983D01*
X83492012Y-85911302D01*
X83652953Y-85522756D01*
X83735000Y-85110279D01*
X83735000Y-84862408D01*
X88053000Y-84862408D01*
X88053000Y-85137592D01*
X88106686Y-85407490D01*
X88211995Y-85661727D01*
X88364880Y-85890535D01*
X88559465Y-86085120D01*
X88788273Y-86238005D01*
X89042510Y-86343314D01*
X89312408Y-86397000D01*
X89587592Y-86397000D01*
X89857490Y-86343314D01*
X90111727Y-86238005D01*
X90340535Y-86085120D01*
X90535120Y-85890535D01*
X90688005Y-85661727D01*
X90793314Y-85407490D01*
X90847000Y-85137592D01*
X90847000Y-84962408D01*
X98053000Y-84962408D01*
X98053000Y-85237592D01*
X98106686Y-85507490D01*
X98211995Y-85761727D01*
X98364880Y-85990535D01*
X98559465Y-86185120D01*
X98788273Y-86338005D01*
X99042510Y-86443314D01*
X99312408Y-86497000D01*
X99587592Y-86497000D01*
X99857490Y-86443314D01*
X100111727Y-86338005D01*
X100340535Y-86185120D01*
X100535120Y-85990535D01*
X100688005Y-85761727D01*
X100716545Y-85692824D01*
X118655098Y-85692824D01*
X118704666Y-86110451D01*
X118834757Y-86510383D01*
X118992786Y-86806038D01*
X119308347Y-86962048D01*
X120620395Y-85650000D01*
X120979605Y-85650000D01*
X122291653Y-86962048D01*
X122607214Y-86806038D01*
X122798020Y-86431255D01*
X122912044Y-86026449D01*
X122944902Y-85607176D01*
X122895334Y-85189549D01*
X122765243Y-84789617D01*
X122607214Y-84493962D01*
X122291653Y-84337952D01*
X120979605Y-85650000D01*
X120620395Y-85650000D01*
X119308347Y-84337952D01*
X118992786Y-84493962D01*
X118801980Y-84868745D01*
X118687956Y-85273551D01*
X118655098Y-85692824D01*
X100716545Y-85692824D01*
X100793314Y-85507490D01*
X100847000Y-85237592D01*
X100847000Y-84962408D01*
X100793314Y-84692510D01*
X100688005Y-84438273D01*
X100535120Y-84209465D01*
X100484002Y-84158347D01*
X119487952Y-84158347D01*
X120800000Y-85470395D01*
X122112048Y-84158347D01*
X121956038Y-83842786D01*
X121581255Y-83651980D01*
X121176449Y-83537956D01*
X120757176Y-83505098D01*
X120339549Y-83554666D01*
X119939617Y-83684757D01*
X119643962Y-83842786D01*
X119487952Y-84158347D01*
X100484002Y-84158347D01*
X100340535Y-84014880D01*
X100111727Y-83861995D01*
X99857490Y-83756686D01*
X99587592Y-83703000D01*
X99312408Y-83703000D01*
X99042510Y-83756686D01*
X98788273Y-83861995D01*
X98559465Y-84014880D01*
X98364880Y-84209465D01*
X98211995Y-84438273D01*
X98106686Y-84692510D01*
X98053000Y-84962408D01*
X90847000Y-84962408D01*
X90847000Y-84862408D01*
X90793314Y-84592510D01*
X90688005Y-84338273D01*
X90535120Y-84109465D01*
X90340535Y-83914880D01*
X90111727Y-83761995D01*
X89857490Y-83656686D01*
X89587592Y-83603000D01*
X89312408Y-83603000D01*
X89042510Y-83656686D01*
X88788273Y-83761995D01*
X88559465Y-83914880D01*
X88364880Y-84109465D01*
X88211995Y-84338273D01*
X88106686Y-84592510D01*
X88053000Y-84862408D01*
X83735000Y-84862408D01*
X83735000Y-84689721D01*
X83652953Y-84277244D01*
X83492012Y-83888698D01*
X83258363Y-83539017D01*
X82960983Y-83241637D01*
X82611302Y-83007988D01*
X82222756Y-82847047D01*
X81810279Y-82765000D01*
X81389721Y-82765000D01*
X80977244Y-82847047D01*
X80588698Y-83007988D01*
X80239017Y-83241637D01*
X79941637Y-83539017D01*
X79707988Y-83888698D01*
X79547047Y-84277244D01*
X79465000Y-84689721D01*
X76710000Y-84689721D01*
X76710000Y-80862408D01*
X88053000Y-80862408D01*
X88053000Y-81137592D01*
X88106686Y-81407490D01*
X88211995Y-81661727D01*
X88364880Y-81890535D01*
X88559465Y-82085120D01*
X88788273Y-82238005D01*
X89042510Y-82343314D01*
X89312408Y-82397000D01*
X89587592Y-82397000D01*
X89857490Y-82343314D01*
X90111727Y-82238005D01*
X90340535Y-82085120D01*
X90535120Y-81890535D01*
X90688005Y-81661727D01*
X90793314Y-81407490D01*
X90847000Y-81137592D01*
X90847000Y-80962408D01*
X98053000Y-80962408D01*
X98053000Y-81237592D01*
X98106686Y-81507490D01*
X98211995Y-81761727D01*
X98364880Y-81990535D01*
X98559465Y-82185120D01*
X98788273Y-82338005D01*
X99042510Y-82443314D01*
X99312408Y-82497000D01*
X99587592Y-82497000D01*
X99857490Y-82443314D01*
X100111727Y-82338005D01*
X100340535Y-82185120D01*
X100535120Y-81990535D01*
X100688005Y-81761727D01*
X100793314Y-81507490D01*
X100847000Y-81237592D01*
X100847000Y-80962408D01*
X100793314Y-80692510D01*
X100688005Y-80438273D01*
X100535120Y-80209465D01*
X100340535Y-80014880D01*
X100111727Y-79861995D01*
X99857490Y-79756686D01*
X99587592Y-79703000D01*
X99312408Y-79703000D01*
X99042510Y-79756686D01*
X98788273Y-79861995D01*
X98559465Y-80014880D01*
X98364880Y-80209465D01*
X98211995Y-80438273D01*
X98106686Y-80692510D01*
X98053000Y-80962408D01*
X90847000Y-80962408D01*
X90847000Y-80862408D01*
X90793314Y-80592510D01*
X90688005Y-80338273D01*
X90535120Y-80109465D01*
X90340535Y-79914880D01*
X90111727Y-79761995D01*
X89857490Y-79656686D01*
X89587592Y-79603000D01*
X89312408Y-79603000D01*
X89042510Y-79656686D01*
X88788273Y-79761995D01*
X88559465Y-79914880D01*
X88364880Y-80109465D01*
X88211995Y-80338273D01*
X88106686Y-80592510D01*
X88053000Y-80862408D01*
X76710000Y-80862408D01*
X76710000Y-73444200D01*
X76792083Y-72787538D01*
X76909327Y-72513968D01*
X78065001Y-72513968D01*
X78065001Y-72836034D01*
X78127833Y-73151913D01*
X78251083Y-73449464D01*
X78430014Y-73717253D01*
X78657749Y-73944988D01*
X78925538Y-74123919D01*
X79223089Y-74247169D01*
X79538968Y-74310001D01*
X79861034Y-74310001D01*
X80176913Y-74247169D01*
X80431650Y-74141653D01*
X119487952Y-74141653D01*
X119643962Y-74457214D01*
X120018745Y-74648020D01*
X120423551Y-74762044D01*
X120842824Y-74794902D01*
X121260451Y-74745334D01*
X121660383Y-74615243D01*
X121956038Y-74457214D01*
X122112048Y-74141653D01*
X120800000Y-72829605D01*
X119487952Y-74141653D01*
X80431650Y-74141653D01*
X80474464Y-74123919D01*
X80742253Y-73944988D01*
X80969988Y-73717253D01*
X81148919Y-73449464D01*
X81272169Y-73151913D01*
X81335001Y-72836034D01*
X81335001Y-72692824D01*
X118655098Y-72692824D01*
X118704666Y-73110451D01*
X118834757Y-73510383D01*
X118992786Y-73806038D01*
X119308347Y-73962048D01*
X120620395Y-72650000D01*
X120979605Y-72650000D01*
X122291653Y-73962048D01*
X122607214Y-73806038D01*
X122798020Y-73431255D01*
X122912044Y-73026449D01*
X122944902Y-72607176D01*
X122895334Y-72189549D01*
X122765243Y-71789617D01*
X122607214Y-71493962D01*
X122291653Y-71337952D01*
X120979605Y-72650000D01*
X120620395Y-72650000D01*
X119308347Y-71337952D01*
X118992786Y-71493962D01*
X118801980Y-71868745D01*
X118687956Y-72273551D01*
X118655098Y-72692824D01*
X81335001Y-72692824D01*
X81335001Y-72513968D01*
X81272169Y-72198089D01*
X81148919Y-71900538D01*
X80969988Y-71632749D01*
X80742253Y-71405014D01*
X80474464Y-71226083D01*
X80176913Y-71102833D01*
X79861034Y-71040001D01*
X79538968Y-71040001D01*
X79223089Y-71102833D01*
X78925538Y-71226083D01*
X78657749Y-71405014D01*
X78430014Y-71632749D01*
X78251083Y-71900538D01*
X78127833Y-72198089D01*
X78065001Y-72513968D01*
X76909327Y-72513968D01*
X77033613Y-72223969D01*
X77263850Y-71840241D01*
X77526708Y-71577383D01*
X77660494Y-71443596D01*
X78225803Y-71039804D01*
X78971674Y-70791181D01*
X79458755Y-70710000D01*
X82165871Y-70710000D01*
X82166597Y-70710070D01*
X82200337Y-70710000D01*
X82234877Y-70710000D01*
X82235620Y-70709927D01*
X120103764Y-70631363D01*
X119939617Y-70684757D01*
X119643962Y-70842786D01*
X119487952Y-71158347D01*
X120800000Y-72470395D01*
X122112048Y-71158347D01*
X121956038Y-70842786D01*
X121581255Y-70651980D01*
X121497792Y-70628471D01*
X130244665Y-70610324D01*
X130164238Y-71052673D01*
X130164238Y-71052673D01*
G37*
X130164238Y-71052673D02*
X130095759Y-71223871D01*
X129910037Y-71641746D01*
X129278009Y-72857185D01*
X129269096Y-72872470D01*
X129261922Y-72888123D01*
X129253986Y-72903384D01*
X129247407Y-72919792D01*
X128719098Y-74072467D01*
X128719096Y-74072470D01*
X128159356Y-75293722D01*
X128148930Y-75314652D01*
X128144829Y-75325416D01*
X128140033Y-75335881D01*
X128132426Y-75357975D01*
X127743585Y-76378682D01*
X127737464Y-76392392D01*
X127731175Y-76411258D01*
X127724098Y-76429836D01*
X127720155Y-76444319D01*
X127431752Y-77309529D01*
X127425237Y-77326369D01*
X127420730Y-77342593D01*
X127415406Y-77358566D01*
X127411402Y-77376174D01*
X127173142Y-78233913D01*
X127158556Y-78274232D01*
X127149229Y-78335629D01*
X127138549Y-78396829D01*
X127139560Y-78439697D01*
X127094526Y-79295351D01*
X127093925Y-79297786D01*
X127090851Y-79365173D01*
X127089149Y-79397513D01*
X127089262Y-79400000D01*
X127089149Y-79402487D01*
X127090851Y-79434827D01*
X127093925Y-79502214D01*
X127094526Y-79504649D01*
X127139753Y-80363957D01*
X127139134Y-80410485D01*
X127149775Y-80467962D01*
X127158556Y-80525768D01*
X127174387Y-80569530D01*
X127803747Y-82748084D01*
X127806351Y-82766852D01*
X127823112Y-82815119D01*
X127827573Y-82830560D01*
X127834557Y-82848077D01*
X127840734Y-82865864D01*
X127847458Y-82880432D01*
X127866391Y-82927918D01*
X127876714Y-82943821D01*
X128145392Y-83525955D01*
X128149360Y-83536326D01*
X128159993Y-83557593D01*
X128169965Y-83579198D01*
X128175588Y-83588782D01*
X128455631Y-84148871D01*
X128739441Y-84811093D01*
X128744437Y-84824869D01*
X128753172Y-84843134D01*
X128761146Y-84861739D01*
X128768209Y-84874574D01*
X129299436Y-85985321D01*
X129466312Y-86402510D01*
X129467096Y-86406473D01*
X129492266Y-86467395D01*
X129503735Y-86496069D01*
X129505583Y-86499631D01*
X129507117Y-86503343D01*
X129521663Y-86530617D01*
X129552012Y-86589100D01*
X129554535Y-86592252D01*
X129911537Y-87261629D01*
X130040476Y-87551742D01*
X130089637Y-103135875D01*
X130059103Y-103227475D01*
X129774180Y-103634508D01*
X129759390Y-103654403D01*
X129754154Y-103663117D01*
X129748345Y-103671415D01*
X129736232Y-103692940D01*
X123205372Y-114561093D01*
X123200852Y-114567460D01*
X123187410Y-114590983D01*
X123173463Y-114614193D01*
X123170118Y-114621244D01*
X122995682Y-114926508D01*
X122724615Y-115333109D01*
X122230901Y-115961474D01*
X121861344Y-116289970D01*
X121174040Y-116762492D01*
X120574621Y-116976571D01*
X119867047Y-117197688D01*
X119274687Y-117240000D01*
X89132987Y-117240000D01*
X89131119Y-117239826D01*
X89098233Y-117240000D01*
X89065123Y-117240000D01*
X89063243Y-117240185D01*
X79687446Y-117289792D01*
X79313873Y-117248284D01*
X78720924Y-117121224D01*
X78353080Y-116957737D01*
X77948989Y-116755692D01*
X77635331Y-116481240D01*
X77313850Y-116159759D01*
X77079629Y-115769392D01*
X76875814Y-115321001D01*
X76751979Y-114784382D01*
X76710000Y-114364590D01*
X76710000Y-112738000D01*
X77329928Y-112738000D01*
X77329928Y-114262000D01*
X77342188Y-114386482D01*
X77378498Y-114506180D01*
X77437463Y-114616494D01*
X77516815Y-114713185D01*
X77613506Y-114792537D01*
X77723820Y-114851502D01*
X77843518Y-114887812D01*
X77968000Y-114900072D01*
X79492000Y-114900072D01*
X79616482Y-114887812D01*
X79736180Y-114851502D01*
X79846494Y-114792537D01*
X79943185Y-114713185D01*
X80022537Y-114616494D01*
X80081502Y-114506180D01*
X80117812Y-114386482D01*
X80126080Y-114302535D01*
X80184880Y-114390535D01*
X80379465Y-114585120D01*
X80608273Y-114738005D01*
X80862510Y-114843314D01*
X81132408Y-114897000D01*
X81407592Y-114897000D01*
X81677490Y-114843314D01*
X81905627Y-114748816D01*
X97665000Y-114748816D01*
X97665000Y-115051184D01*
X97723989Y-115347743D01*
X97839701Y-115627095D01*
X98007688Y-115878505D01*
X98221495Y-116092312D01*
X98472905Y-116260299D01*
X98752257Y-116376011D01*
X99048816Y-116435000D01*
X99351184Y-116435000D01*
X99647743Y-116376011D01*
X99927095Y-116260299D01*
X100178505Y-116092312D01*
X100392312Y-115878505D01*
X100560299Y-115627095D01*
X100676011Y-115347743D01*
X100727484Y-115088967D01*
X117615000Y-115088967D01*
X117615000Y-115411033D01*
X117677832Y-115726912D01*
X117801082Y-116024463D01*
X117980013Y-116292252D01*
X118207748Y-116519987D01*
X118475537Y-116698918D01*
X118773088Y-116822168D01*
X119088967Y-116885000D01*
X119411033Y-116885000D01*
X119726912Y-116822168D01*
X120024463Y-116698918D01*
X120292252Y-116519987D01*
X120519987Y-116292252D01*
X120698918Y-116024463D01*
X120822168Y-115726912D01*
X120885000Y-115411033D01*
X120885000Y-115088967D01*
X120822168Y-114773088D01*
X120698918Y-114475537D01*
X120519987Y-114207748D01*
X120292252Y-113980013D01*
X120024463Y-113801082D01*
X119726912Y-113677832D01*
X119411033Y-113615000D01*
X119088967Y-113615000D01*
X118773088Y-113677832D01*
X118475537Y-113801082D01*
X118207748Y-113980013D01*
X117980013Y-114207748D01*
X117801082Y-114475537D01*
X117677832Y-114773088D01*
X117615000Y-115088967D01*
X100727484Y-115088967D01*
X100735000Y-115051184D01*
X100735000Y-114748816D01*
X100676011Y-114452257D01*
X100560299Y-114172905D01*
X100392312Y-113921495D01*
X100178505Y-113707688D01*
X99927095Y-113539701D01*
X99647743Y-113423989D01*
X99351184Y-113365000D01*
X99048816Y-113365000D01*
X98752257Y-113423989D01*
X98472905Y-113539701D01*
X98221495Y-113707688D01*
X98007688Y-113921495D01*
X97839701Y-114172905D01*
X97723989Y-114452257D01*
X97665000Y-114748816D01*
X81905627Y-114748816D01*
X81931727Y-114738005D01*
X82160535Y-114585120D01*
X82355120Y-114390535D01*
X82508005Y-114161727D01*
X82613314Y-113907490D01*
X82667000Y-113637592D01*
X82667000Y-113362408D01*
X82613314Y-113092510D01*
X82508005Y-112838273D01*
X82355120Y-112609465D01*
X82160535Y-112414880D01*
X81931727Y-112261995D01*
X81677490Y-112156686D01*
X81407592Y-112103000D01*
X81132408Y-112103000D01*
X80862510Y-112156686D01*
X80608273Y-112261995D01*
X80379465Y-112414880D01*
X80184880Y-112609465D01*
X80126080Y-112697465D01*
X80117812Y-112613518D01*
X80081502Y-112493820D01*
X80022537Y-112383506D01*
X79943185Y-112286815D01*
X79846494Y-112207463D01*
X79736180Y-112148498D01*
X79616482Y-112112188D01*
X79492000Y-112099928D01*
X77968000Y-112099928D01*
X77843518Y-112112188D01*
X77723820Y-112148498D01*
X77613506Y-112207463D01*
X77516815Y-112286815D01*
X77437463Y-112383506D01*
X77378498Y-112493820D01*
X77342188Y-112613518D01*
X77329928Y-112738000D01*
X76710000Y-112738000D01*
X76710000Y-111848816D01*
X90165000Y-111848816D01*
X90165000Y-112151184D01*
X90223989Y-112447743D01*
X90339701Y-112727095D01*
X90507688Y-112978505D01*
X90721495Y-113192312D01*
X90972905Y-113360299D01*
X91252257Y-113476011D01*
X91548816Y-113535000D01*
X91851184Y-113535000D01*
X92147743Y-113476011D01*
X92427095Y-113360299D01*
X92678505Y-113192312D01*
X92892312Y-112978505D01*
X93060299Y-112727095D01*
X93176011Y-112447743D01*
X93235000Y-112151184D01*
X93235000Y-111848816D01*
X93176011Y-111552257D01*
X93060299Y-111272905D01*
X92892312Y-111021495D01*
X92678505Y-110807688D01*
X92427095Y-110639701D01*
X92147743Y-110523989D01*
X91851184Y-110465000D01*
X91548816Y-110465000D01*
X91252257Y-110523989D01*
X90972905Y-110639701D01*
X90721495Y-110807688D01*
X90507688Y-111021495D01*
X90339701Y-111272905D01*
X90223989Y-111552257D01*
X90165000Y-111848816D01*
X76710000Y-111848816D01*
X76710000Y-107189721D01*
X79465000Y-107189721D01*
X79465000Y-107610279D01*
X79547047Y-108022756D01*
X79707988Y-108411302D01*
X79941637Y-108760983D01*
X80239017Y-109058363D01*
X80588698Y-109292012D01*
X80977244Y-109452953D01*
X81389721Y-109535000D01*
X81810279Y-109535000D01*
X82222756Y-109452953D01*
X82611302Y-109292012D01*
X82960983Y-109058363D01*
X83258363Y-108760983D01*
X83492012Y-108411302D01*
X83652953Y-108022756D01*
X83735000Y-107610279D01*
X83735000Y-107189721D01*
X83652953Y-106777244D01*
X83492012Y-106388698D01*
X83258363Y-106039017D01*
X82960983Y-105741637D01*
X82611302Y-105507988D01*
X82222756Y-105347047D01*
X81810279Y-105265000D01*
X81389721Y-105265000D01*
X80977244Y-105347047D01*
X80588698Y-105507988D01*
X80239017Y-105741637D01*
X79941637Y-106039017D01*
X79707988Y-106388698D01*
X79547047Y-106777244D01*
X79465000Y-107189721D01*
X76710000Y-107189721D01*
X76710000Y-103300000D01*
X98061928Y-103300000D01*
X98061928Y-106500000D01*
X98074188Y-106624482D01*
X98110498Y-106744180D01*
X98169463Y-106854494D01*
X98248815Y-106951185D01*
X98345506Y-107030537D01*
X98455820Y-107089502D01*
X98575518Y-107125812D01*
X98700000Y-107138072D01*
X101900000Y-107138072D01*
X102024482Y-107125812D01*
X102144180Y-107089502D01*
X102254494Y-107030537D01*
X102351185Y-106951185D01*
X102430537Y-106854494D01*
X102489502Y-106744180D01*
X102525812Y-106624482D01*
X102538072Y-106500000D01*
X102538072Y-105374503D01*
X113355950Y-105374503D01*
X113460407Y-105718861D01*
X113660118Y-106108835D01*
X113932071Y-106452354D01*
X114265816Y-106736217D01*
X114648527Y-106949516D01*
X115065497Y-107084053D01*
X115413000Y-106972642D01*
X115413000Y-105027000D01*
X115667000Y-105027000D01*
X115667000Y-106972642D01*
X116014503Y-107084053D01*
X116431473Y-106949516D01*
X116814184Y-106736217D01*
X117147929Y-106452354D01*
X117419882Y-106108835D01*
X117619593Y-105718861D01*
X117724050Y-105374503D01*
X117612362Y-105027000D01*
X115667000Y-105027000D01*
X115413000Y-105027000D01*
X113467638Y-105027000D01*
X113355950Y-105374503D01*
X102538072Y-105374503D01*
X102538072Y-104425497D01*
X113355950Y-104425497D01*
X113467638Y-104773000D01*
X115413000Y-104773000D01*
X115413000Y-102827358D01*
X115667000Y-102827358D01*
X115667000Y-104773000D01*
X117612362Y-104773000D01*
X117724050Y-104425497D01*
X117619593Y-104081139D01*
X117419882Y-103691165D01*
X117147929Y-103347646D01*
X116814184Y-103063783D01*
X116431473Y-102850484D01*
X116014503Y-102715947D01*
X115667000Y-102827358D01*
X115413000Y-102827358D01*
X115065497Y-102715947D01*
X114648527Y-102850484D01*
X114265816Y-103063783D01*
X113932071Y-103347646D01*
X113660118Y-103691165D01*
X113460407Y-104081139D01*
X113355950Y-104425497D01*
X102538072Y-104425497D01*
X102538072Y-103300000D01*
X102525812Y-103175518D01*
X102489502Y-103055820D01*
X102430537Y-102945506D01*
X102351185Y-102848815D01*
X102254494Y-102769463D01*
X102144180Y-102710498D01*
X102024482Y-102674188D01*
X101900000Y-102661928D01*
X101543203Y-102661928D01*
X104320132Y-99885000D01*
X117555752Y-99885000D01*
X117722499Y-99868577D01*
X117936447Y-99803676D01*
X118133623Y-99698284D01*
X118306449Y-99556449D01*
X118448284Y-99383623D01*
X118553676Y-99186447D01*
X118618577Y-98972499D01*
X118640491Y-98750000D01*
X118618577Y-98527501D01*
X118553676Y-98313553D01*
X118448284Y-98116377D01*
X118306449Y-97943551D01*
X118133623Y-97801716D01*
X117936447Y-97696324D01*
X117722499Y-97631423D01*
X117555752Y-97615000D01*
X103905751Y-97615000D01*
X103849999Y-97609509D01*
X103627500Y-97631423D01*
X103577705Y-97646529D01*
X103413553Y-97696324D01*
X103216377Y-97801716D01*
X103043551Y-97943551D01*
X103008011Y-97986857D01*
X99536865Y-101458004D01*
X99493551Y-101493551D01*
X99351716Y-101666377D01*
X99246325Y-101863553D01*
X99246324Y-101863554D01*
X99181423Y-102077502D01*
X99159509Y-102300000D01*
X99165000Y-102355752D01*
X99165000Y-102661928D01*
X98700000Y-102661928D01*
X98575518Y-102674188D01*
X98455820Y-102710498D01*
X98345506Y-102769463D01*
X98248815Y-102848815D01*
X98169463Y-102945506D01*
X98110498Y-103055820D01*
X98074188Y-103175518D01*
X98061928Y-103300000D01*
X76710000Y-103300000D01*
X76710000Y-95777718D01*
X76801717Y-95949308D01*
X76943552Y-96122134D01*
X76986860Y-96157676D01*
X80342324Y-99513141D01*
X80377866Y-99556449D01*
X80512822Y-99667205D01*
X80550692Y-99698284D01*
X80747868Y-99803676D01*
X80961816Y-99868577D01*
X81184315Y-99890491D01*
X81240067Y-99885000D01*
X87644249Y-99885000D01*
X87700000Y-99890491D01*
X87755751Y-99885000D01*
X87755752Y-99885000D01*
X87922499Y-99868577D01*
X88136447Y-99803676D01*
X88333623Y-99698284D01*
X88506449Y-99556449D01*
X88541995Y-99513136D01*
X89675648Y-98379485D01*
X89857490Y-98343314D01*
X90111727Y-98238005D01*
X90340535Y-98085120D01*
X90360090Y-98065565D01*
X98664040Y-98065565D01*
X98731020Y-98305656D01*
X98980048Y-98422756D01*
X99247135Y-98489023D01*
X99522017Y-98501910D01*
X99794133Y-98460922D01*
X100053023Y-98367636D01*
X100168980Y-98305656D01*
X100235960Y-98065565D01*
X99450000Y-97279605D01*
X98664040Y-98065565D01*
X90360090Y-98065565D01*
X90535120Y-97890535D01*
X90688005Y-97661727D01*
X90793314Y-97407490D01*
X90840152Y-97172017D01*
X98048090Y-97172017D01*
X98089078Y-97444133D01*
X98182364Y-97703023D01*
X98244344Y-97818980D01*
X98484435Y-97885960D01*
X99270395Y-97100000D01*
X99629605Y-97100000D01*
X100415565Y-97885960D01*
X100655656Y-97818980D01*
X100772756Y-97569952D01*
X100839023Y-97302865D01*
X100851910Y-97027983D01*
X100810922Y-96755867D01*
X100717636Y-96496977D01*
X100655656Y-96381020D01*
X100415565Y-96314040D01*
X99629605Y-97100000D01*
X99270395Y-97100000D01*
X98484435Y-96314040D01*
X98244344Y-96381020D01*
X98127244Y-96630048D01*
X98060977Y-96897135D01*
X98048090Y-97172017D01*
X90840152Y-97172017D01*
X90847000Y-97137592D01*
X90847000Y-96862408D01*
X90793314Y-96592510D01*
X90688005Y-96338273D01*
X90551805Y-96134435D01*
X98664040Y-96134435D01*
X99450000Y-96920395D01*
X100235960Y-96134435D01*
X100168980Y-95894344D01*
X99919952Y-95777244D01*
X99652865Y-95710977D01*
X99377983Y-95698090D01*
X99105867Y-95739078D01*
X98846977Y-95832364D01*
X98731020Y-95894344D01*
X98664040Y-96134435D01*
X90551805Y-96134435D01*
X90535120Y-96109465D01*
X90340535Y-95914880D01*
X90111727Y-95761995D01*
X89857490Y-95656686D01*
X89587592Y-95603000D01*
X89312408Y-95603000D01*
X89042510Y-95656686D01*
X88788273Y-95761995D01*
X88559465Y-95914880D01*
X88364880Y-96109465D01*
X88211995Y-96338273D01*
X88106686Y-96592510D01*
X88070515Y-96774352D01*
X87229869Y-97615000D01*
X82942215Y-97615000D01*
X83141851Y-97415364D01*
X83359085Y-97090250D01*
X83508718Y-96729003D01*
X83585000Y-96345505D01*
X83585000Y-95954495D01*
X83508718Y-95570997D01*
X83359085Y-95209750D01*
X83141851Y-94884636D01*
X82865364Y-94608149D01*
X82703508Y-94500000D01*
X113109509Y-94500000D01*
X113131423Y-94722499D01*
X113196324Y-94936447D01*
X113301716Y-95133623D01*
X113443551Y-95306449D01*
X113616377Y-95448284D01*
X113813553Y-95553676D01*
X114027501Y-95618577D01*
X114194248Y-95635000D01*
X124305752Y-95635000D01*
X124472499Y-95618577D01*
X124686447Y-95553676D01*
X124883623Y-95448284D01*
X125056449Y-95306449D01*
X125198284Y-95133623D01*
X125303676Y-94936447D01*
X125368577Y-94722499D01*
X125390491Y-94500000D01*
X125368577Y-94277501D01*
X125303676Y-94063553D01*
X125198284Y-93866377D01*
X125056449Y-93693551D01*
X124883623Y-93551716D01*
X124686447Y-93446324D01*
X124472499Y-93381423D01*
X124305752Y-93365000D01*
X114194248Y-93365000D01*
X114027501Y-93381423D01*
X113813553Y-93446324D01*
X113616377Y-93551716D01*
X113443551Y-93693551D01*
X113301716Y-93866377D01*
X113196324Y-94063553D01*
X113131423Y-94277501D01*
X113109509Y-94500000D01*
X82703508Y-94500000D01*
X82540250Y-94390915D01*
X82179003Y-94241282D01*
X81795505Y-94165000D01*
X81404495Y-94165000D01*
X81020997Y-94241282D01*
X80659750Y-94390915D01*
X80334636Y-94608149D01*
X80058149Y-94884636D01*
X79840915Y-95209750D01*
X79691282Y-95570997D01*
X79677870Y-95638424D01*
X78885000Y-94845554D01*
X78885000Y-94694248D01*
X78868577Y-94527501D01*
X78803676Y-94313553D01*
X78698284Y-94116377D01*
X78556449Y-93943551D01*
X78383623Y-93801716D01*
X78186446Y-93696324D01*
X77972498Y-93631423D01*
X77750000Y-93609509D01*
X77527501Y-93631423D01*
X77313553Y-93696324D01*
X77116377Y-93801716D01*
X76943551Y-93943551D01*
X76801716Y-94116377D01*
X76710000Y-94287968D01*
X76710000Y-92862408D01*
X88053000Y-92862408D01*
X88053000Y-93137592D01*
X88106686Y-93407490D01*
X88211995Y-93661727D01*
X88364880Y-93890535D01*
X88559465Y-94085120D01*
X88788273Y-94238005D01*
X89042510Y-94343314D01*
X89312408Y-94397000D01*
X89587592Y-94397000D01*
X89857490Y-94343314D01*
X90111727Y-94238005D01*
X90340535Y-94085120D01*
X90535120Y-93890535D01*
X90688005Y-93661727D01*
X90793314Y-93407490D01*
X90847000Y-93137592D01*
X90847000Y-92962408D01*
X98053000Y-92962408D01*
X98053000Y-93237592D01*
X98106686Y-93507490D01*
X98211995Y-93761727D01*
X98364880Y-93990535D01*
X98559465Y-94185120D01*
X98788273Y-94338005D01*
X99042510Y-94443314D01*
X99312408Y-94497000D01*
X99587592Y-94497000D01*
X99857490Y-94443314D01*
X100111727Y-94338005D01*
X100340535Y-94185120D01*
X100535120Y-93990535D01*
X100688005Y-93761727D01*
X100793314Y-93507490D01*
X100847000Y-93237592D01*
X100847000Y-92962408D01*
X100793314Y-92692510D01*
X100688005Y-92438273D01*
X100535120Y-92209465D01*
X100340535Y-92014880D01*
X100111727Y-91861995D01*
X99857490Y-91756686D01*
X99587592Y-91703000D01*
X99312408Y-91703000D01*
X99042510Y-91756686D01*
X98788273Y-91861995D01*
X98559465Y-92014880D01*
X98364880Y-92209465D01*
X98211995Y-92438273D01*
X98106686Y-92692510D01*
X98053000Y-92962408D01*
X90847000Y-92962408D01*
X90847000Y-92862408D01*
X90793314Y-92592510D01*
X90688005Y-92338273D01*
X90535120Y-92109465D01*
X90340535Y-91914880D01*
X90111727Y-91761995D01*
X89857490Y-91656686D01*
X89587592Y-91603000D01*
X89312408Y-91603000D01*
X89042510Y-91656686D01*
X88788273Y-91761995D01*
X88559465Y-91914880D01*
X88364880Y-92109465D01*
X88211995Y-92338273D01*
X88106686Y-92592510D01*
X88053000Y-92862408D01*
X76710000Y-92862408D01*
X76710000Y-88862408D01*
X88053000Y-88862408D01*
X88053000Y-89137592D01*
X88106686Y-89407490D01*
X88211995Y-89661727D01*
X88364880Y-89890535D01*
X88559465Y-90085120D01*
X88788273Y-90238005D01*
X89042510Y-90343314D01*
X89312408Y-90397000D01*
X89587592Y-90397000D01*
X89857490Y-90343314D01*
X90111727Y-90238005D01*
X90340535Y-90085120D01*
X90535120Y-89890535D01*
X90688005Y-89661727D01*
X90793314Y-89407490D01*
X90847000Y-89137592D01*
X90847000Y-88962408D01*
X98053000Y-88962408D01*
X98053000Y-89237592D01*
X98106686Y-89507490D01*
X98211995Y-89761727D01*
X98364880Y-89990535D01*
X98559465Y-90185120D01*
X98788273Y-90338005D01*
X99042510Y-90443314D01*
X99312408Y-90497000D01*
X99587592Y-90497000D01*
X99857490Y-90443314D01*
X100111727Y-90338005D01*
X100340535Y-90185120D01*
X100535120Y-89990535D01*
X100688005Y-89761727D01*
X100793314Y-89507490D01*
X100847000Y-89237592D01*
X100847000Y-88962408D01*
X100793314Y-88692510D01*
X100688005Y-88438273D01*
X100535120Y-88209465D01*
X100340535Y-88014880D01*
X100111727Y-87861995D01*
X99857490Y-87756686D01*
X99587592Y-87703000D01*
X99312408Y-87703000D01*
X99042510Y-87756686D01*
X98788273Y-87861995D01*
X98559465Y-88014880D01*
X98364880Y-88209465D01*
X98211995Y-88438273D01*
X98106686Y-88692510D01*
X98053000Y-88962408D01*
X90847000Y-88962408D01*
X90847000Y-88862408D01*
X90793314Y-88592510D01*
X90688005Y-88338273D01*
X90535120Y-88109465D01*
X90340535Y-87914880D01*
X90111727Y-87761995D01*
X89857490Y-87656686D01*
X89587592Y-87603000D01*
X89312408Y-87603000D01*
X89042510Y-87656686D01*
X88788273Y-87761995D01*
X88559465Y-87914880D01*
X88364880Y-88109465D01*
X88211995Y-88338273D01*
X88106686Y-88592510D01*
X88053000Y-88862408D01*
X76710000Y-88862408D01*
X76710000Y-87141653D01*
X119487952Y-87141653D01*
X119643962Y-87457214D01*
X120018745Y-87648020D01*
X120423551Y-87762044D01*
X120842824Y-87794902D01*
X121260451Y-87745334D01*
X121660383Y-87615243D01*
X121956038Y-87457214D01*
X122112048Y-87141653D01*
X120800000Y-85829605D01*
X119487952Y-87141653D01*
X76710000Y-87141653D01*
X76710000Y-84689721D01*
X79465000Y-84689721D01*
X79465000Y-85110279D01*
X79547047Y-85522756D01*
X79707988Y-85911302D01*
X79941637Y-86260983D01*
X80239017Y-86558363D01*
X80588698Y-86792012D01*
X80977244Y-86952953D01*
X81389721Y-87035000D01*
X81810279Y-87035000D01*
X82222756Y-86952953D01*
X82611302Y-86792012D01*
X82960983Y-86558363D01*
X83258363Y-86260983D01*
X83492012Y-85911302D01*
X83652953Y-85522756D01*
X83735000Y-85110279D01*
X83735000Y-84862408D01*
X88053000Y-84862408D01*
X88053000Y-85137592D01*
X88106686Y-85407490D01*
X88211995Y-85661727D01*
X88364880Y-85890535D01*
X88559465Y-86085120D01*
X88788273Y-86238005D01*
X89042510Y-86343314D01*
X89312408Y-86397000D01*
X89587592Y-86397000D01*
X89857490Y-86343314D01*
X90111727Y-86238005D01*
X90340535Y-86085120D01*
X90535120Y-85890535D01*
X90688005Y-85661727D01*
X90793314Y-85407490D01*
X90847000Y-85137592D01*
X90847000Y-84962408D01*
X98053000Y-84962408D01*
X98053000Y-85237592D01*
X98106686Y-85507490D01*
X98211995Y-85761727D01*
X98364880Y-85990535D01*
X98559465Y-86185120D01*
X98788273Y-86338005D01*
X99042510Y-86443314D01*
X99312408Y-86497000D01*
X99587592Y-86497000D01*
X99857490Y-86443314D01*
X100111727Y-86338005D01*
X100340535Y-86185120D01*
X100535120Y-85990535D01*
X100688005Y-85761727D01*
X100716545Y-85692824D01*
X118655098Y-85692824D01*
X118704666Y-86110451D01*
X118834757Y-86510383D01*
X118992786Y-86806038D01*
X119308347Y-86962048D01*
X120620395Y-85650000D01*
X120979605Y-85650000D01*
X122291653Y-86962048D01*
X122607214Y-86806038D01*
X122798020Y-86431255D01*
X122912044Y-86026449D01*
X122944902Y-85607176D01*
X122895334Y-85189549D01*
X122765243Y-84789617D01*
X122607214Y-84493962D01*
X122291653Y-84337952D01*
X120979605Y-85650000D01*
X120620395Y-85650000D01*
X119308347Y-84337952D01*
X118992786Y-84493962D01*
X118801980Y-84868745D01*
X118687956Y-85273551D01*
X118655098Y-85692824D01*
X100716545Y-85692824D01*
X100793314Y-85507490D01*
X100847000Y-85237592D01*
X100847000Y-84962408D01*
X100793314Y-84692510D01*
X100688005Y-84438273D01*
X100535120Y-84209465D01*
X100484002Y-84158347D01*
X119487952Y-84158347D01*
X120800000Y-85470395D01*
X122112048Y-84158347D01*
X121956038Y-83842786D01*
X121581255Y-83651980D01*
X121176449Y-83537956D01*
X120757176Y-83505098D01*
X120339549Y-83554666D01*
X119939617Y-83684757D01*
X119643962Y-83842786D01*
X119487952Y-84158347D01*
X100484002Y-84158347D01*
X100340535Y-84014880D01*
X100111727Y-83861995D01*
X99857490Y-83756686D01*
X99587592Y-83703000D01*
X99312408Y-83703000D01*
X99042510Y-83756686D01*
X98788273Y-83861995D01*
X98559465Y-84014880D01*
X98364880Y-84209465D01*
X98211995Y-84438273D01*
X98106686Y-84692510D01*
X98053000Y-84962408D01*
X90847000Y-84962408D01*
X90847000Y-84862408D01*
X90793314Y-84592510D01*
X90688005Y-84338273D01*
X90535120Y-84109465D01*
X90340535Y-83914880D01*
X90111727Y-83761995D01*
X89857490Y-83656686D01*
X89587592Y-83603000D01*
X89312408Y-83603000D01*
X89042510Y-83656686D01*
X88788273Y-83761995D01*
X88559465Y-83914880D01*
X88364880Y-84109465D01*
X88211995Y-84338273D01*
X88106686Y-84592510D01*
X88053000Y-84862408D01*
X83735000Y-84862408D01*
X83735000Y-84689721D01*
X83652953Y-84277244D01*
X83492012Y-83888698D01*
X83258363Y-83539017D01*
X82960983Y-83241637D01*
X82611302Y-83007988D01*
X82222756Y-82847047D01*
X81810279Y-82765000D01*
X81389721Y-82765000D01*
X80977244Y-82847047D01*
X80588698Y-83007988D01*
X80239017Y-83241637D01*
X79941637Y-83539017D01*
X79707988Y-83888698D01*
X79547047Y-84277244D01*
X79465000Y-84689721D01*
X76710000Y-84689721D01*
X76710000Y-80862408D01*
X88053000Y-80862408D01*
X88053000Y-81137592D01*
X88106686Y-81407490D01*
X88211995Y-81661727D01*
X88364880Y-81890535D01*
X88559465Y-82085120D01*
X88788273Y-82238005D01*
X89042510Y-82343314D01*
X89312408Y-82397000D01*
X89587592Y-82397000D01*
X89857490Y-82343314D01*
X90111727Y-82238005D01*
X90340535Y-82085120D01*
X90535120Y-81890535D01*
X90688005Y-81661727D01*
X90793314Y-81407490D01*
X90847000Y-81137592D01*
X90847000Y-80962408D01*
X98053000Y-80962408D01*
X98053000Y-81237592D01*
X98106686Y-81507490D01*
X98211995Y-81761727D01*
X98364880Y-81990535D01*
X98559465Y-82185120D01*
X98788273Y-82338005D01*
X99042510Y-82443314D01*
X99312408Y-82497000D01*
X99587592Y-82497000D01*
X99857490Y-82443314D01*
X100111727Y-82338005D01*
X100340535Y-82185120D01*
X100535120Y-81990535D01*
X100688005Y-81761727D01*
X100793314Y-81507490D01*
X100847000Y-81237592D01*
X100847000Y-80962408D01*
X100793314Y-80692510D01*
X100688005Y-80438273D01*
X100535120Y-80209465D01*
X100340535Y-80014880D01*
X100111727Y-79861995D01*
X99857490Y-79756686D01*
X99587592Y-79703000D01*
X99312408Y-79703000D01*
X99042510Y-79756686D01*
X98788273Y-79861995D01*
X98559465Y-80014880D01*
X98364880Y-80209465D01*
X98211995Y-80438273D01*
X98106686Y-80692510D01*
X98053000Y-80962408D01*
X90847000Y-80962408D01*
X90847000Y-80862408D01*
X90793314Y-80592510D01*
X90688005Y-80338273D01*
X90535120Y-80109465D01*
X90340535Y-79914880D01*
X90111727Y-79761995D01*
X89857490Y-79656686D01*
X89587592Y-79603000D01*
X89312408Y-79603000D01*
X89042510Y-79656686D01*
X88788273Y-79761995D01*
X88559465Y-79914880D01*
X88364880Y-80109465D01*
X88211995Y-80338273D01*
X88106686Y-80592510D01*
X88053000Y-80862408D01*
X76710000Y-80862408D01*
X76710000Y-73444200D01*
X76792083Y-72787538D01*
X76909327Y-72513968D01*
X78065001Y-72513968D01*
X78065001Y-72836034D01*
X78127833Y-73151913D01*
X78251083Y-73449464D01*
X78430014Y-73717253D01*
X78657749Y-73944988D01*
X78925538Y-74123919D01*
X79223089Y-74247169D01*
X79538968Y-74310001D01*
X79861034Y-74310001D01*
X80176913Y-74247169D01*
X80431650Y-74141653D01*
X119487952Y-74141653D01*
X119643962Y-74457214D01*
X120018745Y-74648020D01*
X120423551Y-74762044D01*
X120842824Y-74794902D01*
X121260451Y-74745334D01*
X121660383Y-74615243D01*
X121956038Y-74457214D01*
X122112048Y-74141653D01*
X120800000Y-72829605D01*
X119487952Y-74141653D01*
X80431650Y-74141653D01*
X80474464Y-74123919D01*
X80742253Y-73944988D01*
X80969988Y-73717253D01*
X81148919Y-73449464D01*
X81272169Y-73151913D01*
X81335001Y-72836034D01*
X81335001Y-72692824D01*
X118655098Y-72692824D01*
X118704666Y-73110451D01*
X118834757Y-73510383D01*
X118992786Y-73806038D01*
X119308347Y-73962048D01*
X120620395Y-72650000D01*
X120979605Y-72650000D01*
X122291653Y-73962048D01*
X122607214Y-73806038D01*
X122798020Y-73431255D01*
X122912044Y-73026449D01*
X122944902Y-72607176D01*
X122895334Y-72189549D01*
X122765243Y-71789617D01*
X122607214Y-71493962D01*
X122291653Y-71337952D01*
X120979605Y-72650000D01*
X120620395Y-72650000D01*
X119308347Y-71337952D01*
X118992786Y-71493962D01*
X118801980Y-71868745D01*
X118687956Y-72273551D01*
X118655098Y-72692824D01*
X81335001Y-72692824D01*
X81335001Y-72513968D01*
X81272169Y-72198089D01*
X81148919Y-71900538D01*
X80969988Y-71632749D01*
X80742253Y-71405014D01*
X80474464Y-71226083D01*
X80176913Y-71102833D01*
X79861034Y-71040001D01*
X79538968Y-71040001D01*
X79223089Y-71102833D01*
X78925538Y-71226083D01*
X78657749Y-71405014D01*
X78430014Y-71632749D01*
X78251083Y-71900538D01*
X78127833Y-72198089D01*
X78065001Y-72513968D01*
X76909327Y-72513968D01*
X77033613Y-72223969D01*
X77263850Y-71840241D01*
X77526708Y-71577383D01*
X77660494Y-71443596D01*
X78225803Y-71039804D01*
X78971674Y-70791181D01*
X79458755Y-70710000D01*
X82165871Y-70710000D01*
X82166597Y-70710070D01*
X82200337Y-70710000D01*
X82234877Y-70710000D01*
X82235620Y-70709927D01*
X120103764Y-70631363D01*
X119939617Y-70684757D01*
X119643962Y-70842786D01*
X119487952Y-71158347D01*
X120800000Y-72470395D01*
X122112048Y-71158347D01*
X121956038Y-70842786D01*
X121581255Y-70651980D01*
X121497792Y-70628471D01*
X130244665Y-70610324D01*
X130164238Y-71052673D01*
M02*
