G04 #@! TF.GenerationSoftware,KiCad,Pcbnew,(5.1.2-1)-1*
G04 #@! TF.CreationDate,2019-07-25T11:00:41+03:00*
G04 #@! TF.ProjectId,220_to_5v_charger,3232305f-746f-45f3-9576-5f6368617267,rev?*
G04 #@! TF.SameCoordinates,Original*
G04 #@! TF.FileFunction,Profile,NP*
%FSLAX46Y46*%
G04 Gerber Fmt 4.6, Leading zero omitted, Abs format (unit mm)*
G04 Created by KiCad (PCBNEW (5.1.2-1)-1) date 2019-07-25 11:00:41*
%MOMM*%
%LPD*%
G04 APERTURE LIST*
%ADD10C,0.150000*%
G04 APERTURE END LIST*
D10*
X76050000Y-114900000D02*
X76000000Y-114400000D01*
X76200000Y-115550000D02*
X76050000Y-114900000D01*
X76450000Y-116100000D02*
X76200000Y-115550000D01*
X76750000Y-116600000D02*
X76450000Y-116100000D01*
X77150000Y-117000000D02*
X76750000Y-116600000D01*
X77550000Y-117350000D02*
X77150000Y-117000000D01*
X78050000Y-117600000D02*
X77550000Y-117350000D01*
X78500000Y-117800000D02*
X78050000Y-117600000D01*
X79200000Y-117950000D02*
X78500000Y-117800000D01*
X79650000Y-118000000D02*
X79200000Y-117950000D01*
X89100000Y-117950000D02*
X79650000Y-118000000D01*
X118800000Y-117950000D02*
X89100000Y-117950000D01*
X119300000Y-117950000D02*
X118800000Y-117950000D01*
X120000000Y-117900000D02*
X119300000Y-117950000D01*
X120800000Y-117650000D02*
X120000000Y-117900000D01*
X121500000Y-117400000D02*
X120800000Y-117650000D01*
X122300000Y-116850000D02*
X121500000Y-117400000D01*
X122750000Y-116450000D02*
X122300000Y-116850000D01*
X123300000Y-115750000D02*
X122750000Y-116450000D01*
X123600000Y-115300000D02*
X123300000Y-115750000D01*
X123800000Y-114950000D02*
X123600000Y-115300000D01*
X130350000Y-104050000D02*
X123800000Y-114950000D01*
X130700000Y-103550000D02*
X130350000Y-104050000D01*
X130800000Y-103250000D02*
X130700000Y-103550000D01*
X130750000Y-87400000D02*
X130800000Y-103250000D01*
X130550000Y-86950000D02*
X130750000Y-87400000D01*
X130150000Y-86200000D02*
X130550000Y-86950000D01*
X129950000Y-85700000D02*
X130150000Y-86200000D01*
X129400000Y-84550000D02*
X129950000Y-85700000D01*
X129100000Y-83850000D02*
X129400000Y-84550000D01*
X128800000Y-83250000D02*
X129100000Y-83850000D01*
X128500000Y-82600000D02*
X128800000Y-83250000D01*
X127850000Y-80350000D02*
X128500000Y-82600000D01*
X127800000Y-79400000D02*
X127850000Y-80350000D01*
X127850000Y-78450000D02*
X127800000Y-79400000D01*
X128100000Y-77550000D02*
X127850000Y-78450000D01*
X128400000Y-76650000D02*
X128100000Y-77550000D01*
X128800000Y-75600000D02*
X128400000Y-76650000D01*
X129350000Y-74400000D02*
X128800000Y-75600000D01*
X129900000Y-73200000D02*
X129350000Y-74400000D01*
X130550000Y-71950000D02*
X129900000Y-73200000D01*
X130750000Y-71500000D02*
X130550000Y-71950000D01*
X130850000Y-71250000D02*
X130750000Y-71500000D01*
X130950000Y-70700000D02*
X130850000Y-71250000D01*
X131000000Y-70500000D02*
X130950000Y-70700000D01*
X131000000Y-70400000D02*
X131000000Y-70500000D01*
X130900000Y-70200000D02*
X131000000Y-70400000D01*
X130700000Y-70000000D02*
X130900000Y-70200000D01*
X130400000Y-69900000D02*
X130700000Y-70000000D01*
X82200000Y-70000000D02*
X130400000Y-69900000D01*
X80200000Y-70000000D02*
X82200000Y-70000000D01*
X79900000Y-70000000D02*
X80200000Y-70000000D01*
X79400000Y-70000000D02*
X79900000Y-70000000D01*
X78800000Y-70100000D02*
X79400000Y-70000000D01*
X77900000Y-70400000D02*
X78800000Y-70100000D01*
X77200000Y-70900000D02*
X77900000Y-70400000D01*
X77000000Y-71100000D02*
X77200000Y-70900000D01*
X76700000Y-71400000D02*
X77000000Y-71100000D01*
X76400000Y-71900000D02*
X76700000Y-71400000D01*
X76100000Y-72600000D02*
X76400000Y-71900000D01*
X76000000Y-73400000D02*
X76100000Y-72600000D01*
X76000000Y-114400000D02*
X76000000Y-73400000D01*
M02*
