M48
; DRILL file {KiCad (5.1.2-1)-1} date 2019 July 25, Thursday 11:00:36
; FORMAT={-:-/ absolute / inch / decimal}
; #@! TF.CreationDate,2019-07-25T11:00:36+03:00
; #@! TF.GenerationSoftware,Kicad,Pcbnew,(5.1.2-1)-1
; #@! TF.FileFunction,Plated,1,2,PTH
FMAT,2
INCH
T1C0.0157
T2C0.0300
T3C0.0315
T4C0.0512
T5C0.0630
T6C0.0787
%
G90
G05
T1
X3.061Y-3.7303
X3.937Y-3.0906
X3.9961Y-3.0315
X4.0157Y-4.5866
X4.0551Y-3.2776
X4.1043Y-4.5866
X4.1732Y-4.5866
X4.2323Y-3.7303
X4.2323Y-3.9862
X4.2618Y-4.5866
X4.2913Y-3.1201
X4.3504Y-4.5866
X4.3898Y-3.0512
X4.3996Y-3.2776
X4.4488Y-4.5866
X4.498Y-3.7205
X4.5079Y-3.7795
X4.5374Y-4.5866
X4.5669Y-4.3406
X4.5669Y-4.4783
X4.6063Y-4.4094
X4.626Y-3.8878
X4.626Y-4.5866
X4.8917Y-3.7205
X4.9114Y-2.8051
X4.9803Y-3.1004
X4.9902Y-3.1988
X5.0Y-2.8051
X5.0Y-2.9921
X5.0098Y-3.2972
X5.0295Y-3.3563
X5.0492Y-2.8937
X5.0689Y-3.4252
X5.0787Y-2.8051
X5.0984Y-3.4941
T2
X3.5217Y-3.189
X3.5217Y-3.3465
X3.5217Y-3.5039
X3.5217Y-3.6614
X3.5217Y-3.8189
X3.9154Y-3.1929
X3.9154Y-3.3504
X3.9154Y-3.5079
X3.9154Y-3.6654
X3.9154Y-3.8228
X3.0996Y-4.4685
X3.1996Y-4.4685
T3
X3.6102Y-4.4094
X3.9055Y-4.5236
T4
X3.2126Y-3.3425
X3.2126Y-4.2283
T5
X3.9488Y-4.1299
X4.5488Y-4.1299
T6
X4.7559Y-2.8602
X4.7559Y-3.372
T0
M30
