G04 #@! TF.GenerationSoftware,KiCad,Pcbnew,(5.1.2-1)-1*
G04 #@! TF.CreationDate,2019-07-25T11:00:41+03:00*
G04 #@! TF.ProjectId,220_to_5v_charger,3232305f-746f-45f3-9576-5f6368617267,rev?*
G04 #@! TF.SameCoordinates,Original*
G04 #@! TF.FileFunction,Paste,Bot*
G04 #@! TF.FilePolarity,Positive*
%FSLAX46Y46*%
G04 Gerber Fmt 4.6, Leading zero omitted, Abs format (unit mm)*
G04 Created by KiCad (PCBNEW (5.1.2-1)-1) date 2019-07-25 11:00:41*
%MOMM*%
%LPD*%
G04 APERTURE LIST*
%ADD10C,0.150000*%
G04 APERTURE END LIST*
D10*
X100115717Y-109295832D02*
X100142655Y-109342489D01*
X100206389Y-109399006D01*
X100390375Y-109448304D01*
X100473829Y-109431227D01*
X100520486Y-109404289D01*
X100577003Y-109340555D01*
X100596723Y-109266960D01*
X100589505Y-109146709D01*
X100266256Y-108586826D01*
X100744619Y-108715003D01*
X100851661Y-109493027D02*
X100878598Y-109539684D01*
X100942333Y-109596201D01*
X101126319Y-109645500D01*
X101209773Y-109628422D01*
X101256430Y-109601485D01*
X101312947Y-109537750D01*
X101332666Y-109464156D01*
X101325448Y-109343905D01*
X101002199Y-108784021D01*
X101480563Y-108912198D01*
X101751871Y-109813116D02*
X101825465Y-109832836D01*
X101908919Y-109815758D01*
X101955576Y-109788821D01*
X102012093Y-109725086D01*
X102088329Y-109587757D01*
X102137628Y-109403771D01*
X102140270Y-109246723D01*
X102123192Y-109163269D01*
X102096255Y-109116612D01*
X102032520Y-109060095D01*
X101958926Y-109040375D01*
X101875472Y-109057453D01*
X101828815Y-109084390D01*
X101772298Y-109148125D01*
X101696062Y-109285454D01*
X101646763Y-109469440D01*
X101644121Y-109626488D01*
X101661199Y-109709942D01*
X101688136Y-109756599D01*
X101751871Y-109813116D01*
X102882723Y-110155566D02*
X102486588Y-108984567D01*
X103761988Y-109523504D02*
X103320421Y-109405187D01*
X103541205Y-109464346D02*
X103334149Y-110237086D01*
X103290134Y-110106975D01*
X103236259Y-110013661D01*
X103172525Y-109957145D01*
X104497931Y-109720700D02*
X104056365Y-109602382D01*
X104277148Y-109661541D02*
X104070093Y-110434282D01*
X104026078Y-110304171D01*
X103972203Y-110210857D01*
X103908468Y-110154340D01*
X104769239Y-110621617D02*
X104842833Y-110641337D01*
X104926288Y-110624259D01*
X104972945Y-110597322D01*
X105029461Y-110533587D01*
X105105697Y-110396258D01*
X105154996Y-110212273D01*
X105157638Y-110055224D01*
X105140561Y-109971770D01*
X105113623Y-109925113D01*
X105049889Y-109868596D01*
X104976294Y-109848877D01*
X104892840Y-109865954D01*
X104846183Y-109892892D01*
X104789667Y-109956626D01*
X104713430Y-110093955D01*
X104664131Y-110277941D01*
X104661489Y-110434990D01*
X104678567Y-110518444D01*
X104705505Y-110565101D01*
X104769239Y-110621617D01*
X105247602Y-110749794D02*
X105712238Y-110046072D01*
X105762763Y-110887831D01*
X106131442Y-110395032D02*
X106499414Y-110493630D01*
X106117007Y-110154530D02*
X106167532Y-110996289D01*
X106632167Y-110292567D01*
X107311594Y-110553497D02*
X107284657Y-110506840D01*
X107184125Y-110440463D01*
X107110530Y-110420744D01*
X106990279Y-110427961D01*
X106896965Y-110481836D01*
X106840449Y-110545571D01*
X106764212Y-110682900D01*
X106734633Y-110793291D01*
X106731991Y-110950340D01*
X106749069Y-111033794D01*
X106802943Y-111127108D01*
X106903475Y-111193484D01*
X106977070Y-111213204D01*
X107097321Y-111205986D01*
X107143978Y-111179049D01*
X108002814Y-111211978D02*
X108297192Y-111290856D01*
X108044188Y-111499137D02*
X108221664Y-110836788D01*
X108278180Y-110773054D01*
X108361634Y-110755976D01*
X108435229Y-110775695D01*
X108803200Y-110874293D02*
X108719746Y-110891371D01*
X108673089Y-110918308D01*
X108616573Y-110982043D01*
X108557414Y-111202826D01*
X108574492Y-111286280D01*
X108601429Y-111332937D01*
X108665164Y-111389454D01*
X108775555Y-111419033D01*
X108859009Y-111401955D01*
X108905666Y-111375018D01*
X108962183Y-111311283D01*
X109021342Y-111090500D01*
X109004264Y-111007046D01*
X108977327Y-110960389D01*
X108913592Y-110903873D01*
X108803200Y-110874293D01*
X110141627Y-112061144D02*
X109773655Y-111962547D01*
X109835455Y-111584715D01*
X109862393Y-111631372D01*
X109926127Y-111687889D01*
X110110113Y-111737188D01*
X110193567Y-111720110D01*
X110240224Y-111693173D01*
X110296741Y-111629438D01*
X110346040Y-111445452D01*
X110328962Y-111361998D01*
X110302025Y-111315341D01*
X110238290Y-111258824D01*
X110054304Y-111209525D01*
X109970850Y-111226603D01*
X109924193Y-111253541D01*
X110399207Y-112130163D02*
X110863842Y-111426440D01*
X110914367Y-112268200D01*
X111687108Y-112475255D02*
X112165471Y-112603432D01*
X111986769Y-112240036D01*
X112097161Y-112269615D01*
X112180615Y-112252538D01*
X112227272Y-112225600D01*
X112283788Y-112161866D01*
X112333087Y-111977880D01*
X112316010Y-111894426D01*
X112289072Y-111847769D01*
X112225338Y-111791252D01*
X112004555Y-111732093D01*
X111921101Y-111749171D01*
X111874444Y-111776108D01*
X112607745Y-112130352D02*
X112975717Y-112228950D01*
X112593309Y-111889850D02*
X112643834Y-112731609D01*
X113108470Y-112027887D01*
X104935367Y-108676922D02*
X105303339Y-108775520D01*
X104920931Y-108436419D02*
X104971456Y-109278178D01*
X105436092Y-108574456D01*
X106024847Y-108732212D02*
X105817791Y-109504953D01*
X106014987Y-108769010D02*
X105951252Y-108712493D01*
X105804064Y-108673054D01*
X105720609Y-108690131D01*
X105673953Y-108717069D01*
X105617436Y-108780803D01*
X105558277Y-109001586D01*
X105575355Y-109085041D01*
X105602292Y-109131698D01*
X105666027Y-109188214D01*
X105813215Y-109227653D01*
X105896670Y-109210576D01*
X106723993Y-108919548D02*
X106615535Y-109324317D01*
X106559019Y-109388052D01*
X106475565Y-109405129D01*
X106328376Y-109365690D01*
X106264641Y-109309173D01*
X106714133Y-108956345D02*
X106650399Y-108899829D01*
X106466413Y-108850530D01*
X106382959Y-108867607D01*
X106326442Y-108931342D01*
X106306722Y-109004936D01*
X106323800Y-109088390D01*
X106387535Y-109144907D01*
X106571520Y-109194206D01*
X106635255Y-109250723D01*
X106953928Y-109533306D02*
X107160983Y-108760566D01*
X106963788Y-109496509D02*
X107027522Y-109553026D01*
X107174711Y-109592465D01*
X107258165Y-109575387D01*
X107304822Y-109548450D01*
X107361339Y-109484715D01*
X107420497Y-109263932D01*
X107403420Y-109180478D01*
X107376482Y-109133821D01*
X107312748Y-109077305D01*
X107165559Y-109037865D01*
X107082105Y-109054943D01*
X107542683Y-109691063D02*
X107837060Y-109769941D01*
X107584056Y-109978222D02*
X107761532Y-109315873D01*
X107818048Y-109252139D01*
X107901503Y-109235061D01*
X107975097Y-109254780D01*
X108517195Y-109439474D02*
X108453460Y-109382957D01*
X108306271Y-109343518D01*
X108222817Y-109360596D01*
X108166301Y-109424331D01*
X108087422Y-109718708D01*
X108104500Y-109802162D01*
X108168235Y-109858679D01*
X108315423Y-109898118D01*
X108398877Y-109881040D01*
X108455394Y-109817306D01*
X108475114Y-109743711D01*
X108126862Y-109571519D01*
X108895026Y-109501275D02*
X108756989Y-110016435D01*
X108796429Y-109869247D02*
X108813506Y-109952701D01*
X108840444Y-109999358D01*
X108904178Y-110055874D01*
X108977772Y-110075594D01*
M02*
