G04 #@! TF.GenerationSoftware,KiCad,Pcbnew,(5.1.2-1)-1*
G04 #@! TF.CreationDate,2019-07-25T11:00:41+03:00*
G04 #@! TF.ProjectId,220_to_5v_charger,3232305f-746f-45f3-9576-5f6368617267,rev?*
G04 #@! TF.SameCoordinates,Original*
G04 #@! TF.FileFunction,Legend,Bot*
G04 #@! TF.FilePolarity,Positive*
%FSLAX46Y46*%
G04 Gerber Fmt 4.6, Leading zero omitted, Abs format (unit mm)*
G04 Created by KiCad (PCBNEW (5.1.2-1)-1) date 2019-07-25 11:00:41*
%MOMM*%
%LPD*%
G04 APERTURE LIST*
%ADD10C,0.150000*%
%ADD11C,0.010000*%
G04 APERTURE END LIST*
D10*
X100949498Y-89226553D02*
X101032952Y-89209475D01*
X101180141Y-89248914D01*
X101243875Y-89305431D01*
X101260953Y-89388885D01*
X101251093Y-89425682D01*
X101194576Y-89489417D01*
X101111122Y-89506495D01*
X101000731Y-89476915D01*
X100917277Y-89493993D01*
X100860760Y-89557727D01*
X100850900Y-89594525D01*
X100867978Y-89677979D01*
X100931712Y-89734495D01*
X101042104Y-89764075D01*
X101125558Y-89746997D01*
X101621707Y-89367232D02*
X101414651Y-90139972D01*
X101616423Y-89681329D02*
X101916084Y-89446110D01*
X101778047Y-89961270D02*
X101562548Y-89588015D01*
X102109222Y-90050008D02*
X102247259Y-89534848D01*
X102128941Y-89976414D02*
X102155879Y-90023071D01*
X102219613Y-90079588D01*
X102330005Y-90109167D01*
X102413459Y-90092089D01*
X102469976Y-90028355D01*
X102578433Y-89623586D01*
X103277580Y-89810921D02*
X103070524Y-90583662D01*
X103267720Y-89847719D02*
X103203985Y-89791202D01*
X103056797Y-89751763D01*
X102973342Y-89768840D01*
X102926685Y-89795778D01*
X102870169Y-89859512D01*
X102811010Y-90080295D01*
X102828088Y-90163750D01*
X102855025Y-90210406D01*
X102918760Y-90266923D01*
X103065948Y-90306362D01*
X103149403Y-90289285D01*
X103838689Y-90513418D02*
X103976726Y-89998257D01*
X103507515Y-90424680D02*
X103615972Y-90019911D01*
X103672489Y-89956176D01*
X103755943Y-89939098D01*
X103866334Y-89968678D01*
X103930069Y-90025195D01*
X103957006Y-90071851D01*
X104206661Y-90612015D02*
X104344698Y-90096855D01*
X104226380Y-90538421D02*
X104253318Y-90585078D01*
X104317052Y-90641595D01*
X104427444Y-90671174D01*
X104510898Y-90654096D01*
X104567415Y-90590362D01*
X104675872Y-90185593D01*
X105236982Y-90888089D02*
X105404598Y-90262537D01*
X105387520Y-90179083D01*
X105360583Y-90132426D01*
X105296848Y-90075909D01*
X105186457Y-90046330D01*
X105103003Y-90063407D01*
X105365159Y-90409726D02*
X105301424Y-90353209D01*
X105154235Y-90313770D01*
X105070781Y-90330847D01*
X105024124Y-90357785D01*
X104967608Y-90421519D01*
X104908449Y-90642302D01*
X104925527Y-90725757D01*
X104952464Y-90772414D01*
X105016199Y-90828930D01*
X105163387Y-90868369D01*
X105246841Y-90851292D01*
X105936128Y-91075425D02*
X106074165Y-90560264D01*
X105604953Y-90986687D02*
X105713411Y-90581918D01*
X105769928Y-90518183D01*
X105853382Y-90501106D01*
X105963773Y-90530685D01*
X106027508Y-90587202D01*
X106054445Y-90633859D01*
X106892855Y-91331779D02*
X107099910Y-90559038D01*
X106902714Y-91294982D02*
X106966449Y-91351498D01*
X107113638Y-91390937D01*
X107197092Y-91373860D01*
X107243749Y-91346922D01*
X107300265Y-91283188D01*
X107359424Y-91062405D01*
X107342346Y-90978951D01*
X107315409Y-90932294D01*
X107251674Y-90875777D01*
X107104486Y-90836338D01*
X107021032Y-90853415D01*
X108051352Y-91129489D02*
X107987618Y-91072972D01*
X107840429Y-91033533D01*
X107756975Y-91050611D01*
X107710318Y-91077548D01*
X107653801Y-91141283D01*
X107594643Y-91362066D01*
X107611720Y-91445520D01*
X107638658Y-91492177D01*
X107702392Y-91548694D01*
X107849581Y-91588133D01*
X107933035Y-91571055D01*
X108392387Y-91181430D02*
X108185332Y-91954171D01*
X108264210Y-91659793D02*
X108327944Y-91716310D01*
X108475133Y-91755749D01*
X108558587Y-91738671D01*
X108605244Y-91711734D01*
X108661761Y-91647999D01*
X108720919Y-91427216D01*
X108703842Y-91343762D01*
X108676904Y-91297105D01*
X108613170Y-91240589D01*
X108465981Y-91201149D01*
X108382527Y-91218227D01*
X110011462Y-91615260D02*
X109804407Y-92388001D01*
X110001603Y-91652057D02*
X109937868Y-91595540D01*
X109790679Y-91556101D01*
X109707225Y-91573179D01*
X109660568Y-91600116D01*
X109604052Y-91663851D01*
X109544893Y-91884634D01*
X109561971Y-91968088D01*
X109588908Y-92014745D01*
X109652643Y-92071262D01*
X109799831Y-92110701D01*
X109883285Y-92093623D01*
X110663952Y-91829533D02*
X110600217Y-91773016D01*
X110453029Y-91733577D01*
X110369574Y-91750655D01*
X110313058Y-91814389D01*
X110234180Y-92108767D01*
X110251257Y-92192221D01*
X110314992Y-92248738D01*
X110462180Y-92288177D01*
X110545635Y-92271099D01*
X110602151Y-92207365D01*
X110621871Y-92133770D01*
X110273619Y-91961578D01*
X110995126Y-91918271D02*
X111078581Y-91901193D01*
X111225769Y-91940632D01*
X111289504Y-91997149D01*
X111306581Y-92080603D01*
X111296722Y-92117400D01*
X111240205Y-92181135D01*
X111156751Y-92198213D01*
X111046359Y-92168633D01*
X110962905Y-92185711D01*
X110906388Y-92249446D01*
X110896529Y-92286243D01*
X110913606Y-92369697D01*
X110977341Y-92426214D01*
X111087732Y-92455793D01*
X111171187Y-92438715D01*
X111667335Y-92058950D02*
X111529299Y-92574110D01*
X111460280Y-92831690D02*
X111433343Y-92785033D01*
X111480000Y-92758096D01*
X111506937Y-92804753D01*
X111460280Y-92831690D01*
X111480000Y-92758096D01*
X112228445Y-92761446D02*
X112396061Y-92135894D01*
X112378983Y-92052440D01*
X112352046Y-92005783D01*
X112288311Y-91949266D01*
X112177920Y-91919687D01*
X112094466Y-91936764D01*
X112356622Y-92283083D02*
X112292887Y-92226566D01*
X112145699Y-92187127D01*
X112062244Y-92204204D01*
X112015588Y-92231142D01*
X111959071Y-92294876D01*
X111899912Y-92515659D01*
X111916990Y-92599114D01*
X111943927Y-92645770D01*
X112007662Y-92702287D01*
X112154850Y-92741726D01*
X112238305Y-92724649D01*
X112596417Y-92860044D02*
X112734453Y-92344883D01*
X112616136Y-92786449D02*
X112643074Y-92833106D01*
X112706808Y-92889623D01*
X112817200Y-92919202D01*
X112900654Y-92902125D01*
X112957170Y-92838390D01*
X113065628Y-92433621D01*
X113386943Y-92559156D02*
X113470397Y-92542079D01*
X113617586Y-92581518D01*
X113681320Y-92638034D01*
X113698398Y-92721489D01*
X113688538Y-92758286D01*
X113632021Y-92822020D01*
X113548567Y-92839098D01*
X113438176Y-92809519D01*
X113354722Y-92826596D01*
X113298205Y-92890331D01*
X113288345Y-92927128D01*
X113305423Y-93010582D01*
X113369157Y-93067099D01*
X113479549Y-93096678D01*
X113563003Y-93079600D01*
X92245331Y-84966456D02*
X92090040Y-85546012D01*
X92493712Y-85033010D02*
X92412369Y-85336587D01*
X92369981Y-85384387D01*
X92307391Y-85397196D01*
X92224597Y-85375011D01*
X92176796Y-85332624D01*
X92156593Y-85297631D01*
X92583370Y-85471144D02*
X92804153Y-85530303D01*
X92614400Y-85686514D02*
X92747506Y-85189752D01*
X92789894Y-85141951D01*
X92852485Y-85129143D01*
X92907680Y-85143932D01*
X92914544Y-85559882D02*
X93135327Y-85619041D01*
X92945574Y-85775252D02*
X93078681Y-85278490D01*
X93121069Y-85230689D01*
X93183659Y-85217881D01*
X93238855Y-85232670D01*
X93328512Y-85670804D02*
X93483804Y-85091249D01*
X93335907Y-85643207D02*
X93383708Y-85685594D01*
X93494100Y-85715173D01*
X93556690Y-85702365D01*
X93591683Y-85682162D01*
X93634071Y-85634361D01*
X93678440Y-85468774D01*
X93665631Y-85406183D01*
X93645428Y-85371191D01*
X93597627Y-85328803D01*
X93487236Y-85299224D01*
X93424645Y-85312032D01*
X93921407Y-85445139D02*
X93983998Y-85432331D01*
X94094389Y-85461910D01*
X94142190Y-85504298D01*
X94154998Y-85566888D01*
X94147604Y-85594486D01*
X94105216Y-85642287D01*
X94042625Y-85655095D01*
X93959832Y-85632911D01*
X93897241Y-85645719D01*
X93854854Y-85693520D01*
X93847459Y-85721118D01*
X93860267Y-85783708D01*
X93908068Y-85826096D01*
X93990862Y-85848280D01*
X94053452Y-85835472D01*
X94410774Y-85605844D02*
X94445767Y-85585641D01*
X94425564Y-85550648D01*
X94390571Y-85570851D01*
X94410774Y-85605844D01*
X94425564Y-85550648D01*
X94329431Y-85909420D02*
X94364424Y-85889217D01*
X94344221Y-85854225D01*
X94309228Y-85874428D01*
X94329431Y-85909420D01*
X94344221Y-85854225D01*
X94952825Y-86342672D02*
X94655723Y-85464422D01*
X95559978Y-86505358D02*
X95262876Y-85627109D01*
X96060703Y-86402893D02*
X96186415Y-85933729D01*
X96173607Y-85871138D01*
X96153403Y-85836145D01*
X96105603Y-85793758D01*
X96022809Y-85771573D01*
X95960218Y-85784381D01*
X96156835Y-86044120D02*
X96109035Y-86001733D01*
X95998643Y-85972153D01*
X95936052Y-85984961D01*
X95901060Y-86005165D01*
X95858672Y-86052965D01*
X95814303Y-86218553D01*
X95827111Y-86281143D01*
X95847314Y-86316136D01*
X95895115Y-86358524D01*
X96005507Y-86388103D01*
X96068097Y-86375295D01*
X96440209Y-86090471D02*
X96336681Y-86476841D01*
X96284918Y-86670026D02*
X96264715Y-86635033D01*
X96299707Y-86614830D01*
X96319910Y-86649823D01*
X96284918Y-86670026D01*
X96299707Y-86614830D01*
X96529867Y-86528605D02*
X96750650Y-86587763D01*
X96560896Y-86743974D02*
X96694003Y-86247212D01*
X96736391Y-86199412D01*
X96798982Y-86186603D01*
X96854177Y-86201393D01*
X97047362Y-86253157D02*
X96892071Y-86832712D01*
X97295743Y-86319710D02*
X97214400Y-86623287D01*
X97172013Y-86671088D01*
X97109422Y-86683896D01*
X97026628Y-86661712D01*
X96978828Y-86619324D01*
X96958624Y-86584331D01*
X97716575Y-86846582D02*
X97820103Y-86460212D01*
X97468195Y-86780029D02*
X97549538Y-86476452D01*
X97591925Y-86428651D01*
X97654516Y-86415843D01*
X97737309Y-86438028D01*
X97785110Y-86480415D01*
X97805313Y-86515408D01*
X98096082Y-86534160D02*
X97940790Y-87113716D01*
X97999949Y-86892933D02*
X98047750Y-86935320D01*
X98158142Y-86964900D01*
X98220732Y-86952091D01*
X98255725Y-86931888D01*
X98298112Y-86884087D01*
X98342481Y-86718500D01*
X98329673Y-86655910D01*
X98309470Y-86620917D01*
X98261669Y-86578529D01*
X98151278Y-86548950D01*
X98088687Y-86561758D01*
X98605652Y-86729858D02*
X98640645Y-86709655D01*
X98620442Y-86674662D01*
X98585449Y-86694865D01*
X98605652Y-86729858D01*
X98620442Y-86674662D01*
X99137407Y-86842762D02*
X99089606Y-86800374D01*
X98979214Y-86770795D01*
X98916624Y-86783603D01*
X98881631Y-86803806D01*
X98839243Y-86851607D01*
X98794874Y-87017194D01*
X98807683Y-87079785D01*
X98827886Y-87114778D01*
X98875686Y-87157165D01*
X98986078Y-87186745D01*
X99048669Y-87173936D01*
X99475976Y-86903902D02*
X99413385Y-86916710D01*
X99378393Y-86936913D01*
X99336005Y-86984714D01*
X99291636Y-87150301D01*
X99304444Y-87212892D01*
X99324647Y-87247885D01*
X99372448Y-87290272D01*
X99455242Y-87312457D01*
X99517833Y-87299648D01*
X99552825Y-87279445D01*
X99595213Y-87231644D01*
X99639582Y-87066057D01*
X99626774Y-87003467D01*
X99606571Y-86968474D01*
X99558770Y-86926086D01*
X99475976Y-86903902D01*
X99917542Y-87022219D02*
X99814014Y-87408589D01*
X99828804Y-87353394D02*
X99849007Y-87388386D01*
X99896808Y-87430774D01*
X99979602Y-87452958D01*
X100042192Y-87440150D01*
X100084580Y-87392349D01*
X100165923Y-87088773D01*
X100084580Y-87392349D02*
X100097388Y-87454940D01*
X100145189Y-87497327D01*
X100227983Y-87519512D01*
X100290573Y-87506704D01*
X100332961Y-87458903D01*
X100414304Y-87155326D01*
X100941565Y-87947350D02*
X100644463Y-87069100D01*
X101262443Y-87412164D02*
X101325034Y-87399355D01*
X101435425Y-87428935D01*
X101483226Y-87471322D01*
X101496035Y-87533913D01*
X101488640Y-87561511D01*
X101446252Y-87609312D01*
X101383662Y-87622120D01*
X101300868Y-87599935D01*
X101238277Y-87612744D01*
X101195890Y-87660545D01*
X101188495Y-87688142D01*
X101201303Y-87750733D01*
X101249104Y-87793121D01*
X101331898Y-87815305D01*
X101394488Y-87802497D01*
X101766600Y-87517673D02*
X101611309Y-88097228D01*
X101762637Y-87753245D02*
X101987383Y-87576831D01*
X101883855Y-87963202D02*
X101722231Y-87683260D01*
X102132236Y-88029755D02*
X102235764Y-87643385D01*
X102147026Y-87974559D02*
X102167229Y-88009552D01*
X102215030Y-88051940D01*
X102297824Y-88074124D01*
X102360414Y-88061316D01*
X102402802Y-88013515D01*
X102484145Y-87709938D01*
X103008505Y-87850440D02*
X102853213Y-88429996D01*
X103001110Y-87878038D02*
X102953309Y-87835650D01*
X102842917Y-87806071D01*
X102780327Y-87818879D01*
X102745334Y-87839082D01*
X102702947Y-87886883D01*
X102658578Y-88052471D01*
X102671386Y-88115061D01*
X102691589Y-88150054D01*
X102739390Y-88192441D01*
X102849781Y-88222021D01*
X102912372Y-88209212D01*
X103429337Y-88377312D02*
X103532864Y-87990942D01*
X103180956Y-88310759D02*
X103262299Y-88007182D01*
X103304687Y-87959381D01*
X103367277Y-87946573D01*
X103450071Y-87968757D01*
X103497872Y-88011145D01*
X103518075Y-88046138D01*
X103705316Y-88451260D02*
X103808843Y-88064890D01*
X103720105Y-88396065D02*
X103740308Y-88431057D01*
X103788109Y-88473445D01*
X103870903Y-88495629D01*
X103933493Y-88482821D01*
X103975881Y-88435020D01*
X104057224Y-88131444D01*
X104478056Y-88658316D02*
X104603768Y-88189152D01*
X104590960Y-88126561D01*
X104570757Y-88091568D01*
X104522956Y-88049181D01*
X104440163Y-88026996D01*
X104377572Y-88039805D01*
X104574189Y-88299543D02*
X104526388Y-88257156D01*
X104415997Y-88227576D01*
X104353406Y-88240385D01*
X104318413Y-88260588D01*
X104276026Y-88308389D01*
X104231657Y-88473976D01*
X104244465Y-88536566D01*
X104264668Y-88571559D01*
X104312469Y-88613947D01*
X104422861Y-88643526D01*
X104485451Y-88630718D01*
X105002416Y-88798817D02*
X105105944Y-88412447D01*
X104754035Y-88732264D02*
X104835378Y-88428687D01*
X104877766Y-88380886D01*
X104940356Y-88368078D01*
X105023150Y-88390263D01*
X105070951Y-88432650D01*
X105091154Y-88467643D01*
X105633204Y-89204471D02*
X105336103Y-88326222D01*
X105820976Y-89166047D02*
X105841179Y-89201039D01*
X105888980Y-89243427D01*
X106026970Y-89280401D01*
X106089560Y-89267593D01*
X106124553Y-89247390D01*
X106166940Y-89199589D01*
X106181730Y-89144393D01*
X106176317Y-89054205D01*
X105933880Y-88634292D01*
X106292653Y-88730425D01*
X106372934Y-89313943D02*
X106393137Y-89348936D01*
X106440938Y-89391323D01*
X106578927Y-89428298D01*
X106641518Y-89415489D01*
X106676510Y-89395286D01*
X106718898Y-89347485D01*
X106733688Y-89292290D01*
X106728274Y-89202101D01*
X106485838Y-88782189D01*
X106844610Y-88878321D01*
X107048091Y-89554010D02*
X107103287Y-89568799D01*
X107165877Y-89555991D01*
X107200870Y-89535788D01*
X107243258Y-89487987D01*
X107300435Y-89384990D01*
X107337409Y-89247001D01*
X107339391Y-89129215D01*
X107326582Y-89066624D01*
X107306379Y-89031631D01*
X107258578Y-88989244D01*
X107203383Y-88974454D01*
X107140792Y-88987262D01*
X107105799Y-89007465D01*
X107063412Y-89055266D01*
X107006235Y-89158263D01*
X106969260Y-89296252D01*
X106967279Y-89414039D01*
X106980087Y-89476629D01*
X107000290Y-89511622D01*
X107048091Y-89554010D01*
X107585790Y-89313555D02*
X108027356Y-89431872D01*
X108666070Y-89366380D02*
X108334896Y-89277642D01*
X108500483Y-89322011D02*
X108345192Y-89901567D01*
X108312180Y-89803983D01*
X108271774Y-89733998D01*
X108223973Y-89691610D01*
X109218028Y-89514277D02*
X108886853Y-89425539D01*
X109052441Y-89469908D02*
X108897149Y-90049463D01*
X108864138Y-89951880D01*
X108823732Y-89881895D01*
X108775931Y-89839507D01*
X109421509Y-90189965D02*
X109476705Y-90204755D01*
X109539295Y-90191946D01*
X109574288Y-90171743D01*
X109616675Y-90123943D01*
X109673853Y-90020946D01*
X109710827Y-89882956D01*
X109712808Y-89765170D01*
X109700000Y-89702579D01*
X109679797Y-89667587D01*
X109631996Y-89625199D01*
X109576800Y-89610410D01*
X109514210Y-89623218D01*
X109479217Y-89643421D01*
X109436829Y-89691222D01*
X109379652Y-89794218D01*
X109342678Y-89932208D01*
X109340697Y-90049994D01*
X109353505Y-90112585D01*
X109373708Y-90147578D01*
X109421509Y-90189965D01*
X109780281Y-90286098D02*
X110128758Y-89758306D01*
X110166652Y-90389625D01*
X110443161Y-90020026D02*
X110719140Y-90093975D01*
X110432335Y-89839649D02*
X110470228Y-90470969D01*
X110818705Y-89943177D01*
X111328275Y-90138874D02*
X111308072Y-90103882D01*
X111232673Y-90054099D01*
X111177477Y-90039310D01*
X111087289Y-90044723D01*
X111017304Y-90085129D01*
X110974916Y-90132930D01*
X110917739Y-90235927D01*
X110895554Y-90318720D01*
X110893573Y-90436507D01*
X110906381Y-90499097D01*
X110946787Y-90569083D01*
X111022186Y-90618865D01*
X111077382Y-90633655D01*
X111167570Y-90628241D01*
X111202563Y-90608038D01*
X111532287Y-90371015D02*
X111973853Y-90489332D01*
X112122669Y-90706684D02*
X112343452Y-90765842D01*
X112153699Y-90922053D02*
X112286806Y-90425291D01*
X112329194Y-90377490D01*
X112391784Y-90364682D01*
X112446980Y-90379472D01*
X112722959Y-90453420D02*
X112660368Y-90466228D01*
X112625375Y-90486431D01*
X112582988Y-90534232D01*
X112538619Y-90699820D01*
X112551427Y-90762410D01*
X112571630Y-90797403D01*
X112619431Y-90839790D01*
X112702225Y-90861975D01*
X112764815Y-90849167D01*
X112799808Y-90828964D01*
X112842196Y-90781163D01*
X112886565Y-90615575D01*
X112873756Y-90552985D01*
X112853553Y-90517992D01*
X112805752Y-90475605D01*
X112722959Y-90453420D01*
X113105366Y-90792520D02*
X113546932Y-90910838D01*
X114002757Y-91417507D02*
X113726778Y-91343559D01*
X113773129Y-91060185D01*
X113793332Y-91095178D01*
X113841133Y-91137565D01*
X113979122Y-91174539D01*
X114041713Y-91161731D01*
X114076705Y-91141528D01*
X114119093Y-91093727D01*
X114156067Y-90955738D01*
X114143259Y-90893147D01*
X114123056Y-90858154D01*
X114075255Y-90815767D01*
X113937265Y-90778793D01*
X113874675Y-90791601D01*
X113839682Y-90811804D01*
X114195942Y-91469271D02*
X114544419Y-90941479D01*
X114582313Y-91572798D01*
X114871631Y-91265790D02*
X115313197Y-91384107D01*
X115437847Y-91802038D02*
X115796619Y-91898171D01*
X115662593Y-91625624D01*
X115745386Y-91647808D01*
X115807977Y-91635000D01*
X115842970Y-91614797D01*
X115885357Y-91566996D01*
X115922331Y-91429007D01*
X115909523Y-91366416D01*
X115889320Y-91331423D01*
X115841519Y-91289036D01*
X115675932Y-91244667D01*
X115613341Y-91257475D01*
X115578349Y-91277678D01*
X116128325Y-91543361D02*
X116404304Y-91617309D01*
X116117498Y-91362984D02*
X116155392Y-91994304D01*
X116503868Y-91466512D01*
X116637895Y-91739059D02*
X117079461Y-91857376D01*
X117342632Y-91868734D02*
X117618610Y-91942682D01*
X117331805Y-91688357D02*
X117369699Y-92319676D01*
X117718175Y-91791884D01*
X118159741Y-91910202D02*
X118004450Y-92489757D01*
X118152346Y-91937800D02*
X118104545Y-91895412D01*
X117994154Y-91865833D01*
X117931563Y-91878641D01*
X117896571Y-91898844D01*
X117854183Y-91946645D01*
X117809814Y-92112232D01*
X117822622Y-92174823D01*
X117842825Y-92209815D01*
X117890626Y-92252203D01*
X118001018Y-92281782D01*
X118063608Y-92268974D01*
X118684101Y-92050703D02*
X118602758Y-92354280D01*
X118560370Y-92402081D01*
X118497780Y-92414889D01*
X118387388Y-92385310D01*
X118339587Y-92342922D01*
X118676706Y-92078301D02*
X118628905Y-92035914D01*
X118490916Y-91998940D01*
X118428325Y-92011748D01*
X118385938Y-92059549D01*
X118371148Y-92114745D01*
X118383956Y-92177335D01*
X118431757Y-92219723D01*
X118569747Y-92256697D01*
X118617547Y-92299084D01*
X118856552Y-92511022D02*
X119011844Y-91931467D01*
X118863947Y-92483424D02*
X118911748Y-92525812D01*
X119022139Y-92555391D01*
X119084730Y-92542583D01*
X119119723Y-92522380D01*
X119162110Y-92474579D01*
X119206479Y-92308992D01*
X119193671Y-92246401D01*
X119173468Y-92211408D01*
X119125667Y-92169021D01*
X119015276Y-92139441D01*
X118952685Y-92152250D01*
X119298118Y-92629339D02*
X119518901Y-92688498D01*
X119329148Y-92844709D02*
X119462255Y-92347947D01*
X119504643Y-92300146D01*
X119567233Y-92287338D01*
X119622429Y-92302128D01*
X120029002Y-92440648D02*
X119981201Y-92398260D01*
X119870810Y-92368681D01*
X119808219Y-92381489D01*
X119765832Y-92429290D01*
X119706673Y-92650073D01*
X119719481Y-92712664D01*
X119767282Y-92755051D01*
X119877674Y-92784631D01*
X119940264Y-92771823D01*
X119982652Y-92724022D01*
X119997442Y-92668826D01*
X119736252Y-92539682D01*
X120312376Y-92486998D02*
X120208848Y-92873369D01*
X120238428Y-92762977D02*
X120251236Y-92825568D01*
X120271439Y-92860560D01*
X120319240Y-92902948D01*
X120374436Y-92917738D01*
D11*
G36*
X88896090Y-74742348D02*
G01*
X88817546Y-74742778D01*
X88760702Y-74743942D01*
X88721895Y-74746207D01*
X88697462Y-74749940D01*
X88683738Y-74755506D01*
X88677060Y-74763273D01*
X88673764Y-74773605D01*
X88673444Y-74774943D01*
X88668438Y-74799079D01*
X88659171Y-74846701D01*
X88646608Y-74912741D01*
X88631713Y-74992128D01*
X88615449Y-75079796D01*
X88614881Y-75082875D01*
X88598590Y-75168789D01*
X88583348Y-75244696D01*
X88570139Y-75306045D01*
X88559946Y-75348282D01*
X88553752Y-75366855D01*
X88553457Y-75367184D01*
X88535212Y-75376253D01*
X88497595Y-75391367D01*
X88448729Y-75409262D01*
X88448457Y-75409358D01*
X88386907Y-75432493D01*
X88314343Y-75461965D01*
X88245943Y-75491597D01*
X88242706Y-75493062D01*
X88131298Y-75543626D01*
X87884601Y-75375160D01*
X87808923Y-75323803D01*
X87740369Y-75277889D01*
X87682912Y-75240030D01*
X87640524Y-75212837D01*
X87617175Y-75198921D01*
X87614958Y-75197889D01*
X87597990Y-75202484D01*
X87566299Y-75224655D01*
X87518648Y-75265447D01*
X87453802Y-75325905D01*
X87387603Y-75390227D01*
X87323786Y-75453612D01*
X87266671Y-75511451D01*
X87219695Y-75560175D01*
X87186297Y-75596210D01*
X87169915Y-75615984D01*
X87169306Y-75617002D01*
X87167495Y-75630572D01*
X87174317Y-75652733D01*
X87191460Y-75686478D01*
X87220607Y-75734800D01*
X87263445Y-75800692D01*
X87320552Y-75885517D01*
X87371234Y-75960177D01*
X87416539Y-76027140D01*
X87453850Y-76082516D01*
X87480548Y-76122420D01*
X87494015Y-76142962D01*
X87494863Y-76144356D01*
X87493219Y-76164038D01*
X87480755Y-76202293D01*
X87459952Y-76251889D01*
X87452538Y-76267728D01*
X87420186Y-76338290D01*
X87385672Y-76418353D01*
X87357635Y-76487629D01*
X87337432Y-76539045D01*
X87321385Y-76578119D01*
X87312112Y-76598541D01*
X87310959Y-76600114D01*
X87293904Y-76602721D01*
X87253702Y-76609863D01*
X87195698Y-76620523D01*
X87125237Y-76633685D01*
X87047665Y-76648333D01*
X86968328Y-76663449D01*
X86892569Y-76678018D01*
X86825736Y-76691022D01*
X86773172Y-76701445D01*
X86740224Y-76708270D01*
X86732143Y-76710199D01*
X86723795Y-76714962D01*
X86717494Y-76725718D01*
X86712955Y-76746098D01*
X86709896Y-76779734D01*
X86708033Y-76830255D01*
X86707082Y-76901292D01*
X86706760Y-76996476D01*
X86706743Y-77035492D01*
X86706743Y-77352799D01*
X86782943Y-77367839D01*
X86825337Y-77375995D01*
X86888600Y-77387899D01*
X86965038Y-77402116D01*
X87046957Y-77417210D01*
X87069600Y-77421355D01*
X87145194Y-77436053D01*
X87211047Y-77450505D01*
X87261634Y-77463375D01*
X87291426Y-77473322D01*
X87296388Y-77476287D01*
X87308574Y-77497283D01*
X87326047Y-77537967D01*
X87345423Y-77590322D01*
X87349266Y-77601600D01*
X87374661Y-77671523D01*
X87406183Y-77750418D01*
X87437031Y-77821266D01*
X87437183Y-77821595D01*
X87488553Y-77932733D01*
X87319601Y-78181253D01*
X87150648Y-78429772D01*
X87367571Y-78647058D01*
X87433181Y-78711726D01*
X87493021Y-78768733D01*
X87543733Y-78815033D01*
X87581954Y-78847584D01*
X87604325Y-78863343D01*
X87607534Y-78864343D01*
X87626374Y-78856469D01*
X87664820Y-78834578D01*
X87718670Y-78801267D01*
X87783724Y-78759131D01*
X87854060Y-78711943D01*
X87925445Y-78663810D01*
X87989092Y-78621928D01*
X88040959Y-78588871D01*
X88077005Y-78567218D01*
X88093133Y-78559543D01*
X88112811Y-78566037D01*
X88150125Y-78583150D01*
X88197379Y-78607326D01*
X88202388Y-78610013D01*
X88266023Y-78641927D01*
X88309659Y-78657579D01*
X88336798Y-78657745D01*
X88350943Y-78643204D01*
X88351025Y-78643000D01*
X88358095Y-78625779D01*
X88374958Y-78584899D01*
X88400305Y-78523525D01*
X88432829Y-78444819D01*
X88471222Y-78351947D01*
X88514178Y-78248072D01*
X88555778Y-78147502D01*
X88601496Y-78036516D01*
X88643474Y-77933703D01*
X88680452Y-77842215D01*
X88711173Y-77765201D01*
X88734378Y-77705815D01*
X88748810Y-77667209D01*
X88753257Y-77652800D01*
X88742104Y-77636272D01*
X88712931Y-77609930D01*
X88674029Y-77580887D01*
X88563243Y-77489039D01*
X88476649Y-77383759D01*
X88415284Y-77267266D01*
X88380185Y-77141776D01*
X88372392Y-77009507D01*
X88378057Y-76948457D01*
X88408922Y-76821795D01*
X88462080Y-76709941D01*
X88534233Y-76614001D01*
X88622083Y-76535076D01*
X88722335Y-76474270D01*
X88831690Y-76432687D01*
X88946853Y-76411428D01*
X89064525Y-76411599D01*
X89181410Y-76434301D01*
X89294211Y-76480638D01*
X89399631Y-76551713D01*
X89443632Y-76591911D01*
X89528021Y-76695129D01*
X89586778Y-76807925D01*
X89620296Y-76927010D01*
X89628965Y-77049095D01*
X89613177Y-77170893D01*
X89573322Y-77289116D01*
X89509793Y-77400475D01*
X89422979Y-77501684D01*
X89325971Y-77580887D01*
X89285563Y-77611162D01*
X89257018Y-77637219D01*
X89246743Y-77652825D01*
X89252123Y-77669843D01*
X89267425Y-77710500D01*
X89291388Y-77771642D01*
X89322756Y-77850119D01*
X89360268Y-77942780D01*
X89402667Y-78046472D01*
X89444337Y-78147526D01*
X89490310Y-78258607D01*
X89532893Y-78361541D01*
X89570779Y-78453165D01*
X89602660Y-78530316D01*
X89627229Y-78589831D01*
X89643180Y-78628544D01*
X89649090Y-78643000D01*
X89663052Y-78657685D01*
X89690060Y-78657642D01*
X89733587Y-78642099D01*
X89797110Y-78610284D01*
X89797612Y-78610013D01*
X89845440Y-78585323D01*
X89884103Y-78567338D01*
X89905905Y-78559614D01*
X89906867Y-78559543D01*
X89923279Y-78567378D01*
X89959513Y-78589165D01*
X90011526Y-78622328D01*
X90075275Y-78664291D01*
X90145940Y-78711943D01*
X90217884Y-78760191D01*
X90282726Y-78802151D01*
X90336265Y-78835227D01*
X90374303Y-78856821D01*
X90392467Y-78864343D01*
X90409192Y-78854457D01*
X90442820Y-78826826D01*
X90489990Y-78784495D01*
X90547342Y-78730505D01*
X90611516Y-78667899D01*
X90632503Y-78646983D01*
X90849501Y-78429623D01*
X90684332Y-78187220D01*
X90634136Y-78112781D01*
X90590081Y-78045972D01*
X90554638Y-77990665D01*
X90530281Y-77950729D01*
X90519478Y-77930036D01*
X90519162Y-77928563D01*
X90524857Y-77909058D01*
X90540174Y-77869822D01*
X90562463Y-77817430D01*
X90578107Y-77782355D01*
X90607359Y-77715201D01*
X90634906Y-77647358D01*
X90656263Y-77590034D01*
X90662065Y-77572572D01*
X90678548Y-77525938D01*
X90694660Y-77489905D01*
X90703510Y-77476287D01*
X90723040Y-77467952D01*
X90765666Y-77456137D01*
X90825855Y-77442181D01*
X90898078Y-77427422D01*
X90930400Y-77421355D01*
X91012478Y-77406273D01*
X91091205Y-77391669D01*
X91158891Y-77378980D01*
X91207840Y-77369642D01*
X91217057Y-77367839D01*
X91293257Y-77352799D01*
X91293257Y-77035492D01*
X91293086Y-76931154D01*
X91292384Y-76852213D01*
X91290866Y-76795038D01*
X91288251Y-76755999D01*
X91284254Y-76731465D01*
X91278591Y-76717805D01*
X91270980Y-76711389D01*
X91267857Y-76710199D01*
X91249022Y-76705980D01*
X91207412Y-76697562D01*
X91148370Y-76685961D01*
X91077243Y-76672195D01*
X90999375Y-76657280D01*
X90920113Y-76642232D01*
X90844802Y-76628069D01*
X90778787Y-76615806D01*
X90727413Y-76606461D01*
X90696025Y-76601050D01*
X90689041Y-76600114D01*
X90682715Y-76587596D01*
X90668710Y-76554246D01*
X90649645Y-76506377D01*
X90642366Y-76487629D01*
X90613004Y-76415195D01*
X90578429Y-76335170D01*
X90547463Y-76267728D01*
X90524677Y-76216159D01*
X90509518Y-76173785D01*
X90504458Y-76147834D01*
X90505264Y-76144356D01*
X90515959Y-76127936D01*
X90540380Y-76091417D01*
X90575905Y-76038687D01*
X90619913Y-75973635D01*
X90669783Y-75900151D01*
X90679644Y-75885645D01*
X90737508Y-75799704D01*
X90780044Y-75734261D01*
X90808946Y-75686304D01*
X90825910Y-75652820D01*
X90832633Y-75630795D01*
X90830810Y-75617217D01*
X90830764Y-75617131D01*
X90816414Y-75599297D01*
X90784677Y-75564817D01*
X90738990Y-75517268D01*
X90682796Y-75460222D01*
X90619532Y-75397255D01*
X90612398Y-75390227D01*
X90532670Y-75313020D01*
X90471143Y-75256330D01*
X90426579Y-75219110D01*
X90397743Y-75200315D01*
X90385042Y-75197889D01*
X90366506Y-75208471D01*
X90328039Y-75232916D01*
X90273614Y-75268612D01*
X90207202Y-75312947D01*
X90132775Y-75363311D01*
X90115399Y-75375160D01*
X89868703Y-75543626D01*
X89757294Y-75493062D01*
X89689543Y-75463595D01*
X89616817Y-75433959D01*
X89554297Y-75410330D01*
X89551543Y-75409358D01*
X89502640Y-75391457D01*
X89464943Y-75376320D01*
X89446575Y-75367210D01*
X89446544Y-75367184D01*
X89440715Y-75350717D01*
X89430808Y-75310219D01*
X89417805Y-75250242D01*
X89402691Y-75175340D01*
X89386448Y-75090064D01*
X89385119Y-75082875D01*
X89368825Y-74995014D01*
X89353867Y-74915260D01*
X89341209Y-74848681D01*
X89331814Y-74800347D01*
X89326646Y-74775325D01*
X89326556Y-74774943D01*
X89323411Y-74764299D01*
X89317296Y-74756262D01*
X89304547Y-74750467D01*
X89281500Y-74746547D01*
X89244491Y-74744135D01*
X89189856Y-74742865D01*
X89113933Y-74742371D01*
X89013056Y-74742286D01*
X89000000Y-74742286D01*
X88896090Y-74742348D01*
X88896090Y-74742348D01*
G37*
X88896090Y-74742348D02*
X88817546Y-74742778D01*
X88760702Y-74743942D01*
X88721895Y-74746207D01*
X88697462Y-74749940D01*
X88683738Y-74755506D01*
X88677060Y-74763273D01*
X88673764Y-74773605D01*
X88673444Y-74774943D01*
X88668438Y-74799079D01*
X88659171Y-74846701D01*
X88646608Y-74912741D01*
X88631713Y-74992128D01*
X88615449Y-75079796D01*
X88614881Y-75082875D01*
X88598590Y-75168789D01*
X88583348Y-75244696D01*
X88570139Y-75306045D01*
X88559946Y-75348282D01*
X88553752Y-75366855D01*
X88553457Y-75367184D01*
X88535212Y-75376253D01*
X88497595Y-75391367D01*
X88448729Y-75409262D01*
X88448457Y-75409358D01*
X88386907Y-75432493D01*
X88314343Y-75461965D01*
X88245943Y-75491597D01*
X88242706Y-75493062D01*
X88131298Y-75543626D01*
X87884601Y-75375160D01*
X87808923Y-75323803D01*
X87740369Y-75277889D01*
X87682912Y-75240030D01*
X87640524Y-75212837D01*
X87617175Y-75198921D01*
X87614958Y-75197889D01*
X87597990Y-75202484D01*
X87566299Y-75224655D01*
X87518648Y-75265447D01*
X87453802Y-75325905D01*
X87387603Y-75390227D01*
X87323786Y-75453612D01*
X87266671Y-75511451D01*
X87219695Y-75560175D01*
X87186297Y-75596210D01*
X87169915Y-75615984D01*
X87169306Y-75617002D01*
X87167495Y-75630572D01*
X87174317Y-75652733D01*
X87191460Y-75686478D01*
X87220607Y-75734800D01*
X87263445Y-75800692D01*
X87320552Y-75885517D01*
X87371234Y-75960177D01*
X87416539Y-76027140D01*
X87453850Y-76082516D01*
X87480548Y-76122420D01*
X87494015Y-76142962D01*
X87494863Y-76144356D01*
X87493219Y-76164038D01*
X87480755Y-76202293D01*
X87459952Y-76251889D01*
X87452538Y-76267728D01*
X87420186Y-76338290D01*
X87385672Y-76418353D01*
X87357635Y-76487629D01*
X87337432Y-76539045D01*
X87321385Y-76578119D01*
X87312112Y-76598541D01*
X87310959Y-76600114D01*
X87293904Y-76602721D01*
X87253702Y-76609863D01*
X87195698Y-76620523D01*
X87125237Y-76633685D01*
X87047665Y-76648333D01*
X86968328Y-76663449D01*
X86892569Y-76678018D01*
X86825736Y-76691022D01*
X86773172Y-76701445D01*
X86740224Y-76708270D01*
X86732143Y-76710199D01*
X86723795Y-76714962D01*
X86717494Y-76725718D01*
X86712955Y-76746098D01*
X86709896Y-76779734D01*
X86708033Y-76830255D01*
X86707082Y-76901292D01*
X86706760Y-76996476D01*
X86706743Y-77035492D01*
X86706743Y-77352799D01*
X86782943Y-77367839D01*
X86825337Y-77375995D01*
X86888600Y-77387899D01*
X86965038Y-77402116D01*
X87046957Y-77417210D01*
X87069600Y-77421355D01*
X87145194Y-77436053D01*
X87211047Y-77450505D01*
X87261634Y-77463375D01*
X87291426Y-77473322D01*
X87296388Y-77476287D01*
X87308574Y-77497283D01*
X87326047Y-77537967D01*
X87345423Y-77590322D01*
X87349266Y-77601600D01*
X87374661Y-77671523D01*
X87406183Y-77750418D01*
X87437031Y-77821266D01*
X87437183Y-77821595D01*
X87488553Y-77932733D01*
X87319601Y-78181253D01*
X87150648Y-78429772D01*
X87367571Y-78647058D01*
X87433181Y-78711726D01*
X87493021Y-78768733D01*
X87543733Y-78815033D01*
X87581954Y-78847584D01*
X87604325Y-78863343D01*
X87607534Y-78864343D01*
X87626374Y-78856469D01*
X87664820Y-78834578D01*
X87718670Y-78801267D01*
X87783724Y-78759131D01*
X87854060Y-78711943D01*
X87925445Y-78663810D01*
X87989092Y-78621928D01*
X88040959Y-78588871D01*
X88077005Y-78567218D01*
X88093133Y-78559543D01*
X88112811Y-78566037D01*
X88150125Y-78583150D01*
X88197379Y-78607326D01*
X88202388Y-78610013D01*
X88266023Y-78641927D01*
X88309659Y-78657579D01*
X88336798Y-78657745D01*
X88350943Y-78643204D01*
X88351025Y-78643000D01*
X88358095Y-78625779D01*
X88374958Y-78584899D01*
X88400305Y-78523525D01*
X88432829Y-78444819D01*
X88471222Y-78351947D01*
X88514178Y-78248072D01*
X88555778Y-78147502D01*
X88601496Y-78036516D01*
X88643474Y-77933703D01*
X88680452Y-77842215D01*
X88711173Y-77765201D01*
X88734378Y-77705815D01*
X88748810Y-77667209D01*
X88753257Y-77652800D01*
X88742104Y-77636272D01*
X88712931Y-77609930D01*
X88674029Y-77580887D01*
X88563243Y-77489039D01*
X88476649Y-77383759D01*
X88415284Y-77267266D01*
X88380185Y-77141776D01*
X88372392Y-77009507D01*
X88378057Y-76948457D01*
X88408922Y-76821795D01*
X88462080Y-76709941D01*
X88534233Y-76614001D01*
X88622083Y-76535076D01*
X88722335Y-76474270D01*
X88831690Y-76432687D01*
X88946853Y-76411428D01*
X89064525Y-76411599D01*
X89181410Y-76434301D01*
X89294211Y-76480638D01*
X89399631Y-76551713D01*
X89443632Y-76591911D01*
X89528021Y-76695129D01*
X89586778Y-76807925D01*
X89620296Y-76927010D01*
X89628965Y-77049095D01*
X89613177Y-77170893D01*
X89573322Y-77289116D01*
X89509793Y-77400475D01*
X89422979Y-77501684D01*
X89325971Y-77580887D01*
X89285563Y-77611162D01*
X89257018Y-77637219D01*
X89246743Y-77652825D01*
X89252123Y-77669843D01*
X89267425Y-77710500D01*
X89291388Y-77771642D01*
X89322756Y-77850119D01*
X89360268Y-77942780D01*
X89402667Y-78046472D01*
X89444337Y-78147526D01*
X89490310Y-78258607D01*
X89532893Y-78361541D01*
X89570779Y-78453165D01*
X89602660Y-78530316D01*
X89627229Y-78589831D01*
X89643180Y-78628544D01*
X89649090Y-78643000D01*
X89663052Y-78657685D01*
X89690060Y-78657642D01*
X89733587Y-78642099D01*
X89797110Y-78610284D01*
X89797612Y-78610013D01*
X89845440Y-78585323D01*
X89884103Y-78567338D01*
X89905905Y-78559614D01*
X89906867Y-78559543D01*
X89923279Y-78567378D01*
X89959513Y-78589165D01*
X90011526Y-78622328D01*
X90075275Y-78664291D01*
X90145940Y-78711943D01*
X90217884Y-78760191D01*
X90282726Y-78802151D01*
X90336265Y-78835227D01*
X90374303Y-78856821D01*
X90392467Y-78864343D01*
X90409192Y-78854457D01*
X90442820Y-78826826D01*
X90489990Y-78784495D01*
X90547342Y-78730505D01*
X90611516Y-78667899D01*
X90632503Y-78646983D01*
X90849501Y-78429623D01*
X90684332Y-78187220D01*
X90634136Y-78112781D01*
X90590081Y-78045972D01*
X90554638Y-77990665D01*
X90530281Y-77950729D01*
X90519478Y-77930036D01*
X90519162Y-77928563D01*
X90524857Y-77909058D01*
X90540174Y-77869822D01*
X90562463Y-77817430D01*
X90578107Y-77782355D01*
X90607359Y-77715201D01*
X90634906Y-77647358D01*
X90656263Y-77590034D01*
X90662065Y-77572572D01*
X90678548Y-77525938D01*
X90694660Y-77489905D01*
X90703510Y-77476287D01*
X90723040Y-77467952D01*
X90765666Y-77456137D01*
X90825855Y-77442181D01*
X90898078Y-77427422D01*
X90930400Y-77421355D01*
X91012478Y-77406273D01*
X91091205Y-77391669D01*
X91158891Y-77378980D01*
X91207840Y-77369642D01*
X91217057Y-77367839D01*
X91293257Y-77352799D01*
X91293257Y-77035492D01*
X91293086Y-76931154D01*
X91292384Y-76852213D01*
X91290866Y-76795038D01*
X91288251Y-76755999D01*
X91284254Y-76731465D01*
X91278591Y-76717805D01*
X91270980Y-76711389D01*
X91267857Y-76710199D01*
X91249022Y-76705980D01*
X91207412Y-76697562D01*
X91148370Y-76685961D01*
X91077243Y-76672195D01*
X90999375Y-76657280D01*
X90920113Y-76642232D01*
X90844802Y-76628069D01*
X90778787Y-76615806D01*
X90727413Y-76606461D01*
X90696025Y-76601050D01*
X90689041Y-76600114D01*
X90682715Y-76587596D01*
X90668710Y-76554246D01*
X90649645Y-76506377D01*
X90642366Y-76487629D01*
X90613004Y-76415195D01*
X90578429Y-76335170D01*
X90547463Y-76267728D01*
X90524677Y-76216159D01*
X90509518Y-76173785D01*
X90504458Y-76147834D01*
X90505264Y-76144356D01*
X90515959Y-76127936D01*
X90540380Y-76091417D01*
X90575905Y-76038687D01*
X90619913Y-75973635D01*
X90669783Y-75900151D01*
X90679644Y-75885645D01*
X90737508Y-75799704D01*
X90780044Y-75734261D01*
X90808946Y-75686304D01*
X90825910Y-75652820D01*
X90832633Y-75630795D01*
X90830810Y-75617217D01*
X90830764Y-75617131D01*
X90816414Y-75599297D01*
X90784677Y-75564817D01*
X90738990Y-75517268D01*
X90682796Y-75460222D01*
X90619532Y-75397255D01*
X90612398Y-75390227D01*
X90532670Y-75313020D01*
X90471143Y-75256330D01*
X90426579Y-75219110D01*
X90397743Y-75200315D01*
X90385042Y-75197889D01*
X90366506Y-75208471D01*
X90328039Y-75232916D01*
X90273614Y-75268612D01*
X90207202Y-75312947D01*
X90132775Y-75363311D01*
X90115399Y-75375160D01*
X89868703Y-75543626D01*
X89757294Y-75493062D01*
X89689543Y-75463595D01*
X89616817Y-75433959D01*
X89554297Y-75410330D01*
X89551543Y-75409358D01*
X89502640Y-75391457D01*
X89464943Y-75376320D01*
X89446575Y-75367210D01*
X89446544Y-75367184D01*
X89440715Y-75350717D01*
X89430808Y-75310219D01*
X89417805Y-75250242D01*
X89402691Y-75175340D01*
X89386448Y-75090064D01*
X89385119Y-75082875D01*
X89368825Y-74995014D01*
X89353867Y-74915260D01*
X89341209Y-74848681D01*
X89331814Y-74800347D01*
X89326646Y-74775325D01*
X89326556Y-74774943D01*
X89323411Y-74764299D01*
X89317296Y-74756262D01*
X89304547Y-74750467D01*
X89281500Y-74746547D01*
X89244491Y-74744135D01*
X89189856Y-74742865D01*
X89113933Y-74742371D01*
X89013056Y-74742286D01*
X89000000Y-74742286D01*
X88896090Y-74742348D01*
G36*
X85846405Y-79466966D02*
G01*
X85788979Y-79504497D01*
X85761281Y-79538096D01*
X85739338Y-79599064D01*
X85737595Y-79647308D01*
X85741543Y-79711816D01*
X85890314Y-79776934D01*
X85962651Y-79810202D01*
X86009916Y-79836964D01*
X86034493Y-79860144D01*
X86038763Y-79882667D01*
X86025111Y-79907455D01*
X86010057Y-79923886D01*
X85966254Y-79950235D01*
X85918611Y-79952081D01*
X85874855Y-79931546D01*
X85842711Y-79890752D01*
X85836962Y-79876347D01*
X85809424Y-79831356D01*
X85777742Y-79812182D01*
X85734286Y-79795779D01*
X85734286Y-79857966D01*
X85738128Y-79900283D01*
X85753177Y-79935969D01*
X85784720Y-79976943D01*
X85789408Y-79982267D01*
X85824494Y-80018720D01*
X85854653Y-80038283D01*
X85892385Y-80047283D01*
X85923665Y-80050230D01*
X85979615Y-80050965D01*
X86019445Y-80041660D01*
X86044292Y-80027846D01*
X86083344Y-79997467D01*
X86110375Y-79964613D01*
X86127483Y-79923294D01*
X86136762Y-79867521D01*
X86140307Y-79791305D01*
X86140590Y-79752622D01*
X86139628Y-79706247D01*
X86051993Y-79706247D01*
X86050977Y-79731126D01*
X86048444Y-79735200D01*
X86031726Y-79729665D01*
X85995751Y-79715017D01*
X85947669Y-79694190D01*
X85937614Y-79689714D01*
X85876848Y-79658814D01*
X85843368Y-79631657D01*
X85836010Y-79606220D01*
X85853609Y-79580481D01*
X85868144Y-79569109D01*
X85920590Y-79546364D01*
X85969678Y-79550122D01*
X86010773Y-79577884D01*
X86039242Y-79627152D01*
X86048369Y-79666257D01*
X86051993Y-79706247D01*
X86139628Y-79706247D01*
X86138715Y-79662249D01*
X86131804Y-79595384D01*
X86118116Y-79546695D01*
X86095904Y-79510849D01*
X86063426Y-79482513D01*
X86049267Y-79473355D01*
X85984947Y-79449507D01*
X85914527Y-79448006D01*
X85846405Y-79466966D01*
X85846405Y-79466966D01*
G37*
X85846405Y-79466966D02*
X85788979Y-79504497D01*
X85761281Y-79538096D01*
X85739338Y-79599064D01*
X85737595Y-79647308D01*
X85741543Y-79711816D01*
X85890314Y-79776934D01*
X85962651Y-79810202D01*
X86009916Y-79836964D01*
X86034493Y-79860144D01*
X86038763Y-79882667D01*
X86025111Y-79907455D01*
X86010057Y-79923886D01*
X85966254Y-79950235D01*
X85918611Y-79952081D01*
X85874855Y-79931546D01*
X85842711Y-79890752D01*
X85836962Y-79876347D01*
X85809424Y-79831356D01*
X85777742Y-79812182D01*
X85734286Y-79795779D01*
X85734286Y-79857966D01*
X85738128Y-79900283D01*
X85753177Y-79935969D01*
X85784720Y-79976943D01*
X85789408Y-79982267D01*
X85824494Y-80018720D01*
X85854653Y-80038283D01*
X85892385Y-80047283D01*
X85923665Y-80050230D01*
X85979615Y-80050965D01*
X86019445Y-80041660D01*
X86044292Y-80027846D01*
X86083344Y-79997467D01*
X86110375Y-79964613D01*
X86127483Y-79923294D01*
X86136762Y-79867521D01*
X86140307Y-79791305D01*
X86140590Y-79752622D01*
X86139628Y-79706247D01*
X86051993Y-79706247D01*
X86050977Y-79731126D01*
X86048444Y-79735200D01*
X86031726Y-79729665D01*
X85995751Y-79715017D01*
X85947669Y-79694190D01*
X85937614Y-79689714D01*
X85876848Y-79658814D01*
X85843368Y-79631657D01*
X85836010Y-79606220D01*
X85853609Y-79580481D01*
X85868144Y-79569109D01*
X85920590Y-79546364D01*
X85969678Y-79550122D01*
X86010773Y-79577884D01*
X86039242Y-79627152D01*
X86048369Y-79666257D01*
X86051993Y-79706247D01*
X86139628Y-79706247D01*
X86138715Y-79662249D01*
X86131804Y-79595384D01*
X86118116Y-79546695D01*
X86095904Y-79510849D01*
X86063426Y-79482513D01*
X86049267Y-79473355D01*
X85984947Y-79449507D01*
X85914527Y-79448006D01*
X85846405Y-79466966D01*
G36*
X86347400Y-79458752D02*
G01*
X86330052Y-79466334D01*
X86288644Y-79499128D01*
X86253235Y-79546547D01*
X86231336Y-79597151D01*
X86227771Y-79622098D01*
X86239721Y-79656927D01*
X86265933Y-79675357D01*
X86294036Y-79686516D01*
X86306905Y-79688572D01*
X86313171Y-79673649D01*
X86325544Y-79641175D01*
X86330972Y-79626502D01*
X86361410Y-79575744D01*
X86405480Y-79550427D01*
X86461990Y-79551206D01*
X86466175Y-79552203D01*
X86496345Y-79566507D01*
X86518524Y-79594393D01*
X86533673Y-79639287D01*
X86542750Y-79704615D01*
X86546714Y-79793804D01*
X86547086Y-79841261D01*
X86547270Y-79916071D01*
X86548478Y-79967069D01*
X86551691Y-79999471D01*
X86557891Y-80018495D01*
X86568060Y-80029356D01*
X86583181Y-80037272D01*
X86584054Y-80037670D01*
X86613172Y-80049981D01*
X86627597Y-80054514D01*
X86629814Y-80040809D01*
X86631711Y-80002925D01*
X86633153Y-79945715D01*
X86634002Y-79874027D01*
X86634171Y-79821565D01*
X86633308Y-79720047D01*
X86629930Y-79643032D01*
X86622858Y-79586023D01*
X86610912Y-79544526D01*
X86592910Y-79514043D01*
X86567673Y-79490080D01*
X86542753Y-79473355D01*
X86482829Y-79451097D01*
X86413089Y-79446076D01*
X86347400Y-79458752D01*
X86347400Y-79458752D01*
G37*
X86347400Y-79458752D02*
X86330052Y-79466334D01*
X86288644Y-79499128D01*
X86253235Y-79546547D01*
X86231336Y-79597151D01*
X86227771Y-79622098D01*
X86239721Y-79656927D01*
X86265933Y-79675357D01*
X86294036Y-79686516D01*
X86306905Y-79688572D01*
X86313171Y-79673649D01*
X86325544Y-79641175D01*
X86330972Y-79626502D01*
X86361410Y-79575744D01*
X86405480Y-79550427D01*
X86461990Y-79551206D01*
X86466175Y-79552203D01*
X86496345Y-79566507D01*
X86518524Y-79594393D01*
X86533673Y-79639287D01*
X86542750Y-79704615D01*
X86546714Y-79793804D01*
X86547086Y-79841261D01*
X86547270Y-79916071D01*
X86548478Y-79967069D01*
X86551691Y-79999471D01*
X86557891Y-80018495D01*
X86568060Y-80029356D01*
X86583181Y-80037272D01*
X86584054Y-80037670D01*
X86613172Y-80049981D01*
X86627597Y-80054514D01*
X86629814Y-80040809D01*
X86631711Y-80002925D01*
X86633153Y-79945715D01*
X86634002Y-79874027D01*
X86634171Y-79821565D01*
X86633308Y-79720047D01*
X86629930Y-79643032D01*
X86622858Y-79586023D01*
X86610912Y-79544526D01*
X86592910Y-79514043D01*
X86567673Y-79490080D01*
X86542753Y-79473355D01*
X86482829Y-79451097D01*
X86413089Y-79446076D01*
X86347400Y-79458752D01*
G36*
X86855124Y-79456335D02*
G01*
X86813333Y-79475344D01*
X86780531Y-79498378D01*
X86756497Y-79524133D01*
X86739903Y-79557358D01*
X86729423Y-79602800D01*
X86723729Y-79665207D01*
X86721493Y-79749327D01*
X86721257Y-79804721D01*
X86721257Y-80020826D01*
X86758226Y-80037670D01*
X86787344Y-80049981D01*
X86801769Y-80054514D01*
X86804528Y-80041025D01*
X86806718Y-80004653D01*
X86808058Y-79951542D01*
X86808343Y-79909372D01*
X86809566Y-79848447D01*
X86812864Y-79800115D01*
X86817679Y-79770518D01*
X86821504Y-79764229D01*
X86847217Y-79770652D01*
X86887582Y-79787125D01*
X86934321Y-79809458D01*
X86979155Y-79833457D01*
X87013807Y-79854930D01*
X87029998Y-79869685D01*
X87030062Y-79869845D01*
X87028670Y-79897152D01*
X87016182Y-79923219D01*
X86994257Y-79944392D01*
X86962257Y-79951474D01*
X86934908Y-79950649D01*
X86896174Y-79950042D01*
X86875842Y-79959116D01*
X86863631Y-79983092D01*
X86862091Y-79987613D01*
X86856797Y-80021806D01*
X86870953Y-80042568D01*
X86907852Y-80052462D01*
X86947711Y-80054292D01*
X87019438Y-80040727D01*
X87056568Y-80021355D01*
X87102424Y-79975845D01*
X87126744Y-79919983D01*
X87128927Y-79860957D01*
X87108371Y-79805953D01*
X87077451Y-79771486D01*
X87046580Y-79752189D01*
X86998058Y-79727759D01*
X86941515Y-79702985D01*
X86932090Y-79699199D01*
X86869981Y-79671791D01*
X86834178Y-79647634D01*
X86822663Y-79623619D01*
X86833420Y-79596635D01*
X86851886Y-79575543D01*
X86895531Y-79549572D01*
X86943554Y-79547624D01*
X86987594Y-79567637D01*
X87019291Y-79607551D01*
X87023451Y-79617848D01*
X87047673Y-79655724D01*
X87083035Y-79683842D01*
X87127657Y-79706917D01*
X87127657Y-79641485D01*
X87125031Y-79601506D01*
X87113770Y-79569997D01*
X87088801Y-79536378D01*
X87064831Y-79510484D01*
X87027559Y-79473817D01*
X86998599Y-79454121D01*
X86967495Y-79446220D01*
X86932287Y-79444914D01*
X86855124Y-79456335D01*
X86855124Y-79456335D01*
G37*
X86855124Y-79456335D02*
X86813333Y-79475344D01*
X86780531Y-79498378D01*
X86756497Y-79524133D01*
X86739903Y-79557358D01*
X86729423Y-79602800D01*
X86723729Y-79665207D01*
X86721493Y-79749327D01*
X86721257Y-79804721D01*
X86721257Y-80020826D01*
X86758226Y-80037670D01*
X86787344Y-80049981D01*
X86801769Y-80054514D01*
X86804528Y-80041025D01*
X86806718Y-80004653D01*
X86808058Y-79951542D01*
X86808343Y-79909372D01*
X86809566Y-79848447D01*
X86812864Y-79800115D01*
X86817679Y-79770518D01*
X86821504Y-79764229D01*
X86847217Y-79770652D01*
X86887582Y-79787125D01*
X86934321Y-79809458D01*
X86979155Y-79833457D01*
X87013807Y-79854930D01*
X87029998Y-79869685D01*
X87030062Y-79869845D01*
X87028670Y-79897152D01*
X87016182Y-79923219D01*
X86994257Y-79944392D01*
X86962257Y-79951474D01*
X86934908Y-79950649D01*
X86896174Y-79950042D01*
X86875842Y-79959116D01*
X86863631Y-79983092D01*
X86862091Y-79987613D01*
X86856797Y-80021806D01*
X86870953Y-80042568D01*
X86907852Y-80052462D01*
X86947711Y-80054292D01*
X87019438Y-80040727D01*
X87056568Y-80021355D01*
X87102424Y-79975845D01*
X87126744Y-79919983D01*
X87128927Y-79860957D01*
X87108371Y-79805953D01*
X87077451Y-79771486D01*
X87046580Y-79752189D01*
X86998058Y-79727759D01*
X86941515Y-79702985D01*
X86932090Y-79699199D01*
X86869981Y-79671791D01*
X86834178Y-79647634D01*
X86822663Y-79623619D01*
X86833420Y-79596635D01*
X86851886Y-79575543D01*
X86895531Y-79549572D01*
X86943554Y-79547624D01*
X86987594Y-79567637D01*
X87019291Y-79607551D01*
X87023451Y-79617848D01*
X87047673Y-79655724D01*
X87083035Y-79683842D01*
X87127657Y-79706917D01*
X87127657Y-79641485D01*
X87125031Y-79601506D01*
X87113770Y-79569997D01*
X87088801Y-79536378D01*
X87064831Y-79510484D01*
X87027559Y-79473817D01*
X86998599Y-79454121D01*
X86967495Y-79446220D01*
X86932287Y-79444914D01*
X86855124Y-79456335D01*
G36*
X87220167Y-79458663D02*
G01*
X87217952Y-79496850D01*
X87216216Y-79554886D01*
X87215101Y-79628180D01*
X87214743Y-79705055D01*
X87214743Y-79965196D01*
X87260674Y-80011127D01*
X87292325Y-80039429D01*
X87320110Y-80050893D01*
X87358085Y-80050168D01*
X87373160Y-80048321D01*
X87420274Y-80042948D01*
X87459244Y-80039869D01*
X87468743Y-80039585D01*
X87500767Y-80041445D01*
X87546568Y-80046114D01*
X87564326Y-80048321D01*
X87607943Y-80051735D01*
X87637255Y-80044320D01*
X87666320Y-80021427D01*
X87676812Y-80011127D01*
X87722743Y-79965196D01*
X87722743Y-79478602D01*
X87685774Y-79461758D01*
X87653941Y-79449282D01*
X87635317Y-79444914D01*
X87630542Y-79458718D01*
X87626079Y-79497286D01*
X87622225Y-79556356D01*
X87619278Y-79631663D01*
X87617857Y-79695286D01*
X87613886Y-79945657D01*
X87579241Y-79950556D01*
X87547732Y-79947131D01*
X87532292Y-79936041D01*
X87527977Y-79915308D01*
X87524292Y-79871145D01*
X87521531Y-79809146D01*
X87519988Y-79734909D01*
X87519765Y-79696706D01*
X87519543Y-79476783D01*
X87473834Y-79460849D01*
X87441482Y-79450015D01*
X87423885Y-79444962D01*
X87423377Y-79444914D01*
X87421612Y-79458648D01*
X87419671Y-79496730D01*
X87417718Y-79554482D01*
X87415916Y-79627227D01*
X87414657Y-79695286D01*
X87410686Y-79945657D01*
X87323600Y-79945657D01*
X87319604Y-79717240D01*
X87315608Y-79488822D01*
X87273153Y-79466868D01*
X87241808Y-79451793D01*
X87223256Y-79444951D01*
X87222721Y-79444914D01*
X87220167Y-79458663D01*
X87220167Y-79458663D01*
G37*
X87220167Y-79458663D02*
X87217952Y-79496850D01*
X87216216Y-79554886D01*
X87215101Y-79628180D01*
X87214743Y-79705055D01*
X87214743Y-79965196D01*
X87260674Y-80011127D01*
X87292325Y-80039429D01*
X87320110Y-80050893D01*
X87358085Y-80050168D01*
X87373160Y-80048321D01*
X87420274Y-80042948D01*
X87459244Y-80039869D01*
X87468743Y-80039585D01*
X87500767Y-80041445D01*
X87546568Y-80046114D01*
X87564326Y-80048321D01*
X87607943Y-80051735D01*
X87637255Y-80044320D01*
X87666320Y-80021427D01*
X87676812Y-80011127D01*
X87722743Y-79965196D01*
X87722743Y-79478602D01*
X87685774Y-79461758D01*
X87653941Y-79449282D01*
X87635317Y-79444914D01*
X87630542Y-79458718D01*
X87626079Y-79497286D01*
X87622225Y-79556356D01*
X87619278Y-79631663D01*
X87617857Y-79695286D01*
X87613886Y-79945657D01*
X87579241Y-79950556D01*
X87547732Y-79947131D01*
X87532292Y-79936041D01*
X87527977Y-79915308D01*
X87524292Y-79871145D01*
X87521531Y-79809146D01*
X87519988Y-79734909D01*
X87519765Y-79696706D01*
X87519543Y-79476783D01*
X87473834Y-79460849D01*
X87441482Y-79450015D01*
X87423885Y-79444962D01*
X87423377Y-79444914D01*
X87421612Y-79458648D01*
X87419671Y-79496730D01*
X87417718Y-79554482D01*
X87415916Y-79627227D01*
X87414657Y-79695286D01*
X87410686Y-79945657D01*
X87323600Y-79945657D01*
X87319604Y-79717240D01*
X87315608Y-79488822D01*
X87273153Y-79466868D01*
X87241808Y-79451793D01*
X87223256Y-79444951D01*
X87222721Y-79444914D01*
X87220167Y-79458663D01*
G36*
X87809883Y-79565358D02*
G01*
X87810067Y-79673837D01*
X87810781Y-79757287D01*
X87812325Y-79819704D01*
X87814999Y-79865085D01*
X87819106Y-79897429D01*
X87824945Y-79920733D01*
X87832818Y-79938995D01*
X87838779Y-79949418D01*
X87888145Y-80005945D01*
X87950736Y-80041377D01*
X88019987Y-80054090D01*
X88089332Y-80042463D01*
X88130625Y-80021568D01*
X88173975Y-79985422D01*
X88203519Y-79941276D01*
X88221345Y-79883462D01*
X88229537Y-79806313D01*
X88230698Y-79749714D01*
X88230542Y-79745647D01*
X88129143Y-79745647D01*
X88128524Y-79810550D01*
X88125686Y-79853514D01*
X88119160Y-79881622D01*
X88107477Y-79901953D01*
X88093517Y-79917288D01*
X88046635Y-79946890D01*
X87996299Y-79949419D01*
X87948724Y-79924705D01*
X87945021Y-79921356D01*
X87929217Y-79903935D01*
X87919307Y-79883209D01*
X87913942Y-79852362D01*
X87911772Y-79804577D01*
X87911429Y-79751748D01*
X87912173Y-79685381D01*
X87915252Y-79641106D01*
X87921939Y-79612009D01*
X87933504Y-79591173D01*
X87942987Y-79580107D01*
X87987040Y-79552198D01*
X88037776Y-79548843D01*
X88086204Y-79570159D01*
X88095550Y-79578073D01*
X88111460Y-79595647D01*
X88121390Y-79616587D01*
X88126722Y-79647782D01*
X88128837Y-79696122D01*
X88129143Y-79745647D01*
X88230542Y-79745647D01*
X88227190Y-79658568D01*
X88215274Y-79590086D01*
X88192865Y-79538600D01*
X88157876Y-79498443D01*
X88130625Y-79477861D01*
X88081093Y-79455625D01*
X88023684Y-79445304D01*
X87970318Y-79448067D01*
X87940457Y-79459212D01*
X87928739Y-79462383D01*
X87920963Y-79450557D01*
X87915535Y-79418866D01*
X87911429Y-79370593D01*
X87906933Y-79316829D01*
X87900687Y-79284482D01*
X87889324Y-79265985D01*
X87869472Y-79253770D01*
X87857000Y-79248362D01*
X87809829Y-79228601D01*
X87809883Y-79565358D01*
X87809883Y-79565358D01*
G37*
X87809883Y-79565358D02*
X87810067Y-79673837D01*
X87810781Y-79757287D01*
X87812325Y-79819704D01*
X87814999Y-79865085D01*
X87819106Y-79897429D01*
X87824945Y-79920733D01*
X87832818Y-79938995D01*
X87838779Y-79949418D01*
X87888145Y-80005945D01*
X87950736Y-80041377D01*
X88019987Y-80054090D01*
X88089332Y-80042463D01*
X88130625Y-80021568D01*
X88173975Y-79985422D01*
X88203519Y-79941276D01*
X88221345Y-79883462D01*
X88229537Y-79806313D01*
X88230698Y-79749714D01*
X88230542Y-79745647D01*
X88129143Y-79745647D01*
X88128524Y-79810550D01*
X88125686Y-79853514D01*
X88119160Y-79881622D01*
X88107477Y-79901953D01*
X88093517Y-79917288D01*
X88046635Y-79946890D01*
X87996299Y-79949419D01*
X87948724Y-79924705D01*
X87945021Y-79921356D01*
X87929217Y-79903935D01*
X87919307Y-79883209D01*
X87913942Y-79852362D01*
X87911772Y-79804577D01*
X87911429Y-79751748D01*
X87912173Y-79685381D01*
X87915252Y-79641106D01*
X87921939Y-79612009D01*
X87933504Y-79591173D01*
X87942987Y-79580107D01*
X87987040Y-79552198D01*
X88037776Y-79548843D01*
X88086204Y-79570159D01*
X88095550Y-79578073D01*
X88111460Y-79595647D01*
X88121390Y-79616587D01*
X88126722Y-79647782D01*
X88128837Y-79696122D01*
X88129143Y-79745647D01*
X88230542Y-79745647D01*
X88227190Y-79658568D01*
X88215274Y-79590086D01*
X88192865Y-79538600D01*
X88157876Y-79498443D01*
X88130625Y-79477861D01*
X88081093Y-79455625D01*
X88023684Y-79445304D01*
X87970318Y-79448067D01*
X87940457Y-79459212D01*
X87928739Y-79462383D01*
X87920963Y-79450557D01*
X87915535Y-79418866D01*
X87911429Y-79370593D01*
X87906933Y-79316829D01*
X87900687Y-79284482D01*
X87889324Y-79265985D01*
X87869472Y-79253770D01*
X87857000Y-79248362D01*
X87809829Y-79228601D01*
X87809883Y-79565358D01*
G36*
X88470074Y-79449755D02*
G01*
X88404142Y-79474084D01*
X88350727Y-79517117D01*
X88329836Y-79547409D01*
X88307061Y-79602994D01*
X88307534Y-79643186D01*
X88331438Y-79670217D01*
X88340283Y-79674813D01*
X88378470Y-79689144D01*
X88397972Y-79685472D01*
X88404578Y-79661407D01*
X88404914Y-79648114D01*
X88417008Y-79599210D01*
X88448529Y-79564999D01*
X88492341Y-79548476D01*
X88541305Y-79552634D01*
X88581106Y-79574227D01*
X88594550Y-79586544D01*
X88604079Y-79601487D01*
X88610515Y-79624075D01*
X88614683Y-79659328D01*
X88617403Y-79712266D01*
X88619498Y-79787907D01*
X88620040Y-79811857D01*
X88622019Y-79893790D01*
X88624269Y-79951455D01*
X88627643Y-79989608D01*
X88632994Y-80013004D01*
X88641176Y-80026398D01*
X88653041Y-80034545D01*
X88660638Y-80038144D01*
X88692898Y-80050452D01*
X88711889Y-80054514D01*
X88718164Y-80040948D01*
X88721994Y-79999934D01*
X88723400Y-79930999D01*
X88722402Y-79833669D01*
X88722092Y-79818657D01*
X88719899Y-79729859D01*
X88717307Y-79665019D01*
X88713618Y-79619067D01*
X88708136Y-79586935D01*
X88700165Y-79563553D01*
X88689007Y-79543852D01*
X88683170Y-79535410D01*
X88649704Y-79498057D01*
X88612273Y-79469003D01*
X88607691Y-79466467D01*
X88540574Y-79446443D01*
X88470074Y-79449755D01*
X88470074Y-79449755D01*
G37*
X88470074Y-79449755D02*
X88404142Y-79474084D01*
X88350727Y-79517117D01*
X88329836Y-79547409D01*
X88307061Y-79602994D01*
X88307534Y-79643186D01*
X88331438Y-79670217D01*
X88340283Y-79674813D01*
X88378470Y-79689144D01*
X88397972Y-79685472D01*
X88404578Y-79661407D01*
X88404914Y-79648114D01*
X88417008Y-79599210D01*
X88448529Y-79564999D01*
X88492341Y-79548476D01*
X88541305Y-79552634D01*
X88581106Y-79574227D01*
X88594550Y-79586544D01*
X88604079Y-79601487D01*
X88610515Y-79624075D01*
X88614683Y-79659328D01*
X88617403Y-79712266D01*
X88619498Y-79787907D01*
X88620040Y-79811857D01*
X88622019Y-79893790D01*
X88624269Y-79951455D01*
X88627643Y-79989608D01*
X88632994Y-80013004D01*
X88641176Y-80026398D01*
X88653041Y-80034545D01*
X88660638Y-80038144D01*
X88692898Y-80050452D01*
X88711889Y-80054514D01*
X88718164Y-80040948D01*
X88721994Y-79999934D01*
X88723400Y-79930999D01*
X88722402Y-79833669D01*
X88722092Y-79818657D01*
X88719899Y-79729859D01*
X88717307Y-79665019D01*
X88713618Y-79619067D01*
X88708136Y-79586935D01*
X88700165Y-79563553D01*
X88689007Y-79543852D01*
X88683170Y-79535410D01*
X88649704Y-79498057D01*
X88612273Y-79469003D01*
X88607691Y-79466467D01*
X88540574Y-79446443D01*
X88470074Y-79449755D01*
G36*
X88960256Y-79450968D02*
G01*
X88903384Y-79472087D01*
X88902733Y-79472493D01*
X88867560Y-79498380D01*
X88841593Y-79528633D01*
X88823330Y-79568058D01*
X88811268Y-79621462D01*
X88803904Y-79693651D01*
X88799736Y-79789432D01*
X88799371Y-79803078D01*
X88794124Y-80008842D01*
X88838284Y-80031678D01*
X88870237Y-80047110D01*
X88889530Y-80054423D01*
X88890422Y-80054514D01*
X88893761Y-80041022D01*
X88896413Y-80004626D01*
X88898044Y-79951452D01*
X88898400Y-79908393D01*
X88898408Y-79838641D01*
X88901597Y-79794837D01*
X88912712Y-79773944D01*
X88936499Y-79772925D01*
X88977704Y-79788741D01*
X89039914Y-79817815D01*
X89085659Y-79841963D01*
X89109187Y-79862913D01*
X89116104Y-79885747D01*
X89116114Y-79886877D01*
X89104701Y-79926212D01*
X89070908Y-79947462D01*
X89019191Y-79950539D01*
X88981939Y-79950006D01*
X88962297Y-79960735D01*
X88950048Y-79986505D01*
X88942998Y-80019337D01*
X88953158Y-80037966D01*
X88956983Y-80040632D01*
X88992999Y-80051340D01*
X89043434Y-80052856D01*
X89095374Y-80045759D01*
X89132178Y-80032788D01*
X89183062Y-79989585D01*
X89211986Y-79929446D01*
X89217714Y-79882462D01*
X89213343Y-79840082D01*
X89197525Y-79805488D01*
X89166203Y-79774763D01*
X89115322Y-79743990D01*
X89040824Y-79709252D01*
X89036286Y-79707288D01*
X88969179Y-79676287D01*
X88927768Y-79650862D01*
X88910019Y-79628014D01*
X88913893Y-79604745D01*
X88937357Y-79578056D01*
X88944373Y-79571914D01*
X88991370Y-79548100D01*
X89040067Y-79549103D01*
X89082478Y-79572451D01*
X89110616Y-79615675D01*
X89113231Y-79624160D01*
X89138692Y-79665308D01*
X89170999Y-79685128D01*
X89217714Y-79704770D01*
X89217714Y-79653950D01*
X89203504Y-79580082D01*
X89161325Y-79512327D01*
X89139376Y-79489661D01*
X89089483Y-79460569D01*
X89026033Y-79447400D01*
X88960256Y-79450968D01*
X88960256Y-79450968D01*
G37*
X88960256Y-79450968D02*
X88903384Y-79472087D01*
X88902733Y-79472493D01*
X88867560Y-79498380D01*
X88841593Y-79528633D01*
X88823330Y-79568058D01*
X88811268Y-79621462D01*
X88803904Y-79693651D01*
X88799736Y-79789432D01*
X88799371Y-79803078D01*
X88794124Y-80008842D01*
X88838284Y-80031678D01*
X88870237Y-80047110D01*
X88889530Y-80054423D01*
X88890422Y-80054514D01*
X88893761Y-80041022D01*
X88896413Y-80004626D01*
X88898044Y-79951452D01*
X88898400Y-79908393D01*
X88898408Y-79838641D01*
X88901597Y-79794837D01*
X88912712Y-79773944D01*
X88936499Y-79772925D01*
X88977704Y-79788741D01*
X89039914Y-79817815D01*
X89085659Y-79841963D01*
X89109187Y-79862913D01*
X89116104Y-79885747D01*
X89116114Y-79886877D01*
X89104701Y-79926212D01*
X89070908Y-79947462D01*
X89019191Y-79950539D01*
X88981939Y-79950006D01*
X88962297Y-79960735D01*
X88950048Y-79986505D01*
X88942998Y-80019337D01*
X88953158Y-80037966D01*
X88956983Y-80040632D01*
X88992999Y-80051340D01*
X89043434Y-80052856D01*
X89095374Y-80045759D01*
X89132178Y-80032788D01*
X89183062Y-79989585D01*
X89211986Y-79929446D01*
X89217714Y-79882462D01*
X89213343Y-79840082D01*
X89197525Y-79805488D01*
X89166203Y-79774763D01*
X89115322Y-79743990D01*
X89040824Y-79709252D01*
X89036286Y-79707288D01*
X88969179Y-79676287D01*
X88927768Y-79650862D01*
X88910019Y-79628014D01*
X88913893Y-79604745D01*
X88937357Y-79578056D01*
X88944373Y-79571914D01*
X88991370Y-79548100D01*
X89040067Y-79549103D01*
X89082478Y-79572451D01*
X89110616Y-79615675D01*
X89113231Y-79624160D01*
X89138692Y-79665308D01*
X89170999Y-79685128D01*
X89217714Y-79704770D01*
X89217714Y-79653950D01*
X89203504Y-79580082D01*
X89161325Y-79512327D01*
X89139376Y-79489661D01*
X89089483Y-79460569D01*
X89026033Y-79447400D01*
X88960256Y-79450968D01*
G36*
X89624114Y-79351289D02*
G01*
X89619861Y-79410613D01*
X89614975Y-79445572D01*
X89608205Y-79460820D01*
X89598298Y-79461015D01*
X89595086Y-79459195D01*
X89552356Y-79446015D01*
X89496773Y-79446785D01*
X89440263Y-79460333D01*
X89404918Y-79477861D01*
X89368679Y-79505861D01*
X89342187Y-79537549D01*
X89324001Y-79577813D01*
X89312678Y-79631543D01*
X89306778Y-79703626D01*
X89304857Y-79798951D01*
X89304823Y-79817237D01*
X89304800Y-80022646D01*
X89350509Y-80038580D01*
X89382973Y-80049420D01*
X89400785Y-80054468D01*
X89401309Y-80054514D01*
X89403063Y-80040828D01*
X89404556Y-80003076D01*
X89405674Y-79946224D01*
X89406303Y-79875234D01*
X89406400Y-79832073D01*
X89406602Y-79746973D01*
X89407642Y-79685981D01*
X89410169Y-79644177D01*
X89414836Y-79616642D01*
X89422293Y-79598456D01*
X89433189Y-79584698D01*
X89439993Y-79578073D01*
X89486728Y-79551375D01*
X89537728Y-79549375D01*
X89583999Y-79571955D01*
X89592556Y-79580107D01*
X89605107Y-79595436D01*
X89613812Y-79613618D01*
X89619369Y-79639909D01*
X89622474Y-79679562D01*
X89623824Y-79737832D01*
X89624114Y-79818173D01*
X89624114Y-80022646D01*
X89669823Y-80038580D01*
X89702287Y-80049420D01*
X89720099Y-80054468D01*
X89720623Y-80054514D01*
X89721963Y-80040623D01*
X89723172Y-80001439D01*
X89724199Y-79940700D01*
X89724998Y-79862141D01*
X89725519Y-79769498D01*
X89725714Y-79666509D01*
X89725714Y-79269342D01*
X89678543Y-79249444D01*
X89631371Y-79229547D01*
X89624114Y-79351289D01*
X89624114Y-79351289D01*
G37*
X89624114Y-79351289D02*
X89619861Y-79410613D01*
X89614975Y-79445572D01*
X89608205Y-79460820D01*
X89598298Y-79461015D01*
X89595086Y-79459195D01*
X89552356Y-79446015D01*
X89496773Y-79446785D01*
X89440263Y-79460333D01*
X89404918Y-79477861D01*
X89368679Y-79505861D01*
X89342187Y-79537549D01*
X89324001Y-79577813D01*
X89312678Y-79631543D01*
X89306778Y-79703626D01*
X89304857Y-79798951D01*
X89304823Y-79817237D01*
X89304800Y-80022646D01*
X89350509Y-80038580D01*
X89382973Y-80049420D01*
X89400785Y-80054468D01*
X89401309Y-80054514D01*
X89403063Y-80040828D01*
X89404556Y-80003076D01*
X89405674Y-79946224D01*
X89406303Y-79875234D01*
X89406400Y-79832073D01*
X89406602Y-79746973D01*
X89407642Y-79685981D01*
X89410169Y-79644177D01*
X89414836Y-79616642D01*
X89422293Y-79598456D01*
X89433189Y-79584698D01*
X89439993Y-79578073D01*
X89486728Y-79551375D01*
X89537728Y-79549375D01*
X89583999Y-79571955D01*
X89592556Y-79580107D01*
X89605107Y-79595436D01*
X89613812Y-79613618D01*
X89619369Y-79639909D01*
X89622474Y-79679562D01*
X89623824Y-79737832D01*
X89624114Y-79818173D01*
X89624114Y-80022646D01*
X89669823Y-80038580D01*
X89702287Y-80049420D01*
X89720099Y-80054468D01*
X89720623Y-80054514D01*
X89721963Y-80040623D01*
X89723172Y-80001439D01*
X89724199Y-79940700D01*
X89724998Y-79862141D01*
X89725519Y-79769498D01*
X89725714Y-79666509D01*
X89725714Y-79269342D01*
X89678543Y-79249444D01*
X89631371Y-79229547D01*
X89624114Y-79351289D01*
G36*
X90831697Y-79431239D02*
G01*
X90774473Y-79469735D01*
X90730251Y-79525335D01*
X90703833Y-79596086D01*
X90698490Y-79648162D01*
X90699097Y-79669893D01*
X90704178Y-79686531D01*
X90718145Y-79701437D01*
X90745411Y-79717973D01*
X90790388Y-79739498D01*
X90857489Y-79769374D01*
X90857829Y-79769524D01*
X90919593Y-79797813D01*
X90970241Y-79822933D01*
X91004596Y-79842179D01*
X91017482Y-79852848D01*
X91017486Y-79852934D01*
X91006128Y-79876166D01*
X90979569Y-79901774D01*
X90949077Y-79920221D01*
X90933630Y-79923886D01*
X90891485Y-79911212D01*
X90855192Y-79879471D01*
X90837483Y-79844572D01*
X90820448Y-79818845D01*
X90787078Y-79789546D01*
X90747851Y-79764235D01*
X90713244Y-79750471D01*
X90706007Y-79749714D01*
X90697861Y-79762160D01*
X90697370Y-79793972D01*
X90703357Y-79836866D01*
X90714643Y-79882558D01*
X90730050Y-79922761D01*
X90730829Y-79924322D01*
X90777196Y-79989062D01*
X90837289Y-80033097D01*
X90905535Y-80054711D01*
X90976362Y-80052185D01*
X91044196Y-80023804D01*
X91047212Y-80021808D01*
X91100573Y-79973448D01*
X91135660Y-79910352D01*
X91155078Y-79827387D01*
X91157684Y-79804078D01*
X91162299Y-79694055D01*
X91156767Y-79642748D01*
X91017486Y-79642748D01*
X91015676Y-79674753D01*
X91005778Y-79684093D01*
X90981102Y-79677105D01*
X90942205Y-79660587D01*
X90898725Y-79639881D01*
X90897644Y-79639333D01*
X90860791Y-79619949D01*
X90846000Y-79607013D01*
X90849647Y-79593451D01*
X90865005Y-79575632D01*
X90904077Y-79549845D01*
X90946154Y-79547950D01*
X90983897Y-79566717D01*
X91009966Y-79602915D01*
X91017486Y-79642748D01*
X91156767Y-79642748D01*
X91152806Y-79606027D01*
X91128450Y-79536212D01*
X91094544Y-79487302D01*
X91033347Y-79437878D01*
X90965937Y-79413359D01*
X90897120Y-79411797D01*
X90831697Y-79431239D01*
X90831697Y-79431239D01*
G37*
X90831697Y-79431239D02*
X90774473Y-79469735D01*
X90730251Y-79525335D01*
X90703833Y-79596086D01*
X90698490Y-79648162D01*
X90699097Y-79669893D01*
X90704178Y-79686531D01*
X90718145Y-79701437D01*
X90745411Y-79717973D01*
X90790388Y-79739498D01*
X90857489Y-79769374D01*
X90857829Y-79769524D01*
X90919593Y-79797813D01*
X90970241Y-79822933D01*
X91004596Y-79842179D01*
X91017482Y-79852848D01*
X91017486Y-79852934D01*
X91006128Y-79876166D01*
X90979569Y-79901774D01*
X90949077Y-79920221D01*
X90933630Y-79923886D01*
X90891485Y-79911212D01*
X90855192Y-79879471D01*
X90837483Y-79844572D01*
X90820448Y-79818845D01*
X90787078Y-79789546D01*
X90747851Y-79764235D01*
X90713244Y-79750471D01*
X90706007Y-79749714D01*
X90697861Y-79762160D01*
X90697370Y-79793972D01*
X90703357Y-79836866D01*
X90714643Y-79882558D01*
X90730050Y-79922761D01*
X90730829Y-79924322D01*
X90777196Y-79989062D01*
X90837289Y-80033097D01*
X90905535Y-80054711D01*
X90976362Y-80052185D01*
X91044196Y-80023804D01*
X91047212Y-80021808D01*
X91100573Y-79973448D01*
X91135660Y-79910352D01*
X91155078Y-79827387D01*
X91157684Y-79804078D01*
X91162299Y-79694055D01*
X91156767Y-79642748D01*
X91017486Y-79642748D01*
X91015676Y-79674753D01*
X91005778Y-79684093D01*
X90981102Y-79677105D01*
X90942205Y-79660587D01*
X90898725Y-79639881D01*
X90897644Y-79639333D01*
X90860791Y-79619949D01*
X90846000Y-79607013D01*
X90849647Y-79593451D01*
X90865005Y-79575632D01*
X90904077Y-79549845D01*
X90946154Y-79547950D01*
X90983897Y-79566717D01*
X91009966Y-79602915D01*
X91017486Y-79642748D01*
X91156767Y-79642748D01*
X91152806Y-79606027D01*
X91128450Y-79536212D01*
X91094544Y-79487302D01*
X91033347Y-79437878D01*
X90965937Y-79413359D01*
X90897120Y-79411797D01*
X90831697Y-79431239D01*
G36*
X91958885Y-79421962D02*
G01*
X91890855Y-79457733D01*
X91840649Y-79515301D01*
X91822815Y-79552312D01*
X91808937Y-79607882D01*
X91801833Y-79678096D01*
X91801160Y-79754727D01*
X91806573Y-79829552D01*
X91817730Y-79894342D01*
X91834286Y-79940873D01*
X91839374Y-79948887D01*
X91899645Y-80008707D01*
X91971231Y-80044535D01*
X92048908Y-80055020D01*
X92127452Y-80038810D01*
X92149311Y-80029092D01*
X92191878Y-79999143D01*
X92229237Y-79959433D01*
X92232768Y-79954397D01*
X92247119Y-79930124D01*
X92256606Y-79904178D01*
X92262210Y-79870022D01*
X92264914Y-79821119D01*
X92265701Y-79750935D01*
X92265714Y-79735200D01*
X92265678Y-79730192D01*
X92120571Y-79730192D01*
X92119727Y-79796430D01*
X92116404Y-79840386D01*
X92109417Y-79868779D01*
X92097584Y-79888325D01*
X92091543Y-79894857D01*
X92056814Y-79919680D01*
X92023097Y-79918548D01*
X91989005Y-79897016D01*
X91968671Y-79874029D01*
X91956629Y-79840478D01*
X91949866Y-79787569D01*
X91949402Y-79781399D01*
X91948248Y-79685513D01*
X91960312Y-79614299D01*
X91985430Y-79568194D01*
X92023440Y-79547635D01*
X92037008Y-79546514D01*
X92072636Y-79552152D01*
X92097006Y-79571686D01*
X92111907Y-79609042D01*
X92119125Y-79668150D01*
X92120571Y-79730192D01*
X92265678Y-79730192D01*
X92265174Y-79660413D01*
X92262904Y-79608159D01*
X92257932Y-79571949D01*
X92249287Y-79545299D01*
X92235995Y-79521722D01*
X92233057Y-79517338D01*
X92183687Y-79458249D01*
X92129891Y-79423947D01*
X92064398Y-79410331D01*
X92042158Y-79409665D01*
X91958885Y-79421962D01*
X91958885Y-79421962D01*
G37*
X91958885Y-79421962D02*
X91890855Y-79457733D01*
X91840649Y-79515301D01*
X91822815Y-79552312D01*
X91808937Y-79607882D01*
X91801833Y-79678096D01*
X91801160Y-79754727D01*
X91806573Y-79829552D01*
X91817730Y-79894342D01*
X91834286Y-79940873D01*
X91839374Y-79948887D01*
X91899645Y-80008707D01*
X91971231Y-80044535D01*
X92048908Y-80055020D01*
X92127452Y-80038810D01*
X92149311Y-80029092D01*
X92191878Y-79999143D01*
X92229237Y-79959433D01*
X92232768Y-79954397D01*
X92247119Y-79930124D01*
X92256606Y-79904178D01*
X92262210Y-79870022D01*
X92264914Y-79821119D01*
X92265701Y-79750935D01*
X92265714Y-79735200D01*
X92265678Y-79730192D01*
X92120571Y-79730192D01*
X92119727Y-79796430D01*
X92116404Y-79840386D01*
X92109417Y-79868779D01*
X92097584Y-79888325D01*
X92091543Y-79894857D01*
X92056814Y-79919680D01*
X92023097Y-79918548D01*
X91989005Y-79897016D01*
X91968671Y-79874029D01*
X91956629Y-79840478D01*
X91949866Y-79787569D01*
X91949402Y-79781399D01*
X91948248Y-79685513D01*
X91960312Y-79614299D01*
X91985430Y-79568194D01*
X92023440Y-79547635D01*
X92037008Y-79546514D01*
X92072636Y-79552152D01*
X92097006Y-79571686D01*
X92111907Y-79609042D01*
X92119125Y-79668150D01*
X92120571Y-79730192D01*
X92265678Y-79730192D01*
X92265174Y-79660413D01*
X92262904Y-79608159D01*
X92257932Y-79571949D01*
X92249287Y-79545299D01*
X92235995Y-79521722D01*
X92233057Y-79517338D01*
X92183687Y-79458249D01*
X92129891Y-79423947D01*
X92064398Y-79410331D01*
X92042158Y-79409665D01*
X91958885Y-79421962D01*
G36*
X90283907Y-79427780D02*
G01*
X90237328Y-79454723D01*
X90204943Y-79481466D01*
X90181258Y-79509484D01*
X90164941Y-79543748D01*
X90154661Y-79589227D01*
X90149086Y-79650892D01*
X90146884Y-79733711D01*
X90146629Y-79793246D01*
X90146629Y-80012391D01*
X90208314Y-80040044D01*
X90270000Y-80067697D01*
X90277257Y-79827670D01*
X90280256Y-79738028D01*
X90283402Y-79672962D01*
X90287299Y-79628026D01*
X90292553Y-79598770D01*
X90299769Y-79580748D01*
X90309550Y-79569511D01*
X90312688Y-79567079D01*
X90360239Y-79548083D01*
X90408303Y-79555600D01*
X90436914Y-79575543D01*
X90448553Y-79589675D01*
X90456609Y-79608220D01*
X90461729Y-79636334D01*
X90464559Y-79679173D01*
X90465744Y-79741895D01*
X90465943Y-79807261D01*
X90465982Y-79889268D01*
X90467386Y-79947316D01*
X90472086Y-79986465D01*
X90482013Y-80011780D01*
X90499097Y-80028323D01*
X90525268Y-80041156D01*
X90560225Y-80054491D01*
X90598404Y-80069007D01*
X90593859Y-79811389D01*
X90592029Y-79718519D01*
X90589888Y-79649889D01*
X90586819Y-79600711D01*
X90582206Y-79566198D01*
X90575432Y-79541562D01*
X90565881Y-79522016D01*
X90554366Y-79504770D01*
X90498810Y-79449680D01*
X90431020Y-79417822D01*
X90357287Y-79410191D01*
X90283907Y-79427780D01*
X90283907Y-79427780D01*
G37*
X90283907Y-79427780D02*
X90237328Y-79454723D01*
X90204943Y-79481466D01*
X90181258Y-79509484D01*
X90164941Y-79543748D01*
X90154661Y-79589227D01*
X90149086Y-79650892D01*
X90146884Y-79733711D01*
X90146629Y-79793246D01*
X90146629Y-80012391D01*
X90208314Y-80040044D01*
X90270000Y-80067697D01*
X90277257Y-79827670D01*
X90280256Y-79738028D01*
X90283402Y-79672962D01*
X90287299Y-79628026D01*
X90292553Y-79598770D01*
X90299769Y-79580748D01*
X90309550Y-79569511D01*
X90312688Y-79567079D01*
X90360239Y-79548083D01*
X90408303Y-79555600D01*
X90436914Y-79575543D01*
X90448553Y-79589675D01*
X90456609Y-79608220D01*
X90461729Y-79636334D01*
X90464559Y-79679173D01*
X90465744Y-79741895D01*
X90465943Y-79807261D01*
X90465982Y-79889268D01*
X90467386Y-79947316D01*
X90472086Y-79986465D01*
X90482013Y-80011780D01*
X90499097Y-80028323D01*
X90525268Y-80041156D01*
X90560225Y-80054491D01*
X90598404Y-80069007D01*
X90593859Y-79811389D01*
X90592029Y-79718519D01*
X90589888Y-79649889D01*
X90586819Y-79600711D01*
X90582206Y-79566198D01*
X90575432Y-79541562D01*
X90565881Y-79522016D01*
X90554366Y-79504770D01*
X90498810Y-79449680D01*
X90431020Y-79417822D01*
X90357287Y-79410191D01*
X90283907Y-79427780D01*
G36*
X91400256Y-79419918D02*
G01*
X91344799Y-79447568D01*
X91295852Y-79498480D01*
X91282371Y-79517338D01*
X91267686Y-79542015D01*
X91258158Y-79568816D01*
X91252707Y-79604587D01*
X91250253Y-79656169D01*
X91249714Y-79724267D01*
X91252148Y-79817588D01*
X91260606Y-79887657D01*
X91276826Y-79939931D01*
X91302546Y-79979869D01*
X91339503Y-80012929D01*
X91342218Y-80014886D01*
X91378640Y-80034908D01*
X91422498Y-80044815D01*
X91478276Y-80047257D01*
X91568952Y-80047257D01*
X91568990Y-80135283D01*
X91569834Y-80184308D01*
X91574976Y-80213065D01*
X91588413Y-80230311D01*
X91614142Y-80244808D01*
X91620321Y-80247769D01*
X91649236Y-80261648D01*
X91671624Y-80270414D01*
X91688271Y-80271171D01*
X91699964Y-80261023D01*
X91707490Y-80237073D01*
X91711634Y-80196426D01*
X91713185Y-80136186D01*
X91712929Y-80053455D01*
X91711651Y-79945339D01*
X91711252Y-79913000D01*
X91709815Y-79801524D01*
X91708528Y-79728603D01*
X91569029Y-79728603D01*
X91568245Y-79790499D01*
X91564760Y-79830997D01*
X91556876Y-79857708D01*
X91542895Y-79878244D01*
X91533403Y-79888260D01*
X91494596Y-79917567D01*
X91460237Y-79919952D01*
X91424784Y-79895750D01*
X91423886Y-79894857D01*
X91409461Y-79876153D01*
X91400687Y-79850732D01*
X91396261Y-79811584D01*
X91394882Y-79751697D01*
X91394857Y-79738430D01*
X91398188Y-79655901D01*
X91409031Y-79598691D01*
X91428660Y-79563766D01*
X91458350Y-79548094D01*
X91475509Y-79546514D01*
X91516234Y-79553926D01*
X91544168Y-79578330D01*
X91560983Y-79622980D01*
X91568350Y-79691130D01*
X91569029Y-79728603D01*
X91708528Y-79728603D01*
X91708292Y-79715245D01*
X91706323Y-79650333D01*
X91703550Y-79602958D01*
X91699612Y-79569290D01*
X91694151Y-79545498D01*
X91686808Y-79527753D01*
X91677223Y-79512224D01*
X91673113Y-79506381D01*
X91618595Y-79451185D01*
X91549664Y-79419890D01*
X91469928Y-79411165D01*
X91400256Y-79419918D01*
X91400256Y-79419918D01*
G37*
X91400256Y-79419918D02*
X91344799Y-79447568D01*
X91295852Y-79498480D01*
X91282371Y-79517338D01*
X91267686Y-79542015D01*
X91258158Y-79568816D01*
X91252707Y-79604587D01*
X91250253Y-79656169D01*
X91249714Y-79724267D01*
X91252148Y-79817588D01*
X91260606Y-79887657D01*
X91276826Y-79939931D01*
X91302546Y-79979869D01*
X91339503Y-80012929D01*
X91342218Y-80014886D01*
X91378640Y-80034908D01*
X91422498Y-80044815D01*
X91478276Y-80047257D01*
X91568952Y-80047257D01*
X91568990Y-80135283D01*
X91569834Y-80184308D01*
X91574976Y-80213065D01*
X91588413Y-80230311D01*
X91614142Y-80244808D01*
X91620321Y-80247769D01*
X91649236Y-80261648D01*
X91671624Y-80270414D01*
X91688271Y-80271171D01*
X91699964Y-80261023D01*
X91707490Y-80237073D01*
X91711634Y-80196426D01*
X91713185Y-80136186D01*
X91712929Y-80053455D01*
X91711651Y-79945339D01*
X91711252Y-79913000D01*
X91709815Y-79801524D01*
X91708528Y-79728603D01*
X91569029Y-79728603D01*
X91568245Y-79790499D01*
X91564760Y-79830997D01*
X91556876Y-79857708D01*
X91542895Y-79878244D01*
X91533403Y-79888260D01*
X91494596Y-79917567D01*
X91460237Y-79919952D01*
X91424784Y-79895750D01*
X91423886Y-79894857D01*
X91409461Y-79876153D01*
X91400687Y-79850732D01*
X91396261Y-79811584D01*
X91394882Y-79751697D01*
X91394857Y-79738430D01*
X91398188Y-79655901D01*
X91409031Y-79598691D01*
X91428660Y-79563766D01*
X91458350Y-79548094D01*
X91475509Y-79546514D01*
X91516234Y-79553926D01*
X91544168Y-79578330D01*
X91560983Y-79622980D01*
X91568350Y-79691130D01*
X91569029Y-79728603D01*
X91708528Y-79728603D01*
X91708292Y-79715245D01*
X91706323Y-79650333D01*
X91703550Y-79602958D01*
X91699612Y-79569290D01*
X91694151Y-79545498D01*
X91686808Y-79527753D01*
X91677223Y-79512224D01*
X91673113Y-79506381D01*
X91618595Y-79451185D01*
X91549664Y-79419890D01*
X91469928Y-79411165D01*
X91400256Y-79419918D01*
M02*
