G04 #@! TF.GenerationSoftware,KiCad,Pcbnew,(5.1.2-1)-1*
G04 #@! TF.CreationDate,2019-07-25T11:00:41+03:00*
G04 #@! TF.ProjectId,220_to_5v_charger,3232305f-746f-45f3-9576-5f6368617267,rev?*
G04 #@! TF.SameCoordinates,Original*
G04 #@! TF.FileFunction,Paste,Top*
G04 #@! TF.FilePolarity,Positive*
%FSLAX46Y46*%
G04 Gerber Fmt 4.6, Leading zero omitted, Abs format (unit mm)*
G04 Created by KiCad (PCBNEW (5.1.2-1)-1) date 2019-07-25 11:00:41*
%MOMM*%
%LPD*%
G04 APERTURE LIST*
%ADD10R,4.000000X0.900000*%
%ADD11C,0.100000*%
%ADD12C,1.150000*%
%ADD13C,1.600000*%
%ADD14R,0.700000X1.000000*%
%ADD15R,1.000000X1.000000*%
%ADD16R,2.900000X5.400000*%
%ADD17R,5.250000X4.550000*%
%ADD18R,1.100000X4.600000*%
G04 APERTURE END LIST*
D10*
X116300000Y-75650000D03*
X116300000Y-78150000D03*
X116300000Y-80150000D03*
X116300000Y-82650000D03*
D11*
G36*
X97474505Y-101576204D02*
G01*
X97498773Y-101579804D01*
X97522572Y-101585765D01*
X97545671Y-101594030D01*
X97567850Y-101604520D01*
X97588893Y-101617132D01*
X97608599Y-101631747D01*
X97626777Y-101648223D01*
X97643253Y-101666401D01*
X97657868Y-101686107D01*
X97670480Y-101707150D01*
X97680970Y-101729329D01*
X97689235Y-101752428D01*
X97695196Y-101776227D01*
X97698796Y-101800495D01*
X97700000Y-101824999D01*
X97700000Y-102475001D01*
X97698796Y-102499505D01*
X97695196Y-102523773D01*
X97689235Y-102547572D01*
X97680970Y-102570671D01*
X97670480Y-102592850D01*
X97657868Y-102613893D01*
X97643253Y-102633599D01*
X97626777Y-102651777D01*
X97608599Y-102668253D01*
X97588893Y-102682868D01*
X97567850Y-102695480D01*
X97545671Y-102705970D01*
X97522572Y-102714235D01*
X97498773Y-102720196D01*
X97474505Y-102723796D01*
X97450001Y-102725000D01*
X96549999Y-102725000D01*
X96525495Y-102723796D01*
X96501227Y-102720196D01*
X96477428Y-102714235D01*
X96454329Y-102705970D01*
X96432150Y-102695480D01*
X96411107Y-102682868D01*
X96391401Y-102668253D01*
X96373223Y-102651777D01*
X96356747Y-102633599D01*
X96342132Y-102613893D01*
X96329520Y-102592850D01*
X96319030Y-102570671D01*
X96310765Y-102547572D01*
X96304804Y-102523773D01*
X96301204Y-102499505D01*
X96300000Y-102475001D01*
X96300000Y-101824999D01*
X96301204Y-101800495D01*
X96304804Y-101776227D01*
X96310765Y-101752428D01*
X96319030Y-101729329D01*
X96329520Y-101707150D01*
X96342132Y-101686107D01*
X96356747Y-101666401D01*
X96373223Y-101648223D01*
X96391401Y-101631747D01*
X96411107Y-101617132D01*
X96432150Y-101604520D01*
X96454329Y-101594030D01*
X96477428Y-101585765D01*
X96501227Y-101579804D01*
X96525495Y-101576204D01*
X96549999Y-101575000D01*
X97450001Y-101575000D01*
X97474505Y-101576204D01*
X97474505Y-101576204D01*
G37*
D12*
X97000000Y-102150000D03*
D11*
G36*
X97474505Y-99526204D02*
G01*
X97498773Y-99529804D01*
X97522572Y-99535765D01*
X97545671Y-99544030D01*
X97567850Y-99554520D01*
X97588893Y-99567132D01*
X97608599Y-99581747D01*
X97626777Y-99598223D01*
X97643253Y-99616401D01*
X97657868Y-99636107D01*
X97670480Y-99657150D01*
X97680970Y-99679329D01*
X97689235Y-99702428D01*
X97695196Y-99726227D01*
X97698796Y-99750495D01*
X97700000Y-99774999D01*
X97700000Y-100425001D01*
X97698796Y-100449505D01*
X97695196Y-100473773D01*
X97689235Y-100497572D01*
X97680970Y-100520671D01*
X97670480Y-100542850D01*
X97657868Y-100563893D01*
X97643253Y-100583599D01*
X97626777Y-100601777D01*
X97608599Y-100618253D01*
X97588893Y-100632868D01*
X97567850Y-100645480D01*
X97545671Y-100655970D01*
X97522572Y-100664235D01*
X97498773Y-100670196D01*
X97474505Y-100673796D01*
X97450001Y-100675000D01*
X96549999Y-100675000D01*
X96525495Y-100673796D01*
X96501227Y-100670196D01*
X96477428Y-100664235D01*
X96454329Y-100655970D01*
X96432150Y-100645480D01*
X96411107Y-100632868D01*
X96391401Y-100618253D01*
X96373223Y-100601777D01*
X96356747Y-100583599D01*
X96342132Y-100563893D01*
X96329520Y-100542850D01*
X96319030Y-100520671D01*
X96310765Y-100497572D01*
X96304804Y-100473773D01*
X96301204Y-100449505D01*
X96300000Y-100425001D01*
X96300000Y-99774999D01*
X96301204Y-99750495D01*
X96304804Y-99726227D01*
X96310765Y-99702428D01*
X96319030Y-99679329D01*
X96329520Y-99657150D01*
X96342132Y-99636107D01*
X96356747Y-99616401D01*
X96373223Y-99598223D01*
X96391401Y-99581747D01*
X96411107Y-99567132D01*
X96432150Y-99554520D01*
X96454329Y-99544030D01*
X96477428Y-99535765D01*
X96501227Y-99529804D01*
X96525495Y-99526204D01*
X96549999Y-99525000D01*
X97450001Y-99525000D01*
X97474505Y-99526204D01*
X97474505Y-99526204D01*
G37*
D12*
X97000000Y-100100000D03*
D11*
G36*
X116037004Y-111251204D02*
G01*
X116061273Y-111254804D01*
X116085071Y-111260765D01*
X116108171Y-111269030D01*
X116130349Y-111279520D01*
X116151393Y-111292133D01*
X116171098Y-111306747D01*
X116189277Y-111323223D01*
X116205753Y-111341402D01*
X116220367Y-111361107D01*
X116232980Y-111382151D01*
X116243470Y-111404329D01*
X116251735Y-111427429D01*
X116257696Y-111451227D01*
X116261296Y-111475496D01*
X116262500Y-111500000D01*
X116262500Y-112600000D01*
X116261296Y-112624504D01*
X116257696Y-112648773D01*
X116251735Y-112672571D01*
X116243470Y-112695671D01*
X116232980Y-112717849D01*
X116220367Y-112738893D01*
X116205753Y-112758598D01*
X116189277Y-112776777D01*
X116171098Y-112793253D01*
X116151393Y-112807867D01*
X116130349Y-112820480D01*
X116108171Y-112830970D01*
X116085071Y-112839235D01*
X116061273Y-112845196D01*
X116037004Y-112848796D01*
X116012500Y-112850000D01*
X113187500Y-112850000D01*
X113162996Y-112848796D01*
X113138727Y-112845196D01*
X113114929Y-112839235D01*
X113091829Y-112830970D01*
X113069651Y-112820480D01*
X113048607Y-112807867D01*
X113028902Y-112793253D01*
X113010723Y-112776777D01*
X112994247Y-112758598D01*
X112979633Y-112738893D01*
X112967020Y-112717849D01*
X112956530Y-112695671D01*
X112948265Y-112672571D01*
X112942304Y-112648773D01*
X112938704Y-112624504D01*
X112937500Y-112600000D01*
X112937500Y-111500000D01*
X112938704Y-111475496D01*
X112942304Y-111451227D01*
X112948265Y-111427429D01*
X112956530Y-111404329D01*
X112967020Y-111382151D01*
X112979633Y-111361107D01*
X112994247Y-111341402D01*
X113010723Y-111323223D01*
X113028902Y-111306747D01*
X113048607Y-111292133D01*
X113069651Y-111279520D01*
X113091829Y-111269030D01*
X113114929Y-111260765D01*
X113138727Y-111254804D01*
X113162996Y-111251204D01*
X113187500Y-111250000D01*
X116012500Y-111250000D01*
X116037004Y-111251204D01*
X116037004Y-111251204D01*
G37*
D13*
X114600000Y-112050000D03*
D11*
G36*
X110962004Y-111251204D02*
G01*
X110986273Y-111254804D01*
X111010071Y-111260765D01*
X111033171Y-111269030D01*
X111055349Y-111279520D01*
X111076393Y-111292133D01*
X111096098Y-111306747D01*
X111114277Y-111323223D01*
X111130753Y-111341402D01*
X111145367Y-111361107D01*
X111157980Y-111382151D01*
X111168470Y-111404329D01*
X111176735Y-111427429D01*
X111182696Y-111451227D01*
X111186296Y-111475496D01*
X111187500Y-111500000D01*
X111187500Y-112600000D01*
X111186296Y-112624504D01*
X111182696Y-112648773D01*
X111176735Y-112672571D01*
X111168470Y-112695671D01*
X111157980Y-112717849D01*
X111145367Y-112738893D01*
X111130753Y-112758598D01*
X111114277Y-112776777D01*
X111096098Y-112793253D01*
X111076393Y-112807867D01*
X111055349Y-112820480D01*
X111033171Y-112830970D01*
X111010071Y-112839235D01*
X110986273Y-112845196D01*
X110962004Y-112848796D01*
X110937500Y-112850000D01*
X108112500Y-112850000D01*
X108087996Y-112848796D01*
X108063727Y-112845196D01*
X108039929Y-112839235D01*
X108016829Y-112830970D01*
X107994651Y-112820480D01*
X107973607Y-112807867D01*
X107953902Y-112793253D01*
X107935723Y-112776777D01*
X107919247Y-112758598D01*
X107904633Y-112738893D01*
X107892020Y-112717849D01*
X107881530Y-112695671D01*
X107873265Y-112672571D01*
X107867304Y-112648773D01*
X107863704Y-112624504D01*
X107862500Y-112600000D01*
X107862500Y-111500000D01*
X107863704Y-111475496D01*
X107867304Y-111451227D01*
X107873265Y-111427429D01*
X107881530Y-111404329D01*
X107892020Y-111382151D01*
X107904633Y-111361107D01*
X107919247Y-111341402D01*
X107935723Y-111323223D01*
X107953902Y-111306747D01*
X107973607Y-111292133D01*
X107994651Y-111279520D01*
X108016829Y-111269030D01*
X108039929Y-111260765D01*
X108063727Y-111254804D01*
X108087996Y-111251204D01*
X108112500Y-111250000D01*
X110937500Y-111250000D01*
X110962004Y-111251204D01*
X110962004Y-111251204D01*
G37*
D13*
X109525000Y-112050000D03*
D11*
G36*
X100399505Y-76301204D02*
G01*
X100423773Y-76304804D01*
X100447572Y-76310765D01*
X100470671Y-76319030D01*
X100492850Y-76329520D01*
X100513893Y-76342132D01*
X100533599Y-76356747D01*
X100551777Y-76373223D01*
X100568253Y-76391401D01*
X100582868Y-76411107D01*
X100595480Y-76432150D01*
X100605970Y-76454329D01*
X100614235Y-76477428D01*
X100620196Y-76501227D01*
X100623796Y-76525495D01*
X100625000Y-76549999D01*
X100625000Y-77450001D01*
X100623796Y-77474505D01*
X100620196Y-77498773D01*
X100614235Y-77522572D01*
X100605970Y-77545671D01*
X100595480Y-77567850D01*
X100582868Y-77588893D01*
X100568253Y-77608599D01*
X100551777Y-77626777D01*
X100533599Y-77643253D01*
X100513893Y-77657868D01*
X100492850Y-77670480D01*
X100470671Y-77680970D01*
X100447572Y-77689235D01*
X100423773Y-77695196D01*
X100399505Y-77698796D01*
X100375001Y-77700000D01*
X99724999Y-77700000D01*
X99700495Y-77698796D01*
X99676227Y-77695196D01*
X99652428Y-77689235D01*
X99629329Y-77680970D01*
X99607150Y-77670480D01*
X99586107Y-77657868D01*
X99566401Y-77643253D01*
X99548223Y-77626777D01*
X99531747Y-77608599D01*
X99517132Y-77588893D01*
X99504520Y-77567850D01*
X99494030Y-77545671D01*
X99485765Y-77522572D01*
X99479804Y-77498773D01*
X99476204Y-77474505D01*
X99475000Y-77450001D01*
X99475000Y-76549999D01*
X99476204Y-76525495D01*
X99479804Y-76501227D01*
X99485765Y-76477428D01*
X99494030Y-76454329D01*
X99504520Y-76432150D01*
X99517132Y-76411107D01*
X99531747Y-76391401D01*
X99548223Y-76373223D01*
X99566401Y-76356747D01*
X99586107Y-76342132D01*
X99607150Y-76329520D01*
X99629329Y-76319030D01*
X99652428Y-76310765D01*
X99676227Y-76304804D01*
X99700495Y-76301204D01*
X99724999Y-76300000D01*
X100375001Y-76300000D01*
X100399505Y-76301204D01*
X100399505Y-76301204D01*
G37*
D12*
X100050000Y-77000000D03*
D11*
G36*
X98349505Y-76301204D02*
G01*
X98373773Y-76304804D01*
X98397572Y-76310765D01*
X98420671Y-76319030D01*
X98442850Y-76329520D01*
X98463893Y-76342132D01*
X98483599Y-76356747D01*
X98501777Y-76373223D01*
X98518253Y-76391401D01*
X98532868Y-76411107D01*
X98545480Y-76432150D01*
X98555970Y-76454329D01*
X98564235Y-76477428D01*
X98570196Y-76501227D01*
X98573796Y-76525495D01*
X98575000Y-76549999D01*
X98575000Y-77450001D01*
X98573796Y-77474505D01*
X98570196Y-77498773D01*
X98564235Y-77522572D01*
X98555970Y-77545671D01*
X98545480Y-77567850D01*
X98532868Y-77588893D01*
X98518253Y-77608599D01*
X98501777Y-77626777D01*
X98483599Y-77643253D01*
X98463893Y-77657868D01*
X98442850Y-77670480D01*
X98420671Y-77680970D01*
X98397572Y-77689235D01*
X98373773Y-77695196D01*
X98349505Y-77698796D01*
X98325001Y-77700000D01*
X97674999Y-77700000D01*
X97650495Y-77698796D01*
X97626227Y-77695196D01*
X97602428Y-77689235D01*
X97579329Y-77680970D01*
X97557150Y-77670480D01*
X97536107Y-77657868D01*
X97516401Y-77643253D01*
X97498223Y-77626777D01*
X97481747Y-77608599D01*
X97467132Y-77588893D01*
X97454520Y-77567850D01*
X97444030Y-77545671D01*
X97435765Y-77522572D01*
X97429804Y-77498773D01*
X97426204Y-77474505D01*
X97425000Y-77450001D01*
X97425000Y-76549999D01*
X97426204Y-76525495D01*
X97429804Y-76501227D01*
X97435765Y-76477428D01*
X97444030Y-76454329D01*
X97454520Y-76432150D01*
X97467132Y-76411107D01*
X97481747Y-76391401D01*
X97498223Y-76373223D01*
X97516401Y-76356747D01*
X97536107Y-76342132D01*
X97557150Y-76329520D01*
X97579329Y-76319030D01*
X97602428Y-76310765D01*
X97626227Y-76304804D01*
X97650495Y-76301204D01*
X97674999Y-76300000D01*
X98325001Y-76300000D01*
X98349505Y-76301204D01*
X98349505Y-76301204D01*
G37*
D12*
X98000000Y-77000000D03*
D11*
G36*
X114974505Y-96876204D02*
G01*
X114998773Y-96879804D01*
X115022572Y-96885765D01*
X115045671Y-96894030D01*
X115067850Y-96904520D01*
X115088893Y-96917132D01*
X115108599Y-96931747D01*
X115126777Y-96948223D01*
X115143253Y-96966401D01*
X115157868Y-96986107D01*
X115170480Y-97007150D01*
X115180970Y-97029329D01*
X115189235Y-97052428D01*
X115195196Y-97076227D01*
X115198796Y-97100495D01*
X115200000Y-97124999D01*
X115200000Y-97775001D01*
X115198796Y-97799505D01*
X115195196Y-97823773D01*
X115189235Y-97847572D01*
X115180970Y-97870671D01*
X115170480Y-97892850D01*
X115157868Y-97913893D01*
X115143253Y-97933599D01*
X115126777Y-97951777D01*
X115108599Y-97968253D01*
X115088893Y-97982868D01*
X115067850Y-97995480D01*
X115045671Y-98005970D01*
X115022572Y-98014235D01*
X114998773Y-98020196D01*
X114974505Y-98023796D01*
X114950001Y-98025000D01*
X114049999Y-98025000D01*
X114025495Y-98023796D01*
X114001227Y-98020196D01*
X113977428Y-98014235D01*
X113954329Y-98005970D01*
X113932150Y-97995480D01*
X113911107Y-97982868D01*
X113891401Y-97968253D01*
X113873223Y-97951777D01*
X113856747Y-97933599D01*
X113842132Y-97913893D01*
X113829520Y-97892850D01*
X113819030Y-97870671D01*
X113810765Y-97847572D01*
X113804804Y-97823773D01*
X113801204Y-97799505D01*
X113800000Y-97775001D01*
X113800000Y-97124999D01*
X113801204Y-97100495D01*
X113804804Y-97076227D01*
X113810765Y-97052428D01*
X113819030Y-97029329D01*
X113829520Y-97007150D01*
X113842132Y-96986107D01*
X113856747Y-96966401D01*
X113873223Y-96948223D01*
X113891401Y-96931747D01*
X113911107Y-96917132D01*
X113932150Y-96904520D01*
X113954329Y-96894030D01*
X113977428Y-96885765D01*
X114001227Y-96879804D01*
X114025495Y-96876204D01*
X114049999Y-96875000D01*
X114950001Y-96875000D01*
X114974505Y-96876204D01*
X114974505Y-96876204D01*
G37*
D12*
X114500000Y-97450000D03*
D11*
G36*
X114974505Y-98926204D02*
G01*
X114998773Y-98929804D01*
X115022572Y-98935765D01*
X115045671Y-98944030D01*
X115067850Y-98954520D01*
X115088893Y-98967132D01*
X115108599Y-98981747D01*
X115126777Y-98998223D01*
X115143253Y-99016401D01*
X115157868Y-99036107D01*
X115170480Y-99057150D01*
X115180970Y-99079329D01*
X115189235Y-99102428D01*
X115195196Y-99126227D01*
X115198796Y-99150495D01*
X115200000Y-99174999D01*
X115200000Y-99825001D01*
X115198796Y-99849505D01*
X115195196Y-99873773D01*
X115189235Y-99897572D01*
X115180970Y-99920671D01*
X115170480Y-99942850D01*
X115157868Y-99963893D01*
X115143253Y-99983599D01*
X115126777Y-100001777D01*
X115108599Y-100018253D01*
X115088893Y-100032868D01*
X115067850Y-100045480D01*
X115045671Y-100055970D01*
X115022572Y-100064235D01*
X114998773Y-100070196D01*
X114974505Y-100073796D01*
X114950001Y-100075000D01*
X114049999Y-100075000D01*
X114025495Y-100073796D01*
X114001227Y-100070196D01*
X113977428Y-100064235D01*
X113954329Y-100055970D01*
X113932150Y-100045480D01*
X113911107Y-100032868D01*
X113891401Y-100018253D01*
X113873223Y-100001777D01*
X113856747Y-99983599D01*
X113842132Y-99963893D01*
X113829520Y-99942850D01*
X113819030Y-99920671D01*
X113810765Y-99897572D01*
X113804804Y-99873773D01*
X113801204Y-99849505D01*
X113800000Y-99825001D01*
X113800000Y-99174999D01*
X113801204Y-99150495D01*
X113804804Y-99126227D01*
X113810765Y-99102428D01*
X113819030Y-99079329D01*
X113829520Y-99057150D01*
X113842132Y-99036107D01*
X113856747Y-99016401D01*
X113873223Y-98998223D01*
X113891401Y-98981747D01*
X113911107Y-98967132D01*
X113932150Y-98954520D01*
X113954329Y-98944030D01*
X113977428Y-98935765D01*
X114001227Y-98929804D01*
X114025495Y-98926204D01*
X114049999Y-98925000D01*
X114950001Y-98925000D01*
X114974505Y-98926204D01*
X114974505Y-98926204D01*
G37*
D12*
X114500000Y-99500000D03*
D11*
G36*
X110162004Y-76601204D02*
G01*
X110186273Y-76604804D01*
X110210071Y-76610765D01*
X110233171Y-76619030D01*
X110255349Y-76629520D01*
X110276393Y-76642133D01*
X110296098Y-76656747D01*
X110314277Y-76673223D01*
X110330753Y-76691402D01*
X110345367Y-76711107D01*
X110357980Y-76732151D01*
X110368470Y-76754329D01*
X110376735Y-76777429D01*
X110382696Y-76801227D01*
X110386296Y-76825496D01*
X110387500Y-76850000D01*
X110387500Y-77950000D01*
X110386296Y-77974504D01*
X110382696Y-77998773D01*
X110376735Y-78022571D01*
X110368470Y-78045671D01*
X110357980Y-78067849D01*
X110345367Y-78088893D01*
X110330753Y-78108598D01*
X110314277Y-78126777D01*
X110296098Y-78143253D01*
X110276393Y-78157867D01*
X110255349Y-78170480D01*
X110233171Y-78180970D01*
X110210071Y-78189235D01*
X110186273Y-78195196D01*
X110162004Y-78198796D01*
X110137500Y-78200000D01*
X107862500Y-78200000D01*
X107837996Y-78198796D01*
X107813727Y-78195196D01*
X107789929Y-78189235D01*
X107766829Y-78180970D01*
X107744651Y-78170480D01*
X107723607Y-78157867D01*
X107703902Y-78143253D01*
X107685723Y-78126777D01*
X107669247Y-78108598D01*
X107654633Y-78088893D01*
X107642020Y-78067849D01*
X107631530Y-78045671D01*
X107623265Y-78022571D01*
X107617304Y-77998773D01*
X107613704Y-77974504D01*
X107612500Y-77950000D01*
X107612500Y-76850000D01*
X107613704Y-76825496D01*
X107617304Y-76801227D01*
X107623265Y-76777429D01*
X107631530Y-76754329D01*
X107642020Y-76732151D01*
X107654633Y-76711107D01*
X107669247Y-76691402D01*
X107685723Y-76673223D01*
X107703902Y-76656747D01*
X107723607Y-76642133D01*
X107744651Y-76629520D01*
X107766829Y-76619030D01*
X107789929Y-76610765D01*
X107813727Y-76604804D01*
X107837996Y-76601204D01*
X107862500Y-76600000D01*
X110137500Y-76600000D01*
X110162004Y-76601204D01*
X110162004Y-76601204D01*
G37*
D13*
X109000000Y-77400000D03*
D11*
G36*
X106037004Y-76601204D02*
G01*
X106061273Y-76604804D01*
X106085071Y-76610765D01*
X106108171Y-76619030D01*
X106130349Y-76629520D01*
X106151393Y-76642133D01*
X106171098Y-76656747D01*
X106189277Y-76673223D01*
X106205753Y-76691402D01*
X106220367Y-76711107D01*
X106232980Y-76732151D01*
X106243470Y-76754329D01*
X106251735Y-76777429D01*
X106257696Y-76801227D01*
X106261296Y-76825496D01*
X106262500Y-76850000D01*
X106262500Y-77950000D01*
X106261296Y-77974504D01*
X106257696Y-77998773D01*
X106251735Y-78022571D01*
X106243470Y-78045671D01*
X106232980Y-78067849D01*
X106220367Y-78088893D01*
X106205753Y-78108598D01*
X106189277Y-78126777D01*
X106171098Y-78143253D01*
X106151393Y-78157867D01*
X106130349Y-78170480D01*
X106108171Y-78180970D01*
X106085071Y-78189235D01*
X106061273Y-78195196D01*
X106037004Y-78198796D01*
X106012500Y-78200000D01*
X103737500Y-78200000D01*
X103712996Y-78198796D01*
X103688727Y-78195196D01*
X103664929Y-78189235D01*
X103641829Y-78180970D01*
X103619651Y-78170480D01*
X103598607Y-78157867D01*
X103578902Y-78143253D01*
X103560723Y-78126777D01*
X103544247Y-78108598D01*
X103529633Y-78088893D01*
X103517020Y-78067849D01*
X103506530Y-78045671D01*
X103498265Y-78022571D01*
X103492304Y-77998773D01*
X103488704Y-77974504D01*
X103487500Y-77950000D01*
X103487500Y-76850000D01*
X103488704Y-76825496D01*
X103492304Y-76801227D01*
X103498265Y-76777429D01*
X103506530Y-76754329D01*
X103517020Y-76732151D01*
X103529633Y-76711107D01*
X103544247Y-76691402D01*
X103560723Y-76673223D01*
X103578902Y-76656747D01*
X103598607Y-76642133D01*
X103619651Y-76629520D01*
X103641829Y-76619030D01*
X103664929Y-76610765D01*
X103688727Y-76604804D01*
X103712996Y-76601204D01*
X103737500Y-76600000D01*
X106012500Y-76600000D01*
X106037004Y-76601204D01*
X106037004Y-76601204D01*
G37*
D13*
X104875000Y-77400000D03*
D11*
G36*
X88437004Y-77151204D02*
G01*
X88461273Y-77154804D01*
X88485071Y-77160765D01*
X88508171Y-77169030D01*
X88530349Y-77179520D01*
X88551393Y-77192133D01*
X88571098Y-77206747D01*
X88589277Y-77223223D01*
X88605753Y-77241402D01*
X88620367Y-77261107D01*
X88632980Y-77282151D01*
X88643470Y-77304329D01*
X88651735Y-77327429D01*
X88657696Y-77351227D01*
X88661296Y-77375496D01*
X88662500Y-77400000D01*
X88662500Y-78500000D01*
X88661296Y-78524504D01*
X88657696Y-78548773D01*
X88651735Y-78572571D01*
X88643470Y-78595671D01*
X88632980Y-78617849D01*
X88620367Y-78638893D01*
X88605753Y-78658598D01*
X88589277Y-78676777D01*
X88571098Y-78693253D01*
X88551393Y-78707867D01*
X88530349Y-78720480D01*
X88508171Y-78730970D01*
X88485071Y-78739235D01*
X88461273Y-78745196D01*
X88437004Y-78748796D01*
X88412500Y-78750000D01*
X85587500Y-78750000D01*
X85562996Y-78748796D01*
X85538727Y-78745196D01*
X85514929Y-78739235D01*
X85491829Y-78730970D01*
X85469651Y-78720480D01*
X85448607Y-78707867D01*
X85428902Y-78693253D01*
X85410723Y-78676777D01*
X85394247Y-78658598D01*
X85379633Y-78638893D01*
X85367020Y-78617849D01*
X85356530Y-78595671D01*
X85348265Y-78572571D01*
X85342304Y-78548773D01*
X85338704Y-78524504D01*
X85337500Y-78500000D01*
X85337500Y-77400000D01*
X85338704Y-77375496D01*
X85342304Y-77351227D01*
X85348265Y-77327429D01*
X85356530Y-77304329D01*
X85367020Y-77282151D01*
X85379633Y-77261107D01*
X85394247Y-77241402D01*
X85410723Y-77223223D01*
X85428902Y-77206747D01*
X85448607Y-77192133D01*
X85469651Y-77179520D01*
X85491829Y-77169030D01*
X85514929Y-77160765D01*
X85538727Y-77154804D01*
X85562996Y-77151204D01*
X85587500Y-77150000D01*
X88412500Y-77150000D01*
X88437004Y-77151204D01*
X88437004Y-77151204D01*
G37*
D13*
X87000000Y-77950000D03*
D11*
G36*
X83362004Y-77151204D02*
G01*
X83386273Y-77154804D01*
X83410071Y-77160765D01*
X83433171Y-77169030D01*
X83455349Y-77179520D01*
X83476393Y-77192133D01*
X83496098Y-77206747D01*
X83514277Y-77223223D01*
X83530753Y-77241402D01*
X83545367Y-77261107D01*
X83557980Y-77282151D01*
X83568470Y-77304329D01*
X83576735Y-77327429D01*
X83582696Y-77351227D01*
X83586296Y-77375496D01*
X83587500Y-77400000D01*
X83587500Y-78500000D01*
X83586296Y-78524504D01*
X83582696Y-78548773D01*
X83576735Y-78572571D01*
X83568470Y-78595671D01*
X83557980Y-78617849D01*
X83545367Y-78638893D01*
X83530753Y-78658598D01*
X83514277Y-78676777D01*
X83496098Y-78693253D01*
X83476393Y-78707867D01*
X83455349Y-78720480D01*
X83433171Y-78730970D01*
X83410071Y-78739235D01*
X83386273Y-78745196D01*
X83362004Y-78748796D01*
X83337500Y-78750000D01*
X80512500Y-78750000D01*
X80487996Y-78748796D01*
X80463727Y-78745196D01*
X80439929Y-78739235D01*
X80416829Y-78730970D01*
X80394651Y-78720480D01*
X80373607Y-78707867D01*
X80353902Y-78693253D01*
X80335723Y-78676777D01*
X80319247Y-78658598D01*
X80304633Y-78638893D01*
X80292020Y-78617849D01*
X80281530Y-78595671D01*
X80273265Y-78572571D01*
X80267304Y-78548773D01*
X80263704Y-78524504D01*
X80262500Y-78500000D01*
X80262500Y-77400000D01*
X80263704Y-77375496D01*
X80267304Y-77351227D01*
X80273265Y-77327429D01*
X80281530Y-77304329D01*
X80292020Y-77282151D01*
X80304633Y-77261107D01*
X80319247Y-77241402D01*
X80335723Y-77223223D01*
X80353902Y-77206747D01*
X80373607Y-77192133D01*
X80394651Y-77179520D01*
X80416829Y-77169030D01*
X80439929Y-77160765D01*
X80463727Y-77154804D01*
X80487996Y-77151204D01*
X80512500Y-77150000D01*
X83337500Y-77150000D01*
X83362004Y-77151204D01*
X83362004Y-77151204D01*
G37*
D13*
X81925000Y-77950000D03*
D14*
X93900000Y-106225000D03*
X89900000Y-106225000D03*
X89900000Y-100275000D03*
X93900000Y-100275000D03*
D15*
X91150000Y-77000000D03*
X93650000Y-77000000D03*
D16*
X117900000Y-94750000D03*
X127600000Y-94750000D03*
D17*
X110125000Y-91225000D03*
X104575000Y-86375000D03*
X104575000Y-91225000D03*
X110125000Y-86375000D03*
D18*
X110750000Y-97950000D03*
X109050000Y-97950000D03*
X107350000Y-97950000D03*
X105650000Y-97950000D03*
X103950000Y-97950000D03*
M02*
